<?xml version="1.0" encoding="utf-8" standalone="no"?>
<!DOCTYPE svg PUBLIC "-//W3C//DTD SVG 1.1//EN"
  "http://www.w3.org/Graphics/SVG/1.1/DTD/svg11.dtd">
<svg xmlns:xlink="http://www.w3.org/1999/xlink" width="519.136pt" height="568.113187pt" viewBox="0 0 519.136 568.113187" xmlns="http://www.w3.org/2000/svg" version="1.1">
 <metadata>
  <rdf:RDF xmlns:dc="http://purl.org/dc/elements/1.1/" xmlns:cc="http://creativecommons.org/ns#" xmlns:rdf="http://www.w3.org/1999/02/22-rdf-syntax-ns#">
   <cc:Work>
    <dc:type rdf:resource="http://purl.org/dc/dcmitype/StillImage"/>
    <dc:date>2025-07-22T16:39:57.129150</dc:date>
    <dc:format>image/svg+xml</dc:format>
    <dc:creator>
     <cc:Agent>
      <dc:title>Matplotlib v3.9.2, https://matplotlib.org/</dc:title>
     </cc:Agent>
    </dc:creator>
   </cc:Work>
  </rdf:RDF>
 </metadata>
 <defs>
  <style type="text/css">*{stroke-linejoin: round; stroke-linecap: butt}</style>
 </defs>
 <g id="figure_1">
  <g id="patch_1">
   <path d="M 0 568.113187 
L 519.136 568.113187 
L 519.136 0 
L 0 0 
z
" style="fill: #ffffff"/>
  </g>
  <g id="axes_1">
   <g id="matplotlib.axis_1"/>
   <g id="matplotlib.axis_2"/>
   <g id="patch_2">
    <path d="M 116.807101 165.784288 
C 95.376641 187.214747 79.044221 213.198226 69.025029 241.80146 
C 59.005838 270.404694 55.554685 300.900246 58.928347 331.019136 
C 62.302009 361.138027 72.414688 390.114274 88.513964 415.791939 
C 104.61324 441.469604 126.289677 463.195653 151.930469 479.353591 
C 177.571261 495.511529 206.524313 505.690426 236.635412 509.132937 
C 266.746511 512.575447 297.249874 509.194021 325.875938 499.240248 
C 354.502003 489.286475 380.522753 473.0135 402.00215 451.63209 
C 423.481547 430.250681 439.873328 404.304608 449.957885 375.724355 
L 259.568 308.545187 
z
" style="fill: #f45f74"/>
   </g>
   <g id="patch_3">
    <path d="M 449.957885 375.724355 
C 465.188728 332.559209 465.296378 285.471575 450.263057 242.23724 
C 435.229737 199.002906 405.931155 162.140324 367.205515 137.736774 
C 328.479875 113.333224 282.582993 102.810243 237.094023 107.905538 
C 191.605053 113.000832 149.173782 133.417594 116.807074 165.784315 
L 259.568 308.545187 
z
" style="fill: #00b0be"/>
   </g>
   <g id="patch_4">
    <path d="M 118.520231 167.497419 
C 97.346938 188.670713 81.210506 214.34239 71.311545 242.602385 
C 61.412584 270.86238 58.002845 300.991985 61.336023 330.749449 
C 64.669201 360.506913 74.660528 389.135445 90.566613 414.504978 
C 106.472698 439.874511 127.889017 461.339848 153.22212 477.30389 
C 178.555222 493.267933 207.160837 503.324683 236.910603 506.725884 
C 266.660369 510.127084 296.797691 506.786235 325.080243 496.951907 
C 353.362795 487.11758 379.071296 471.03988 400.29294 449.915047 
C 421.514584 428.790215 437.709664 403.155495 447.673206 374.918205 
L 259.568 308.545187 
z
" style="fill: #f45f74"/>
   </g>
   <g id="patch_5">
    <path d="M 447.673206 374.918205 
C 462.72128 332.271041 462.827638 285.748458 447.974717 243.032936 
C 433.121796 200.317413 404.174797 163.897182 365.913864 139.786475 
C 327.652932 115.675768 282.306813 105.279063 237.363711 110.313213 
C 192.420608 115.347364 150.498513 135.519125 118.520205 167.497445 
L 259.568 308.545187 
z
" style="fill: #00b0be"/>
   </g>
   <g id="patch_6">
    <path d="M 120.233362 169.21055 
C 99.317234 190.126678 83.376791 215.486554 73.598061 243.40331 
C 63.81933 271.320066 60.451004 301.083724 63.743699 330.479762 
C 67.036393 359.875799 76.906368 388.156616 92.619261 413.218017 
C 108.332155 438.279418 129.488357 459.484042 154.51377 475.254189 
C 179.539183 491.024337 207.797362 500.958941 237.185794 504.318831 
C 266.574227 507.678721 296.345509 504.378449 324.284548 494.663567 
C 352.223587 484.948684 377.619839 469.06626 398.58373 448.198005 
C 419.547622 427.329749 435.546 402.006382 445.388527 374.112055 
L 259.568 308.545187 
z
" style="fill: #f45f74"/>
   </g>
   <g id="patch_7">
    <path d="M 445.388527 374.112055 
C 460.253831 331.982873 460.358897 286.025342 445.686376 243.828631 
C 431.013855 201.631921 402.418439 165.65404 364.622214 141.836176 
C 326.82599 118.018311 282.030633 107.747882 237.633398 112.720889 
C 193.236163 117.693897 151.823244 137.620656 120.233336 169.210576 
L 259.568 308.545187 
z
" style="fill: #00b0be"/>
   </g>
   <g id="patch_8">
    <path d="M 121.946493 170.923681 
C 101.28753 191.582643 85.543077 216.630717 75.884576 244.204234 
C 66.226076 271.777752 62.899164 301.175464 66.151374 330.210074 
C 69.403585 359.244685 79.152208 387.177787 94.67191 411.931056 
C 110.191612 436.684325 131.087697 457.628237 155.80542 473.204489 
C 180.523144 488.780741 208.433886 498.593198 237.460985 501.911778 
C 266.488085 505.230358 295.893326 501.970663 323.488852 492.375226 
C 351.084379 482.779789 376.168382 467.09264 396.87452 446.480962 
C 417.580659 425.869283 433.382336 400.857269 443.103849 373.305905 
L 259.568 308.545187 
z
" style="fill: #f45f74"/>
   </g>
   <g id="patch_9">
    <path d="M 443.103849 373.305905 
C 457.786382 331.694704 457.890157 286.302225 443.398035 244.624327 
C 428.905914 202.946428 400.662081 167.410899 363.330564 143.885877 
C 325.999047 120.360855 281.754453 110.216701 237.903086 115.128565 
C 194.051719 120.040429 153.147974 139.722188 121.946467 170.923706 
L 259.568 308.545187 
z
" style="fill: #00b0be"/>
   </g>
   <g id="patch_10">
    <path d="M 123.659624 172.636811 
C 103.257827 193.038609 87.709362 217.774881 78.171092 245.005159 
C 68.632822 272.235438 65.347324 301.267203 68.55905 329.940387 
C 71.770777 358.613571 81.398047 386.198958 96.724558 410.644095 
C 112.051069 435.089232 132.687037 455.772431 157.097071 471.154788 
C 181.507105 486.537144 209.07041 496.227455 237.736176 499.504725 
C 266.401943 502.781995 295.441144 499.562877 322.693157 490.086885 
C 349.945171 480.610893 374.716925 465.119021 395.16531 444.763919 
C 415.613696 424.408817 431.218672 399.708156 440.81917 372.499755 
L 259.568 308.545187 
z
" style="fill: #f45f74"/>
   </g>
   <g id="patch_11">
    <path d="M 440.81917 372.499755 
C 455.318933 331.406536 455.421416 286.579108 441.109695 245.420022 
C 426.797973 204.260935 398.905723 169.167757 362.038914 145.935578 
C 325.172105 122.703398 281.478273 112.685521 238.172774 117.536241 
C 194.867274 122.386961 154.472705 141.823719 123.659598 172.636837 
L 259.568 308.545187 
z
" style="fill: #00b0be"/>
   </g>
   <g id="patch_12">
    <path d="M 125.372755 174.349942 
C 105.228123 194.494574 89.875647 218.919044 80.457608 245.806084 
C 71.039568 272.693123 67.795484 301.358942 70.966726 329.6707 
C 74.137969 357.982457 83.643887 385.220129 98.777207 409.357134 
C 113.910526 433.494139 134.286377 453.916626 158.388721 469.105087 
C 182.491066 484.293548 209.706934 493.861712 238.011367 497.097672 
C 266.315801 500.333632 294.988961 497.155091 321.897462 487.798544 
C 348.805963 478.441998 373.265467 463.145401 393.456101 443.046876 
C 413.646734 422.948351 429.055008 398.559043 438.534492 371.693605 
L 259.568 308.545187 
z
" style="fill: #f45f74"/>
   </g>
   <g id="patch_13">
    <path d="M 438.534492 371.693605 
C 452.851485 331.118368 452.952675 286.855992 438.821354 246.215717 
C 424.690032 205.575443 397.149365 170.924615 360.747264 147.985279 
C 324.345162 125.045942 281.202093 115.15434 238.442461 119.943917 
C 195.68283 124.733493 155.797436 143.92525 125.37273 174.349967 
L 259.568 308.545187 
z
" style="fill: #00b0be"/>
   </g>
   <g id="patch_14">
    <path d="M 127.085885 176.063073 
C 107.198419 195.950539 92.041933 220.063208 82.744123 246.607009 
C 73.446314 273.150809 70.243643 301.450682 73.374402 329.401012 
C 76.50516 357.351343 85.889727 384.2413 100.829855 408.070173 
C 115.769983 431.899046 135.885717 452.06082 159.680372 467.055386 
C 183.475027 482.049952 210.343459 491.495969 238.286559 494.690619 
C 266.229658 497.885269 294.536779 494.747305 321.101767 485.510204 
C 347.666754 476.273102 371.81401 461.171781 391.746891 441.329833 
C 411.679771 421.487885 426.891344 397.40993 436.249813 370.887455 
L 259.568 308.545187 
z
" style="fill: #f45f74"/>
   </g>
   <g id="patch_15">
    <path d="M 436.249813 370.887455 
C 450.384036 330.8302 450.483935 287.132875 436.533013 247.011413 
C 422.582092 206.88995 395.393007 172.681474 359.455614 150.03498 
C 323.51822 127.388485 280.925913 117.623159 238.712149 122.351592 
C 196.498385 127.080026 157.122166 146.026781 127.085861 176.063098 
L 259.568 308.545187 
z
" style="fill: #00b0be"/>
   </g>
   <g id="patch_16">
    <path d="M 128.799016 177.776204 
C 109.168716 197.406504 94.208218 221.207371 85.030639 247.407933 
C 75.85306 273.608495 72.691803 301.542421 75.782078 329.131325 
C 78.872352 356.720229 88.135566 383.262471 102.882503 406.783212 
C 117.62944 430.303953 137.485056 450.205014 160.972022 465.005685 
C 184.458987 479.806356 210.979983 489.130226 238.56175 492.283566 
C 266.143516 495.436905 294.084596 492.339519 320.306071 483.221863 
C 346.527546 474.104207 370.362553 459.198162 390.037681 439.61279 
C 409.712809 420.027419 424.72768 396.260817 433.965134 370.081305 
L 259.568 308.545187 
z
" style="fill: #f45f74"/>
   </g>
   <g id="patch_17">
    <path d="M 433.965134 370.081305 
C 447.916587 330.542031 448.015194 287.409759 434.244673 247.807108 
C 420.474151 208.204457 393.63665 174.438332 358.163963 152.084681 
C 322.691277 129.731029 280.649734 120.091979 238.981837 124.759268 
C 197.31394 129.426558 158.446897 148.128312 128.798992 177.776228 
L 259.568 308.545187 
z
" style="fill: #00b0be"/>
   </g>
   <g id="patch_18">
    <path d="M 130.512147 179.489335 
C 111.139012 198.86247 96.374503 222.351535 87.317155 248.208858 
C 78.259806 274.066181 75.139963 301.63416 78.189754 328.861637 
C 81.239544 356.089114 90.381406 382.283642 104.935152 405.496251 
C 119.488897 428.70886 139.084396 448.349209 162.263672 462.955984 
C 185.442948 477.56276 211.616507 486.764483 238.836941 489.876513 
C 266.057374 492.988542 293.632414 489.931733 319.510376 480.933522 
C 345.388338 471.935312 368.911096 457.224542 388.328471 437.895748 
C 407.745846 418.566954 422.564016 395.111704 431.680456 369.275155 
L 259.568 308.545187 
z
" style="fill: #f45f74"/>
   </g>
   <g id="patch_19">
    <path d="M 431.680456 369.275155 
C 445.449138 330.253863 445.546454 287.686642 431.956332 248.602803 
C 418.36621 209.518965 391.880292 176.195191 356.872313 154.134382 
C 321.864335 132.073572 280.373554 122.560798 239.251525 127.166944 
C 198.129496 131.77309 159.771627 150.229843 130.512123 179.489359 
L 259.568 308.545187 
z
" style="fill: #00b0be"/>
   </g>
   <g id="patch_20">
    <path d="M 132.225278 181.202465 
C 113.109308 200.318435 98.540789 223.495698 89.60367 249.009783 
C 80.666552 274.523867 77.588123 301.7259 80.597429 328.59195 
C 83.606736 355.458 92.627246 381.304812 106.9878 404.20929 
C 121.348354 427.113767 140.683736 446.493403 163.555323 460.906284 
C 186.426909 475.319164 212.253031 484.398741 239.112132 487.46946 
C 265.971232 490.540179 293.180231 487.523947 318.714681 478.645181 
C 344.24913 469.766416 367.459639 455.250922 386.619262 436.178705 
C 405.778884 417.106488 420.400352 393.962591 429.395777 368.469005 
L 259.568 308.545187 
z
" style="fill: #f45f74"/>
   </g>
   <g id="patch_21">
    <path d="M 429.395777 368.469005 
C 442.98169 329.965695 443.077713 287.963525 429.667991 249.398499 
C 416.258269 210.833472 390.123934 177.952049 355.580663 156.184082 
C 321.037392 134.416116 280.097374 125.029617 239.521212 129.57462 
C 198.945051 134.119622 161.096358 152.331374 132.225254 181.202489 
L 259.568 308.545187 
z
" style="fill: #00b0be"/>
   </g>
   <g id="patch_22">
    <path d="M 133.938409 182.915596 
C 115.079604 201.7744 100.707074 224.639862 91.890186 249.810707 
C 83.073298 274.981553 80.036283 301.817639 83.005105 328.322263 
C 85.973928 354.826886 94.873086 380.325983 109.040449 402.922329 
C 123.207812 425.518674 142.283076 444.637598 164.846973 458.856583 
C 187.41087 473.075568 212.889556 482.032998 239.387323 485.062407 
C 265.88509 488.091816 292.728049 485.116161 317.918986 476.356841 
C 343.109922 467.597521 366.008182 453.277302 384.910052 434.461662 
C 403.811921 415.646022 418.236688 392.813478 427.111098 367.662855 
L 259.568 308.545187 
z
" style="fill: #f45f74"/>
   </g>
   <g id="patch_23">
    <path d="M 427.111098 367.662855 
C 440.514241 329.677527 440.608973 288.240409 427.37965 250.194194 
C 414.150328 212.14798 388.367576 179.708907 354.289013 158.233783 
C 320.21045 136.75866 279.821194 127.498437 239.7909 131.982296 
C 199.760606 136.466155 162.421089 154.432905 133.938385 182.91562 
L 259.568 308.545187 
z
" style="fill: #00b0be"/>
   </g>
   <g id="patch_24">
    <path d="M 135.651539 184.628727 
C 117.049901 203.230365 102.873359 225.784025 94.176702 250.611632 
C 85.480044 275.439239 82.484442 301.909378 85.412781 328.052575 
C 88.34112 354.195772 97.118925 379.347154 111.093097 401.635368 
C 125.067269 423.923581 143.882416 442.781792 166.138623 456.806882 
C 188.394831 470.831972 213.52608 479.667255 239.662514 482.655354 
C 265.798948 485.643453 292.275866 482.708375 317.12329 474.0685 
C 341.970714 465.428625 364.556725 451.303683 383.200842 432.744619 
C 401.844959 414.185556 416.073024 391.664365 424.82642 366.856705 
L 259.568 308.545187 
z
" style="fill: #f45f74"/>
   </g>
   <g id="patch_25">
    <path d="M 424.82642 366.856705 
C 438.046792 329.389358 438.140232 288.517292 425.09131 250.989889 
C 412.042387 213.462487 386.611218 181.465766 352.997363 160.283484 
C 319.383507 139.101203 279.545014 129.967256 240.060588 134.389971 
C 200.576162 138.812687 163.745819 156.534437 135.651516 184.62875 
L 259.568 308.545187 
z
" style="fill: #00b0be"/>
   </g>
   <g id="patch_26">
    <path d="M 137.36467 186.341858 
C 119.020197 204.686331 105.039645 226.928189 96.463217 251.412557 
C 87.88679 275.896925 84.932602 302.001117 87.820457 327.782888 
C 90.708312 353.564658 99.364765 378.368325 113.145746 400.348407 
C 126.926726 422.328488 145.481756 440.925986 167.430274 454.757181 
C 189.378792 468.588376 214.162604 477.301512 239.937705 480.248301 
C 265.712806 483.19509 291.823684 480.300589 316.327595 471.780159 
C 340.831506 463.25973 363.105268 449.330063 381.491632 431.027576 
C 399.877996 412.72509 413.909361 390.515252 422.541741 366.050555 
L 259.568 308.545187 
z
" style="fill: #f45f74"/>
   </g>
   <g id="patch_27">
    <path d="M 422.541741 366.050555 
C 435.579343 329.10119 435.671492 288.794175 422.802969 251.785585 
C 409.934447 214.776994 384.85486 183.222624 351.705713 162.333185 
C 318.556565 141.443747 279.268834 132.436075 240.330276 136.797647 
C 201.391717 141.159219 165.07055 158.635968 137.364647 186.341881 
L 259.568 308.545187 
z
" style="fill: #00b0be"/>
   </g>
   <g id="patch_28">
    <path d="M 139.077801 188.054988 
C 120.990493 206.142296 107.20593 228.072352 98.749733 252.213482 
C 90.293536 276.354611 87.380762 302.092857 90.228133 327.5132 
C 93.075504 352.933544 101.610605 377.389496 115.198394 399.061446 
C 128.786183 420.733395 147.081096 439.070181 168.721924 452.70748 
C 190.362753 466.34478 214.799128 474.935769 240.212896 477.841248 
C 265.626663 480.746727 291.371501 477.892803 315.5319 469.491819 
C 339.692298 461.090834 361.653811 447.356443 379.782422 429.310533 
C 397.911033 411.264624 411.745697 389.366139 420.257063 365.244405 
L 259.568 308.545187 
z
" style="fill: #f45f74"/>
   </g>
   <g id="patch_29">
    <path d="M 420.257063 365.244405 
C 433.111895 328.813022 433.202751 289.071059 420.514628 252.58128 
C 407.826506 216.091502 383.098502 184.979482 350.414062 164.382886 
C 317.729622 143.78629 278.992654 134.904895 240.599963 139.205323 
C 202.207273 143.505751 166.39528 160.737499 139.077778 188.055011 
L 259.568 308.545187 
z
" style="fill: #00b0be"/>
   </g>
   <g id="patch_30">
    <path d="M 140.790932 189.768119 
C 122.96079 207.598261 109.372216 229.216516 101.036249 253.014406 
C 92.700282 276.812297 89.828922 302.184596 92.635809 327.243513 
C 95.442696 352.30243 103.856445 376.410667 117.251042 397.774485 
C 130.64564 419.138302 148.680436 437.214375 170.013575 450.657779 
C 191.346713 464.101183 215.435653 472.570026 240.488087 475.434195 
C 265.540521 478.298364 290.919319 475.485017 314.736205 467.203478 
C 338.55309 458.921939 360.202354 445.382823 378.073213 427.593491 
C 395.944071 409.804158 409.582033 388.217026 417.972384 364.438255 
L 259.568 308.545187 
z
" style="fill: #f45f74"/>
   </g>
   <g id="patch_31">
    <path d="M 417.972384 364.438255 
C 430.644446 328.524854 430.734011 289.347942 418.226288 253.376976 
C 405.718565 217.406009 381.342145 186.736341 349.122412 166.432587 
C 316.90268 146.128834 278.716474 137.373714 240.869651 141.612999 
C 203.022828 145.852284 167.720011 162.83903 140.79091 189.768142 
L 259.568 308.545187 
z
" style="fill: #00b0be"/>
   </g>
   <g id="patch_32">
    <path d="M 142.504063 191.48125 
C 124.931086 209.054227 111.538501 230.360679 103.322764 253.815331 
C 95.107028 277.269983 92.277082 302.276335 95.043485 326.973826 
C 97.809888 351.671316 106.102284 375.431838 119.303691 396.487524 
C 132.505097 417.543209 150.279775 435.35857 171.305225 448.608078 
C 192.330674 461.857587 216.072177 470.204283 240.763278 473.027142 
C 265.454379 475.85 290.467136 473.077231 313.940509 464.915137 
C 337.413882 456.753043 358.750897 443.409204 376.364003 425.876448 
C 393.977108 408.343692 407.418369 387.067913 415.687705 363.632105 
L 259.568 308.545187 
z
" style="fill: #f45f74"/>
   </g>
   <g id="patch_33">
    <path d="M 415.687705 363.632105 
C 428.176997 328.236685 428.26527 289.624825 415.937947 254.172671 
C 403.610624 218.720517 379.585787 188.493199 347.830762 168.482288 
C 316.075737 148.471377 278.440294 139.842533 241.139339 144.020675 
C 203.838383 148.198816 169.044742 164.940561 142.504041 191.481272 
L 259.568 308.545187 
z
" style="fill: #00b0be"/>
   </g>
   <g id="patch_34">
    <path d="M 144.217193 193.194381 
C 126.901382 210.510192 113.704786 231.504843 105.60928 254.616256 
C 97.513773 277.727669 94.725241 302.368075 97.45116 326.704138 
C 100.177079 351.040202 108.348124 374.453009 121.356339 395.200562 
C 134.364554 415.948116 151.879115 433.502764 172.596875 446.558378 
C 193.314635 459.613991 216.708701 467.83854 241.038469 470.620089 
C 265.368237 473.401637 290.014954 470.669445 313.144814 462.626796 
C 336.274674 454.584148 357.29944 441.435584 374.654793 424.159405 
C 392.010146 406.883226 405.254705 385.9188 413.403027 362.825955 
L 259.568 308.545187 
z
" style="fill: #f45f74"/>
   </g>
   <g id="patch_35">
    <path d="M 413.403027 362.825955 
C 425.709549 327.948517 425.79653 289.901709 413.649606 254.968366 
C 401.502683 220.035024 377.829429 190.250057 346.539112 170.531989 
C 315.248795 150.813921 278.164114 142.311353 241.409026 146.42835 
C 204.653939 150.545348 170.369472 167.042092 144.217172 193.194402 
L 259.568 308.545187 
z
" style="fill: #00b0be"/>
   </g>
   <g id="patch_36">
    <path d="M 145.930324 194.907512 
C 128.871679 211.966157 115.871072 232.649007 107.895795 255.417181 
C 99.920519 278.185355 97.173401 302.459814 99.858836 326.434451 
C 102.544271 350.409088 110.593964 373.47418 123.408988 393.913601 
C 136.224011 414.353023 153.478455 431.646958 173.888526 444.508677 
C 194.298596 457.370395 217.345225 465.472798 241.31366 468.213036 
C 265.282095 470.953274 289.562771 468.261659 312.349119 460.338456 
C 335.135466 452.415252 355.847983 439.461964 372.945583 422.442362 
C 390.043183 405.42276 403.091041 384.769687 411.118348 362.019805 
L 259.568 308.545187 
z
" style="fill: #f45f74"/>
   </g>
   <g id="patch_37">
    <path d="M 411.118348 362.019805 
C 423.2421 327.660349 423.327789 290.178592 411.361266 255.764062 
C 399.394742 221.349531 376.073071 192.006916 345.247462 172.58169 
C 314.421852 153.156465 277.887934 144.780172 241.678714 148.836026 
C 205.469494 152.89188 171.694203 169.143623 145.930303 194.907533 
L 259.568 308.545187 
z
" style="fill: #00b0be"/>
   </g>
   <g id="patch_38">
    <path d="M 147.643455 196.620642 
C 130.841975 213.422122 118.037357 233.79317 110.182311 256.218105 
C 102.327265 278.64304 99.621561 302.551553 102.266512 326.164763 
C 104.911463 349.777974 112.839804 372.495351 125.461636 392.62664 
C 138.083469 412.75793 155.077795 429.791153 175.180176 442.458976 
C 195.282557 455.126799 217.981749 463.107055 241.588851 465.805983 
C 265.195953 468.504911 289.110589 465.853873 311.553423 458.050115 
C 333.996258 450.246357 354.396526 437.488344 371.236373 420.725319 
C 388.076221 403.962294 400.927377 383.620574 408.83367 361.213655 
L 259.568 308.545187 
z
" style="fill: #f45f74"/>
   </g>
   <g id="patch_39">
    <path d="M 408.83367 361.213655 
C 420.774651 327.372181 420.859048 290.455475 409.072925 256.559757 
C 397.286801 222.664039 374.316713 193.763774 343.955811 174.631391 
C 313.59491 155.499008 277.611754 147.248991 241.948402 151.243702 
C 206.285049 155.238413 173.018933 171.245154 147.643434 196.620663 
L 259.568 308.545187 
z
" style="fill: #00b0be"/>
   </g>
   <g id="patch_40">
    <path d="M 149.356586 198.333773 
C 132.812271 214.878088 120.203642 234.937334 112.468827 257.01903 
C 104.734011 279.100726 102.069721 302.643293 104.674188 325.895076 
C 107.278655 349.14686 115.085643 371.516522 127.514285 391.339679 
C 139.942926 411.162837 156.677135 427.935347 176.471826 440.409275 
C 196.266518 452.883203 218.618274 460.741312 241.864042 463.39893 
C 265.109811 466.056548 288.658406 463.446087 310.757728 455.761774 
C 332.85705 448.077462 352.945069 435.514725 369.527164 419.008276 
C 386.109258 402.501828 398.763713 382.471461 406.548991 360.407505 
L 259.568 308.545187 
z
" style="fill: #f45f74"/>
   </g>
   <g id="patch_41">
    <path d="M 406.548991 360.407505 
C 418.307202 327.084012 418.390308 290.732359 406.784584 257.355452 
C 395.178861 223.978546 372.560355 195.520633 342.664161 176.681092 
C 312.767967 157.841552 277.335575 149.717811 242.21809 153.651378 
C 207.100605 157.584945 174.343664 173.346686 149.356565 198.333794 
L 259.568 308.545187 
z
" style="fill: #00b0be"/>
   </g>
   <g id="patch_42">
    <path d="M 151.069717 200.046904 
C 134.782568 216.334053 122.369928 236.081497 114.755342 257.819955 
C 107.140757 279.558412 104.51788 302.735032 107.081864 325.625389 
C 109.645847 348.515746 117.331483 370.537693 129.566933 390.052718 
C 141.802383 409.567744 158.276475 426.079542 177.763477 438.359574 
C 197.250479 450.639607 219.254798 458.375569 242.139233 460.991877 
C 265.023669 463.608185 288.206224 461.038301 309.962033 453.473433 
C 331.717842 445.908566 351.493612 433.541105 367.817954 417.291234 
C 384.142295 401.041362 396.600049 381.322347 404.264312 359.601355 
L 259.568 308.545187 
z
" style="fill: #f45f74"/>
   </g>
   <g id="patch_43">
    <path d="M 404.264312 359.601355 
C 415.839754 326.795844 415.921567 291.009242 404.496244 258.151148 
C 393.07092 225.293053 370.803997 197.277491 341.372511 178.730793 
C 311.941025 160.184095 277.059395 152.18663 242.487777 156.059054 
C 207.91616 159.931477 175.668395 175.448217 151.069696 200.046924 
L 259.568 308.545187 
z
" style="fill: #00b0be"/>
   </g>
   <g id="patch_44">
    <path d="M 152.782847 201.760035 
C 136.752864 217.790018 124.536213 237.225661 117.041858 258.620879 
C 109.547503 280.016098 106.96604 302.826771 109.48954 325.355701 
C 112.013039 347.884631 119.577323 369.558864 131.619581 388.765757 
C 143.66184 407.972651 159.875815 424.223736 179.055127 436.309873 
C 198.23444 448.396011 219.891322 456.009826 242.414424 458.584824 
C 264.937526 461.159822 287.754041 458.630515 309.166338 451.185093 
C 330.578634 443.739671 350.042155 431.567485 366.108744 415.574191 
C 382.175333 399.580897 394.436385 380.173234 401.979634 358.795205 
L 259.568 308.545187 
z
" style="fill: #f45f74"/>
   </g>
   <g id="patch_45">
    <path d="M 401.979634 358.795205 
C 413.372305 326.507676 413.452827 291.286125 402.207903 258.946843 
C 390.962979 226.607561 369.04764 199.034349 340.080861 180.780494 
C 311.114082 162.526639 276.783215 154.655449 242.757465 158.466729 
C 208.731715 162.27801 176.993125 177.549748 152.782827 201.760055 
L 259.568 308.545187 
z
" style="fill: #00b0be"/>
   </g>
   <g id="patch_46">
    <path d="M 154.495978 203.473166 
C 138.72316 219.245984 126.702498 238.369824 119.328374 259.421804 
C 111.954249 280.473784 109.4142 302.91851 111.897215 325.086014 
C 114.380231 347.253517 121.823163 368.580035 133.67223 387.478796 
C 145.521297 406.377558 161.475155 422.36793 180.346777 434.260173 
C 199.2184 446.152415 220.527846 453.644083 242.689615 456.177771 
C 264.851384 458.711459 287.301859 456.222729 308.370642 448.896752 
C 329.439426 441.570775 348.590698 429.593865 364.399534 413.857148 
C 380.20837 398.120431 392.272721 379.024121 399.694955 357.989055 
L 259.568 308.545187 
z
" style="fill: #f45f74"/>
   </g>
   <g id="patch_47">
    <path d="M 399.694955 357.989055 
C 410.904856 326.219508 410.984086 291.563009 399.919562 259.742538 
C 388.855038 227.922068 367.291282 200.791208 338.789211 182.830195 
C 310.28714 164.869182 276.507035 157.124269 243.027153 160.874405 
C 209.547271 164.624542 178.317856 179.651279 154.495958 203.473185 
L 259.568 308.545187 
z
" style="fill: #00b0be"/>
   </g>
   <g id="patch_48">
    <path d="M 156.209109 205.186296 
C 140.693456 220.701949 128.868784 239.513988 121.614889 260.222729 
C 114.360995 280.93147 111.86236 303.01025 114.304891 324.816327 
C 116.747423 346.622403 124.069002 367.601206 135.724878 386.191835 
C 147.380754 404.782465 163.074494 420.512125 181.638428 432.210472 
C 200.202361 443.908819 221.164371 451.27834 242.964806 453.770718 
C 264.765242 456.263096 286.849676 453.814943 307.574947 446.608411 
C 328.300218 439.40188 347.139241 427.620246 362.690324 412.140105 
C 378.241408 396.659965 390.109057 377.875008 397.410276 357.182905 
L 259.568 308.545187 
z
" style="fill: #f45f74"/>
   </g>
   <g id="patch_49">
    <path d="M 397.410276 357.182905 
C 408.437407 325.931339 408.515346 291.839892 397.631222 260.538234 
C 386.747097 229.236576 365.534924 202.548066 337.497561 184.879896 
C 309.460197 167.211726 276.230855 159.593088 243.296841 163.282081 
C 210.362826 166.971074 179.642587 181.75281 156.20909 205.186316 
L 259.568 308.545187 
z
" style="fill: #00b0be"/>
   </g>
   <g id="patch_50">
    <path d="M 157.92224 206.899427 
C 142.663753 222.157914 131.035069 240.658151 123.901405 261.023654 
C 116.767741 281.389156 114.31052 303.101989 116.712567 324.546639 
C 119.114615 345.991289 126.314842 366.622377 137.777527 384.904874 
C 149.240211 403.187372 164.673834 418.656319 182.930078 430.160771 
C 201.186322 441.665223 221.800895 448.912598 243.239997 451.363665 
C 264.6791 453.814732 286.397494 451.407157 306.779252 444.320071 
C 327.16101 437.232984 345.687784 425.646626 360.981115 410.423062 
C 376.274445 395.199499 387.945393 376.725895 395.125598 356.376755 
L 259.568 308.545187 
z
" style="fill: #f45f74"/>
   </g>
   <g id="patch_51">
    <path d="M 395.125598 356.376755 
C 405.969959 325.643171 406.046605 292.116775 395.342881 261.333929 
C 384.639156 230.551083 363.778566 204.304924 336.20591 186.929597 
C 308.633255 169.554269 275.954675 162.061907 243.566528 165.689757 
C 211.178382 169.317606 180.967317 183.854341 157.922221 206.899446 
L 259.568 308.545187 
z
" style="fill: #00b0be"/>
   </g>
   <g id="patch_52">
    <path d="M 116.807101 165.784288 
C 95.376641 187.214747 79.044221 213.198226 69.025029 241.80146 
C 59.005838 270.404694 55.554685 300.900246 58.928347 331.019136 
C 62.302009 361.138027 72.414688 390.114274 88.513964 415.791939 
C 104.61324 441.469604 126.289677 463.195653 151.930469 479.353591 
C 177.571261 495.511529 206.524313 505.690426 236.635412 509.132937 
C 266.746511 512.575447 297.249874 509.194021 325.875938 499.240248 
C 354.502003 489.286475 380.522753 473.0135 402.00215 451.63209 
C 423.481547 430.250681 439.873328 404.304608 449.957885 375.724355 
L 259.568 308.545187 
z
" style="fill: #f45f74; stroke: #ffffff; stroke-width: 1.5; stroke-linejoin: miter"/>
   </g>
   <g id="patch_53">
    <path d="M 449.957885 375.724355 
C 465.188728 332.559209 465.296378 285.471575 450.263057 242.23724 
C 435.229737 199.002906 405.931155 162.140324 367.205515 137.736774 
C 328.479875 113.333224 282.582993 102.810243 237.094023 107.905538 
C 191.605053 113.000832 149.173782 133.417594 116.807074 165.784315 
L 259.568 308.545187 
z
" style="fill: #00b0be; stroke: #ffffff; stroke-width: 1.5; stroke-linejoin: miter"/>
   </g>
   <g id="text_1">
    <!-- 57.1% -->
    <g style="fill: #ffffff" transform="translate(179.9347 413.789605) scale(0.1 -0.1)">
     <defs>
      <path id="DejaVuSansMono-Bold-35" d="M 603 4666 
L 3138 4666 
L 3138 3853 
L 1350 3853 
L 1350 2988 
Q 1463 3031 1591 3051 
Q 1719 3072 1863 3072 
Q 2556 3072 2987 2634 
Q 3419 2197 3419 1497 
Q 3419 763 2951 336 
Q 2484 -91 1678 -91 
Q 1378 -91 1072 -41 
Q 766 9 447 109 
L 447 941 
Q 706 813 979 748 
Q 1253 684 1528 684 
Q 2016 684 2269 892 
Q 2522 1100 2522 1497 
Q 2522 1863 2270 2083 
Q 2019 2303 1600 2303 
Q 1353 2303 1104 2242 
Q 856 2181 603 2059 
L 603 4666 
z
" transform="scale(0.015625)"/>
      <path id="DejaVuSansMono-Bold-37" d="M 422 4666 
L 3372 4666 
L 3372 4013 
L 1791 0 
L 850 0 
L 2369 3853 
L 422 3853 
L 422 4666 
z
" transform="scale(0.015625)"/>
      <path id="DejaVuSansMono-Bold-2e" d="M 1403 1147 
L 2444 1147 
L 2444 0 
L 1403 0 
L 1403 1147 
z
" transform="scale(0.015625)"/>
      <path id="DejaVuSansMono-Bold-31" d="M 588 813 
L 1619 813 
L 1619 3841 
L 659 3603 
L 659 4434 
L 1625 4666 
L 2516 4666 
L 2516 813 
L 3547 813 
L 3547 0 
L 588 0 
L 588 813 
z
" transform="scale(0.015625)"/>
      <path id="DejaVuSansMono-Bold-25" d="M 103 3475 
Q 103 3894 393 4184 
Q 684 4475 1100 4475 
Q 1516 4475 1808 4183 
Q 2100 3891 2100 3475 
Q 2100 3059 1808 2768 
Q 1516 2478 1100 2478 
Q 684 2478 393 2767 
Q 103 3056 103 3475 
z
M 1100 3903 
Q 922 3903 797 3779 
Q 672 3656 672 3475 
Q 672 3294 797 3170 
Q 922 3047 1100 3047 
Q 1281 3047 1404 3170 
Q 1528 3294 1528 3475 
Q 1528 3653 1403 3778 
Q 1278 3903 1100 3903 
z
M 269 1753 
L 3525 3059 
L 3653 2759 
L 378 1453 
L 269 1753 
z
M 1813 997 
Q 1813 1416 2102 1706 
Q 2391 1997 2809 1997 
Q 3222 1997 3515 1705 
Q 3809 1413 3809 997 
Q 3809 584 3515 292 
Q 3222 0 2809 0 
Q 2391 0 2102 289 
Q 1813 578 1813 997 
z
M 2803 1428 
Q 2628 1428 2504 1303 
Q 2381 1178 2381 997 
Q 2381 816 2503 692 
Q 2625 569 2803 569 
Q 2984 569 3111 694 
Q 3238 819 3238 997 
Q 3238 1175 3109 1301 
Q 2981 1428 2803 1428 
z
" transform="scale(0.015625)"/>
     </defs>
     <use xlink:href="#DejaVuSansMono-Bold-35"/>
     <use xlink:href="#DejaVuSansMono-Bold-37" x="60.205078"/>
     <use xlink:href="#DejaVuSansMono-Bold-2e" x="120.410156"/>
     <use xlink:href="#DejaVuSansMono-Bold-31" x="180.615234"/>
     <use xlink:href="#DejaVuSansMono-Bold-25" x="240.820312"/>
    </g>
   </g>
   <g id="text_2">
    <!-- 42.9% -->
    <g style="fill: #ffffff" transform="translate(309.099728 208.819514) scale(0.1 -0.1)">
     <defs>
      <path id="DejaVuSansMono-Bold-34" d="M 2169 3641 
L 991 1797 
L 2169 1797 
L 2169 3641 
z
M 2088 4666 
L 3053 4666 
L 3053 1797 
L 3566 1797 
L 3566 1006 
L 3053 1006 
L 3053 0 
L 2169 0 
L 2169 1006 
L 319 1006 
L 319 1900 
L 2088 4666 
z
" transform="scale(0.015625)"/>
      <path id="DejaVuSansMono-Bold-32" d="M 1356 813 
L 3322 813 
L 3322 0 
L 359 0 
L 359 788 
L 859 1319 
Q 1750 2266 1941 2484 
Q 2175 2753 2278 2961 
Q 2381 3169 2381 3372 
Q 2381 3684 2192 3854 
Q 2003 4025 1656 4025 
Q 1409 4025 1101 3926 
Q 794 3828 459 3641 
L 459 4500 
Q 794 4622 1114 4686 
Q 1434 4750 1728 4750 
Q 2469 4750 2892 4404 
Q 3316 4059 3316 3463 
Q 3316 3188 3223 2947 
Q 3131 2706 2906 2413 
Q 2741 2200 1997 1456 
Q 1594 1053 1356 813 
z
" transform="scale(0.015625)"/>
      <path id="DejaVuSansMono-Bold-39" d="M 634 63 
L 634 903 
Q 881 759 1107 690 
Q 1334 622 1544 622 
Q 2041 622 2302 955 
Q 2563 1288 2578 1950 
Q 2431 1747 2203 1645 
Q 1975 1544 1663 1544 
Q 1034 1544 690 1942 
Q 347 2341 347 3072 
Q 347 3853 731 4281 
Q 1116 4709 1819 4709 
Q 2672 4709 3058 4139 
Q 3444 3569 3444 2297 
Q 3444 1088 2972 483 
Q 2500 -122 1556 -122 
Q 1338 -122 1105 -75 
Q 872 -28 634 63 
z
M 1844 2316 
Q 2141 2316 2298 2533 
Q 2456 2750 2456 3163 
Q 2456 3572 2298 3789 
Q 2141 4006 1844 4006 
Q 1544 4006 1383 3789 
Q 1222 3572 1222 3163 
Q 1222 2753 1383 2534 
Q 1544 2316 1844 2316 
z
" transform="scale(0.015625)"/>
     </defs>
     <use xlink:href="#DejaVuSansMono-Bold-34"/>
     <use xlink:href="#DejaVuSansMono-Bold-32" x="60.205078"/>
     <use xlink:href="#DejaVuSansMono-Bold-2e" x="120.410156"/>
     <use xlink:href="#DejaVuSansMono-Bold-39" x="180.615234"/>
     <use xlink:href="#DejaVuSansMono-Bold-25" x="240.820312"/>
    </g>
   </g>
   <g id="text_3">
    <!-- Syed Mustafa Kamal (MQM) -->
    <g transform="translate(47.39546 527.756581) scale(0.1 -0.1)">
     <defs>
      <path id="DejaVuSansMono-Bold-53" d="M 1594 2047 
Q 897 2313 650 2605 
Q 403 2897 403 3391 
Q 403 4025 809 4387 
Q 1216 4750 1925 4750 
Q 2247 4750 2569 4676 
Q 2891 4603 3206 4459 
L 3206 3559 
Q 2909 3769 2603 3878 
Q 2297 3988 1997 3988 
Q 1663 3988 1484 3853 
Q 1306 3719 1306 3469 
Q 1306 3275 1436 3148 
Q 1566 3022 1978 2869 
L 2375 2719 
Q 2938 2513 3203 2172 
Q 3469 1831 3469 1313 
Q 3469 606 3051 257 
Q 2634 -91 1791 -91 
Q 1444 -91 1095 -8 
Q 747 75 422 238 
L 422 1191 
Q 791 928 1136 800 
Q 1481 672 1819 672 
Q 2159 672 2346 826 
Q 2534 981 2534 1259 
Q 2534 1469 2409 1626 
Q 2284 1784 2047 1875 
L 1594 2047 
z
" transform="scale(0.015625)"/>
      <path id="DejaVuSansMono-Bold-79" d="M 2222 -378 
Q 2038 -872 1780 -1098 
Q 1522 -1325 1153 -1325 
L 397 -1325 
L 397 -628 
L 769 -628 
Q 1050 -628 1181 -533 
Q 1313 -438 1447 -91 
L 1516 97 
L 184 3500 
L 1147 3500 
L 1947 1228 
L 2713 3500 
L 3675 3500 
L 2222 -378 
z
" transform="scale(0.015625)"/>
      <path id="DejaVuSansMono-Bold-65" d="M 3444 172 
Q 3125 41 2794 -25 
Q 2463 -91 2094 -91 
Q 1216 -91 752 379 
Q 288 850 288 1734 
Q 288 2591 734 3087 
Q 1181 3584 1953 3584 
Q 2731 3584 3161 3123 
Q 3591 2663 3591 1825 
L 3591 1453 
L 1219 1453 
Q 1222 1041 1462 837 
Q 1703 634 2181 634 
Q 2497 634 2803 725 
Q 3109 816 3444 1013 
L 3444 172 
z
M 2669 2141 
Q 2663 2503 2483 2689 
Q 2303 2875 1953 2875 
Q 1638 2875 1450 2683 
Q 1263 2491 1228 2138 
L 2669 2141 
z
" transform="scale(0.015625)"/>
      <path id="DejaVuSansMono-Bold-64" d="M 2472 3003 
L 2472 4863 
L 3384 4863 
L 3384 0 
L 2472 0 
L 2472 519 
Q 2325 216 2092 62 
Q 1859 -91 1544 -91 
Q 944 -91 612 390 
Q 281 872 281 1747 
Q 281 2634 617 3109 
Q 953 3584 1575 3584 
Q 1856 3584 2079 3439 
Q 2303 3294 2472 3003 
z
M 1197 1741 
Q 1197 1234 1365 946 
Q 1534 659 1831 659 
Q 2128 659 2300 946 
Q 2472 1234 2472 1741 
Q 2472 2247 2300 2534 
Q 2128 2822 1831 2822 
Q 1534 2822 1365 2534 
Q 1197 2247 1197 1741 
z
" transform="scale(0.015625)"/>
      <path id="DejaVuSansMono-Bold-20" transform="scale(0.015625)"/>
      <path id="DejaVuSansMono-Bold-4d" d="M 269 4666 
L 1369 4666 
L 1925 2619 
L 2478 4666 
L 3584 4666 
L 3584 0 
L 2791 0 
L 2791 3738 
L 2297 1697 
L 1563 1697 
L 1063 3738 
L 1063 0 
L 269 0 
L 269 4666 
z
" transform="scale(0.015625)"/>
      <path id="DejaVuSansMono-Bold-75" d="M 500 1222 
L 500 3500 
L 1416 3500 
L 1416 1363 
Q 1416 984 1522 821 
Q 1628 659 1875 659 
Q 2122 659 2261 878 
Q 2400 1097 2400 1491 
L 2400 3500 
L 3316 3500 
L 3316 0 
L 2400 0 
L 2400 519 
Q 2303 228 2070 68 
Q 1838 -91 1509 -91 
Q 1009 -91 754 240 
Q 500 572 500 1222 
z
" transform="scale(0.015625)"/>
      <path id="DejaVuSansMono-Bold-73" d="M 3097 3391 
L 3097 2591 
Q 2844 2753 2570 2836 
Q 2297 2919 2022 2919 
Q 1716 2919 1559 2830 
Q 1403 2741 1403 2566 
Q 1403 2316 2072 2159 
L 2106 2150 
L 2369 2088 
Q 2869 1969 3101 1705 
Q 3334 1441 3334 991 
Q 3334 450 2979 179 
Q 2625 -91 1913 -91 
Q 1597 -91 1265 -36 
Q 934 19 594 128 
L 594 928 
Q 897 756 1211 665 
Q 1525 575 1819 575 
Q 2141 575 2306 669 
Q 2472 763 2472 941 
Q 2472 1116 2355 1209 
Q 2238 1303 1797 1409 
L 1544 1466 
Q 1019 1584 778 1837 
Q 538 2091 538 2516 
Q 538 3022 903 3303 
Q 1269 3584 1931 3584 
Q 2228 3584 2523 3536 
Q 2819 3488 3097 3391 
z
" transform="scale(0.015625)"/>
      <path id="DejaVuSansMono-Bold-74" d="M 2156 4494 
L 2156 3500 
L 3353 3500 
L 3353 2797 
L 2156 2797 
L 2156 1141 
Q 2156 906 2270 804 
Q 2384 703 2650 703 
L 3353 703 
L 3353 0 
L 2584 0 
Q 1797 0 1519 251 
Q 1241 503 1241 1184 
L 1241 2797 
L 347 2797 
L 347 3500 
L 1241 3500 
L 1241 4494 
L 2156 4494 
z
" transform="scale(0.015625)"/>
      <path id="DejaVuSansMono-Bold-61" d="M 2188 1644 
Q 1675 1644 1472 1512 
Q 1269 1381 1269 1063 
Q 1269 825 1409 684 
Q 1550 544 1791 544 
Q 2153 544 2353 817 
Q 2553 1091 2553 1581 
L 2553 1644 
L 2188 1644 
z
M 3463 1997 
L 3463 0 
L 2553 0 
L 2553 391 
Q 2388 159 2128 34 
Q 1869 -91 1556 -91 
Q 959 -91 626 225 
Q 294 541 294 1106 
Q 294 1719 691 2011 
Q 1088 2303 1919 2303 
L 2553 2303 
L 2553 2456 
Q 2553 2678 2392 2792 
Q 2231 2906 1919 2906 
Q 1591 2906 1283 2823 
Q 975 2741 641 2559 
L 641 3341 
Q 944 3466 1256 3525 
Q 1569 3584 1919 3584 
Q 2772 3584 3117 3237 
Q 3463 2891 3463 1997 
z
" transform="scale(0.015625)"/>
      <path id="DejaVuSansMono-Bold-66" d="M 2309 3806 
L 2309 3500 
L 3384 3500 
L 3384 2797 
L 2309 2797 
L 2309 0 
L 1394 0 
L 1394 2797 
L 544 2797 
L 544 3500 
L 1394 3500 
L 1394 3744 
Q 1394 4375 1656 4619 
Q 1919 4863 2631 4863 
L 3384 4863 
L 3384 4159 
L 2669 4159 
Q 2463 4159 2389 4084 
Q 2316 4009 2309 3806 
z
" transform="scale(0.015625)"/>
      <path id="DejaVuSansMono-Bold-4b" d="M 366 4666 
L 1288 4666 
L 1288 2822 
L 2731 4666 
L 3775 4666 
L 2303 2828 
L 3828 0 
L 2803 0 
L 1697 2100 
L 1288 1581 
L 1288 0 
L 366 0 
L 366 4666 
z
" transform="scale(0.015625)"/>
      <path id="DejaVuSansMono-Bold-6d" d="M 2156 3150 
Q 2259 3372 2418 3478 
Q 2578 3584 2809 3584 
Q 3263 3584 3436 3271 
Q 3609 2959 3609 1972 
L 3609 0 
L 2859 0 
L 2859 2247 
Q 2859 2638 2800 2769 
Q 2741 2900 2584 2900 
Q 2428 2900 2365 2765 
Q 2303 2631 2303 2247 
L 2303 0 
L 1563 0 
L 1563 2247 
Q 1563 2631 1500 2765 
Q 1438 2900 1281 2900 
Q 1125 2900 1065 2769 
Q 1006 2638 1006 2247 
L 1006 0 
L 256 0 
L 256 3500 
L 922 3500 
L 922 3138 
Q 1000 3344 1172 3464 
Q 1344 3584 1556 3584 
Q 1769 3584 1944 3457 
Q 2119 3331 2156 3150 
z
" transform="scale(0.015625)"/>
      <path id="DejaVuSansMono-Bold-6c" d="M 1209 1459 
L 1209 4159 
L 281 4159 
L 281 4863 
L 2125 4863 
L 2125 1459 
Q 2125 1047 2253 875 
Q 2381 703 2688 703 
L 3419 703 
L 3419 0 
L 2431 0 
Q 1778 0 1493 337 
Q 1209 675 1209 1459 
z
" transform="scale(0.015625)"/>
      <path id="DejaVuSansMono-Bold-28" d="M 2888 4856 
Q 2475 4109 2275 3409 
Q 2075 2709 2075 2009 
Q 2075 1316 2275 611 
Q 2475 -94 2888 -844 
L 2175 -844 
Q 1678 -122 1437 579 
Q 1197 1281 1197 2009 
Q 1197 2734 1439 3439 
Q 1681 4144 2175 4856 
L 2888 4856 
z
" transform="scale(0.015625)"/>
      <path id="DejaVuSansMono-Bold-51" d="M 2050 -72 
Q 2006 -81 1976 -86 
Q 1947 -91 1919 -91 
Q 1116 -91 702 521 
Q 288 1134 288 2328 
Q 288 3525 702 4137 
Q 1116 4750 1925 4750 
Q 2738 4750 3152 4137 
Q 3566 3525 3566 2328 
Q 3566 1506 3369 951 
Q 3172 397 2797 159 
L 3378 -409 
L 2747 -878 
L 2050 -72 
z
M 1925 3922 
Q 1572 3922 1409 3545 
Q 1247 3169 1247 2328 
Q 1247 1491 1409 1114 
Q 1572 738 1925 738 
Q 2281 738 2443 1114 
Q 2606 1491 2606 2328 
Q 2606 3169 2443 3545 
Q 2281 3922 1925 3922 
z
" transform="scale(0.015625)"/>
      <path id="DejaVuSansMono-Bold-29" d="M 966 4856 
L 1678 4856 
Q 2172 4144 2414 3439 
Q 2656 2734 2656 2009 
Q 2656 1281 2415 579 
Q 2175 -122 1678 -844 
L 966 -844 
Q 1378 -94 1578 611 
Q 1778 1316 1778 2009 
Q 1778 2709 1578 3409 
Q 1378 4109 966 4856 
z
" transform="scale(0.015625)"/>
     </defs>
     <use xlink:href="#DejaVuSansMono-Bold-53"/>
     <use xlink:href="#DejaVuSansMono-Bold-79" x="60.205078"/>
     <use xlink:href="#DejaVuSansMono-Bold-65" x="120.410156"/>
     <use xlink:href="#DejaVuSansMono-Bold-64" x="180.615234"/>
     <use xlink:href="#DejaVuSansMono-Bold-20" x="240.820312"/>
     <use xlink:href="#DejaVuSansMono-Bold-4d" x="301.025391"/>
     <use xlink:href="#DejaVuSansMono-Bold-75" x="361.230469"/>
     <use xlink:href="#DejaVuSansMono-Bold-73" x="421.435547"/>
     <use xlink:href="#DejaVuSansMono-Bold-74" x="481.640625"/>
     <use xlink:href="#DejaVuSansMono-Bold-61" x="541.845703"/>
     <use xlink:href="#DejaVuSansMono-Bold-66" x="602.050781"/>
     <use xlink:href="#DejaVuSansMono-Bold-61" x="662.255859"/>
     <use xlink:href="#DejaVuSansMono-Bold-20" x="722.460938"/>
     <use xlink:href="#DejaVuSansMono-Bold-4b" x="782.666016"/>
     <use xlink:href="#DejaVuSansMono-Bold-61" x="842.871094"/>
     <use xlink:href="#DejaVuSansMono-Bold-6d" x="903.076172"/>
     <use xlink:href="#DejaVuSansMono-Bold-61" x="963.28125"/>
     <use xlink:href="#DejaVuSansMono-Bold-6c" x="1023.486328"/>
     <use xlink:href="#DejaVuSansMono-Bold-20" x="1083.691406"/>
     <use xlink:href="#DejaVuSansMono-Bold-28" x="1143.896484"/>
     <use xlink:href="#DejaVuSansMono-Bold-4d" x="1204.101562"/>
     <use xlink:href="#DejaVuSansMono-Bold-51" x="1264.306641"/>
     <use xlink:href="#DejaVuSansMono-Bold-4d" x="1324.511719"/>
     <use xlink:href="#DejaVuSansMono-Bold-29" x="1384.716797"/>
    </g>
    <!-- (71,597 votes) -->
    <g transform="translate(77.497023 538.954393) scale(0.1 -0.1)">
     <defs>
      <path id="DejaVuSansMono-Bold-2c" d="M 1441 1147 
L 2419 1147 
L 2419 300 
L 1806 -897 
L 1131 -897 
L 1441 300 
L 1441 1147 
z
" transform="scale(0.015625)"/>
      <path id="DejaVuSansMono-Bold-76" d="M 3603 3500 
L 2491 0 
L 1363 0 
L 250 3500 
L 1178 3500 
L 1925 769 
L 2675 3500 
L 3603 3500 
z
" transform="scale(0.015625)"/>
      <path id="DejaVuSansMono-Bold-6f" d="M 1925 2841 
Q 1597 2841 1409 2552 
Q 1222 2263 1222 1747 
Q 1222 1231 1409 942 
Q 1597 653 1925 653 
Q 2256 653 2443 942 
Q 2631 1231 2631 1747 
Q 2631 2263 2443 2552 
Q 2256 2841 1925 2841 
z
M 306 1747 
Q 306 2594 745 3089 
Q 1184 3584 1925 3584 
Q 2669 3584 3108 3089 
Q 3547 2594 3547 1747 
Q 3547 900 3108 404 
Q 2669 -91 1925 -91 
Q 1184 -91 745 404 
Q 306 900 306 1747 
z
" transform="scale(0.015625)"/>
     </defs>
     <use xlink:href="#DejaVuSansMono-Bold-28"/>
     <use xlink:href="#DejaVuSansMono-Bold-37" x="60.205078"/>
     <use xlink:href="#DejaVuSansMono-Bold-31" x="120.410156"/>
     <use xlink:href="#DejaVuSansMono-Bold-2c" x="180.615234"/>
     <use xlink:href="#DejaVuSansMono-Bold-35" x="240.820312"/>
     <use xlink:href="#DejaVuSansMono-Bold-39" x="301.025391"/>
     <use xlink:href="#DejaVuSansMono-Bold-37" x="361.230469"/>
     <use xlink:href="#DejaVuSansMono-Bold-20" x="421.435547"/>
     <use xlink:href="#DejaVuSansMono-Bold-76" x="481.640625"/>
     <use xlink:href="#DejaVuSansMono-Bold-6f" x="541.845703"/>
     <use xlink:href="#DejaVuSansMono-Bold-74" x="602.050781"/>
     <use xlink:href="#DejaVuSansMono-Bold-65" x="662.255859"/>
     <use xlink:href="#DejaVuSansMono-Bold-73" x="722.460938"/>
     <use xlink:href="#DejaVuSansMono-Bold-29" x="782.666016"/>
    </g>
   </g>
   <g id="text_4">
    <!-- Dawa Khan Sabir (PTI) -->
    <g transform="translate(336.283488 83.654718) scale(0.1 -0.1)">
     <defs>
      <path id="DejaVuSansMono-Bold-44" d="M 1350 3834 
L 1350 831 
L 1600 831 
Q 2144 831 2375 1173 
Q 2606 1516 2606 2338 
Q 2606 3153 2375 3493 
Q 2144 3834 1600 3834 
L 1350 3834 
z
M 428 4666 
L 1416 4666 
Q 2559 4666 3062 4120 
Q 3566 3575 3566 2338 
Q 3566 1097 3062 548 
Q 2559 0 1416 0 
L 428 0 
L 428 4666 
z
" transform="scale(0.015625)"/>
      <path id="DejaVuSansMono-Bold-77" d="M 0 3500 
L 763 3500 
L 1178 819 
L 1556 2584 
L 2297 2584 
L 2669 819 
L 3091 3500 
L 3853 3500 
L 3219 0 
L 2350 0 
L 1925 1819 
L 1503 0 
L 634 0 
L 0 3500 
z
" transform="scale(0.015625)"/>
      <path id="DejaVuSansMono-Bold-68" d="M 3347 2272 
L 3347 0 
L 2438 0 
L 2438 2131 
Q 2438 2509 2330 2671 
Q 2222 2834 1978 2834 
Q 1728 2834 1587 2614 
Q 1447 2394 1447 2003 
L 1447 0 
L 538 0 
L 538 4863 
L 1447 4863 
L 1447 2975 
Q 1544 3266 1778 3425 
Q 2013 3584 2344 3584 
Q 2841 3584 3094 3254 
Q 3347 2925 3347 2272 
z
" transform="scale(0.015625)"/>
      <path id="DejaVuSansMono-Bold-6e" d="M 3347 2272 
L 3347 0 
L 2438 0 
L 2438 2131 
Q 2438 2513 2330 2677 
Q 2222 2841 1978 2841 
Q 1731 2841 1589 2619 
Q 1447 2397 1447 2003 
L 1447 0 
L 538 0 
L 538 3500 
L 1447 3500 
L 1447 2975 
Q 1544 3266 1778 3425 
Q 2013 3584 2344 3584 
Q 2841 3584 3094 3254 
Q 3347 2925 3347 2272 
z
" transform="scale(0.015625)"/>
      <path id="DejaVuSansMono-Bold-62" d="M 2656 1741 
Q 2656 2247 2487 2534 
Q 2319 2822 2022 2822 
Q 1725 2822 1553 2534 
Q 1381 2247 1381 1741 
Q 1381 1234 1553 946 
Q 1725 659 2022 659 
Q 2319 659 2487 946 
Q 2656 1234 2656 1741 
z
M 1381 3003 
Q 1550 3294 1773 3439 
Q 1997 3584 2278 3584 
Q 2900 3584 3236 3109 
Q 3572 2634 3572 1747 
Q 3572 872 3240 390 
Q 2909 -91 2309 -91 
Q 1994 -91 1759 62 
Q 1525 216 1381 519 
L 1381 0 
L 469 0 
L 469 4863 
L 1381 4863 
L 1381 3003 
z
" transform="scale(0.015625)"/>
      <path id="DejaVuSansMono-Bold-69" d="M 691 3500 
L 2503 3500 
L 2503 703 
L 3641 703 
L 3641 0 
L 447 0 
L 447 703 
L 1588 703 
L 1588 2797 
L 691 2797 
L 691 3500 
z
M 1588 5203 
L 2503 5203 
L 2503 4134 
L 1588 4134 
L 1588 5203 
z
" transform="scale(0.015625)"/>
      <path id="DejaVuSansMono-Bold-72" d="M 3597 2534 
Q 3447 2672 3245 2740 
Q 3044 2809 2803 2809 
Q 2513 2809 2295 2707 
Q 2078 2606 1959 2413 
Q 1884 2294 1854 2125 
Q 1825 1956 1825 1613 
L 1825 0 
L 909 0 
L 909 3500 
L 1825 3500 
L 1825 2956 
Q 1959 3256 2237 3420 
Q 2516 3584 2888 3584 
Q 3075 3584 3254 3539 
Q 3434 3494 3597 3406 
L 3597 2534 
z
" transform="scale(0.015625)"/>
      <path id="DejaVuSansMono-Bold-50" d="M 1428 3891 
L 1428 2522 
L 1806 2522 
Q 2259 2522 2442 2675 
Q 2625 2828 2625 3206 
Q 2625 3584 2442 3737 
Q 2259 3891 1806 3891 
L 1428 3891 
z
M 506 4666 
L 1772 4666 
Q 2738 4666 3161 4322 
Q 3584 3978 3584 3206 
Q 3584 2434 3161 2090 
Q 2738 1747 1772 1747 
L 1428 1747 
L 1428 0 
L 506 0 
L 506 4666 
z
" transform="scale(0.015625)"/>
      <path id="DejaVuSansMono-Bold-54" d="M 2388 0 
L 1466 0 
L 1466 3859 
L 281 3859 
L 281 4666 
L 3572 4666 
L 3572 3859 
L 2388 3859 
L 2388 0 
z
" transform="scale(0.015625)"/>
      <path id="DejaVuSansMono-Bold-49" d="M 538 3853 
L 538 4666 
L 3316 4666 
L 3316 3853 
L 2388 3853 
L 2388 813 
L 3316 813 
L 3316 0 
L 538 0 
L 538 813 
L 1466 813 
L 1466 3853 
L 538 3853 
z
" transform="scale(0.015625)"/>
     </defs>
     <use xlink:href="#DejaVuSansMono-Bold-44"/>
     <use xlink:href="#DejaVuSansMono-Bold-61" x="60.205078"/>
     <use xlink:href="#DejaVuSansMono-Bold-77" x="120.410156"/>
     <use xlink:href="#DejaVuSansMono-Bold-61" x="180.615234"/>
     <use xlink:href="#DejaVuSansMono-Bold-20" x="240.820312"/>
     <use xlink:href="#DejaVuSansMono-Bold-4b" x="301.025391"/>
     <use xlink:href="#DejaVuSansMono-Bold-68" x="361.230469"/>
     <use xlink:href="#DejaVuSansMono-Bold-61" x="421.435547"/>
     <use xlink:href="#DejaVuSansMono-Bold-6e" x="481.640625"/>
     <use xlink:href="#DejaVuSansMono-Bold-20" x="541.845703"/>
     <use xlink:href="#DejaVuSansMono-Bold-53" x="602.050781"/>
     <use xlink:href="#DejaVuSansMono-Bold-61" x="662.255859"/>
     <use xlink:href="#DejaVuSansMono-Bold-62" x="722.460938"/>
     <use xlink:href="#DejaVuSansMono-Bold-69" x="782.666016"/>
     <use xlink:href="#DejaVuSansMono-Bold-72" x="842.871094"/>
     <use xlink:href="#DejaVuSansMono-Bold-20" x="903.076172"/>
     <use xlink:href="#DejaVuSansMono-Bold-28" x="963.28125"/>
     <use xlink:href="#DejaVuSansMono-Bold-50" x="1023.486328"/>
     <use xlink:href="#DejaVuSansMono-Bold-54" x="1083.691406"/>
     <use xlink:href="#DejaVuSansMono-Bold-49" x="1143.896484"/>
     <use xlink:href="#DejaVuSansMono-Bold-29" x="1204.101562"/>
    </g>
    <!-- (53,789 votes) -->
    <g transform="translate(357.354582 94.852531) scale(0.1 -0.1)">
     <defs>
      <path id="DejaVuSansMono-Bold-33" d="M 1716 2088 
L 1222 2088 
L 1222 2900 
L 1716 2900 
Q 2059 2900 2248 3036 
Q 2438 3172 2438 3419 
Q 2438 3678 2248 3823 
Q 2059 3969 1716 3969 
Q 1453 3969 1153 3903 
Q 853 3838 531 3713 
L 531 4550 
Q 853 4647 1165 4698 
Q 1478 4750 1766 4750 
Q 2503 4750 2915 4428 
Q 3328 4106 3328 3541 
Q 3328 3125 3090 2861 
Q 2853 2597 2413 2516 
Q 2913 2428 3175 2117 
Q 3438 1806 3438 1300 
Q 3438 622 3003 265 
Q 2569 -91 1741 -91 
Q 1388 -91 1045 -31 
Q 703 28 391 141 
L 391 997 
Q 684 850 1025 773 
Q 1366 697 1741 697 
Q 2116 697 2334 870 
Q 2553 1044 2553 1338 
Q 2553 1697 2334 1892 
Q 2116 2088 1716 2088 
z
" transform="scale(0.015625)"/>
      <path id="DejaVuSansMono-Bold-38" d="M 1925 2081 
Q 1616 2081 1425 1886 
Q 1234 1691 1234 1369 
Q 1234 1047 1425 850 
Q 1616 653 1925 653 
Q 2234 653 2426 853 
Q 2619 1053 2619 1369 
Q 2619 1691 2428 1886 
Q 2238 2081 1925 2081 
z
M 1241 2472 
Q 888 2594 703 2855 
Q 519 3116 519 3494 
Q 519 4075 897 4412 
Q 1275 4750 1925 4750 
Q 2578 4750 2956 4412 
Q 3334 4075 3334 3494 
Q 3334 3119 3153 2858 
Q 2972 2597 2625 2472 
Q 3013 2353 3231 2047 
Q 3450 1741 3450 1313 
Q 3450 641 3053 275 
Q 2656 -91 1925 -91 
Q 1197 -91 800 275 
Q 403 641 403 1313 
Q 403 1744 625 2050 
Q 847 2356 1241 2472 
z
M 1338 3419 
Q 1338 3144 1495 2983 
Q 1653 2822 1925 2822 
Q 2200 2822 2358 2983 
Q 2516 3144 2516 3419 
Q 2516 3691 2358 3848 
Q 2200 4006 1925 4006 
Q 1656 4006 1497 3847 
Q 1338 3688 1338 3419 
z
" transform="scale(0.015625)"/>
     </defs>
     <use xlink:href="#DejaVuSansMono-Bold-28"/>
     <use xlink:href="#DejaVuSansMono-Bold-35" x="60.205078"/>
     <use xlink:href="#DejaVuSansMono-Bold-33" x="120.410156"/>
     <use xlink:href="#DejaVuSansMono-Bold-2c" x="180.615234"/>
     <use xlink:href="#DejaVuSansMono-Bold-37" x="240.820312"/>
     <use xlink:href="#DejaVuSansMono-Bold-38" x="301.025391"/>
     <use xlink:href="#DejaVuSansMono-Bold-39" x="361.230469"/>
     <use xlink:href="#DejaVuSansMono-Bold-20" x="421.435547"/>
     <use xlink:href="#DejaVuSansMono-Bold-76" x="481.640625"/>
     <use xlink:href="#DejaVuSansMono-Bold-6f" x="541.845703"/>
     <use xlink:href="#DejaVuSansMono-Bold-74" x="602.050781"/>
     <use xlink:href="#DejaVuSansMono-Bold-65" x="662.255859"/>
     <use xlink:href="#DejaVuSansMono-Bold-73" x="722.460938"/>
     <use xlink:href="#DejaVuSansMono-Bold-29" x="782.666016"/>
    </g>
   </g>
   <g id="text_5">
    <!-- Total votes received by candidates in NA-242 -->
    <g transform="translate(60.897687 19.380469) scale(0.15 -0.15)">
     <defs>
      <path id="DejaVuSansMono-Bold-63" d="M 3316 178 
Q 3084 44 2818 -23 
Q 2553 -91 2247 -91 
Q 1438 -91 981 396 
Q 525 884 525 1747 
Q 525 2613 984 3102 
Q 1444 3591 2253 3591 
Q 2534 3591 2795 3525 
Q 3056 3459 3316 3322 
L 3316 2484 
Q 3116 2656 2877 2748 
Q 2638 2841 2381 2841 
Q 1934 2841 1693 2556 
Q 1453 2272 1453 1747 
Q 1453 1222 1693 940 
Q 1934 659 2381 659 
Q 2647 659 2878 748 
Q 3109 838 3316 1019 
L 3316 178 
z
" transform="scale(0.015625)"/>
      <path id="DejaVuSansMono-Bold-4e" d="M 372 4666 
L 1363 4666 
L 2663 1275 
L 2663 4666 
L 3475 4666 
L 3475 0 
L 2491 0 
L 1184 3391 
L 1184 0 
L 372 0 
L 372 4666 
z
" transform="scale(0.015625)"/>
      <path id="DejaVuSansMono-Bold-41" d="M 1925 3822 
L 1491 1913 
L 2363 1913 
L 1925 3822 
z
M 1363 4666 
L 2491 4666 
L 3750 0 
L 2828 0 
L 2541 1153 
L 1306 1153 
L 1025 0 
L 103 0 
L 1363 4666 
z
" transform="scale(0.015625)"/>
      <path id="DejaVuSansMono-Bold-2d" d="M 941 2297 
L 2913 2297 
L 2913 1388 
L 941 1388 
L 941 2297 
z
" transform="scale(0.015625)"/>
     </defs>
     <use xlink:href="#DejaVuSansMono-Bold-54"/>
     <use xlink:href="#DejaVuSansMono-Bold-6f" x="60.205078"/>
     <use xlink:href="#DejaVuSansMono-Bold-74" x="120.410156"/>
     <use xlink:href="#DejaVuSansMono-Bold-61" x="180.615234"/>
     <use xlink:href="#DejaVuSansMono-Bold-6c" x="240.820312"/>
     <use xlink:href="#DejaVuSansMono-Bold-20" x="301.025391"/>
     <use xlink:href="#DejaVuSansMono-Bold-76" x="361.230469"/>
     <use xlink:href="#DejaVuSansMono-Bold-6f" x="421.435547"/>
     <use xlink:href="#DejaVuSansMono-Bold-74" x="481.640625"/>
     <use xlink:href="#DejaVuSansMono-Bold-65" x="541.845703"/>
     <use xlink:href="#DejaVuSansMono-Bold-73" x="602.050781"/>
     <use xlink:href="#DejaVuSansMono-Bold-20" x="662.255859"/>
     <use xlink:href="#DejaVuSansMono-Bold-72" x="722.460938"/>
     <use xlink:href="#DejaVuSansMono-Bold-65" x="782.666016"/>
     <use xlink:href="#DejaVuSansMono-Bold-63" x="842.871094"/>
     <use xlink:href="#DejaVuSansMono-Bold-65" x="903.076172"/>
     <use xlink:href="#DejaVuSansMono-Bold-69" x="963.28125"/>
     <use xlink:href="#DejaVuSansMono-Bold-76" x="1023.486328"/>
     <use xlink:href="#DejaVuSansMono-Bold-65" x="1083.691406"/>
     <use xlink:href="#DejaVuSansMono-Bold-64" x="1143.896484"/>
     <use xlink:href="#DejaVuSansMono-Bold-20" x="1204.101562"/>
     <use xlink:href="#DejaVuSansMono-Bold-62" x="1264.306641"/>
     <use xlink:href="#DejaVuSansMono-Bold-79" x="1324.511719"/>
     <use xlink:href="#DejaVuSansMono-Bold-20" x="1384.716797"/>
     <use xlink:href="#DejaVuSansMono-Bold-63" x="1444.921875"/>
     <use xlink:href="#DejaVuSansMono-Bold-61" x="1505.126953"/>
     <use xlink:href="#DejaVuSansMono-Bold-6e" x="1565.332031"/>
     <use xlink:href="#DejaVuSansMono-Bold-64" x="1625.537109"/>
     <use xlink:href="#DejaVuSansMono-Bold-69" x="1685.742188"/>
     <use xlink:href="#DejaVuSansMono-Bold-64" x="1745.947266"/>
     <use xlink:href="#DejaVuSansMono-Bold-61" x="1806.152344"/>
     <use xlink:href="#DejaVuSansMono-Bold-74" x="1866.357422"/>
     <use xlink:href="#DejaVuSansMono-Bold-65" x="1926.5625"/>
     <use xlink:href="#DejaVuSansMono-Bold-73" x="1986.767578"/>
     <use xlink:href="#DejaVuSansMono-Bold-20" x="2046.972656"/>
     <use xlink:href="#DejaVuSansMono-Bold-69" x="2107.177734"/>
     <use xlink:href="#DejaVuSansMono-Bold-6e" x="2167.382812"/>
     <use xlink:href="#DejaVuSansMono-Bold-20" x="2227.587891"/>
     <use xlink:href="#DejaVuSansMono-Bold-4e" x="2287.792969"/>
     <use xlink:href="#DejaVuSansMono-Bold-41" x="2347.998047"/>
     <use xlink:href="#DejaVuSansMono-Bold-2d" x="2408.203125"/>
     <use xlink:href="#DejaVuSansMono-Bold-32" x="2468.408203"/>
     <use xlink:href="#DejaVuSansMono-Bold-34" x="2528.613281"/>
     <use xlink:href="#DejaVuSansMono-Bold-32" x="2588.818359"/>
    </g>
    <!-- (Source: ECP Form-45s) -->
    <g transform="translate(160.232844 36.177187) scale(0.15 -0.15)">
     <defs>
      <path id="DejaVuSansMono-Bold-3a" d="M 1403 3322 
L 2444 3322 
L 2444 2181 
L 1403 2181 
L 1403 3322 
z
M 1403 1147 
L 2444 1147 
L 2444 0 
L 1403 0 
L 1403 1147 
z
" transform="scale(0.015625)"/>
      <path id="DejaVuSansMono-Bold-45" d="M 3431 0 
L 525 0 
L 525 4666 
L 3431 4666 
L 3431 3853 
L 1447 3853 
L 1447 2847 
L 3244 2847 
L 3244 2034 
L 1447 2034 
L 1447 813 
L 3431 813 
L 3431 0 
z
" transform="scale(0.015625)"/>
      <path id="DejaVuSansMono-Bold-43" d="M 3378 134 
Q 3159 22 2918 -34 
Q 2678 -91 2413 -91 
Q 1469 -91 972 531 
Q 475 1153 475 2328 
Q 475 3506 972 4128 
Q 1469 4750 2413 4750 
Q 2678 4750 2922 4694 
Q 3166 4638 3378 4525 
L 3378 3500 
Q 3141 3719 2917 3820 
Q 2694 3922 2456 3922 
Q 1950 3922 1692 3520 
Q 1434 3119 1434 2328 
Q 1434 1541 1692 1139 
Q 1950 738 2456 738 
Q 2694 738 2917 839 
Q 3141 941 3378 1159 
L 3378 134 
z
" transform="scale(0.015625)"/>
      <path id="DejaVuSansMono-Bold-46" d="M 3475 3853 
L 1491 3853 
L 1491 2847 
L 3297 2847 
L 3297 2034 
L 1491 2034 
L 1491 0 
L 569 0 
L 569 4666 
L 3475 4666 
L 3475 3853 
z
" transform="scale(0.015625)"/>
     </defs>
     <use xlink:href="#DejaVuSansMono-Bold-28"/>
     <use xlink:href="#DejaVuSansMono-Bold-53" x="60.205078"/>
     <use xlink:href="#DejaVuSansMono-Bold-6f" x="120.410156"/>
     <use xlink:href="#DejaVuSansMono-Bold-75" x="180.615234"/>
     <use xlink:href="#DejaVuSansMono-Bold-72" x="240.820312"/>
     <use xlink:href="#DejaVuSansMono-Bold-63" x="301.025391"/>
     <use xlink:href="#DejaVuSansMono-Bold-65" x="361.230469"/>
     <use xlink:href="#DejaVuSansMono-Bold-3a" x="421.435547"/>
     <use xlink:href="#DejaVuSansMono-Bold-20" x="481.640625"/>
     <use xlink:href="#DejaVuSansMono-Bold-45" x="541.845703"/>
     <use xlink:href="#DejaVuSansMono-Bold-43" x="602.050781"/>
     <use xlink:href="#DejaVuSansMono-Bold-50" x="662.255859"/>
     <use xlink:href="#DejaVuSansMono-Bold-20" x="722.460938"/>
     <use xlink:href="#DejaVuSansMono-Bold-46" x="782.666016"/>
     <use xlink:href="#DejaVuSansMono-Bold-6f" x="842.871094"/>
     <use xlink:href="#DejaVuSansMono-Bold-72" x="903.076172"/>
     <use xlink:href="#DejaVuSansMono-Bold-6d" x="963.28125"/>
     <use xlink:href="#DejaVuSansMono-Bold-2d" x="1023.486328"/>
     <use xlink:href="#DejaVuSansMono-Bold-34" x="1083.691406"/>
     <use xlink:href="#DejaVuSansMono-Bold-35" x="1143.896484"/>
     <use xlink:href="#DejaVuSansMono-Bold-73" x="1204.101562"/>
     <use xlink:href="#DejaVuSansMono-Bold-29" x="1264.306641"/>
    </g>
   </g>
  </g>
 </g>
</svg>
