<?xml version="1.0" encoding="utf-8" standalone="no"?>
<!DOCTYPE svg PUBLIC "-//W3C//DTD SVG 1.1//EN"
  "http://www.w3.org/Graphics/SVG/1.1/DTD/svg11.dtd">
<svg xmlns:xlink="http://www.w3.org/1999/xlink" width="523.596105pt" height="568.113187pt" viewBox="0 0 523.596105 568.113187" xmlns="http://www.w3.org/2000/svg" version="1.1">
 <metadata>
  <rdf:RDF xmlns:dc="http://purl.org/dc/elements/1.1/" xmlns:cc="http://creativecommons.org/ns#" xmlns:rdf="http://www.w3.org/1999/02/22-rdf-syntax-ns#">
   <cc:Work>
    <dc:type rdf:resource="http://purl.org/dc/dcmitype/StillImage"/>
    <dc:date>2025-07-17T14:23:59.590617</dc:date>
    <dc:format>image/svg+xml</dc:format>
    <dc:creator>
     <cc:Agent>
      <dc:title>Matplotlib v3.9.2, https://matplotlib.org/</dc:title>
     </cc:Agent>
    </dc:creator>
   </cc:Work>
  </rdf:RDF>
 </metadata>
 <defs>
  <style type="text/css">*{stroke-linejoin: round; stroke-linecap: butt}</style>
 </defs>
 <g id="figure_1">
  <g id="patch_1">
   <path d="M 0 568.113187 
L 523.596105 568.113187 
L 523.596105 0 
L 0 0 
z
" style="fill: #ffffff"/>
  </g>
  <g id="axes_1">
   <g id="matplotlib.axis_1"/>
   <g id="matplotlib.axis_2"/>
   <g id="patch_2">
    <path d="M 467.573354 344.719233 
C 471.950122 313.576909 468.990556 281.838446 458.931358 252.042254 
C 448.87216 222.246063 431.988852 195.208257 409.631741 173.091292 
C 387.274631 150.974328 360.056078 134.383987 330.152994 124.647146 
C 300.24991 114.910306 268.481337 112.293658 237.388094 117.006479 
L 267.643776 316.620963 
z
"/>
   </g>
   <g id="patch_3">
    <path d="M 231.708575 122.747666 
C 194.694268 128.357946 159.959811 144.154474 131.404114 168.364106 
C 102.848416 192.573738 81.58146 224.255427 69.99044 259.852932 
C 58.399421 295.450438 56.93489 333.580059 65.76124 369.961781 
C 74.58759 406.343502 93.361734 439.56314 119.976292 465.891821 
C 146.59085 492.220502 180.011294 510.634811 216.486211 519.067758 
C 252.961127 527.500705 291.072709 525.624495 326.542967 513.649732 
C 362.013225 501.674969 393.463403 480.067121 417.363248 451.251647 
C 441.263094 422.436173 456.683602 387.533154 461.893835 350.46042 
L 261.964257 322.36215 
z
"/>
   </g>
   <g id="patch_4">
    <path d="M 464.241194 344.250929 
C 468.545016 313.627643 465.634776 282.418154 455.743232 253.118566 
C 445.851687 223.818978 429.249767 197.231802 407.265275 175.483454 
C 385.280783 153.735106 358.515873 137.42127 329.111174 127.84671 
C 299.706475 118.272151 268.467378 115.699113 237.892355 120.333387 
L 267.643776 316.620963 
z
"/>
   </g>
   <g id="patch_5">
    <path d="M 232.212836 126.074574 
C 195.815435 131.591349 161.659885 147.124602 133.580116 170.93074 
C 105.500347 194.736878 84.58784 225.890539 73.190004 260.894753 
C 61.792168 295.898966 60.352046 333.393094 69.03129 369.168453 
C 77.710535 404.943813 96.171776 437.60979 122.342758 463.49966 
C 148.51374 489.38953 181.377177 507.496933 217.244178 515.789331 
C 253.111179 524.081729 290.587568 522.23679 325.466655 510.461606 
C 360.345742 498.686422 391.27175 477.438704 414.773265 449.103489 
C 438.27478 420.768273 453.43828 386.446971 458.561675 349.992116 
L 261.964257 322.36215 
z
"/>
   </g>
   <g id="patch_6">
    <path d="M 460.909034 343.782624 
C 465.13991 313.678377 462.278996 282.997863 452.555105 254.194878 
C 442.831214 225.391893 426.510682 199.255347 404.898809 177.875615 
C 383.286936 156.495883 356.975668 140.458553 328.069353 131.046274 
C 299.163039 121.633995 268.453419 119.104568 238.396616 123.660295 
L 267.643776 316.620963 
z
"/>
   </g>
   <g id="patch_7">
    <path d="M 232.717098 129.401482 
C 196.936601 134.824752 163.359959 150.09473 135.756118 173.497374 
C 108.152278 196.900018 87.59422 227.525651 76.389568 261.936573 
C 65.184916 296.347495 63.769202 333.206128 72.301341 368.375126 
C 80.833479 403.544124 98.981818 435.656441 124.709224 461.107499 
C 150.43663 486.558557 182.743059 504.359055 218.002145 512.510904 
C 253.261232 520.662753 290.102427 518.849084 324.390343 507.27348 
C 358.678259 495.697875 389.080098 474.810288 412.183282 446.955331 
C 435.286466 419.100373 450.192957 385.360787 455.229516 349.523811 
L 261.964257 322.36215 
z
"/>
   </g>
   <g id="patch_8">
    <path d="M 457.576875 343.31432 
C 461.734805 313.729111 458.923217 283.577571 449.366979 255.27119 
C 439.810741 226.964808 423.771598 201.278892 402.532343 180.267776 
C 381.293088 159.25666 355.435463 143.495836 327.027533 134.245837 
C 298.619603 124.995839 268.439459 122.510023 238.900878 126.987203 
L 267.643776 316.620963 
z
"/>
   </g>
   <g id="patch_9">
    <path d="M 233.221359 132.72839 
C 198.057768 138.058156 165.060033 153.064858 137.932121 176.064008 
C 110.804208 199.063159 90.6006 229.160763 79.589131 262.978393 
C 68.577663 296.796024 67.186359 333.019163 75.571391 367.581799 
C 83.956424 402.144435 101.79186 433.703091 127.07569 458.715338 
C 152.35952 483.727585 184.108942 501.221178 218.760113 509.232477 
C 253.411284 517.243777 289.617286 515.461378 323.314031 504.085353 
C 357.010776 492.709328 386.888445 472.181872 409.593299 444.807172 
C 432.298152 417.432472 446.947635 384.274604 451.897356 349.055507 
L 261.964257 322.36215 
z
"/>
   </g>
   <g id="patch_10">
    <path d="M 454.244715 342.846015 
C 458.329699 313.779846 455.567437 284.15728 446.178853 256.347501 
C 436.790268 228.537723 421.032513 203.302437 400.165877 182.659937 
C 379.299241 162.017437 353.895258 146.533119 325.985713 137.445401 
C 298.076168 128.357683 268.4255 125.915478 239.405139 130.314111 
L 267.643776 316.620963 
z
"/>
   </g>
   <g id="patch_11">
    <path d="M 233.72562 136.055298 
C 199.178934 141.291559 166.760108 156.034986 140.108123 178.630642 
C 113.456139 201.226299 93.60698 230.795875 82.788695 264.020214 
C 71.97041 297.244552 70.603515 332.832198 78.841441 366.788472 
C 87.079368 400.744746 104.601902 431.749741 129.442156 456.323177 
C 154.282411 480.896612 185.474825 498.0833 219.51808 505.954051 
C 253.561336 513.824801 289.132146 512.073672 322.23772 500.897227 
C 355.343293 489.720781 384.696793 469.553456 407.003316 442.659014 
C 429.309838 415.764572 443.702312 383.188421 448.565196 348.587202 
L 261.964257 322.36215 
z
"/>
   </g>
   <g id="patch_12">
    <path d="M 450.912555 342.377711 
C 454.924593 313.83058 452.211657 284.736989 442.990726 257.423813 
C 433.769795 230.110638 418.293429 205.325982 397.799411 185.052098 
C 377.305393 164.778215 352.355053 149.570401 324.943893 140.644965 
C 297.532732 131.719528 268.41154 129.320934 239.9094 133.641019 
L 267.643776 316.620963 
z
"/>
   </g>
   <g id="patch_13">
    <path d="M 234.229882 139.382206 
C 200.300101 144.524963 168.460182 159.005114 142.284126 181.197276 
C 116.10807 203.389439 96.61336 232.430987 85.988258 265.062034 
C 75.363157 297.693081 74.020671 332.645233 82.111492 365.995145 
C 90.202312 399.345056 107.411944 429.796391 131.808623 453.931015 
C 156.205301 478.06564 186.840708 494.945422 220.276048 502.675624 
C 253.711388 510.405825 288.647005 508.685967 321.161408 497.709101 
C 353.675811 486.732234 382.505141 466.92504 404.413332 440.510856 
C 426.321524 414.096672 440.45699 382.102237 445.233037 348.118898 
L 261.964257 322.36215 
z
"/>
   </g>
   <g id="patch_14">
    <path d="M 447.580396 341.909406 
C 451.519487 313.881314 448.855878 285.316697 439.8026 258.500125 
C 430.749322 231.683553 415.554344 207.349527 395.432945 187.44426 
C 375.311546 167.538992 350.814848 152.607684 323.902072 143.844528 
C 296.989297 135.081372 268.397581 132.726389 240.413662 136.967927 
L 267.643776 316.620963 
z
"/>
   </g>
   <g id="patch_15">
    <path d="M 234.734143 142.709114 
C 201.421267 147.758366 170.160256 161.975242 144.460128 183.763911 
C 118.76 205.552579 99.61974 234.066099 89.187822 266.103854 
C 78.755905 298.141609 77.437827 332.458268 85.381542 365.201818 
C 93.325257 397.945367 110.221986 427.843041 134.175089 451.538854 
C 158.128191 475.234667 188.20659 491.807545 221.034015 499.397197 
C 253.86144 506.986849 288.161864 505.298261 320.085096 494.520974 
C 352.008328 483.743687 380.313488 464.296624 401.823349 438.362697 
C 423.33321 412.428771 437.211668 381.016054 441.900877 347.650593 
L 261.964257 322.36215 
z
"/>
   </g>
   <g id="patch_16">
    <path d="M 444.248236 341.441102 
C 448.114382 313.932048 445.500098 285.896406 436.614473 259.576437 
C 427.728849 233.256468 412.815259 209.373072 393.066479 189.836421 
C 373.317698 170.299769 349.274643 155.644967 322.860252 147.044092 
C 296.445861 138.443216 268.383622 136.131844 240.917923 140.294835 
L 267.643776 316.620963 
z
"/>
   </g>
   <g id="patch_17">
    <path d="M 235.238405 146.036022 
C 202.542434 150.991769 171.86033 164.94537 146.63613 186.330545 
C 121.411931 207.715719 102.62612 235.701211 92.387386 267.145674 
C 82.148652 298.590138 80.854983 332.271303 88.651592 364.40849 
C 96.448201 396.545678 113.032029 425.889691 136.541555 449.146693 
C 160.051081 472.403695 189.572473 488.669667 221.791983 496.11877 
C 254.011492 503.567873 287.676723 501.910555 319.008784 491.332848 
C 350.340845 480.75514 378.121836 461.668207 399.233366 436.214539 
C 420.344896 410.760871 433.966345 379.92987 438.568718 347.182289 
L 261.964257 322.36215 
z
"/>
   </g>
   <g id="patch_18">
    <path d="M 440.916077 340.972797 
C 444.709276 313.982783 442.144318 286.476115 433.426347 260.652749 
C 424.708376 234.829383 410.076175 211.396618 390.700013 192.228582 
C 371.32385 173.060546 347.734438 158.68225 321.818432 150.243655 
C 295.902426 141.805061 268.369662 139.537299 241.422185 143.621744 
L 267.643776 316.620963 
z
"/>
   </g>
   <g id="patch_19">
    <path d="M 235.742666 149.36293 
C 203.6636 154.225173 173.560404 167.915498 148.812133 188.897179 
C 124.063862 209.87886 105.632499 237.336323 95.586949 268.187495 
C 85.541399 299.038666 84.272139 332.084338 91.921642 363.615163 
C 99.571146 395.145989 115.842071 423.936342 138.908021 446.754532 
C 161.973971 469.572722 190.938356 485.531789 222.54995 492.840343 
C 254.161545 500.148898 287.191582 498.522849 317.932472 488.144721 
C 348.673362 477.766593 375.930183 459.039791 396.643383 434.066381 
C 417.356582 409.09297 430.721023 378.843687 435.236558 346.713984 
L 261.964257 322.36215 
z
"/>
   </g>
   <g id="patch_20">
    <path d="M 437.583917 340.504493 
C 441.30417 314.033517 438.788539 287.055823 430.238221 261.72906 
C 421.687903 236.402298 407.33709 213.420163 388.333547 194.620743 
C 369.330003 175.821324 346.194233 161.719533 320.776611 153.443219 
C 295.35899 145.166905 268.355703 142.942754 241.926446 146.948652 
L 267.643776 316.620963 
z
"/>
   </g>
   <g id="patch_21">
    <path d="M 236.246927 152.689838 
C 204.784767 157.458576 175.260478 170.885626 150.988135 191.463813 
C 126.715792 212.042 108.638879 238.971435 98.786513 269.229315 
C 88.934146 299.487195 87.689295 331.897372 95.191693 362.821836 
C 102.69409 393.7463 118.652113 421.982992 141.274487 444.362371 
C 163.896861 466.74175 192.304238 482.393912 223.307918 489.561917 
C 254.311597 496.729922 286.706441 495.135144 316.85616 484.956595 
C 347.00588 474.778046 373.738531 456.411375 394.0534 431.918223 
C 414.368268 407.42507 427.4757 377.757504 431.904398 346.24568 
L 261.964257 322.36215 
z
"/>
   </g>
   <g id="patch_22">
    <path d="M 434.251757 340.036188 
C 437.899064 314.084251 435.432759 287.635532 427.050094 262.805372 
C 418.66743 237.975213 404.598006 215.443708 385.96708 197.012904 
C 367.336155 178.582101 344.654028 164.756816 319.734791 156.642783 
C 294.815554 148.528749 268.341744 146.348209 242.430707 150.27556 
L 267.643776 316.620963 
z
"/>
   </g>
   <g id="patch_23">
    <path d="M 236.751189 156.016747 
C 205.905933 160.69198 176.960552 173.855754 153.164138 194.030447 
C 129.367723 214.20514 111.645259 240.606547 101.986077 270.271135 
C 92.326894 299.935723 91.106451 331.710407 98.461743 362.028509 
C 105.817035 392.34661 121.462155 420.029642 143.640953 441.97021 
C 165.819751 463.910777 193.670121 479.256034 224.065885 486.28349 
C 254.461649 493.310946 286.2213 491.747438 315.779849 481.768469 
C 345.338397 471.789499 371.546879 453.782959 391.463417 429.770064 
C 411.379955 405.75717 424.230378 376.67132 428.572239 345.777375 
L 261.964257 322.36215 
z
"/>
   </g>
   <g id="patch_24">
    <path d="M 430.919598 339.567884 
C 434.493958 314.134985 432.076979 288.21524 423.861968 263.881684 
C 415.646957 239.548128 401.858921 217.467253 383.600614 199.405066 
C 365.342308 181.342878 343.113823 167.794099 318.692971 159.842346 
C 294.272119 151.890593 268.327784 149.753664 242.934969 153.602468 
L 267.643776 316.620963 
z
"/>
   </g>
   <g id="patch_25">
    <path d="M 237.25545 159.343655 
C 207.0271 163.925383 178.660626 176.825881 155.34014 196.597081 
C 132.019654 216.36828 114.651639 242.241659 105.18564 271.312956 
C 95.719641 300.384252 94.523607 331.523442 101.731793 361.235182 
C 108.939979 390.946921 124.272197 418.076292 146.007419 439.578048 
C 167.742641 461.079805 195.036004 476.118156 224.823853 483.005063 
C 254.611701 489.89197 285.73616 488.359732 314.703537 478.580342 
C 343.670914 468.800953 369.355226 451.154543 388.873433 427.621906 
C 408.391641 404.089269 420.985055 375.585137 425.240079 345.309071 
L 261.964257 322.36215 
z
"/>
   </g>
   <g id="patch_26">
    <path d="M 427.587438 339.099579 
C 431.088853 314.18572 428.7212 288.794949 420.673842 264.957996 
C 412.626484 241.121043 399.119836 219.490798 381.234148 201.797227 
C 363.34846 184.103655 341.573617 170.831382 317.65115 163.04191 
C 293.728683 155.252438 268.313825 153.159119 243.43923 156.929376 
L 267.643776 316.620963 
z
"/>
   </g>
   <g id="patch_27">
    <path d="M 237.759711 162.670563 
C 208.148266 167.158787 180.3607 179.796009 157.516142 199.163715 
C 134.671584 218.531421 117.658019 243.876771 108.385204 272.354776 
C 99.112388 300.83278 97.940764 331.336477 105.001844 360.441854 
C 112.062924 389.547232 127.082239 416.122942 148.373885 437.185887 
C 169.665531 458.248832 196.401887 472.980279 225.58182 479.726636 
C 254.761753 486.472994 285.251019 484.972026 313.627225 475.392216 
C 342.003431 465.812406 367.163574 448.526127 386.28345 425.473748 
C 405.403327 402.421369 417.739733 374.498953 421.907919 344.840766 
L 261.964257 322.36215 
z
"/>
   </g>
   <g id="patch_28">
    <path d="M 424.255278 338.631275 
C 427.683747 314.236454 425.36542 289.374658 417.485715 266.034308 
C 409.60601 242.693958 396.380752 221.514343 378.867682 204.189388 
C 361.354612 186.864433 340.033412 173.868665 316.60933 166.241474 
C 293.185248 158.614282 268.299866 156.564574 243.943491 160.256284 
L 267.643776 316.620963 
z
"/>
   </g>
   <g id="patch_29">
    <path d="M 238.263973 165.997471 
C 209.269433 170.39219 182.060775 182.766137 159.692145 201.730349 
C 137.323515 220.694561 120.664399 245.511883 111.584767 273.396596 
C 102.505136 301.281309 101.35792 331.149512 108.271894 359.648527 
C 115.185868 388.147543 129.892281 414.169592 150.740351 434.793726 
C 171.588422 455.417859 197.767769 469.842401 226.339787 476.44821 
C 254.911805 483.054018 284.765878 481.584321 312.550913 472.20409 
C 340.335948 462.823859 364.971921 445.89771 383.693467 423.325589 
C 402.415013 400.753468 414.494411 373.41277 418.57576 344.372462 
L 261.964257 322.36215 
z
"/>
   </g>
   <g id="patch_30">
    <path d="M 420.923119 338.16297 
C 424.278641 314.287188 422.00964 289.954366 414.297589 267.11062 
C 406.585537 244.266873 393.641667 223.537888 376.501216 206.581549 
C 359.360765 189.62521 338.493207 176.905948 315.56751 169.441037 
C 292.641812 161.976126 268.285906 159.970029 244.447753 163.583192 
L 267.643776 316.620963 
z
"/>
   </g>
   <g id="patch_31">
    <path d="M 238.768234 169.324379 
C 210.390599 173.625593 183.760849 185.736265 161.868147 204.296983 
C 139.975446 222.857701 123.670779 247.146996 114.784331 274.438417 
C 105.897883 301.729838 104.775076 330.962547 111.541944 358.8552 
C 118.308813 386.747854 132.702323 412.216243 153.106817 432.401565 
C 173.511312 452.586887 199.133652 466.704523 227.097755 473.169783 
C 255.061858 479.635042 284.280737 478.196615 311.474601 469.015963 
C 338.668466 459.835312 362.780269 443.269294 381.103484 421.177431 
C 399.426699 399.085568 411.249088 372.326587 415.2436 343.904157 
L 261.964257 322.36215 
z
"/>
   </g>
   <g id="patch_32">
    <path d="M 459.497578 336.643457 
C 463.874346 305.501133 460.91478 273.76267 450.855582 243.966478 
C 440.796384 214.170287 423.913076 187.132481 401.555965 165.015516 
C 379.198855 142.898552 351.980302 126.308211 322.077218 116.57137 
C 292.174134 106.83453 260.405561 104.217882 229.312318 108.930703 
L 259.568 308.545187 
z
" style="fill: #f45f74"/>
   </g>
   <g id="patch_33">
    <path d="M 223.632799 114.67189 
C 186.618492 120.28217 151.884035 136.078698 123.328338 160.28833 
C 94.77264 184.497962 73.505684 216.179651 61.914664 251.777156 
C 50.323645 287.374662 48.859114 325.504283 57.685464 361.886005 
C 66.511814 398.267726 85.285958 431.487364 111.900516 457.816045 
C 138.515074 484.144726 171.935518 502.559035 208.410435 510.991982 
C 244.885351 519.424929 282.996933 517.548719 318.467191 505.573956 
C 353.937449 493.599193 385.387627 471.991345 409.287472 443.175871 
C 433.187318 414.360397 448.607826 379.457378 453.818059 342.384644 
L 253.888481 314.286374 
z
" style="fill: #00b0be"/>
   </g>
   <g id="patch_34">
    <path d="M 457.098423 336.306278 
C 461.42267 305.537661 458.498618 274.18006 448.560131 244.741423 
C 438.621644 215.302785 421.940935 188.589433 399.85211 166.737873 
C 377.763285 144.886312 350.871354 128.495054 321.327107 118.875056 
C 291.782861 109.255058 260.395511 106.66981 229.675386 111.326077 
L 259.568 308.545187 
z
" style="fill: #f45f74"/>
   </g>
   <g id="patch_35">
    <path d="M 223.995867 117.067264 
C 187.425732 122.61022 153.108089 138.21719 124.895059 162.136307 
C 96.68203 186.055423 75.670277 217.356931 64.21835 252.527267 
C 52.766423 287.697603 51.319467 325.369668 60.0399 361.314809 
C 68.760334 397.25995 87.309188 430.080952 113.604372 456.093689 
C 139.899555 482.106426 172.918954 500.299763 208.956171 508.631515 
C 244.993389 516.963266 282.647632 515.109571 317.692246 503.278505 
C 352.736861 491.447439 383.809637 470.098885 407.422684 441.629197 
C 431.035732 413.159509 446.271194 378.675326 451.418904 342.047465 
L 253.888481 314.286374 
z
" style="fill: #00b0be"/>
   </g>
   <g id="patch_36">
    <path d="M 454.699268 335.969099 
C 458.970994 305.57419 456.082457 274.59745 446.26468 245.516367 
C 436.446903 216.435284 419.968794 190.046386 398.148254 168.460229 
C 376.327715 146.874072 349.762407 130.681898 320.576997 121.178742 
C 291.391587 111.675586 260.38546 109.121737 230.038454 113.721451 
L 259.568 308.545187 
z
" style="fill: #f45f74"/>
   </g>
   <g id="patch_37">
    <path d="M 224.358935 119.462637 
C 188.232972 124.938271 154.332142 140.355682 126.461781 163.984283 
C 98.59142 187.612884 77.834871 218.534212 66.522036 253.277378 
C 55.209201 288.020543 53.779819 325.235053 62.394337 360.743613 
C 71.008854 396.252174 89.332419 428.674541 115.308227 454.371333 
C 141.284036 480.068126 173.902389 498.040491 209.501908 506.271047 
C 245.101426 514.501604 282.29833 512.670423 316.917302 500.983054 
C 351.536273 489.295686 382.231647 468.206425 405.557897 440.082523 
C 428.884146 411.958621 443.934562 377.893274 449.019749 341.710286 
L 253.888481 314.286374 
z
" style="fill: #00b0be"/>
   </g>
   <g id="patch_38">
    <path d="M 452.300113 335.63192 
C 456.519317 305.610719 453.666296 275.01484 443.969229 246.291312 
C 434.272163 217.567783 417.996653 191.503338 396.444399 170.182585 
C 374.892144 148.861831 348.653459 132.868742 319.826886 123.482428 
C 291.000313 114.096114 260.375409 111.573665 230.401522 116.116824 
L 259.568 308.545187 
z
" style="fill: #f45f74"/>
   </g>
   <g id="patch_39">
    <path d="M 224.722004 121.858011 
C 189.040212 127.266321 155.556195 142.494175 128.028503 165.83226 
C 100.50081 189.170345 79.999465 219.711493 68.825722 254.027488 
C 57.651979 288.343484 56.240171 325.100438 64.748773 360.172418 
C 73.257374 395.244398 91.355649 427.268129 117.012083 452.648977 
C 142.668517 478.029826 174.885825 495.781219 210.047644 503.91058 
C 245.209464 512.039941 281.949029 510.231275 316.142357 498.687603 
C 350.335686 487.143932 380.653657 466.313966 403.693109 438.535849 
C 426.73256 410.757733 441.59793 377.111222 446.620594 341.373106 
L 253.888481 314.286374 
z
" style="fill: #00b0be"/>
   </g>
   <g id="patch_40">
    <path d="M 449.900958 335.29474 
C 454.067641 305.647247 451.250134 275.43223 441.673778 247.066256 
C 432.097422 218.700282 416.024512 192.960291 394.740543 171.904941 
C 373.456574 150.849591 347.544511 135.055586 319.076776 125.786114 
C 290.60904 116.516642 260.365358 114.025593 230.76459 118.512198 
L 259.568 308.545187 
z
" style="fill: #f45f74"/>
   </g>
   <g id="patch_41">
    <path d="M 225.085072 124.253385 
C 189.847452 129.594371 156.780249 144.632667 129.595225 167.680236 
C 102.410201 190.727806 82.164058 220.888773 71.129408 254.777599 
C 60.094757 288.666424 58.700524 324.965823 67.103209 359.601222 
C 75.505894 394.236621 93.378879 425.861717 118.715938 450.926621 
C 144.052998 475.991525 175.86926 493.521947 210.593381 501.550113 
C 245.317501 509.578278 281.599727 507.792127 315.367413 496.392152 
C 349.135098 484.992178 379.075668 464.421506 401.828321 436.989175 
C 424.580974 409.556844 439.261297 376.32917 444.221439 341.035927 
L 253.888481 314.286374 
z
" style="fill: #00b0be"/>
   </g>
   <g id="patch_42">
    <path d="M 447.501803 334.957561 
C 451.615965 305.683776 448.833973 275.849621 439.378327 247.841201 
C 429.922681 219.832781 414.052371 194.417243 393.036687 173.627297 
C 372.021004 152.83735 346.435564 137.242429 318.326665 128.0898 
C 290.217766 118.93717 260.355308 116.47752 231.127659 120.907572 
L 259.568 308.545187 
z
" style="fill: #f45f74"/>
   </g>
   <g id="patch_43">
    <path d="M 225.44814 126.648759 
C 190.654692 131.922422 158.004302 146.771159 131.161946 169.528213 
C 104.319591 192.285267 84.328652 222.066054 73.433093 255.527709 
C 62.537535 288.989365 61.160876 324.831208 69.457645 359.030027 
C 77.754414 393.228845 95.40211 424.455305 120.419794 449.204265 
C 145.437478 473.953225 176.852696 491.262675 211.139117 499.189645 
C 245.425539 507.116616 281.250426 505.352979 314.592468 494.096701 
C 347.934511 482.840424 377.497678 462.529046 399.963533 435.442501 
C 422.429388 408.355956 436.924665 375.547118 441.822284 340.698748 
L 253.888481 314.286374 
z
" style="fill: #00b0be"/>
   </g>
   <g id="patch_44">
    <path d="M 445.102648 334.620382 
C 449.164289 305.720305 446.417812 276.267011 437.082876 248.616145 
C 427.747941 220.96528 412.08023 195.874196 391.332832 175.349653 
C 370.585434 154.82511 345.326616 139.429273 317.576554 130.393485 
C 289.826493 121.357698 260.345257 118.929448 231.490727 123.302946 
L 259.568 308.545187 
z
" style="fill: #f45f74"/>
   </g>
   <g id="patch_45">
    <path d="M 225.811208 129.044133 
C 191.461932 134.250472 159.228355 148.909651 132.728668 171.376189 
C 106.228981 193.842728 86.493245 223.243335 75.736779 256.27782 
C 64.980313 289.312305 63.621229 324.696593 71.812081 358.458831 
C 80.002934 392.221069 97.42534 423.048893 122.12365 447.481909 
C 146.821959 471.914925 177.836131 489.003403 211.684854 496.829178 
C 245.533577 504.654953 280.901124 502.913831 313.817524 491.80125 
C 346.733923 480.68867 375.919688 460.636587 398.098745 433.895827 
C 420.277802 407.155068 434.588033 374.765066 439.423129 340.361569 
L 253.888481 314.286374 
z
" style="fill: #00b0be"/>
   </g>
   <g id="patch_46">
    <path d="M 442.703493 334.283203 
C 446.712613 305.756833 444.00165 276.684401 434.787425 249.39109 
C 425.5732 222.097778 410.108089 197.331148 389.628976 177.072009 
C 369.149863 156.81287 344.217668 141.616117 316.826444 132.697171 
C 289.435219 123.778225 260.335206 121.381376 231.853795 125.69832 
L 259.568 308.545187 
z
" style="fill: #f45f74"/>
   </g>
   <g id="patch_47">
    <path d="M 226.174276 131.439507 
C 192.269171 136.578523 160.452409 151.048143 134.29539 173.224166 
C 108.138371 195.400189 88.657839 224.420615 78.040465 257.027931 
C 67.423091 289.635246 66.081581 324.561978 74.166518 357.887636 
C 82.251454 391.213293 99.44857 421.642481 123.827505 445.759553 
C 148.20644 469.876625 178.819567 486.744131 212.230591 494.468711 
C 245.641614 502.19329 280.551823 500.474682 313.042579 489.505799 
C 345.533335 478.536917 374.341699 458.744127 396.233957 432.349153 
C 418.126216 405.95418 432.251401 373.983014 437.023974 340.024389 
L 253.888481 314.286374 
z
" style="fill: #00b0be"/>
   </g>
   <g id="patch_48">
    <path d="M 440.304338 333.946023 
C 444.260937 305.793362 441.585489 277.101791 432.491974 250.166034 
C 423.39846 223.230277 408.135948 198.7881 387.925121 178.794365 
C 367.714293 158.800629 343.108721 143.802961 316.076333 135.000857 
C 289.043945 126.198753 260.325155 123.833303 232.216863 128.093693 
L 259.568 308.545187 
z
" style="fill: #f45f74"/>
   </g>
   <g id="patch_49">
    <path d="M 226.537345 133.83488 
C 193.076411 138.906573 161.676462 153.186635 135.862111 175.072142 
C 110.047761 196.95765 90.822432 225.597896 80.344151 257.778041 
C 69.865869 289.958186 68.541933 324.427363 76.520954 357.31644 
C 84.499974 390.205517 101.4718 420.236069 125.531361 444.037197 
C 149.590921 467.838325 179.803002 484.484859 212.776327 492.108243 
C 245.749652 499.731628 280.202522 498.035534 312.267635 487.210349 
C 344.332748 476.385163 372.763709 456.851668 394.369169 430.802479 
C 415.97463 404.753291 429.914769 373.200962 434.62482 339.68721 
L 253.888481 314.286374 
z
" style="fill: #00b0be"/>
   </g>
   <g id="patch_50">
    <path d="M 437.905183 333.608844 
C 441.809261 305.829891 439.169327 277.519181 430.196523 250.940979 
C 421.223719 224.362776 406.163807 200.245053 386.221265 180.516721 
C 366.278723 160.788389 341.999773 145.989804 315.326222 137.304543 
C 288.652672 128.619281 260.315105 126.285231 232.579931 130.489067 
L 259.568 308.545187 
z
" style="fill: #f45f74"/>
   </g>
   <g id="patch_51">
    <path d="M 226.900413 136.230254 
C 193.883651 141.234624 162.900515 155.325127 137.428833 176.920119 
C 111.957151 198.515111 92.987026 226.775177 82.647837 258.528152 
C 72.308647 290.281127 71.002286 324.292749 78.87539 356.745244 
C 86.748494 389.19774 103.495031 418.829657 127.235216 442.314841 
C 150.975402 465.800024 180.786438 482.225587 213.322064 489.747776 
C 245.857689 497.269965 279.85322 495.596386 311.49269 484.914898 
C 343.13216 474.233409 371.185719 454.959208 392.504381 429.255805 
C 413.823044 403.552403 427.578137 372.41891 432.225665 339.350031 
L 253.888481 314.286374 
z
" style="fill: #00b0be"/>
   </g>
   <g id="patch_52">
    <path d="M 435.506028 333.271665 
C 439.357584 305.866419 436.753166 277.936572 427.901072 251.715923 
C 419.048978 225.495275 404.191666 201.702005 384.517409 182.239077 
C 364.843152 162.776149 340.890826 148.176648 314.576112 139.608229 
C 288.261398 131.039809 260.305054 128.737159 232.942999 132.884441 
L 259.568 308.545187 
z
" style="fill: #f45f74"/>
   </g>
   <g id="patch_53">
    <path d="M 227.263481 138.625628 
C 194.690891 143.562674 164.124569 157.463619 138.995555 178.768095 
C 113.866541 200.072572 95.15162 227.952458 84.951522 259.278262 
C 74.751425 290.604067 73.462638 324.158134 81.229826 356.174049 
C 88.997014 388.189964 105.518261 417.423246 128.939072 440.592485 
C 152.359883 463.761724 181.769874 479.966316 213.8678 487.387309 
C 245.965727 494.808302 279.503919 493.157238 310.717746 482.619447 
C 341.931573 472.081655 369.607729 453.066748 390.639593 427.709131 
C 411.671458 402.351515 425.241505 371.636858 429.82651 339.012852 
L 253.888481 314.286374 
z
" style="fill: #00b0be"/>
   </g>
   <g id="patch_54">
    <path d="M 433.106873 332.934486 
C 436.905908 305.902948 434.337005 278.353962 425.605621 252.490868 
C 416.874238 226.627774 402.219526 203.158958 382.813554 183.961433 
C 363.407582 164.763908 339.781878 150.363492 313.826001 141.911914 
C 287.870124 133.460337 260.295003 131.189086 233.306068 135.279815 
L 259.568 308.545187 
z
" style="fill: #f45f74"/>
   </g>
   <g id="patch_55">
    <path d="M 227.626549 141.021002 
C 195.498131 145.890725 165.348622 159.602111 140.562277 180.616072 
C 115.775931 201.630032 97.316213 229.129738 87.255208 260.028373 
C 77.194203 290.927008 75.922991 324.023519 83.584262 355.602853 
C 91.245534 387.182188 107.541491 416.016834 130.642928 438.870129 
C 153.744364 461.723424 182.753309 477.707044 214.413537 485.026842 
C 246.073764 492.34664 279.154617 490.71809 309.942801 480.323996 
C 340.730985 469.929901 368.02974 451.174289 388.774806 426.162457 
C 409.519872 401.150626 422.904872 370.854806 427.427355 338.675672 
L 253.888481 314.286374 
z
" style="fill: #00b0be"/>
   </g>
   <g id="patch_56">
    <path d="M 430.707718 332.597306 
C 434.454232 305.939477 431.920843 278.771352 423.31017 253.265812 
C 414.699497 227.760272 400.247385 204.61591 381.109698 185.683789 
C 361.972012 166.751668 338.67293 152.550335 313.075891 144.2156 
C 287.478851 135.880865 260.284952 133.641014 233.669136 137.675189 
L 259.568 308.545187 
z
" style="fill: #f45f74"/>
   </g>
   <g id="patch_57">
    <path d="M 227.989617 143.416376 
C 196.305371 148.218775 166.572675 161.740604 142.128998 182.464048 
C 117.685321 203.187493 99.480807 230.307019 89.558894 260.778484 
C 79.636981 291.249949 78.383343 323.888904 85.938699 355.031658 
C 93.494054 386.174412 109.564722 414.610422 132.346783 437.147773 
C 155.128845 459.685124 183.736745 475.447772 214.959273 482.666374 
C 246.181802 489.884977 278.805316 488.278942 309.167857 478.028545 
C 339.530397 467.778147 366.45175 449.281829 386.910018 424.615784 
C 407.368285 399.949738 420.56824 370.072754 425.0282 338.338493 
L 253.888481 314.286374 
z
" style="fill: #00b0be"/>
   </g>
   <g id="patch_58">
    <path d="M 428.308563 332.260127 
C 432.002556 305.976005 429.504682 279.188742 421.014719 254.040757 
C 412.524756 228.892771 398.275244 206.072863 379.405843 187.406145 
C 360.536442 168.739427 337.563983 154.737179 312.32578 146.519286 
C 287.087577 138.301393 260.274902 136.092942 234.032204 140.070563 
L 259.568 308.545187 
z
" style="fill: #f45f74"/>
   </g>
   <g id="patch_59">
    <path d="M 228.352685 145.811749 
C 197.112611 150.546826 167.796729 163.879096 143.69572 184.312025 
C 119.594711 204.744954 101.6454 231.4843 91.86258 261.528594 
C 82.079759 291.572889 80.843695 323.754289 88.293135 354.460462 
C 95.742574 385.166635 111.587952 413.20401 134.050639 435.425417 
C 156.513326 457.646823 184.72018 473.1885 215.50501 480.305907 
C 246.28984 487.423314 278.456015 485.839794 308.392912 475.733094 
C 338.32981 465.626394 364.87376 447.389369 385.04523 423.06911 
C 405.216699 398.74885 418.231608 369.290702 422.629045 338.001314 
L 253.888481 314.286374 
z
" style="fill: #00b0be"/>
   </g>
   <g id="patch_60">
    <path d="M 425.909409 331.922948 
C 429.55088 306.012534 427.088521 279.606133 418.719268 254.815701 
C 410.350016 230.02527 396.303103 207.529815 377.701987 189.128501 
C 359.100871 170.727187 336.455035 156.924023 311.575669 148.822972 
C 286.696304 140.721921 260.264851 138.544869 234.395272 142.465936 
L 259.568 308.545187 
z
" style="fill: #f45f74"/>
   </g>
   <g id="patch_61">
    <path d="M 228.715754 148.207123 
C 197.91985 152.874876 169.020782 166.017588 145.262442 186.160002 
C 121.504101 206.302415 103.809994 232.66158 94.166266 262.278705 
C 84.522537 291.89583 83.304048 323.619674 90.647571 353.889267 
C 97.991094 384.158859 113.611182 411.797598 135.754494 433.703061 
C 157.897806 455.608523 185.703616 470.929228 216.050746 477.94544 
C 246.397877 484.961652 278.106713 483.400645 307.617968 473.437643 
C 337.129222 463.47464 363.29577 445.49691 383.180442 421.522436 
C 403.065113 397.547962 415.894976 368.508649 420.22989 337.664135 
L 253.888481 314.286374 
z
" style="fill: #00b0be"/>
   </g>
   <g id="patch_62">
    <path d="M 423.510254 331.585769 
C 427.099204 306.049063 424.672359 280.023523 416.423817 255.590646 
C 408.175275 231.157769 394.330962 208.986768 375.998132 190.850857 
C 357.665301 172.714947 335.346088 159.110867 310.825559 151.126658 
C 286.30503 143.142449 260.2548 140.996797 234.75834 144.86131 
L 259.568 308.545187 
z
" style="fill: #f45f74"/>
   </g>
   <g id="patch_63">
    <path d="M 229.078822 150.602497 
C 198.72709 155.202926 170.244835 168.15608 146.829164 188.007978 
C 123.413492 207.859876 105.974587 233.838861 96.469951 263.028816 
C 86.965316 292.21877 85.7644 323.485059 93.002007 353.318071 
C 100.239614 383.151083 115.634412 410.391186 137.45835 431.980705 
C 159.282287 453.570223 186.687051 468.669956 216.596483 475.584972 
C 246.505915 482.499989 277.757412 480.961497 306.843023 471.142192 
C 335.928635 461.322886 361.717781 443.60445 381.315654 419.975762 
C 400.913527 396.347073 413.558344 367.726597 417.830735 337.326956 
L 253.888481 314.286374 
z
" style="fill: #00b0be"/>
   </g>
   <g id="patch_64">
    <path d="M 421.111099 331.248589 
C 424.647527 306.085591 422.256198 280.440913 414.128366 256.36559 
C 406.000535 232.290268 392.358821 210.44372 374.294276 192.573213 
C 356.229731 174.702706 334.23714 161.29771 310.075448 153.430343 
C 285.913756 145.562976 260.244749 143.448725 235.121409 147.256684 
L 259.568 308.545187 
z
" style="fill: #f45f74"/>
   </g>
   <g id="patch_65">
    <path d="M 229.44189 152.997871 
C 199.53433 157.530977 171.468889 170.294572 148.395885 189.855955 
C 125.322882 209.417337 108.139181 235.016142 98.773637 263.778926 
C 89.408094 292.541711 88.224753 323.350444 95.356443 352.746876 
C 102.488134 382.143307 117.657643 408.984774 139.162205 430.258349 
C 160.666768 451.531923 187.670487 466.410684 217.14222 473.224505 
C 246.613952 480.038326 277.40811 478.522349 306.068079 468.846741 
C 334.728047 459.171132 360.139791 441.71199 379.450866 418.429088 
C 398.761941 395.146185 411.221712 366.944545 415.43158 336.989776 
L 253.888481 314.286374 
z
" style="fill: #00b0be"/>
   </g>
   <g id="patch_66">
    <path d="M 418.711944 330.91141 
C 422.195851 306.12212 419.840037 280.858303 411.832915 257.140535 
C 403.825794 233.422766 390.38668 211.900673 372.59042 194.295569 
C 354.794161 176.690466 333.128192 163.484554 309.325338 155.734029 
C 285.522483 147.983504 260.234699 145.900652 235.484477 149.652058 
L 259.568 308.545187 
z
" style="fill: #f45f74"/>
   </g>
   <g id="patch_67">
    <path d="M 229.804958 155.393245 
C 200.34157 159.859027 172.692942 172.433064 149.962607 191.703931 
C 127.232272 210.974798 110.303775 236.193422 101.077323 264.529037 
C 91.850872 292.864651 90.685105 323.215829 97.71088 352.17568 
C 104.736654 381.135531 119.680873 407.578362 140.866061 428.535992 
C 162.051249 449.493623 188.653923 464.151412 217.687956 470.864038 
C 246.72199 477.576664 277.058809 476.083201 305.293134 466.55129 
C 333.527459 457.019378 358.561801 439.819531 377.586078 416.882414 
C 396.610355 393.945297 408.88508 366.162493 413.032425 336.652597 
L 253.888481 314.286374 
z
" style="fill: #00b0be"/>
   </g>
   <g id="patch_68">
    <path d="M 416.312789 330.574231 
C 419.744175 306.158648 417.423875 281.275693 409.537464 257.915479 
C 401.651053 234.555265 388.414539 213.357625 370.886565 196.017925 
C 353.35859 178.678226 332.019245 165.671398 308.575227 158.037715 
C 285.131209 150.404032 260.224648 148.35258 235.847545 152.047432 
L 259.568 308.545187 
z
" style="fill: #f45f74"/>
   </g>
   <g id="patch_69">
    <path d="M 230.168026 157.788618 
C 201.14881 162.187078 173.916996 174.571556 151.529329 193.551908 
C 129.141662 212.532259 112.468368 237.370703 103.381009 265.279147 
C 94.29365 293.187592 93.145457 323.081214 100.065316 351.604484 
C 106.985174 380.127754 121.704103 406.17195 142.569917 426.813636 
C 163.43573 447.455322 189.637358 461.89214 218.233693 468.503571 
C 246.830027 475.115001 276.709507 473.644053 304.51819 464.255839 
C 332.326872 454.867624 356.983811 437.927071 375.72129 415.33574 
C 394.458769 392.744408 406.548448 365.380441 410.63327 336.315418 
L 253.888481 314.286374 
z
" style="fill: #00b0be"/>
   </g>
   <g id="patch_70">
    <path d="M 413.913634 330.237052 
C 417.292499 306.195177 415.007714 281.693084 407.242013 258.690424 
C 399.476313 235.687764 386.442398 214.814578 369.182709 197.740281 
C 351.92302 180.665985 330.910297 167.858241 307.825116 160.341401 
C 284.739936 152.82456 260.214597 150.804508 236.210613 154.442805 
L 259.568 308.545187 
z
" style="fill: #f45f74"/>
   </g>
   <g id="patch_71">
    <path d="M 230.531095 160.183992 
C 201.95605 164.515128 175.141049 176.710048 153.09605 195.399884 
C 131.051052 214.08972 114.632962 238.547984 105.684695 266.029258 
C 96.736428 293.510532 95.60581 322.9466 102.419752 351.033289 
C 109.233694 379.119978 123.727333 404.765539 144.273772 425.09128 
C 164.820211 445.417022 190.620794 459.632868 218.779429 466.143103 
C 246.938065 472.653338 276.360206 471.204905 303.743245 461.960388 
C 331.126284 452.715871 355.405822 436.034611 373.856502 413.789066 
C 392.307183 391.54352 404.211815 364.598389 408.234115 335.978239 
L 253.888481 314.286374 
z
" style="fill: #00b0be"/>
   </g>
   <g id="patch_72">
    <path d="M 411.514479 329.899872 
C 414.840823 306.231706 412.591553 282.110474 404.946562 259.465368 
C 397.301572 236.820263 384.470257 216.27153 367.478854 199.462638 
C 350.48745 182.653745 329.801349 170.045085 307.075006 162.645087 
C 284.348662 155.245088 260.204547 153.256435 236.573681 156.838179 
L 259.568 308.545187 
z
" style="fill: #f45f74"/>
   </g>
   <g id="patch_73">
    <path d="M 230.894163 162.579366 
C 202.76329 166.843179 176.365102 178.84854 154.662772 197.247861 
C 132.960442 215.647181 116.797555 239.725264 107.98838 266.779369 
C 99.179206 293.833473 98.066162 322.811985 104.774188 350.462093 
C 111.482214 378.112202 125.750564 403.359127 145.977628 423.368924 
C 166.204692 443.378722 191.604229 457.373596 219.325166 463.782636 
C 247.046102 470.191676 276.010905 468.765757 302.968301 459.664937 
C 329.925696 450.564117 353.827832 434.142152 371.991715 412.242392 
C 390.155597 390.342632 401.875183 363.816337 405.83496 335.641059 
L 253.888481 314.286374 
z
" style="fill: #00b0be"/>
   </g>
   <g id="patch_74">
    <path d="M 409.115324 329.562693 
C 412.389147 306.268234 410.175391 282.527864 402.651111 260.240313 
C 395.126832 237.952762 382.498116 217.728483 365.774998 201.184994 
C 349.05188 184.641504 328.692402 172.231929 306.324895 164.948772 
C 283.957388 157.665616 260.194496 155.708363 236.93675 159.233553 
L 259.568 308.545187 
z
" style="fill: #f45f74"/>
   </g>
   <g id="patch_75">
    <path d="M 231.257231 164.97474 
C 203.57053 169.171229 177.589156 180.987033 156.229494 199.095837 
C 134.869832 217.204642 118.962149 240.902545 110.292066 267.529479 
C 101.621984 294.156413 100.526515 322.67737 107.128625 349.890898 
C 113.730734 377.104426 127.773794 401.952715 147.681483 421.646568 
C 167.589173 441.340422 192.587665 455.114324 219.870902 461.422169 
C 247.15414 467.730013 275.661603 466.326608 302.193356 457.369486 
C 328.725109 448.412363 352.249842 432.249692 370.126927 410.695718 
C 388.004011 389.141744 399.538551 363.034285 403.435805 335.30388 
L 253.888481 314.286374 
z
" style="fill: #00b0be"/>
   </g>
   <g id="patch_76">
    <path d="M 406.716169 329.225514 
C 409.937471 306.304763 407.75923 282.945254 400.35566 261.015257 
C 392.952091 239.08526 380.525976 219.185435 364.071142 202.90735 
C 347.616309 186.629264 327.583454 174.418773 305.574784 167.252458 
C 283.566115 160.086144 260.184445 158.160291 237.299818 161.628927 
L 259.568 308.545187 
z
" style="fill: #f45f74"/>
   </g>
   <g id="patch_77">
    <path d="M 231.620299 167.370114 
C 204.377769 171.49928 178.813209 183.125525 157.796216 200.943814 
C 136.779222 218.762103 121.126742 242.079826 112.595752 268.27959 
C 104.064762 294.479354 102.986867 322.542755 109.483061 349.319702 
C 115.979254 376.096649 129.797024 400.546303 149.385339 419.924212 
C 168.973654 439.302121 193.5711 452.855052 220.416639 459.061701 
C 247.262178 465.26835 275.312302 463.88746 301.418412 455.074035 
C 327.524521 446.260609 350.671852 430.357232 368.262139 409.149044 
C 385.852425 387.940855 397.201919 362.252233 401.03665 334.966701 
L 253.888481 314.286374 
z
" style="fill: #00b0be"/>
   </g>
   <g id="patch_78">
    <path d="M 404.317014 328.888335 
C 407.485794 306.341292 405.343068 283.362644 398.060209 261.790202 
C 390.77735 240.217759 378.553835 220.642388 362.367287 204.629706 
C 346.180739 188.617024 326.474507 176.605616 304.824674 169.556144 
C 283.174841 162.506672 260.174394 160.612218 237.662886 164.024301 
L 259.568 308.545187 
z
" style="fill: #f45f74"/>
   </g>
   <g id="patch_79">
    <path d="M 231.983367 169.765488 
C 205.185009 173.82733 180.037262 185.264017 159.362937 202.79179 
C 138.688612 220.319564 123.291336 243.257106 114.899438 269.0297 
C 106.50754 294.802295 105.44722 322.40814 111.837497 348.748507 
C 118.227774 375.088873 131.820255 399.139891 151.089195 418.201856 
C 170.358134 437.263821 194.554536 450.595781 220.962376 456.701234 
C 247.370215 462.806688 274.963 461.448312 300.643467 452.778584 
C 326.323934 444.108855 349.093863 428.464773 366.397351 407.60237 
C 383.700839 386.739967 394.865287 361.470181 398.637496 334.629522 
L 253.888481 314.286374 
z
" style="fill: #00b0be"/>
   </g>
   <g id="patch_80">
    <path d="M 401.917859 328.551156 
C 405.034118 306.37782 402.926907 283.780035 395.764758 262.565146 
C 388.60261 241.350258 376.581694 222.09934 360.663431 206.352062 
C 344.745169 190.604783 325.365559 178.79246 304.074563 171.85983 
C 282.783568 164.9272 260.164344 163.064146 238.025954 166.419675 
L 259.568 308.545187 
z
" style="fill: #f45f74"/>
   </g>
   <g id="patch_81">
    <path d="M 232.346436 172.160861 
C 205.992249 176.155381 181.261316 187.402509 160.929659 204.639767 
C 140.598002 221.877025 125.45593 244.434387 117.203124 269.779811 
C 108.950318 295.125235 107.907572 322.273525 114.191933 348.177311 
C 120.476294 374.081097 133.843485 397.733479 152.79305 416.4795 
C 171.742615 435.225521 195.537971 448.336509 221.508112 454.340767 
C 247.478253 460.345025 274.613699 459.009164 299.868522 450.483133 
C 325.123346 441.957101 347.515873 426.572313 364.532563 406.055696 
C 381.549253 385.539079 392.528655 360.688129 396.238341 334.292342 
L 253.888481 314.286374 
z
" style="fill: #00b0be"/>
   </g>
   <g id="patch_82">
    <path d="M 459.497578 336.643457 
C 463.874346 305.501133 460.91478 273.76267 450.855582 243.966478 
C 440.796384 214.170287 423.913076 187.132481 401.555965 165.015516 
C 379.198855 142.898552 351.980302 126.308211 322.077218 116.57137 
C 292.174134 106.83453 260.405561 104.217882 229.312318 108.930703 
L 259.568 308.545187 
z
" style="fill: #f45f74; stroke: #ffffff; stroke-width: 1.5; stroke-linejoin: miter"/>
   </g>
   <g id="patch_83">
    <path d="M 223.632799 114.67189 
C 186.618492 120.28217 151.884035 136.078698 123.328338 160.28833 
C 94.77264 184.497962 73.505684 216.179651 61.914664 251.777156 
C 50.323645 287.374662 48.859114 325.504283 57.685464 361.886005 
C 66.511814 398.267726 85.285958 431.487364 111.900516 457.816045 
C 138.515074 484.144726 171.935518 502.559035 208.410435 510.991982 
C 244.885351 519.424929 282.996933 517.548719 318.467191 505.573956 
C 353.937449 493.599193 385.387627 471.991345 409.287472 443.175871 
C 433.187318 414.360397 448.607826 379.457378 453.818059 342.384644 
L 253.888481 314.286374 
z
" style="fill: #00b0be; stroke: #ffffff; stroke-width: 1.5; stroke-linejoin: miter"/>
   </g>
   <g id="text_1">
    <!-- 29.6% -->
    <g style="fill: #ffffff" transform="translate(329.709998 225.18676) scale(0.1 -0.1)">
     <defs>
      <path id="DejaVuSansMono-Bold-32" d="M 1356 813 
L 3322 813 
L 3322 0 
L 359 0 
L 359 788 
L 859 1319 
Q 1750 2266 1941 2484 
Q 2175 2753 2278 2961 
Q 2381 3169 2381 3372 
Q 2381 3684 2192 3854 
Q 2003 4025 1656 4025 
Q 1409 4025 1101 3926 
Q 794 3828 459 3641 
L 459 4500 
Q 794 4622 1114 4686 
Q 1434 4750 1728 4750 
Q 2469 4750 2892 4404 
Q 3316 4059 3316 3463 
Q 3316 3188 3223 2947 
Q 3131 2706 2906 2413 
Q 2741 2200 1997 1456 
Q 1594 1053 1356 813 
z
" transform="scale(0.015625)"/>
      <path id="DejaVuSansMono-Bold-39" d="M 634 63 
L 634 903 
Q 881 759 1107 690 
Q 1334 622 1544 622 
Q 2041 622 2302 955 
Q 2563 1288 2578 1950 
Q 2431 1747 2203 1645 
Q 1975 1544 1663 1544 
Q 1034 1544 690 1942 
Q 347 2341 347 3072 
Q 347 3853 731 4281 
Q 1116 4709 1819 4709 
Q 2672 4709 3058 4139 
Q 3444 3569 3444 2297 
Q 3444 1088 2972 483 
Q 2500 -122 1556 -122 
Q 1338 -122 1105 -75 
Q 872 -28 634 63 
z
M 1844 2316 
Q 2141 2316 2298 2533 
Q 2456 2750 2456 3163 
Q 2456 3572 2298 3789 
Q 2141 4006 1844 4006 
Q 1544 4006 1383 3789 
Q 1222 3572 1222 3163 
Q 1222 2753 1383 2534 
Q 1544 2316 1844 2316 
z
" transform="scale(0.015625)"/>
      <path id="DejaVuSansMono-Bold-2e" d="M 1403 1147 
L 2444 1147 
L 2444 0 
L 1403 0 
L 1403 1147 
z
" transform="scale(0.015625)"/>
      <path id="DejaVuSansMono-Bold-36" d="M 2009 2338 
Q 1709 2338 1551 2120 
Q 1394 1903 1394 1491 
Q 1394 1081 1551 864 
Q 1709 647 2009 647 
Q 2309 647 2470 864 
Q 2631 1081 2631 1491 
Q 2631 1900 2470 2119 
Q 2309 2338 2009 2338 
z
M 3219 4556 
L 3219 3719 
Q 2972 3859 2745 3929 
Q 2519 4000 2309 4000 
Q 1809 4000 1548 3664 
Q 1288 3328 1275 2672 
Q 1422 2875 1650 2976 
Q 1878 3078 2188 3078 
Q 2819 3078 3162 2679 
Q 3506 2281 3506 1550 
Q 3506 766 3120 334 
Q 2734 -97 2034 -97 
Q 1181 -97 795 475 
Q 409 1047 409 2322 
Q 409 3534 881 4139 
Q 1353 4744 2297 4744 
Q 2516 4744 2748 4697 
Q 2981 4650 3219 4556 
z
" transform="scale(0.015625)"/>
      <path id="DejaVuSansMono-Bold-25" d="M 103 3475 
Q 103 3894 393 4184 
Q 684 4475 1100 4475 
Q 1516 4475 1808 4183 
Q 2100 3891 2100 3475 
Q 2100 3059 1808 2768 
Q 1516 2478 1100 2478 
Q 684 2478 393 2767 
Q 103 3056 103 3475 
z
M 1100 3903 
Q 922 3903 797 3779 
Q 672 3656 672 3475 
Q 672 3294 797 3170 
Q 922 3047 1100 3047 
Q 1281 3047 1404 3170 
Q 1528 3294 1528 3475 
Q 1528 3653 1403 3778 
Q 1278 3903 1100 3903 
z
M 269 1753 
L 3525 3059 
L 3653 2759 
L 378 1453 
L 269 1753 
z
M 1813 997 
Q 1813 1416 2102 1706 
Q 2391 1997 2809 1997 
Q 3222 1997 3515 1705 
Q 3809 1413 3809 997 
Q 3809 584 3515 292 
Q 3222 0 2809 0 
Q 2391 0 2102 289 
Q 1813 578 1813 997 
z
M 2803 1428 
Q 2628 1428 2504 1303 
Q 2381 1178 2381 997 
Q 2381 816 2503 692 
Q 2625 569 2803 569 
Q 2984 569 3111 694 
Q 3238 819 3238 997 
Q 3238 1175 3109 1301 
Q 2981 1428 2803 1428 
z
" transform="scale(0.015625)"/>
     </defs>
     <use xlink:href="#DejaVuSansMono-Bold-32"/>
     <use xlink:href="#DejaVuSansMono-Bold-39" x="60.205078"/>
     <use xlink:href="#DejaVuSansMono-Bold-2e" x="120.410156"/>
     <use xlink:href="#DejaVuSansMono-Bold-36" x="180.615234"/>
     <use xlink:href="#DejaVuSansMono-Bold-25" x="240.820312"/>
    </g>
   </g>
   <g id="text_2">
    <!-- 70.4% -->
    <g style="fill: #ffffff" transform="translate(153.644921 403.163552) scale(0.1 -0.1)">
     <defs>
      <path id="DejaVuSansMono-Bold-37" d="M 422 4666 
L 3372 4666 
L 3372 4013 
L 1791 0 
L 850 0 
L 2369 3853 
L 422 3853 
L 422 4666 
z
" transform="scale(0.015625)"/>
      <path id="DejaVuSansMono-Bold-30" d="M 1538 2328 
Q 1538 2494 1650 2606 
Q 1763 2719 1925 2719 
Q 2091 2719 2203 2606 
Q 2316 2494 2316 2328 
Q 2316 2166 2203 2053 
Q 2091 1941 1925 1941 
Q 1763 1941 1650 2052 
Q 1538 2163 1538 2328 
z
M 1925 3969 
Q 1606 3969 1459 3578 
Q 1313 3188 1313 2328 
Q 1313 1472 1459 1081 
Q 1606 691 1925 691 
Q 2247 691 2394 1081 
Q 2541 1472 2541 2328 
Q 2541 3188 2394 3578 
Q 2247 3969 1925 3969 
z
M 384 2328 
Q 384 3541 768 4145 
Q 1153 4750 1925 4750 
Q 2700 4750 3084 4147 
Q 3469 3544 3469 2328 
Q 3469 1116 3084 512 
Q 2700 -91 1925 -91 
Q 1153 -91 768 514 
Q 384 1119 384 2328 
z
" transform="scale(0.015625)"/>
      <path id="DejaVuSansMono-Bold-34" d="M 2169 3641 
L 991 1797 
L 2169 1797 
L 2169 3641 
z
M 2088 4666 
L 3053 4666 
L 3053 1797 
L 3566 1797 
L 3566 1006 
L 3053 1006 
L 3053 0 
L 2169 0 
L 2169 1006 
L 319 1006 
L 319 1900 
L 2088 4666 
z
" transform="scale(0.015625)"/>
     </defs>
     <use xlink:href="#DejaVuSansMono-Bold-37"/>
     <use xlink:href="#DejaVuSansMono-Bold-30" x="60.205078"/>
     <use xlink:href="#DejaVuSansMono-Bold-2e" x="120.410156"/>
     <use xlink:href="#DejaVuSansMono-Bold-34" x="180.615234"/>
     <use xlink:href="#DejaVuSansMono-Bold-25" x="240.820312"/>
    </g>
   </g>
   <g id="text_3">
    <!-- Syed Mustafa Kamal (MQM) -->
    <g transform="translate(371.908605 119.117084) scale(0.1 -0.1)">
     <defs>
      <path id="DejaVuSansMono-Bold-53" d="M 1594 2047 
Q 897 2313 650 2605 
Q 403 2897 403 3391 
Q 403 4025 809 4387 
Q 1216 4750 1925 4750 
Q 2247 4750 2569 4676 
Q 2891 4603 3206 4459 
L 3206 3559 
Q 2909 3769 2603 3878 
Q 2297 3988 1997 3988 
Q 1663 3988 1484 3853 
Q 1306 3719 1306 3469 
Q 1306 3275 1436 3148 
Q 1566 3022 1978 2869 
L 2375 2719 
Q 2938 2513 3203 2172 
Q 3469 1831 3469 1313 
Q 3469 606 3051 257 
Q 2634 -91 1791 -91 
Q 1444 -91 1095 -8 
Q 747 75 422 238 
L 422 1191 
Q 791 928 1136 800 
Q 1481 672 1819 672 
Q 2159 672 2346 826 
Q 2534 981 2534 1259 
Q 2534 1469 2409 1626 
Q 2284 1784 2047 1875 
L 1594 2047 
z
" transform="scale(0.015625)"/>
      <path id="DejaVuSansMono-Bold-79" d="M 2222 -378 
Q 2038 -872 1780 -1098 
Q 1522 -1325 1153 -1325 
L 397 -1325 
L 397 -628 
L 769 -628 
Q 1050 -628 1181 -533 
Q 1313 -438 1447 -91 
L 1516 97 
L 184 3500 
L 1147 3500 
L 1947 1228 
L 2713 3500 
L 3675 3500 
L 2222 -378 
z
" transform="scale(0.015625)"/>
      <path id="DejaVuSansMono-Bold-65" d="M 3444 172 
Q 3125 41 2794 -25 
Q 2463 -91 2094 -91 
Q 1216 -91 752 379 
Q 288 850 288 1734 
Q 288 2591 734 3087 
Q 1181 3584 1953 3584 
Q 2731 3584 3161 3123 
Q 3591 2663 3591 1825 
L 3591 1453 
L 1219 1453 
Q 1222 1041 1462 837 
Q 1703 634 2181 634 
Q 2497 634 2803 725 
Q 3109 816 3444 1013 
L 3444 172 
z
M 2669 2141 
Q 2663 2503 2483 2689 
Q 2303 2875 1953 2875 
Q 1638 2875 1450 2683 
Q 1263 2491 1228 2138 
L 2669 2141 
z
" transform="scale(0.015625)"/>
      <path id="DejaVuSansMono-Bold-64" d="M 2472 3003 
L 2472 4863 
L 3384 4863 
L 3384 0 
L 2472 0 
L 2472 519 
Q 2325 216 2092 62 
Q 1859 -91 1544 -91 
Q 944 -91 612 390 
Q 281 872 281 1747 
Q 281 2634 617 3109 
Q 953 3584 1575 3584 
Q 1856 3584 2079 3439 
Q 2303 3294 2472 3003 
z
M 1197 1741 
Q 1197 1234 1365 946 
Q 1534 659 1831 659 
Q 2128 659 2300 946 
Q 2472 1234 2472 1741 
Q 2472 2247 2300 2534 
Q 2128 2822 1831 2822 
Q 1534 2822 1365 2534 
Q 1197 2247 1197 1741 
z
" transform="scale(0.015625)"/>
      <path id="DejaVuSansMono-Bold-20" transform="scale(0.015625)"/>
      <path id="DejaVuSansMono-Bold-4d" d="M 269 4666 
L 1369 4666 
L 1925 2619 
L 2478 4666 
L 3584 4666 
L 3584 0 
L 2791 0 
L 2791 3738 
L 2297 1697 
L 1563 1697 
L 1063 3738 
L 1063 0 
L 269 0 
L 269 4666 
z
" transform="scale(0.015625)"/>
      <path id="DejaVuSansMono-Bold-75" d="M 500 1222 
L 500 3500 
L 1416 3500 
L 1416 1363 
Q 1416 984 1522 821 
Q 1628 659 1875 659 
Q 2122 659 2261 878 
Q 2400 1097 2400 1491 
L 2400 3500 
L 3316 3500 
L 3316 0 
L 2400 0 
L 2400 519 
Q 2303 228 2070 68 
Q 1838 -91 1509 -91 
Q 1009 -91 754 240 
Q 500 572 500 1222 
z
" transform="scale(0.015625)"/>
      <path id="DejaVuSansMono-Bold-73" d="M 3097 3391 
L 3097 2591 
Q 2844 2753 2570 2836 
Q 2297 2919 2022 2919 
Q 1716 2919 1559 2830 
Q 1403 2741 1403 2566 
Q 1403 2316 2072 2159 
L 2106 2150 
L 2369 2088 
Q 2869 1969 3101 1705 
Q 3334 1441 3334 991 
Q 3334 450 2979 179 
Q 2625 -91 1913 -91 
Q 1597 -91 1265 -36 
Q 934 19 594 128 
L 594 928 
Q 897 756 1211 665 
Q 1525 575 1819 575 
Q 2141 575 2306 669 
Q 2472 763 2472 941 
Q 2472 1116 2355 1209 
Q 2238 1303 1797 1409 
L 1544 1466 
Q 1019 1584 778 1837 
Q 538 2091 538 2516 
Q 538 3022 903 3303 
Q 1269 3584 1931 3584 
Q 2228 3584 2523 3536 
Q 2819 3488 3097 3391 
z
" transform="scale(0.015625)"/>
      <path id="DejaVuSansMono-Bold-74" d="M 2156 4494 
L 2156 3500 
L 3353 3500 
L 3353 2797 
L 2156 2797 
L 2156 1141 
Q 2156 906 2270 804 
Q 2384 703 2650 703 
L 3353 703 
L 3353 0 
L 2584 0 
Q 1797 0 1519 251 
Q 1241 503 1241 1184 
L 1241 2797 
L 347 2797 
L 347 3500 
L 1241 3500 
L 1241 4494 
L 2156 4494 
z
" transform="scale(0.015625)"/>
      <path id="DejaVuSansMono-Bold-61" d="M 2188 1644 
Q 1675 1644 1472 1512 
Q 1269 1381 1269 1063 
Q 1269 825 1409 684 
Q 1550 544 1791 544 
Q 2153 544 2353 817 
Q 2553 1091 2553 1581 
L 2553 1644 
L 2188 1644 
z
M 3463 1997 
L 3463 0 
L 2553 0 
L 2553 391 
Q 2388 159 2128 34 
Q 1869 -91 1556 -91 
Q 959 -91 626 225 
Q 294 541 294 1106 
Q 294 1719 691 2011 
Q 1088 2303 1919 2303 
L 2553 2303 
L 2553 2456 
Q 2553 2678 2392 2792 
Q 2231 2906 1919 2906 
Q 1591 2906 1283 2823 
Q 975 2741 641 2559 
L 641 3341 
Q 944 3466 1256 3525 
Q 1569 3584 1919 3584 
Q 2772 3584 3117 3237 
Q 3463 2891 3463 1997 
z
" transform="scale(0.015625)"/>
      <path id="DejaVuSansMono-Bold-66" d="M 2309 3806 
L 2309 3500 
L 3384 3500 
L 3384 2797 
L 2309 2797 
L 2309 0 
L 1394 0 
L 1394 2797 
L 544 2797 
L 544 3500 
L 1394 3500 
L 1394 3744 
Q 1394 4375 1656 4619 
Q 1919 4863 2631 4863 
L 3384 4863 
L 3384 4159 
L 2669 4159 
Q 2463 4159 2389 4084 
Q 2316 4009 2309 3806 
z
" transform="scale(0.015625)"/>
      <path id="DejaVuSansMono-Bold-4b" d="M 366 4666 
L 1288 4666 
L 1288 2822 
L 2731 4666 
L 3775 4666 
L 2303 2828 
L 3828 0 
L 2803 0 
L 1697 2100 
L 1288 1581 
L 1288 0 
L 366 0 
L 366 4666 
z
" transform="scale(0.015625)"/>
      <path id="DejaVuSansMono-Bold-6d" d="M 2156 3150 
Q 2259 3372 2418 3478 
Q 2578 3584 2809 3584 
Q 3263 3584 3436 3271 
Q 3609 2959 3609 1972 
L 3609 0 
L 2859 0 
L 2859 2247 
Q 2859 2638 2800 2769 
Q 2741 2900 2584 2900 
Q 2428 2900 2365 2765 
Q 2303 2631 2303 2247 
L 2303 0 
L 1563 0 
L 1563 2247 
Q 1563 2631 1500 2765 
Q 1438 2900 1281 2900 
Q 1125 2900 1065 2769 
Q 1006 2638 1006 2247 
L 1006 0 
L 256 0 
L 256 3500 
L 922 3500 
L 922 3138 
Q 1000 3344 1172 3464 
Q 1344 3584 1556 3584 
Q 1769 3584 1944 3457 
Q 2119 3331 2156 3150 
z
" transform="scale(0.015625)"/>
      <path id="DejaVuSansMono-Bold-6c" d="M 1209 1459 
L 1209 4159 
L 281 4159 
L 281 4863 
L 2125 4863 
L 2125 1459 
Q 2125 1047 2253 875 
Q 2381 703 2688 703 
L 3419 703 
L 3419 0 
L 2431 0 
Q 1778 0 1493 337 
Q 1209 675 1209 1459 
z
" transform="scale(0.015625)"/>
      <path id="DejaVuSansMono-Bold-28" d="M 2888 4856 
Q 2475 4109 2275 3409 
Q 2075 2709 2075 2009 
Q 2075 1316 2275 611 
Q 2475 -94 2888 -844 
L 2175 -844 
Q 1678 -122 1437 579 
Q 1197 1281 1197 2009 
Q 1197 2734 1439 3439 
Q 1681 4144 2175 4856 
L 2888 4856 
z
" transform="scale(0.015625)"/>
      <path id="DejaVuSansMono-Bold-51" d="M 2050 -72 
Q 2006 -81 1976 -86 
Q 1947 -91 1919 -91 
Q 1116 -91 702 521 
Q 288 1134 288 2328 
Q 288 3525 702 4137 
Q 1116 4750 1925 4750 
Q 2738 4750 3152 4137 
Q 3566 3525 3566 2328 
Q 3566 1506 3369 951 
Q 3172 397 2797 159 
L 3378 -409 
L 2747 -878 
L 2050 -72 
z
M 1925 3922 
Q 1572 3922 1409 3545 
Q 1247 3169 1247 2328 
Q 1247 1491 1409 1114 
Q 1572 738 1925 738 
Q 2281 738 2443 1114 
Q 2606 1491 2606 2328 
Q 2606 3169 2443 3545 
Q 2281 3922 1925 3922 
z
" transform="scale(0.015625)"/>
      <path id="DejaVuSansMono-Bold-29" d="M 966 4856 
L 1678 4856 
Q 2172 4144 2414 3439 
Q 2656 2734 2656 2009 
Q 2656 1281 2415 579 
Q 2175 -122 1678 -844 
L 966 -844 
Q 1378 -94 1578 611 
Q 1778 1316 1778 2009 
Q 1778 2709 1578 3409 
Q 1378 4109 966 4856 
z
" transform="scale(0.015625)"/>
     </defs>
     <use xlink:href="#DejaVuSansMono-Bold-53"/>
     <use xlink:href="#DejaVuSansMono-Bold-79" x="60.205078"/>
     <use xlink:href="#DejaVuSansMono-Bold-65" x="120.410156"/>
     <use xlink:href="#DejaVuSansMono-Bold-64" x="180.615234"/>
     <use xlink:href="#DejaVuSansMono-Bold-20" x="240.820312"/>
     <use xlink:href="#DejaVuSansMono-Bold-4d" x="301.025391"/>
     <use xlink:href="#DejaVuSansMono-Bold-75" x="361.230469"/>
     <use xlink:href="#DejaVuSansMono-Bold-73" x="421.435547"/>
     <use xlink:href="#DejaVuSansMono-Bold-74" x="481.640625"/>
     <use xlink:href="#DejaVuSansMono-Bold-61" x="541.845703"/>
     <use xlink:href="#DejaVuSansMono-Bold-66" x="602.050781"/>
     <use xlink:href="#DejaVuSansMono-Bold-61" x="662.255859"/>
     <use xlink:href="#DejaVuSansMono-Bold-20" x="722.460938"/>
     <use xlink:href="#DejaVuSansMono-Bold-4b" x="782.666016"/>
     <use xlink:href="#DejaVuSansMono-Bold-61" x="842.871094"/>
     <use xlink:href="#DejaVuSansMono-Bold-6d" x="903.076172"/>
     <use xlink:href="#DejaVuSansMono-Bold-61" x="963.28125"/>
     <use xlink:href="#DejaVuSansMono-Bold-6c" x="1023.486328"/>
     <use xlink:href="#DejaVuSansMono-Bold-20" x="1083.691406"/>
     <use xlink:href="#DejaVuSansMono-Bold-28" x="1143.896484"/>
     <use xlink:href="#DejaVuSansMono-Bold-4d" x="1204.101562"/>
     <use xlink:href="#DejaVuSansMono-Bold-51" x="1264.306641"/>
     <use xlink:href="#DejaVuSansMono-Bold-4d" x="1324.511719"/>
     <use xlink:href="#DejaVuSansMono-Bold-29" x="1384.716797"/>
    </g>
    <!-- (20,934 votes) -->
    <g transform="translate(402.010167 130.314896) scale(0.1 -0.1)">
     <defs>
      <path id="DejaVuSansMono-Bold-2c" d="M 1441 1147 
L 2419 1147 
L 2419 300 
L 1806 -897 
L 1131 -897 
L 1441 300 
L 1441 1147 
z
" transform="scale(0.015625)"/>
      <path id="DejaVuSansMono-Bold-33" d="M 1716 2088 
L 1222 2088 
L 1222 2900 
L 1716 2900 
Q 2059 2900 2248 3036 
Q 2438 3172 2438 3419 
Q 2438 3678 2248 3823 
Q 2059 3969 1716 3969 
Q 1453 3969 1153 3903 
Q 853 3838 531 3713 
L 531 4550 
Q 853 4647 1165 4698 
Q 1478 4750 1766 4750 
Q 2503 4750 2915 4428 
Q 3328 4106 3328 3541 
Q 3328 3125 3090 2861 
Q 2853 2597 2413 2516 
Q 2913 2428 3175 2117 
Q 3438 1806 3438 1300 
Q 3438 622 3003 265 
Q 2569 -91 1741 -91 
Q 1388 -91 1045 -31 
Q 703 28 391 141 
L 391 997 
Q 684 850 1025 773 
Q 1366 697 1741 697 
Q 2116 697 2334 870 
Q 2553 1044 2553 1338 
Q 2553 1697 2334 1892 
Q 2116 2088 1716 2088 
z
" transform="scale(0.015625)"/>
      <path id="DejaVuSansMono-Bold-76" d="M 3603 3500 
L 2491 0 
L 1363 0 
L 250 3500 
L 1178 3500 
L 1925 769 
L 2675 3500 
L 3603 3500 
z
" transform="scale(0.015625)"/>
      <path id="DejaVuSansMono-Bold-6f" d="M 1925 2841 
Q 1597 2841 1409 2552 
Q 1222 2263 1222 1747 
Q 1222 1231 1409 942 
Q 1597 653 1925 653 
Q 2256 653 2443 942 
Q 2631 1231 2631 1747 
Q 2631 2263 2443 2552 
Q 2256 2841 1925 2841 
z
M 306 1747 
Q 306 2594 745 3089 
Q 1184 3584 1925 3584 
Q 2669 3584 3108 3089 
Q 3547 2594 3547 1747 
Q 3547 900 3108 404 
Q 2669 -91 1925 -91 
Q 1184 -91 745 404 
Q 306 900 306 1747 
z
" transform="scale(0.015625)"/>
     </defs>
     <use xlink:href="#DejaVuSansMono-Bold-28"/>
     <use xlink:href="#DejaVuSansMono-Bold-32" x="60.205078"/>
     <use xlink:href="#DejaVuSansMono-Bold-30" x="120.410156"/>
     <use xlink:href="#DejaVuSansMono-Bold-2c" x="180.615234"/>
     <use xlink:href="#DejaVuSansMono-Bold-39" x="240.820312"/>
     <use xlink:href="#DejaVuSansMono-Bold-33" x="301.025391"/>
     <use xlink:href="#DejaVuSansMono-Bold-34" x="361.230469"/>
     <use xlink:href="#DejaVuSansMono-Bold-20" x="421.435547"/>
     <use xlink:href="#DejaVuSansMono-Bold-76" x="481.640625"/>
     <use xlink:href="#DejaVuSansMono-Bold-6f" x="541.845703"/>
     <use xlink:href="#DejaVuSansMono-Bold-74" x="602.050781"/>
     <use xlink:href="#DejaVuSansMono-Bold-65" x="662.255859"/>
     <use xlink:href="#DejaVuSansMono-Bold-73" x="722.460938"/>
     <use xlink:href="#DejaVuSansMono-Bold-29" x="782.666016"/>
    </g>
   </g>
   <g id="text_4">
    <!-- Dawa Khan Sabir (PTI) -->
    <g transform="translate(11.770364 492.294229) scale(0.1 -0.1)">
     <defs>
      <path id="DejaVuSansMono-Bold-44" d="M 1350 3834 
L 1350 831 
L 1600 831 
Q 2144 831 2375 1173 
Q 2606 1516 2606 2338 
Q 2606 3153 2375 3493 
Q 2144 3834 1600 3834 
L 1350 3834 
z
M 428 4666 
L 1416 4666 
Q 2559 4666 3062 4120 
Q 3566 3575 3566 2338 
Q 3566 1097 3062 548 
Q 2559 0 1416 0 
L 428 0 
L 428 4666 
z
" transform="scale(0.015625)"/>
      <path id="DejaVuSansMono-Bold-77" d="M 0 3500 
L 763 3500 
L 1178 819 
L 1556 2584 
L 2297 2584 
L 2669 819 
L 3091 3500 
L 3853 3500 
L 3219 0 
L 2350 0 
L 1925 1819 
L 1503 0 
L 634 0 
L 0 3500 
z
" transform="scale(0.015625)"/>
      <path id="DejaVuSansMono-Bold-68" d="M 3347 2272 
L 3347 0 
L 2438 0 
L 2438 2131 
Q 2438 2509 2330 2671 
Q 2222 2834 1978 2834 
Q 1728 2834 1587 2614 
Q 1447 2394 1447 2003 
L 1447 0 
L 538 0 
L 538 4863 
L 1447 4863 
L 1447 2975 
Q 1544 3266 1778 3425 
Q 2013 3584 2344 3584 
Q 2841 3584 3094 3254 
Q 3347 2925 3347 2272 
z
" transform="scale(0.015625)"/>
      <path id="DejaVuSansMono-Bold-6e" d="M 3347 2272 
L 3347 0 
L 2438 0 
L 2438 2131 
Q 2438 2513 2330 2677 
Q 2222 2841 1978 2841 
Q 1731 2841 1589 2619 
Q 1447 2397 1447 2003 
L 1447 0 
L 538 0 
L 538 3500 
L 1447 3500 
L 1447 2975 
Q 1544 3266 1778 3425 
Q 2013 3584 2344 3584 
Q 2841 3584 3094 3254 
Q 3347 2925 3347 2272 
z
" transform="scale(0.015625)"/>
      <path id="DejaVuSansMono-Bold-62" d="M 2656 1741 
Q 2656 2247 2487 2534 
Q 2319 2822 2022 2822 
Q 1725 2822 1553 2534 
Q 1381 2247 1381 1741 
Q 1381 1234 1553 946 
Q 1725 659 2022 659 
Q 2319 659 2487 946 
Q 2656 1234 2656 1741 
z
M 1381 3003 
Q 1550 3294 1773 3439 
Q 1997 3584 2278 3584 
Q 2900 3584 3236 3109 
Q 3572 2634 3572 1747 
Q 3572 872 3240 390 
Q 2909 -91 2309 -91 
Q 1994 -91 1759 62 
Q 1525 216 1381 519 
L 1381 0 
L 469 0 
L 469 4863 
L 1381 4863 
L 1381 3003 
z
" transform="scale(0.015625)"/>
      <path id="DejaVuSansMono-Bold-69" d="M 691 3500 
L 2503 3500 
L 2503 703 
L 3641 703 
L 3641 0 
L 447 0 
L 447 703 
L 1588 703 
L 1588 2797 
L 691 2797 
L 691 3500 
z
M 1588 5203 
L 2503 5203 
L 2503 4134 
L 1588 4134 
L 1588 5203 
z
" transform="scale(0.015625)"/>
      <path id="DejaVuSansMono-Bold-72" d="M 3597 2534 
Q 3447 2672 3245 2740 
Q 3044 2809 2803 2809 
Q 2513 2809 2295 2707 
Q 2078 2606 1959 2413 
Q 1884 2294 1854 2125 
Q 1825 1956 1825 1613 
L 1825 0 
L 909 0 
L 909 3500 
L 1825 3500 
L 1825 2956 
Q 1959 3256 2237 3420 
Q 2516 3584 2888 3584 
Q 3075 3584 3254 3539 
Q 3434 3494 3597 3406 
L 3597 2534 
z
" transform="scale(0.015625)"/>
      <path id="DejaVuSansMono-Bold-50" d="M 1428 3891 
L 1428 2522 
L 1806 2522 
Q 2259 2522 2442 2675 
Q 2625 2828 2625 3206 
Q 2625 3584 2442 3737 
Q 2259 3891 1806 3891 
L 1428 3891 
z
M 506 4666 
L 1772 4666 
Q 2738 4666 3161 4322 
Q 3584 3978 3584 3206 
Q 3584 2434 3161 2090 
Q 2738 1747 1772 1747 
L 1428 1747 
L 1428 0 
L 506 0 
L 506 4666 
z
" transform="scale(0.015625)"/>
      <path id="DejaVuSansMono-Bold-54" d="M 2388 0 
L 1466 0 
L 1466 3859 
L 281 3859 
L 281 4666 
L 3572 4666 
L 3572 3859 
L 2388 3859 
L 2388 0 
z
" transform="scale(0.015625)"/>
      <path id="DejaVuSansMono-Bold-49" d="M 538 3853 
L 538 4666 
L 3316 4666 
L 3316 3853 
L 2388 3853 
L 2388 813 
L 3316 813 
L 3316 0 
L 538 0 
L 538 813 
L 1466 813 
L 1466 3853 
L 538 3853 
z
" transform="scale(0.015625)"/>
     </defs>
     <use xlink:href="#DejaVuSansMono-Bold-44"/>
     <use xlink:href="#DejaVuSansMono-Bold-61" x="60.205078"/>
     <use xlink:href="#DejaVuSansMono-Bold-77" x="120.410156"/>
     <use xlink:href="#DejaVuSansMono-Bold-61" x="180.615234"/>
     <use xlink:href="#DejaVuSansMono-Bold-20" x="240.820312"/>
     <use xlink:href="#DejaVuSansMono-Bold-4b" x="301.025391"/>
     <use xlink:href="#DejaVuSansMono-Bold-68" x="361.230469"/>
     <use xlink:href="#DejaVuSansMono-Bold-61" x="421.435547"/>
     <use xlink:href="#DejaVuSansMono-Bold-6e" x="481.640625"/>
     <use xlink:href="#DejaVuSansMono-Bold-20" x="541.845703"/>
     <use xlink:href="#DejaVuSansMono-Bold-53" x="602.050781"/>
     <use xlink:href="#DejaVuSansMono-Bold-61" x="662.255859"/>
     <use xlink:href="#DejaVuSansMono-Bold-62" x="722.460938"/>
     <use xlink:href="#DejaVuSansMono-Bold-69" x="782.666016"/>
     <use xlink:href="#DejaVuSansMono-Bold-72" x="842.871094"/>
     <use xlink:href="#DejaVuSansMono-Bold-20" x="903.076172"/>
     <use xlink:href="#DejaVuSansMono-Bold-28" x="963.28125"/>
     <use xlink:href="#DejaVuSansMono-Bold-50" x="1023.486328"/>
     <use xlink:href="#DejaVuSansMono-Bold-54" x="1083.691406"/>
     <use xlink:href="#DejaVuSansMono-Bold-49" x="1143.896484"/>
     <use xlink:href="#DejaVuSansMono-Bold-29" x="1204.101562"/>
    </g>
    <!-- (49,750 votes) -->
    <g transform="translate(32.841458 503.492041) scale(0.1 -0.1)">
     <defs>
      <path id="DejaVuSansMono-Bold-35" d="M 603 4666 
L 3138 4666 
L 3138 3853 
L 1350 3853 
L 1350 2988 
Q 1463 3031 1591 3051 
Q 1719 3072 1863 3072 
Q 2556 3072 2987 2634 
Q 3419 2197 3419 1497 
Q 3419 763 2951 336 
Q 2484 -91 1678 -91 
Q 1378 -91 1072 -41 
Q 766 9 447 109 
L 447 941 
Q 706 813 979 748 
Q 1253 684 1528 684 
Q 2016 684 2269 892 
Q 2522 1100 2522 1497 
Q 2522 1863 2270 2083 
Q 2019 2303 1600 2303 
Q 1353 2303 1104 2242 
Q 856 2181 603 2059 
L 603 4666 
z
" transform="scale(0.015625)"/>
     </defs>
     <use xlink:href="#DejaVuSansMono-Bold-28"/>
     <use xlink:href="#DejaVuSansMono-Bold-34" x="60.205078"/>
     <use xlink:href="#DejaVuSansMono-Bold-39" x="120.410156"/>
     <use xlink:href="#DejaVuSansMono-Bold-2c" x="180.615234"/>
     <use xlink:href="#DejaVuSansMono-Bold-37" x="240.820312"/>
     <use xlink:href="#DejaVuSansMono-Bold-35" x="301.025391"/>
     <use xlink:href="#DejaVuSansMono-Bold-30" x="361.230469"/>
     <use xlink:href="#DejaVuSansMono-Bold-20" x="421.435547"/>
     <use xlink:href="#DejaVuSansMono-Bold-76" x="481.640625"/>
     <use xlink:href="#DejaVuSansMono-Bold-6f" x="541.845703"/>
     <use xlink:href="#DejaVuSansMono-Bold-74" x="602.050781"/>
     <use xlink:href="#DejaVuSansMono-Bold-65" x="662.255859"/>
     <use xlink:href="#DejaVuSansMono-Bold-73" x="722.460938"/>
     <use xlink:href="#DejaVuSansMono-Bold-29" x="782.666016"/>
    </g>
   </g>
   <g id="text_5">
    <!-- Total votes received by candidates in NA-242 -->
    <g transform="translate(60.897687 19.380469) scale(0.15 -0.15)">
     <defs>
      <path id="DejaVuSansMono-Bold-63" d="M 3316 178 
Q 3084 44 2818 -23 
Q 2553 -91 2247 -91 
Q 1438 -91 981 396 
Q 525 884 525 1747 
Q 525 2613 984 3102 
Q 1444 3591 2253 3591 
Q 2534 3591 2795 3525 
Q 3056 3459 3316 3322 
L 3316 2484 
Q 3116 2656 2877 2748 
Q 2638 2841 2381 2841 
Q 1934 2841 1693 2556 
Q 1453 2272 1453 1747 
Q 1453 1222 1693 940 
Q 1934 659 2381 659 
Q 2647 659 2878 748 
Q 3109 838 3316 1019 
L 3316 178 
z
" transform="scale(0.015625)"/>
      <path id="DejaVuSansMono-Bold-4e" d="M 372 4666 
L 1363 4666 
L 2663 1275 
L 2663 4666 
L 3475 4666 
L 3475 0 
L 2491 0 
L 1184 3391 
L 1184 0 
L 372 0 
L 372 4666 
z
" transform="scale(0.015625)"/>
      <path id="DejaVuSansMono-Bold-41" d="M 1925 3822 
L 1491 1913 
L 2363 1913 
L 1925 3822 
z
M 1363 4666 
L 2491 4666 
L 3750 0 
L 2828 0 
L 2541 1153 
L 1306 1153 
L 1025 0 
L 103 0 
L 1363 4666 
z
" transform="scale(0.015625)"/>
      <path id="DejaVuSansMono-Bold-2d" d="M 941 2297 
L 2913 2297 
L 2913 1388 
L 941 1388 
L 941 2297 
z
" transform="scale(0.015625)"/>
     </defs>
     <use xlink:href="#DejaVuSansMono-Bold-54"/>
     <use xlink:href="#DejaVuSansMono-Bold-6f" x="60.205078"/>
     <use xlink:href="#DejaVuSansMono-Bold-74" x="120.410156"/>
     <use xlink:href="#DejaVuSansMono-Bold-61" x="180.615234"/>
     <use xlink:href="#DejaVuSansMono-Bold-6c" x="240.820312"/>
     <use xlink:href="#DejaVuSansMono-Bold-20" x="301.025391"/>
     <use xlink:href="#DejaVuSansMono-Bold-76" x="361.230469"/>
     <use xlink:href="#DejaVuSansMono-Bold-6f" x="421.435547"/>
     <use xlink:href="#DejaVuSansMono-Bold-74" x="481.640625"/>
     <use xlink:href="#DejaVuSansMono-Bold-65" x="541.845703"/>
     <use xlink:href="#DejaVuSansMono-Bold-73" x="602.050781"/>
     <use xlink:href="#DejaVuSansMono-Bold-20" x="662.255859"/>
     <use xlink:href="#DejaVuSansMono-Bold-72" x="722.460938"/>
     <use xlink:href="#DejaVuSansMono-Bold-65" x="782.666016"/>
     <use xlink:href="#DejaVuSansMono-Bold-63" x="842.871094"/>
     <use xlink:href="#DejaVuSansMono-Bold-65" x="903.076172"/>
     <use xlink:href="#DejaVuSansMono-Bold-69" x="963.28125"/>
     <use xlink:href="#DejaVuSansMono-Bold-76" x="1023.486328"/>
     <use xlink:href="#DejaVuSansMono-Bold-65" x="1083.691406"/>
     <use xlink:href="#DejaVuSansMono-Bold-64" x="1143.896484"/>
     <use xlink:href="#DejaVuSansMono-Bold-20" x="1204.101562"/>
     <use xlink:href="#DejaVuSansMono-Bold-62" x="1264.306641"/>
     <use xlink:href="#DejaVuSansMono-Bold-79" x="1324.511719"/>
     <use xlink:href="#DejaVuSansMono-Bold-20" x="1384.716797"/>
     <use xlink:href="#DejaVuSansMono-Bold-63" x="1444.921875"/>
     <use xlink:href="#DejaVuSansMono-Bold-61" x="1505.126953"/>
     <use xlink:href="#DejaVuSansMono-Bold-6e" x="1565.332031"/>
     <use xlink:href="#DejaVuSansMono-Bold-64" x="1625.537109"/>
     <use xlink:href="#DejaVuSansMono-Bold-69" x="1685.742188"/>
     <use xlink:href="#DejaVuSansMono-Bold-64" x="1745.947266"/>
     <use xlink:href="#DejaVuSansMono-Bold-61" x="1806.152344"/>
     <use xlink:href="#DejaVuSansMono-Bold-74" x="1866.357422"/>
     <use xlink:href="#DejaVuSansMono-Bold-65" x="1926.5625"/>
     <use xlink:href="#DejaVuSansMono-Bold-73" x="1986.767578"/>
     <use xlink:href="#DejaVuSansMono-Bold-20" x="2046.972656"/>
     <use xlink:href="#DejaVuSansMono-Bold-69" x="2107.177734"/>
     <use xlink:href="#DejaVuSansMono-Bold-6e" x="2167.382812"/>
     <use xlink:href="#DejaVuSansMono-Bold-20" x="2227.587891"/>
     <use xlink:href="#DejaVuSansMono-Bold-4e" x="2287.792969"/>
     <use xlink:href="#DejaVuSansMono-Bold-41" x="2347.998047"/>
     <use xlink:href="#DejaVuSansMono-Bold-2d" x="2408.203125"/>
     <use xlink:href="#DejaVuSansMono-Bold-32" x="2468.408203"/>
     <use xlink:href="#DejaVuSansMono-Bold-34" x="2528.613281"/>
     <use xlink:href="#DejaVuSansMono-Bold-32" x="2588.818359"/>
    </g>
    <!-- (Source: ECP Form-45s) -->
    <g transform="translate(160.232844 36.177187) scale(0.15 -0.15)">
     <defs>
      <path id="DejaVuSansMono-Bold-3a" d="M 1403 3322 
L 2444 3322 
L 2444 2181 
L 1403 2181 
L 1403 3322 
z
M 1403 1147 
L 2444 1147 
L 2444 0 
L 1403 0 
L 1403 1147 
z
" transform="scale(0.015625)"/>
      <path id="DejaVuSansMono-Bold-45" d="M 3431 0 
L 525 0 
L 525 4666 
L 3431 4666 
L 3431 3853 
L 1447 3853 
L 1447 2847 
L 3244 2847 
L 3244 2034 
L 1447 2034 
L 1447 813 
L 3431 813 
L 3431 0 
z
" transform="scale(0.015625)"/>
      <path id="DejaVuSansMono-Bold-43" d="M 3378 134 
Q 3159 22 2918 -34 
Q 2678 -91 2413 -91 
Q 1469 -91 972 531 
Q 475 1153 475 2328 
Q 475 3506 972 4128 
Q 1469 4750 2413 4750 
Q 2678 4750 2922 4694 
Q 3166 4638 3378 4525 
L 3378 3500 
Q 3141 3719 2917 3820 
Q 2694 3922 2456 3922 
Q 1950 3922 1692 3520 
Q 1434 3119 1434 2328 
Q 1434 1541 1692 1139 
Q 1950 738 2456 738 
Q 2694 738 2917 839 
Q 3141 941 3378 1159 
L 3378 134 
z
" transform="scale(0.015625)"/>
      <path id="DejaVuSansMono-Bold-46" d="M 3475 3853 
L 1491 3853 
L 1491 2847 
L 3297 2847 
L 3297 2034 
L 1491 2034 
L 1491 0 
L 569 0 
L 569 4666 
L 3475 4666 
L 3475 3853 
z
" transform="scale(0.015625)"/>
     </defs>
     <use xlink:href="#DejaVuSansMono-Bold-28"/>
     <use xlink:href="#DejaVuSansMono-Bold-53" x="60.205078"/>
     <use xlink:href="#DejaVuSansMono-Bold-6f" x="120.410156"/>
     <use xlink:href="#DejaVuSansMono-Bold-75" x="180.615234"/>
     <use xlink:href="#DejaVuSansMono-Bold-72" x="240.820312"/>
     <use xlink:href="#DejaVuSansMono-Bold-63" x="301.025391"/>
     <use xlink:href="#DejaVuSansMono-Bold-65" x="361.230469"/>
     <use xlink:href="#DejaVuSansMono-Bold-3a" x="421.435547"/>
     <use xlink:href="#DejaVuSansMono-Bold-20" x="481.640625"/>
     <use xlink:href="#DejaVuSansMono-Bold-45" x="541.845703"/>
     <use xlink:href="#DejaVuSansMono-Bold-43" x="602.050781"/>
     <use xlink:href="#DejaVuSansMono-Bold-50" x="662.255859"/>
     <use xlink:href="#DejaVuSansMono-Bold-20" x="722.460938"/>
     <use xlink:href="#DejaVuSansMono-Bold-46" x="782.666016"/>
     <use xlink:href="#DejaVuSansMono-Bold-6f" x="842.871094"/>
     <use xlink:href="#DejaVuSansMono-Bold-72" x="903.076172"/>
     <use xlink:href="#DejaVuSansMono-Bold-6d" x="963.28125"/>
     <use xlink:href="#DejaVuSansMono-Bold-2d" x="1023.486328"/>
     <use xlink:href="#DejaVuSansMono-Bold-34" x="1083.691406"/>
     <use xlink:href="#DejaVuSansMono-Bold-35" x="1143.896484"/>
     <use xlink:href="#DejaVuSansMono-Bold-73" x="1204.101562"/>
     <use xlink:href="#DejaVuSansMono-Bold-29" x="1264.306641"/>
    </g>
   </g>
  </g>
 </g>
</svg>
