<?xml version="1.0" encoding="utf-8" standalone="no"?>
<!DOCTYPE svg PUBLIC "-//W3C//DTD SVG 1.1//EN"
  "http://www.w3.org/Graphics/SVG/1.1/DTD/svg11.dtd">
<svg xmlns:xlink="http://www.w3.org/1999/xlink" width="762.122813pt" height="614.633438pt" viewBox="0 0 762.122813 614.633438" xmlns="http://www.w3.org/2000/svg" version="1.1">
 <metadata>
  <rdf:RDF xmlns:dc="http://purl.org/dc/elements/1.1/" xmlns:cc="http://creativecommons.org/ns#" xmlns:rdf="http://www.w3.org/1999/02/22-rdf-syntax-ns#">
   <cc:Work>
    <dc:type rdf:resource="http://purl.org/dc/dcmitype/StillImage"/>
    <dc:date>2025-07-17T14:23:59.827644</dc:date>
    <dc:format>image/svg+xml</dc:format>
    <dc:creator>
     <cc:Agent>
      <dc:title>Matplotlib v3.9.2, https://matplotlib.org/</dc:title>
     </cc:Agent>
    </dc:creator>
   </cc:Work>
  </rdf:RDF>
 </metadata>
 <defs>
  <style type="text/css">*{stroke-linejoin: round; stroke-linecap: butt}</style>
 </defs>
 <g id="figure_1">
  <g id="patch_1">
   <path d="M 0 614.633438 
L 762.122813 614.633438 
L 762.122813 0 
L 0 0 
z
" style="fill: #f9f9f9"/>
  </g>
  <g id="axes_1">
   <g id="patch_2">
    <path d="M 295.800315 386.367256 
C 329.649875 386.367256 362.117601 372.918683 386.052854 348.98343 
C 409.988107 325.048177 423.436679 292.580451 423.436679 258.730892 
C 423.436679 224.881333 409.988107 192.413607 386.052854 168.478354 
C 362.117601 144.543101 329.649875 131.094528 295.800315 131.094528 
C 261.950756 131.094528 229.48303 144.543101 205.547777 168.478354 
C 181.612524 192.413607 168.163952 224.881333 168.163952 258.730892 
C 168.163952 292.580451 181.612524 325.048177 205.547777 348.98343 
C 229.48303 372.918683 261.950756 386.367256 295.800315 386.367256 
z
" clip-path="url(#p90df2bca06)" style="fill: #4c3a00; opacity: 0.3"/>
    <path d="M 300.800315 394.367256 
C 334.649875 394.367256 367.117601 380.918683 391.052854 356.98343 
C 414.988107 333.048177 428.436679 300.580451 428.436679 266.730892 
C 428.436679 232.881333 414.988107 200.413607 391.052854 176.478354 
C 367.117601 152.543101 334.649875 139.094528 300.800315 139.094528 
C 266.950756 139.094528 234.48303 152.543101 210.547777 176.478354 
C 186.612524 200.413607 173.163952 232.881333 173.163952 266.730892 
C 173.163952 300.580451 186.612524 333.048177 210.547777 356.98343 
C 234.48303 380.918683 266.950756 394.367256 300.800315 394.367256 
z
" clip-path="url(#p90df2bca06)" style="fill: #4c3a00; opacity: 0.3"/>
    <path d="M 295.800315 386.367256 
C 329.649875 386.367256 362.117601 372.918683 386.052854 348.98343 
C 409.988107 325.048177 423.436679 292.580451 423.436679 258.730892 
C 423.436679 224.881333 409.988107 192.413607 386.052854 168.478354 
C 362.117601 144.543101 329.649875 131.094528 295.800315 131.094528 
C 261.950756 131.094528 229.48303 144.543101 205.547777 168.478354 
C 181.612524 192.413607 168.163952 224.881333 168.163952 258.730892 
C 168.163952 292.580451 181.612524 325.048177 205.547777 348.98343 
C 229.48303 372.918683 261.950756 386.367256 295.800315 386.367256 
z
" clip-path="url(#p90df2bca06)" style="fill: #ffc300; fill-opacity: 0.4; stroke: #000000; stroke-width: 1.5; stroke-linejoin: miter"/>
    <path d="M 295.800315 386.367256 
C 329.649875 386.367256 362.117601 372.918683 386.052854 348.98343 
C 409.988107 325.048177 423.436679 292.580451 423.436679 258.730892 
C 423.436679 224.881333 409.988107 192.413607 386.052854 168.478354 
C 362.117601 144.543101 329.649875 131.094528 295.800315 131.094528 
C 261.950756 131.094528 229.48303 144.543101 205.547777 168.478354 
C 181.612524 192.413607 168.163952 224.881333 168.163952 258.730892 
C 168.163952 292.580451 181.612524 325.048177 205.547777 348.98343 
C 229.48303 372.918683 261.950756 386.367256 295.800315 386.367256 
z
" clip-path="url(#p90df2bca06)" style="fill: #ffc300; opacity: 0.2; stroke: #000000; stroke-width: 4; stroke-linejoin: miter"/>
    <path d="M 295.800315 386.367256 
C 329.649875 386.367256 362.117601 372.918683 386.052854 348.98343 
C 409.988107 325.048177 423.436679 292.580451 423.436679 258.730892 
C 423.436679 224.881333 409.988107 192.413607 386.052854 168.478354 
C 362.117601 144.543101 329.649875 131.094528 295.800315 131.094528 
C 261.950756 131.094528 229.48303 144.543101 205.547777 168.478354 
C 181.612524 192.413607 168.163952 224.881333 168.163952 258.730892 
C 168.163952 292.580451 181.612524 325.048177 205.547777 348.98343 
C 229.48303 372.918683 261.950756 386.367256 295.800315 386.367256 
z
" clip-path="url(#p90df2bca06)" style="fill: #ffc300; fill-opacity: 0.4; stroke: #000000; stroke-width: 1.5; stroke-linejoin: miter"/>
    <path d="M 300.799628 386.284354 
L 310.632451 376.119926 
M 310.781947 385.403677 
L 319.744866 374.464477 
M 320.668987 383.817217 
L 328.514732 372.050981 
M 330.412636 381.506373 
L 337.07159 369.030062 
M 339.96465 378.47996 
L 345.376611 365.414331 
M 349.226564 374.64355 
L 354.638525 361.57792 
M 358.121768 370.031184 
L 362.235261 356.500509 
M 366.64668 364.777234 
L 369.418886 350.90947 
M 374.760951 358.909567 
L 376.158392 344.836644 
M 382.443449 352.475082 
L 382.677929 338.33489 
M 389.531456 345.387514 
L 389.296976 331.247323 
M 395.967096 337.706044 
L 394.569655 323.633122 
M 401.836246 329.592871 
L 399.06404 315.725107 
M 407.091771 321.068901 
L 402.978277 307.538226 
M 411.705791 312.17448 
L 406.29383 299.10885 
M 415.542202 302.912566 
L 410.130241 289.846936 
M 418.570338 293.361169 
L 411.911385 280.884858 
M 420.882961 283.617967 
L 413.037217 271.851732 
M 422.471246 273.731199 
L 413.508327 262.792 
M 423.353466 263.74897 
L 413.520644 253.584542 
M 423.353674 253.725324 
L 413.189246 243.892502 
M 422.472482 243.743035 
L 411.533282 234.780117 
M 420.885414 233.856086 
L 409.119178 226.010341 
M 418.573977 224.112586 
L 406.097666 217.453632 
M 415.54699 214.560777 
L 402.48136 209.148816 
M 411.710579 205.298864 
L 398.64495 199.886903 
M 407.097662 196.403921 
L 393.566986 192.290428 
M 401.843187 187.879322 
L 387.975423 185.107117 
M 395.975026 179.765418 
L 381.902103 178.367976 
M 389.540155 172.083262 
L 375.399964 171.848782 
M 382.452441 164.995402 
L 368.31225 165.229882 
M 374.770629 158.560146 
L 360.697706 159.957588 
M 366.65709 152.691491 
L 352.789326 155.463697 
M 358.132805 147.436491 
L 344.60213 151.549985 
M 349.238123 142.823022 
L 336.172494 148.234983 
M 339.97621 138.986612 
L 326.91058 144.398573 
M 330.424607 135.95905 
L 317.948296 142.618003 
M 320.681256 133.64702 
L 308.915021 141.492765 
M 310.794397 132.059343 
L 299.855198 141.022262 
M 300.812138 131.177637 
L 290.64771 141.01046 
M 290.788493 131.177637 
L 280.95567 141.342065 
M 280.806233 132.059343 
L 271.843315 142.998543 
M 270.919374 133.64702 
L 263.07363 145.413255 
M 261.176024 135.95905 
L 254.51707 148.435361 
M 251.624421 138.986612 
L 246.21246 152.052241 
M 242.362507 142.823022 
L 236.950546 155.888652 
M 233.467825 147.436491 
L 229.354332 160.967167 
M 224.943541 152.691491 
L 222.171335 166.559255 
M 216.830002 158.560146 
L 215.43256 172.633069 
M 209.148189 164.995402 
L 208.913709 179.135593 
M 202.060475 172.083262 
L 202.294956 186.223454 
M 195.625605 179.765418 
L 197.023047 193.83834 
M 189.757444 187.879322 
L 192.52965 201.747086 
M 184.502969 196.403921 
L 188.616462 209.934596 
M 179.890051 205.298864 
L 185.302012 218.364493 
M 176.053641 214.560777 
L 181.465602 227.626407 
M 173.026654 224.112586 
L 179.685607 236.588897 
M 170.715217 233.856086 
L 178.560962 245.622321 
M 169.128149 243.743035 
L 178.091067 254.682235 
M 168.246957 253.725324 
L 178.079779 263.889752 
M 168.247164 263.74897 
L 178.411592 273.581792 
M 169.129385 273.731199 
L 180.068585 282.694118 
M 170.71767 283.617967 
L 182.483905 291.463712 
M 173.030293 293.361169 
L 185.506604 300.020122 
M 176.058429 302.912566 
L 189.124059 308.324527 
M 179.894839 312.17448 
L 192.960469 317.586441 
M 184.50886 321.068901 
L 198.039535 325.182394 
M 189.764385 329.592871 
L 203.632149 332.365077 
M 195.633534 337.706044 
L 209.706457 339.103486 
M 202.069174 345.387514 
L 216.209366 345.621995 
M 209.157182 352.475082 
L 223.297374 352.240601 
M 216.83968 358.909567 
L 230.912603 357.512126 
M 224.95395 364.777234 
L 238.821714 362.005028 
M 233.478863 370.031184 
L 247.009538 365.917691 
M 242.374067 374.64355 
L 255.439696 369.231589 
M 251.63598 378.47996 
L 264.70161 373.067999 
M 261.187994 381.506373 
L 273.664305 374.84742 
M 270.931643 383.817217 
L 282.697879 375.971472 
M 280.818684 385.403677 
L 291.757883 376.440758 
M 290.801003 386.284354 
L 300.965431 376.451532 
" clip-path="url(#p90df2bca06)" style="fill: #ffc300; opacity: 0.5; stroke: #000000; stroke-width: 2; stroke-linejoin: miter"/>
    <path d="M 295.800315 386.367256 
C 329.649875 386.367256 362.117601 372.918683 386.052854 348.98343 
C 409.988107 325.048177 423.436679 292.580451 423.436679 258.730892 
C 423.436679 224.881333 409.988107 192.413607 386.052854 168.478354 
C 362.117601 144.543101 329.649875 131.094528 295.800315 131.094528 
C 261.950756 131.094528 229.48303 144.543101 205.547777 168.478354 
C 181.612524 192.413607 168.163952 224.881333 168.163952 258.730892 
C 168.163952 292.580451 181.612524 325.048177 205.547777 348.98343 
C 229.48303 372.918683 261.950756 386.367256 295.800315 386.367256 
z
" clip-path="url(#p90df2bca06)" style="fill: #ffc300; fill-opacity: 0.4; stroke: #000000; stroke-width: 1.5; stroke-linejoin: miter"/>
   </g>
   <g id="patch_3">
    <path d="M 465.811952 386.367256 
C 499.661511 386.367256 532.129237 372.918683 556.06449 348.98343 
C 579.999743 325.048177 593.448315 292.580451 593.448315 258.730892 
C 593.448315 224.881333 579.999743 192.413607 556.06449 168.478354 
C 532.129237 144.543101 499.661511 131.094528 465.811952 131.094528 
C 431.962392 131.094528 399.494666 144.543101 375.559413 168.478354 
C 351.624161 192.413607 338.175588 224.881333 338.175588 258.730892 
C 338.175588 292.580451 351.624161 325.048177 375.559413 348.98343 
C 399.494666 372.918683 431.962392 386.367256 465.811952 386.367256 
z
" clip-path="url(#p90df2bca06)" style="fill: #491c23; opacity: 0.3"/>
    <path d="M 470.811952 394.367256 
C 504.661511 394.367256 537.129237 380.918683 561.06449 356.98343 
C 584.999743 333.048177 598.448315 300.580451 598.448315 266.730892 
C 598.448315 232.881333 584.999743 200.413607 561.06449 176.478354 
C 537.129237 152.543101 504.661511 139.094528 470.811952 139.094528 
C 436.962392 139.094528 404.494666 152.543101 380.559413 176.478354 
C 356.624161 200.413607 343.175588 232.881333 343.175588 266.730892 
C 343.175588 300.580451 356.624161 333.048177 380.559413 356.98343 
C 404.494666 380.918683 436.962392 394.367256 470.811952 394.367256 
z
" clip-path="url(#p90df2bca06)" style="fill: #491c23; opacity: 0.3"/>
    <path d="M 465.811952 386.367256 
C 499.661511 386.367256 532.129237 372.918683 556.06449 348.98343 
C 579.999743 325.048177 593.448315 292.580451 593.448315 258.730892 
C 593.448315 224.881333 579.999743 192.413607 556.06449 168.478354 
C 532.129237 144.543101 499.661511 131.094528 465.811952 131.094528 
C 431.962392 131.094528 399.494666 144.543101 375.559413 168.478354 
C 351.624161 192.413607 338.175588 224.881333 338.175588 258.730892 
C 338.175588 292.580451 351.624161 325.048177 375.559413 348.98343 
C 399.494666 372.918683 431.962392 386.367256 465.811952 386.367256 
z
" clip-path="url(#p90df2bca06)" style="fill: #f45f74; fill-opacity: 0.4; stroke: #000000; stroke-width: 1.5; stroke-linejoin: miter"/>
    <path d="M 465.811952 386.367256 
C 499.661511 386.367256 532.129237 372.918683 556.06449 348.98343 
C 579.999743 325.048177 593.448315 292.580451 593.448315 258.730892 
C 593.448315 224.881333 579.999743 192.413607 556.06449 168.478354 
C 532.129237 144.543101 499.661511 131.094528 465.811952 131.094528 
C 431.962392 131.094528 399.494666 144.543101 375.559413 168.478354 
C 351.624161 192.413607 338.175588 224.881333 338.175588 258.730892 
C 338.175588 292.580451 351.624161 325.048177 375.559413 348.98343 
C 399.494666 372.918683 431.962392 386.367256 465.811952 386.367256 
z
" clip-path="url(#p90df2bca06)" style="fill: #f45f74; opacity: 0.2; stroke: #000000; stroke-width: 4; stroke-linejoin: miter"/>
    <path d="M 465.811952 386.367256 
C 499.661511 386.367256 532.129237 372.918683 556.06449 348.98343 
C 579.999743 325.048177 593.448315 292.580451 593.448315 258.730892 
C 593.448315 224.881333 579.999743 192.413607 556.06449 168.478354 
C 532.129237 144.543101 499.661511 131.094528 465.811952 131.094528 
C 431.962392 131.094528 399.494666 144.543101 375.559413 168.478354 
C 351.624161 192.413607 338.175588 224.881333 338.175588 258.730892 
C 338.175588 292.580451 351.624161 325.048177 375.559413 348.98343 
C 399.494666 372.918683 431.962392 386.367256 465.811952 386.367256 
z
" clip-path="url(#p90df2bca06)" style="fill: #f45f74; fill-opacity: 0.4; stroke: #000000; stroke-width: 1.5; stroke-linejoin: miter"/>
    <path d="M 470.811264 386.284354 
L 480.644087 376.119926 
M 480.793583 385.403677 
L 489.756502 374.464477 
M 490.680624 383.817217 
L 498.526368 372.050981 
M 500.424273 381.506373 
L 507.083226 369.030062 
M 509.976287 378.47996 
L 515.388248 365.414331 
M 519.238201 374.64355 
L 524.650162 361.57792 
M 528.133404 370.031184 
L 532.246897 356.500509 
M 536.658317 364.777234 
L 539.430522 350.90947 
M 544.772587 358.909567 
L 546.170029 344.836644 
M 552.455085 352.475082 
L 552.689565 338.33489 
M 559.543093 345.387514 
L 559.308612 331.247323 
M 565.978733 337.706044 
L 564.581291 323.633122 
M 571.847882 329.592871 
L 569.075676 315.725107 
M 577.103407 321.068901 
L 572.989914 307.538226 
M 581.717428 312.17448 
L 576.305467 299.10885 
M 585.553838 302.912566 
L 580.141877 289.846936 
M 588.581974 293.361169 
L 581.923021 280.884858 
M 590.894597 283.617967 
L 583.048853 271.851732 
M 592.482882 273.731199 
L 583.519963 262.792 
M 593.365103 263.74897 
L 583.53228 253.584542 
M 593.36531 253.725324 
L 583.200882 243.892502 
M 592.484118 243.743035 
L 581.544919 234.780117 
M 590.89705 233.856086 
L 579.130815 226.010341 
M 588.585613 224.112586 
L 576.109302 217.453632 
M 585.558626 214.560777 
L 572.492996 209.148816 
M 581.722216 205.298864 
L 568.656586 199.886903 
M 577.109298 196.403921 
L 563.578623 192.290428 
M 571.854823 187.879322 
L 557.987059 185.107117 
M 565.986662 179.765418 
L 551.913739 178.367976 
M 559.551792 172.083262 
L 545.4116 171.848782 
M 552.464078 164.995402 
L 538.323886 165.229882 
M 544.782265 158.560146 
L 530.709342 159.957588 
M 536.668726 152.691491 
L 522.800962 155.463697 
M 528.144442 147.436491 
L 514.613767 151.549985 
M 519.24976 142.823022 
L 506.18413 148.234983 
M 509.987846 138.986612 
L 496.922216 144.398573 
M 500.436243 135.95905 
L 487.959932 142.618003 
M 490.692893 133.64702 
L 478.926657 141.492765 
M 480.806034 132.059343 
L 469.866834 141.022262 
M 470.823774 131.177637 
L 460.659346 141.01046 
M 460.800129 131.177637 
L 450.967306 141.342065 
M 450.81787 132.059343 
L 441.854951 142.998543 
M 440.931011 133.64702 
L 433.085266 145.413255 
M 431.18766 135.95905 
L 424.528707 148.435361 
M 421.636057 138.986612 
L 416.224096 152.052241 
M 412.374144 142.823022 
L 406.962183 155.888652 
M 403.479462 147.436491 
L 399.365968 160.967167 
M 394.955177 152.691491 
L 392.182972 166.559255 
M 386.841638 158.560146 
L 385.444197 172.633069 
M 379.159826 164.995402 
L 378.925345 179.135593 
M 372.072112 172.083262 
L 372.306592 186.223454 
M 365.637241 179.765418 
L 367.034683 193.83834 
M 359.76908 187.879322 
L 362.541286 201.747086 
M 354.514605 196.403921 
L 358.628099 209.934596 
M 349.901688 205.298864 
L 355.313649 218.364493 
M 346.065277 214.560777 
L 351.477238 227.626407 
M 343.03829 224.112586 
L 349.697243 236.588897 
M 340.726853 233.856086 
L 348.572598 245.622321 
M 339.139785 243.743035 
L 348.102704 254.682235 
M 338.258593 253.725324 
L 348.091416 263.889752 
M 338.258801 263.74897 
L 348.423229 273.581792 
M 339.141021 273.731199 
L 350.080221 282.694118 
M 340.729306 283.617967 
L 352.495541 291.463712 
M 343.041929 293.361169 
L 355.51824 300.020122 
M 346.070065 302.912566 
L 359.135695 308.324527 
M 349.906476 312.17448 
L 362.972105 317.586441 
M 354.520497 321.068901 
L 368.051172 325.182394 
M 359.776021 329.592871 
L 373.643785 332.365077 
M 365.645171 337.706044 
L 379.718094 339.103486 
M 372.080811 345.387514 
L 386.221002 345.621995 
M 379.168818 352.475082 
L 393.30901 352.240601 
M 386.851316 358.909567 
L 400.924239 357.512126 
M 394.965587 364.777234 
L 408.833351 362.005028 
M 403.4905 370.031184 
L 417.021175 365.917691 
M 412.385703 374.64355 
L 425.451333 369.231589 
M 421.647617 378.47996 
L 434.713246 373.067999 
M 431.199631 381.506373 
L 443.675942 374.84742 
M 440.94328 383.817217 
L 452.709515 375.971472 
M 450.83032 385.403677 
L 461.76952 376.440758 
M 460.812639 386.284354 
L 470.977067 376.451532 
" clip-path="url(#p90df2bca06)" style="fill: #f45f74; opacity: 0.5; stroke: #000000; stroke-width: 2; stroke-linejoin: miter"/>
    <path d="M 465.811952 386.367256 
C 499.661511 386.367256 532.129237 372.918683 556.06449 348.98343 
C 579.999743 325.048177 593.448315 292.580451 593.448315 258.730892 
C 593.448315 224.881333 579.999743 192.413607 556.06449 168.478354 
C 532.129237 144.543101 499.661511 131.094528 465.811952 131.094528 
C 431.962392 131.094528 399.494666 144.543101 375.559413 168.478354 
C 351.624161 192.413607 338.175588 224.881333 338.175588 258.730892 
C 338.175588 292.580451 351.624161 325.048177 375.559413 348.98343 
C 399.494666 372.918683 431.962392 386.367256 465.811952 386.367256 
z
" clip-path="url(#p90df2bca06)" style="fill: #f45f74; fill-opacity: 0.4; stroke: #000000; stroke-width: 1.5; stroke-linejoin: miter"/>
   </g>
   <g id="patch_4">
    <path d="M 381.061406 551.273438 
C 414.910966 551.273438 447.378692 537.824865 471.313945 513.889612 
C 495.249197 489.954359 508.69777 457.486633 508.69777 423.637074 
C 508.69777 389.787515 495.249197 357.319789 471.313945 333.384536 
C 447.378692 309.449283 414.910966 296.00071 381.061406 296.00071 
C 347.211847 296.00071 314.744121 309.449283 290.808868 333.384536 
C 266.873615 357.319789 253.425043 389.787515 253.425043 423.637074 
C 253.425043 457.486633 266.873615 489.954359 290.808868 513.889612 
C 314.744121 537.824865 347.211847 551.273438 381.061406 551.273438 
z
" clip-path="url(#p90df2bca06)" style="fill: #003539; opacity: 0.3"/>
    <path d="M 386.061406 559.273438 
C 419.910966 559.273438 452.378692 545.824865 476.313945 521.889612 
C 500.249197 497.954359 513.69777 465.486633 513.69777 431.637074 
C 513.69777 397.787515 500.249197 365.319789 476.313945 341.384536 
C 452.378692 317.449283 419.910966 304.00071 386.061406 304.00071 
C 352.211847 304.00071 319.744121 317.449283 295.808868 341.384536 
C 271.873615 365.319789 258.425043 397.787515 258.425043 431.637074 
C 258.425043 465.486633 271.873615 497.954359 295.808868 521.889612 
C 319.744121 545.824865 352.211847 559.273438 386.061406 559.273438 
z
" clip-path="url(#p90df2bca06)" style="fill: #003539; opacity: 0.3"/>
    <path d="M 381.061406 551.273438 
C 414.910966 551.273438 447.378692 537.824865 471.313945 513.889612 
C 495.249197 489.954359 508.69777 457.486633 508.69777 423.637074 
C 508.69777 389.787515 495.249197 357.319789 471.313945 333.384536 
C 447.378692 309.449283 414.910966 296.00071 381.061406 296.00071 
C 347.211847 296.00071 314.744121 309.449283 290.808868 333.384536 
C 266.873615 357.319789 253.425043 389.787515 253.425043 423.637074 
C 253.425043 457.486633 266.873615 489.954359 290.808868 513.889612 
C 314.744121 537.824865 347.211847 551.273438 381.061406 551.273438 
z
" clip-path="url(#p90df2bca06)" style="fill: #00b0be; fill-opacity: 0.4; stroke: #000000; stroke-width: 1.5; stroke-linejoin: miter"/>
    <path d="M 381.061406 551.273438 
C 414.910966 551.273438 447.378692 537.824865 471.313945 513.889612 
C 495.249197 489.954359 508.69777 457.486633 508.69777 423.637074 
C 508.69777 389.787515 495.249197 357.319789 471.313945 333.384536 
C 447.378692 309.449283 414.910966 296.00071 381.061406 296.00071 
C 347.211847 296.00071 314.744121 309.449283 290.808868 333.384536 
C 266.873615 357.319789 253.425043 389.787515 253.425043 423.637074 
C 253.425043 457.486633 266.873615 489.954359 290.808868 513.889612 
C 314.744121 537.824865 347.211847 551.273438 381.061406 551.273438 
z
" clip-path="url(#p90df2bca06)" style="fill: #00b0be; opacity: 0.2; stroke: #000000; stroke-width: 4; stroke-linejoin: miter"/>
    <path d="M 381.061406 551.273438 
C 414.910966 551.273438 447.378692 537.824865 471.313945 513.889612 
C 495.249197 489.954359 508.69777 457.486633 508.69777 423.637074 
C 508.69777 389.787515 495.249197 357.319789 471.313945 333.384536 
C 447.378692 309.449283 414.910966 296.00071 381.061406 296.00071 
C 347.211847 296.00071 314.744121 309.449283 290.808868 333.384536 
C 266.873615 357.319789 253.425043 389.787515 253.425043 423.637074 
C 253.425043 457.486633 266.873615 489.954359 290.808868 513.889612 
C 314.744121 537.824865 347.211847 551.273438 381.061406 551.273438 
z
" clip-path="url(#p90df2bca06)" style="fill: #00b0be; fill-opacity: 0.4; stroke: #000000; stroke-width: 1.5; stroke-linejoin: miter"/>
    <path d="M 386.060719 551.190536 
L 395.893542 541.026108 
M 396.043038 550.309859 
L 405.005957 539.370659 
M 405.930078 548.723398 
L 413.775823 536.957163 
M 415.673727 546.412555 
L 422.332681 533.936244 
M 425.225741 543.386142 
L 430.637702 530.320513 
M 434.487655 539.549732 
L 439.899616 526.484102 
M 443.382858 534.937366 
L 447.496352 521.406691 
M 451.907771 529.683416 
L 454.679977 515.815652 
M 460.022042 523.815749 
L 461.419483 509.742826 
M 467.70454 517.381263 
L 467.93902 503.241072 
M 474.792547 510.293696 
L 474.558067 496.153504 
M 481.228187 502.612226 
L 479.830745 488.539303 
M 487.097336 494.499053 
L 484.325131 480.631289 
M 492.352861 485.975083 
L 488.239368 472.444408 
M 496.966882 477.080662 
L 491.554921 464.015032 
M 500.803293 467.818748 
L 495.391332 454.753118 
M 503.831429 458.267351 
L 497.172476 445.79104 
M 506.144052 448.524149 
L 498.298307 436.757914 
M 507.732337 438.637381 
L 498.769418 427.698181 
M 508.614557 428.655151 
L 498.781735 418.490723 
M 508.614765 418.631506 
L 498.450337 408.798684 
M 507.733573 408.649217 
L 496.794373 399.686298 
M 506.146505 398.762267 
L 494.380269 390.916523 
M 503.835068 389.018767 
L 491.358757 382.359814 
M 500.808081 379.466959 
L 487.742451 374.054998 
M 496.97167 370.205045 
L 483.906041 364.793084 
M 492.358753 361.310103 
L 478.828077 357.196609 
M 487.104278 352.785504 
L 473.236514 350.013298 
M 481.236117 344.671599 
L 467.163194 343.274158 
M 474.801246 336.989444 
L 460.661055 336.754964 
M 467.713532 329.901583 
L 453.57334 330.136064 
M 460.03172 323.466328 
L 445.958797 324.86377 
M 451.918181 317.597673 
L 438.050417 320.369879 
M 443.393896 312.342673 
L 429.863221 316.456166 
M 434.499214 307.729204 
L 421.433585 313.141165 
M 425.237301 303.892794 
L 412.171671 309.304755 
M 415.685698 300.865232 
L 403.209387 307.524185 
M 405.942347 298.553202 
L 394.176112 306.398946 
M 396.055488 296.965525 
L 385.116289 305.928444 
M 386.073229 296.083819 
L 375.908801 305.916642 
M 376.049584 296.083819 
L 366.216761 306.248247 
M 366.067324 296.965525 
L 357.104406 307.904725 
M 356.180465 298.553202 
L 348.334721 310.319437 
M 346.437114 300.865232 
L 339.778161 313.341543 
M 336.885512 303.892794 
L 331.473551 316.958423 
M 327.623598 307.729204 
L 322.211637 320.794833 
M 318.728916 312.342673 
L 314.615423 325.873348 
M 310.204632 317.597673 
L 307.432426 331.465437 
M 302.091093 323.466328 
L 300.693651 337.539251 
M 294.40928 329.901583 
L 294.1748 344.041775 
M 287.321566 336.989444 
L 287.556047 351.129636 
M 280.886696 344.671599 
L 282.284138 358.744522 
M 275.018535 352.785504 
L 277.790741 366.653268 
M 269.76406 361.310103 
L 273.877553 374.840778 
M 265.151142 370.205045 
L 270.563103 383.270675 
M 261.314732 379.466959 
L 266.726693 392.532589 
M 258.287745 389.018767 
L 264.946698 401.495079 
M 255.976308 398.762267 
L 263.822052 410.528503 
M 254.38924 408.649217 
L 263.352158 419.588417 
M 253.508048 418.631506 
L 263.34087 428.795934 
M 253.508255 428.655151 
L 263.672683 438.487974 
M 254.390476 438.637381 
L 265.329675 447.6003 
M 255.978761 448.524149 
L 267.744996 456.369894 
M 258.291384 458.267351 
L 270.767695 464.926304 
M 261.31952 467.818748 
L 274.38515 473.230709 
M 265.15593 477.080662 
L 278.22156 482.492623 
M 269.769951 485.975083 
L 283.300626 490.088576 
M 275.025476 494.499053 
L 288.89324 497.271259 
M 280.894625 502.612226 
L 294.967548 504.009668 
M 287.330265 510.293696 
L 301.470457 510.528176 
M 294.418273 517.381263 
L 308.558465 517.146783 
M 302.100771 523.815749 
L 316.173694 522.418307 
M 310.215041 529.683416 
L 324.082805 526.91121 
M 318.739954 534.937366 
L 332.270629 530.823873 
M 327.635157 539.549732 
L 340.700787 534.137771 
M 336.897071 543.386142 
L 349.962701 537.974181 
M 346.449085 546.412555 
L 358.925396 539.753602 
M 356.192734 548.723398 
L 367.95897 540.877654 
M 366.079775 550.309859 
L 377.018974 541.34694 
M 376.062094 551.190536 
L 386.226522 541.357713 
" clip-path="url(#p90df2bca06)" style="fill: #00b0be; opacity: 0.5; stroke: #000000; stroke-width: 2; stroke-linejoin: miter"/>
    <path d="M 381.061406 551.273438 
C 414.910966 551.273438 447.378692 537.824865 471.313945 513.889612 
C 495.249197 489.954359 508.69777 457.486633 508.69777 423.637074 
C 508.69777 389.787515 495.249197 357.319789 471.313945 333.384536 
C 447.378692 309.449283 414.910966 296.00071 381.061406 296.00071 
C 347.211847 296.00071 314.744121 309.449283 290.808868 333.384536 
C 266.873615 357.319789 253.425043 389.787515 253.425043 423.637074 
C 253.425043 457.486633 266.873615 489.954359 290.808868 513.889612 
C 314.744121 537.824865 347.211847 551.273438 381.061406 551.273438 
z
" clip-path="url(#p90df2bca06)" style="fill: #00b0be; fill-opacity: 0.4; stroke: #000000; stroke-width: 1.5; stroke-linejoin: miter"/>
   </g>
   <g id="text_1">
    <path d="M 381.058594 443.468267 
Q 380.479219 443.468267 380.121094 443.833892 
Q 379.762969 444.199517 379.762969 444.803267 
Q 379.762969 445.407017 380.121094 445.776392 
Q 380.479219 446.145767 381.058594 446.145767 
Q 381.637969 446.145767 381.997969 445.770767 
Q 382.359844 445.395767 382.359844 444.803267 
Q 382.359844 444.199517 382.001719 443.833892 
Q 381.645469 443.468267 381.058594 443.468267 
z
M 379.776094 442.735142 
Q 379.114219 442.506392 378.767344 442.017017 
Q 378.422344 441.527642 378.422344 440.818892 
Q 378.422344 439.729517 379.131094 439.097642 
Q 379.839844 438.463892 381.058594 438.463892 
Q 382.282969 438.463892 382.991719 439.097642 
Q 383.700469 439.729517 383.700469 440.818892 
Q 383.700469 441.522017 383.361094 442.011392 
Q 383.021719 442.500767 382.371094 442.735142 
Q 383.098594 442.958267 383.507344 443.532017 
Q 383.917969 444.105767 383.917969 444.908267 
Q 383.917969 446.168267 383.173594 446.854517 
Q 382.429219 447.540767 381.058594 447.540767 
Q 379.693594 447.540767 378.949219 446.854517 
Q 378.204844 446.168267 378.204844 444.908267 
Q 378.204844 444.100142 378.621094 443.526392 
Q 379.037344 442.952642 379.776094 442.735142 
z
M 379.957969 440.959517 
Q 379.957969 441.475142 380.252344 441.777017 
Q 380.548594 442.078892 381.058594 442.078892 
Q 381.574219 442.078892 381.870469 441.777017 
Q 382.166719 441.475142 382.166719 440.959517 
Q 382.166719 440.449517 381.870469 440.155142 
Q 381.574219 439.858892 381.058594 439.858892 
Q 380.554219 439.858892 380.256094 440.157017 
Q 379.957969 440.455142 379.957969 440.959517 
z
"/>
   </g>
   <g id="text_2">
    <path d="M 497.758423 248.997869 
Q 497.758423 248.686619 497.968423 248.476619 
Q 498.180298 248.264744 498.484048 248.264744 
Q 498.795298 248.264744 499.005298 248.476619 
Q 499.217173 248.686619 499.217173 248.997869 
Q 499.217173 249.301619 499.005298 249.513494 
Q 498.795298 249.723494 498.484048 249.723494 
Q 498.180298 249.723494 497.968423 249.515369 
Q 497.758423 249.307244 497.758423 248.997869 
z
M 498.484048 245.920994 
Q 497.885923 245.920994 497.610298 246.654119 
Q 497.336548 247.385369 497.336548 248.997869 
Q 497.336548 250.602869 497.610298 251.335994 
Q 497.885923 252.067244 498.484048 252.067244 
Q 499.087798 252.067244 499.363423 251.335994 
Q 499.639048 250.602869 499.639048 248.997869 
Q 499.639048 247.385369 499.363423 246.654119 
Q 499.087798 245.920994 498.484048 245.920994 
z
M 495.594673 248.997869 
Q 495.594673 246.723494 496.314673 245.590994 
Q 497.036548 244.456619 498.484048 244.456619 
Q 499.937173 244.456619 500.657173 245.587244 
Q 501.379048 246.717869 501.379048 248.997869 
Q 501.379048 251.270369 500.657173 252.402869 
Q 499.937173 253.533494 498.484048 253.533494 
Q 497.036548 253.533494 496.314673 252.399119 
Q 495.594673 251.264744 495.594673 248.997869 
z
"/>
   </g>
   <g id="text_3">
    <path d="M 436.492969 346.001506 
Q 436.492969 345.690256 436.702969 345.480256 
Q 436.914844 345.268381 437.218594 345.268381 
Q 437.529844 345.268381 437.739844 345.480256 
Q 437.951719 345.690256 437.951719 346.001506 
Q 437.951719 346.305256 437.739844 346.517131 
Q 437.529844 346.727131 437.218594 346.727131 
Q 436.914844 346.727131 436.702969 346.519006 
Q 436.492969 346.310881 436.492969 346.001506 
z
M 437.218594 342.924631 
Q 436.620469 342.924631 436.344844 343.657756 
Q 436.071094 344.389006 436.071094 346.001506 
Q 436.071094 347.606506 436.344844 348.339631 
Q 436.620469 349.070881 437.218594 349.070881 
Q 437.822344 349.070881 438.097969 348.339631 
Q 438.373594 347.606506 438.373594 346.001506 
Q 438.373594 344.389006 438.097969 343.657756 
Q 437.822344 342.924631 437.218594 342.924631 
z
M 434.329219 346.001506 
Q 434.329219 343.727131 435.049219 342.594631 
Q 435.771094 341.460256 437.218594 341.460256 
Q 438.671719 341.460256 439.391719 342.590881 
Q 440.113594 343.721506 440.113594 346.001506 
Q 440.113594 348.274006 439.391719 349.406506 
Q 438.671719 350.537131 437.218594 350.537131 
Q 435.771094 350.537131 435.049219 349.402756 
Q 434.329219 348.268381 434.329219 346.001506 
z
"/>
   </g>
   <g id="text_4">
    <path d="M 259.629077 249.447869 
L 258.702827 249.447869 
L 258.702827 247.925369 
L 259.629077 247.925369 
Q 260.272202 247.925369 260.626577 247.670369 
Q 260.982827 247.415369 260.982827 246.952244 
Q 260.982827 246.466619 260.626577 246.194744 
Q 260.272202 245.920994 259.629077 245.920994 
Q 259.135952 245.920994 258.573452 246.044744 
Q 258.010952 246.166619 257.407202 246.400994 
L 257.407202 244.831619 
Q 258.010952 244.649744 258.595952 244.554119 
Q 259.182827 244.456619 259.722827 244.456619 
Q 261.104702 244.456619 261.877202 245.060369 
Q 262.651577 245.664119 262.651577 246.723494 
Q 262.651577 247.503494 262.205327 247.998494 
Q 261.760952 248.493494 260.935952 248.645369 
Q 261.873452 248.810369 262.364702 249.393494 
Q 262.857827 249.976619 262.857827 250.925369 
Q 262.857827 252.196619 262.042202 252.865994 
Q 261.228452 253.533494 259.675952 253.533494 
Q 259.014077 253.533494 258.370952 253.420994 
Q 257.729702 253.310369 257.144702 253.098494 
L 257.144702 251.493494 
Q 257.694077 251.769119 258.333452 251.913494 
Q 258.972827 252.055994 259.675952 252.055994 
Q 260.379077 252.055994 260.787827 251.731619 
Q 261.198452 251.405369 261.198452 250.854119 
Q 261.198452 250.180994 260.787827 249.815369 
Q 260.379077 249.447869 259.629077 249.447869 
z
M 264.766811 244.614119 
L 269.519936 244.614119 
L 269.519936 246.138494 
L 266.167436 246.138494 
L 266.167436 247.760369 
Q 266.379311 247.679744 266.619311 247.642244 
Q 266.859311 247.602869 267.129311 247.602869 
Q 268.428686 247.602869 269.236811 248.424119 
Q 270.046811 249.243494 270.046811 250.555994 
Q 270.046811 251.932244 269.169311 252.732869 
Q 268.293686 253.533494 266.782436 253.533494 
Q 266.219936 253.533494 265.646186 253.439744 
Q 265.072436 253.345994 264.474311 253.158494 
L 264.474311 251.598494 
Q 264.959936 251.838494 265.471811 251.960369 
Q 265.985561 252.080369 266.501186 252.080369 
Q 267.416186 252.080369 267.890561 251.690369 
Q 268.364936 251.300369 268.364936 250.555994 
Q 268.364936 249.869744 267.892436 249.457244 
Q 267.421811 249.044744 266.636186 249.044744 
Q 266.173061 249.044744 265.706186 249.159119 
Q 265.241186 249.273494 264.766811 249.502244 
L 264.766811 244.614119 
z
"/>
   </g>
   <g id="text_5">
    <path d="M 322.080469 341.617756 
L 327.611719 341.617756 
L 327.611719 342.842131 
L 324.647344 350.366506 
L 322.882969 350.366506 
L 325.731094 343.142131 
L 322.080469 343.142131 
L 322.080469 341.617756 
z
"/>
   </g>
   <g id="text_6">
    <path d="M 381.516094 246.535994 
L 379.307344 249.993494 
L 381.516094 249.993494 
L 381.516094 246.535994 
z
M 381.364219 244.614119 
L 383.173594 244.614119 
L 383.173594 249.993494 
L 384.135469 249.993494 
L 384.135469 251.476619 
L 383.173594 251.476619 
L 383.173594 253.362869 
L 381.516094 253.362869 
L 381.516094 251.476619 
L 378.047344 251.476619 
L 378.047344 249.800369 
L 381.364219 244.614119 
z
"/>
   </g>
   <g id="text_7">
    <path d="M 377.903906 319.033449 
L 375.695156 322.490949 
L 377.903906 322.490949 
L 377.903906 319.033449 
z
M 377.752031 317.111574 
L 379.561406 317.111574 
L 379.561406 322.490949 
L 380.523281 322.490949 
L 380.523281 323.974074 
L 379.561406 323.974074 
L 379.561406 325.860324 
L 377.903906 325.860324 
L 377.903906 323.974074 
L 374.435156 323.974074 
L 374.435156 322.297824 
L 377.752031 317.111574 
z
M 382.192266 317.111574 
L 386.945391 317.111574 
L 386.945391 318.635949 
L 383.592891 318.635949 
L 383.592891 320.257824 
Q 383.804766 320.177199 384.044766 320.139699 
Q 384.284766 320.100324 384.554766 320.100324 
Q 385.854141 320.100324 386.662266 320.921574 
Q 387.472266 321.740949 387.472266 323.053449 
Q 387.472266 324.429699 386.594766 325.230324 
Q 385.719141 326.030949 384.207891 326.030949 
Q 383.645391 326.030949 383.071641 325.937199 
Q 382.497891 325.843449 381.899766 325.655949 
L 381.899766 324.095949 
Q 382.385391 324.335949 382.897266 324.457824 
Q 383.411016 324.577824 383.926641 324.577824 
Q 384.841641 324.577824 385.316016 324.187824 
Q 385.790391 323.797824 385.790391 323.053449 
Q 385.790391 322.367199 385.317891 321.954699 
Q 384.847266 321.542199 384.061641 321.542199 
Q 383.598516 321.542199 383.131641 321.656574 
Q 382.666641 321.770949 382.192266 321.999699 
L 382.192266 317.111574 
z
"/>
   </g>
   <g id="text_8">
    <!-- Overlaps Between Candidate Wins and Electoral Discrepancies in NA-242 -->
    <g transform="translate(7.2 21.833437) scale(0.18 -0.18)">
     <defs>
      <path id="DejaVuSansMono-Bold-4f" d="M 1925 3922 
Q 1572 3922 1409 3545 
Q 1247 3169 1247 2328 
Q 1247 1491 1409 1114 
Q 1572 738 1925 738 
Q 2281 738 2443 1114 
Q 2606 1491 2606 2328 
Q 2606 3169 2443 3545 
Q 2281 3922 1925 3922 
z
M 288 2328 
Q 288 3525 702 4137 
Q 1116 4750 1925 4750 
Q 2738 4750 3152 4137 
Q 3566 3525 3566 2328 
Q 3566 1134 3152 521 
Q 2738 -91 1925 -91 
Q 1116 -91 702 521 
Q 288 1134 288 2328 
z
" transform="scale(0.015625)"/>
      <path id="DejaVuSansMono-Bold-76" d="M 3603 3500 
L 2491 0 
L 1363 0 
L 250 3500 
L 1178 3500 
L 1925 769 
L 2675 3500 
L 3603 3500 
z
" transform="scale(0.015625)"/>
      <path id="DejaVuSansMono-Bold-65" d="M 3444 172 
Q 3125 41 2794 -25 
Q 2463 -91 2094 -91 
Q 1216 -91 752 379 
Q 288 850 288 1734 
Q 288 2591 734 3087 
Q 1181 3584 1953 3584 
Q 2731 3584 3161 3123 
Q 3591 2663 3591 1825 
L 3591 1453 
L 1219 1453 
Q 1222 1041 1462 837 
Q 1703 634 2181 634 
Q 2497 634 2803 725 
Q 3109 816 3444 1013 
L 3444 172 
z
M 2669 2141 
Q 2663 2503 2483 2689 
Q 2303 2875 1953 2875 
Q 1638 2875 1450 2683 
Q 1263 2491 1228 2138 
L 2669 2141 
z
" transform="scale(0.015625)"/>
      <path id="DejaVuSansMono-Bold-72" d="M 3597 2534 
Q 3447 2672 3245 2740 
Q 3044 2809 2803 2809 
Q 2513 2809 2295 2707 
Q 2078 2606 1959 2413 
Q 1884 2294 1854 2125 
Q 1825 1956 1825 1613 
L 1825 0 
L 909 0 
L 909 3500 
L 1825 3500 
L 1825 2956 
Q 1959 3256 2237 3420 
Q 2516 3584 2888 3584 
Q 3075 3584 3254 3539 
Q 3434 3494 3597 3406 
L 3597 2534 
z
" transform="scale(0.015625)"/>
      <path id="DejaVuSansMono-Bold-6c" d="M 1209 1459 
L 1209 4159 
L 281 4159 
L 281 4863 
L 2125 4863 
L 2125 1459 
Q 2125 1047 2253 875 
Q 2381 703 2688 703 
L 3419 703 
L 3419 0 
L 2431 0 
Q 1778 0 1493 337 
Q 1209 675 1209 1459 
z
" transform="scale(0.015625)"/>
      <path id="DejaVuSansMono-Bold-61" d="M 2188 1644 
Q 1675 1644 1472 1512 
Q 1269 1381 1269 1063 
Q 1269 825 1409 684 
Q 1550 544 1791 544 
Q 2153 544 2353 817 
Q 2553 1091 2553 1581 
L 2553 1644 
L 2188 1644 
z
M 3463 1997 
L 3463 0 
L 2553 0 
L 2553 391 
Q 2388 159 2128 34 
Q 1869 -91 1556 -91 
Q 959 -91 626 225 
Q 294 541 294 1106 
Q 294 1719 691 2011 
Q 1088 2303 1919 2303 
L 2553 2303 
L 2553 2456 
Q 2553 2678 2392 2792 
Q 2231 2906 1919 2906 
Q 1591 2906 1283 2823 
Q 975 2741 641 2559 
L 641 3341 
Q 944 3466 1256 3525 
Q 1569 3584 1919 3584 
Q 2772 3584 3117 3237 
Q 3463 2891 3463 1997 
z
" transform="scale(0.015625)"/>
      <path id="DejaVuSansMono-Bold-70" d="M 1381 494 
L 1381 -1331 
L 469 -1331 
L 469 3500 
L 1381 3500 
L 1381 2975 
Q 1525 3278 1759 3431 
Q 1994 3584 2309 3584 
Q 2909 3584 3240 3103 
Q 3572 2622 3572 1747 
Q 3572 859 3236 384 
Q 2900 -91 2278 -91 
Q 1997 -91 1773 54 
Q 1550 200 1381 494 
z
M 2656 1753 
Q 2656 2259 2487 2546 
Q 2319 2834 2022 2834 
Q 1725 2834 1553 2546 
Q 1381 2259 1381 1753 
Q 1381 1247 1553 959 
Q 1725 672 2022 672 
Q 2319 672 2487 959 
Q 2656 1247 2656 1753 
z
" transform="scale(0.015625)"/>
      <path id="DejaVuSansMono-Bold-73" d="M 3097 3391 
L 3097 2591 
Q 2844 2753 2570 2836 
Q 2297 2919 2022 2919 
Q 1716 2919 1559 2830 
Q 1403 2741 1403 2566 
Q 1403 2316 2072 2159 
L 2106 2150 
L 2369 2088 
Q 2869 1969 3101 1705 
Q 3334 1441 3334 991 
Q 3334 450 2979 179 
Q 2625 -91 1913 -91 
Q 1597 -91 1265 -36 
Q 934 19 594 128 
L 594 928 
Q 897 756 1211 665 
Q 1525 575 1819 575 
Q 2141 575 2306 669 
Q 2472 763 2472 941 
Q 2472 1116 2355 1209 
Q 2238 1303 1797 1409 
L 1544 1466 
Q 1019 1584 778 1837 
Q 538 2091 538 2516 
Q 538 3022 903 3303 
Q 1269 3584 1931 3584 
Q 2228 3584 2523 3536 
Q 2819 3488 3097 3391 
z
" transform="scale(0.015625)"/>
      <path id="DejaVuSansMono-Bold-20" transform="scale(0.015625)"/>
      <path id="DejaVuSansMono-Bold-42" d="M 1281 2119 
L 1281 738 
L 1894 738 
Q 2334 738 2511 888 
Q 2688 1038 2688 1409 
Q 2688 1788 2503 1953 
Q 2319 2119 1894 2119 
L 1281 2119 
z
M 1281 3938 
L 1281 2853 
L 1894 2853 
Q 2244 2853 2392 2978 
Q 2541 3103 2541 3391 
Q 2541 3678 2389 3808 
Q 2238 3938 1894 3938 
L 1281 3938 
z
M 391 4672 
L 1894 4672 
Q 2672 4672 3064 4376 
Q 3456 4081 3456 3494 
Q 3456 3044 3225 2791 
Q 2994 2538 2547 2497 
Q 3081 2444 3351 2137 
Q 3622 1831 3622 1281 
Q 3622 606 3215 303 
Q 2809 0 1894 0 
L 391 0 
L 391 4672 
z
" transform="scale(0.015625)"/>
      <path id="DejaVuSansMono-Bold-74" d="M 2156 4494 
L 2156 3500 
L 3353 3500 
L 3353 2797 
L 2156 2797 
L 2156 1141 
Q 2156 906 2270 804 
Q 2384 703 2650 703 
L 3353 703 
L 3353 0 
L 2584 0 
Q 1797 0 1519 251 
Q 1241 503 1241 1184 
L 1241 2797 
L 347 2797 
L 347 3500 
L 1241 3500 
L 1241 4494 
L 2156 4494 
z
" transform="scale(0.015625)"/>
      <path id="DejaVuSansMono-Bold-77" d="M 0 3500 
L 763 3500 
L 1178 819 
L 1556 2584 
L 2297 2584 
L 2669 819 
L 3091 3500 
L 3853 3500 
L 3219 0 
L 2350 0 
L 1925 1819 
L 1503 0 
L 634 0 
L 0 3500 
z
" transform="scale(0.015625)"/>
      <path id="DejaVuSansMono-Bold-6e" d="M 3347 2272 
L 3347 0 
L 2438 0 
L 2438 2131 
Q 2438 2513 2330 2677 
Q 2222 2841 1978 2841 
Q 1731 2841 1589 2619 
Q 1447 2397 1447 2003 
L 1447 0 
L 538 0 
L 538 3500 
L 1447 3500 
L 1447 2975 
Q 1544 3266 1778 3425 
Q 2013 3584 2344 3584 
Q 2841 3584 3094 3254 
Q 3347 2925 3347 2272 
z
" transform="scale(0.015625)"/>
      <path id="DejaVuSansMono-Bold-43" d="M 3378 134 
Q 3159 22 2918 -34 
Q 2678 -91 2413 -91 
Q 1469 -91 972 531 
Q 475 1153 475 2328 
Q 475 3506 972 4128 
Q 1469 4750 2413 4750 
Q 2678 4750 2922 4694 
Q 3166 4638 3378 4525 
L 3378 3500 
Q 3141 3719 2917 3820 
Q 2694 3922 2456 3922 
Q 1950 3922 1692 3520 
Q 1434 3119 1434 2328 
Q 1434 1541 1692 1139 
Q 1950 738 2456 738 
Q 2694 738 2917 839 
Q 3141 941 3378 1159 
L 3378 134 
z
" transform="scale(0.015625)"/>
      <path id="DejaVuSansMono-Bold-64" d="M 2472 3003 
L 2472 4863 
L 3384 4863 
L 3384 0 
L 2472 0 
L 2472 519 
Q 2325 216 2092 62 
Q 1859 -91 1544 -91 
Q 944 -91 612 390 
Q 281 872 281 1747 
Q 281 2634 617 3109 
Q 953 3584 1575 3584 
Q 1856 3584 2079 3439 
Q 2303 3294 2472 3003 
z
M 1197 1741 
Q 1197 1234 1365 946 
Q 1534 659 1831 659 
Q 2128 659 2300 946 
Q 2472 1234 2472 1741 
Q 2472 2247 2300 2534 
Q 2128 2822 1831 2822 
Q 1534 2822 1365 2534 
Q 1197 2247 1197 1741 
z
" transform="scale(0.015625)"/>
      <path id="DejaVuSansMono-Bold-69" d="M 691 3500 
L 2503 3500 
L 2503 703 
L 3641 703 
L 3641 0 
L 447 0 
L 447 703 
L 1588 703 
L 1588 2797 
L 691 2797 
L 691 3500 
z
M 1588 5203 
L 2503 5203 
L 2503 4134 
L 1588 4134 
L 1588 5203 
z
" transform="scale(0.015625)"/>
      <path id="DejaVuSansMono-Bold-57" d="M 0 4666 
L 806 4666 
L 1141 1241 
L 1544 3456 
L 2309 3456 
L 2778 1241 
L 3041 4666 
L 3853 4666 
L 3316 0 
L 2456 0 
L 1925 2450 
L 1428 0 
L 575 0 
L 0 4666 
z
" transform="scale(0.015625)"/>
      <path id="DejaVuSansMono-Bold-45" d="M 3431 0 
L 525 0 
L 525 4666 
L 3431 4666 
L 3431 3853 
L 1447 3853 
L 1447 2847 
L 3244 2847 
L 3244 2034 
L 1447 2034 
L 1447 813 
L 3431 813 
L 3431 0 
z
" transform="scale(0.015625)"/>
      <path id="DejaVuSansMono-Bold-63" d="M 3316 178 
Q 3084 44 2818 -23 
Q 2553 -91 2247 -91 
Q 1438 -91 981 396 
Q 525 884 525 1747 
Q 525 2613 984 3102 
Q 1444 3591 2253 3591 
Q 2534 3591 2795 3525 
Q 3056 3459 3316 3322 
L 3316 2484 
Q 3116 2656 2877 2748 
Q 2638 2841 2381 2841 
Q 1934 2841 1693 2556 
Q 1453 2272 1453 1747 
Q 1453 1222 1693 940 
Q 1934 659 2381 659 
Q 2647 659 2878 748 
Q 3109 838 3316 1019 
L 3316 178 
z
" transform="scale(0.015625)"/>
      <path id="DejaVuSansMono-Bold-6f" d="M 1925 2841 
Q 1597 2841 1409 2552 
Q 1222 2263 1222 1747 
Q 1222 1231 1409 942 
Q 1597 653 1925 653 
Q 2256 653 2443 942 
Q 2631 1231 2631 1747 
Q 2631 2263 2443 2552 
Q 2256 2841 1925 2841 
z
M 306 1747 
Q 306 2594 745 3089 
Q 1184 3584 1925 3584 
Q 2669 3584 3108 3089 
Q 3547 2594 3547 1747 
Q 3547 900 3108 404 
Q 2669 -91 1925 -91 
Q 1184 -91 745 404 
Q 306 900 306 1747 
z
" transform="scale(0.015625)"/>
      <path id="DejaVuSansMono-Bold-44" d="M 1350 3834 
L 1350 831 
L 1600 831 
Q 2144 831 2375 1173 
Q 2606 1516 2606 2338 
Q 2606 3153 2375 3493 
Q 2144 3834 1600 3834 
L 1350 3834 
z
M 428 4666 
L 1416 4666 
Q 2559 4666 3062 4120 
Q 3566 3575 3566 2338 
Q 3566 1097 3062 548 
Q 2559 0 1416 0 
L 428 0 
L 428 4666 
z
" transform="scale(0.015625)"/>
      <path id="DejaVuSansMono-Bold-4e" d="M 372 4666 
L 1363 4666 
L 2663 1275 
L 2663 4666 
L 3475 4666 
L 3475 0 
L 2491 0 
L 1184 3391 
L 1184 0 
L 372 0 
L 372 4666 
z
" transform="scale(0.015625)"/>
      <path id="DejaVuSansMono-Bold-41" d="M 1925 3822 
L 1491 1913 
L 2363 1913 
L 1925 3822 
z
M 1363 4666 
L 2491 4666 
L 3750 0 
L 2828 0 
L 2541 1153 
L 1306 1153 
L 1025 0 
L 103 0 
L 1363 4666 
z
" transform="scale(0.015625)"/>
      <path id="DejaVuSansMono-Bold-2d" d="M 941 2297 
L 2913 2297 
L 2913 1388 
L 941 1388 
L 941 2297 
z
" transform="scale(0.015625)"/>
      <path id="DejaVuSansMono-Bold-32" d="M 1356 813 
L 3322 813 
L 3322 0 
L 359 0 
L 359 788 
L 859 1319 
Q 1750 2266 1941 2484 
Q 2175 2753 2278 2961 
Q 2381 3169 2381 3372 
Q 2381 3684 2192 3854 
Q 2003 4025 1656 4025 
Q 1409 4025 1101 3926 
Q 794 3828 459 3641 
L 459 4500 
Q 794 4622 1114 4686 
Q 1434 4750 1728 4750 
Q 2469 4750 2892 4404 
Q 3316 4059 3316 3463 
Q 3316 3188 3223 2947 
Q 3131 2706 2906 2413 
Q 2741 2200 1997 1456 
Q 1594 1053 1356 813 
z
" transform="scale(0.015625)"/>
      <path id="DejaVuSansMono-Bold-34" d="M 2169 3641 
L 991 1797 
L 2169 1797 
L 2169 3641 
z
M 2088 4666 
L 3053 4666 
L 3053 1797 
L 3566 1797 
L 3566 1006 
L 3053 1006 
L 3053 0 
L 2169 0 
L 2169 1006 
L 319 1006 
L 319 1900 
L 2088 4666 
z
" transform="scale(0.015625)"/>
     </defs>
     <use xlink:href="#DejaVuSansMono-Bold-4f"/>
     <use xlink:href="#DejaVuSansMono-Bold-76" x="60.205078"/>
     <use xlink:href="#DejaVuSansMono-Bold-65" x="120.410156"/>
     <use xlink:href="#DejaVuSansMono-Bold-72" x="180.615234"/>
     <use xlink:href="#DejaVuSansMono-Bold-6c" x="240.820312"/>
     <use xlink:href="#DejaVuSansMono-Bold-61" x="301.025391"/>
     <use xlink:href="#DejaVuSansMono-Bold-70" x="361.230469"/>
     <use xlink:href="#DejaVuSansMono-Bold-73" x="421.435547"/>
     <use xlink:href="#DejaVuSansMono-Bold-20" x="481.640625"/>
     <use xlink:href="#DejaVuSansMono-Bold-42" x="541.845703"/>
     <use xlink:href="#DejaVuSansMono-Bold-65" x="602.050781"/>
     <use xlink:href="#DejaVuSansMono-Bold-74" x="662.255859"/>
     <use xlink:href="#DejaVuSansMono-Bold-77" x="722.460938"/>
     <use xlink:href="#DejaVuSansMono-Bold-65" x="782.666016"/>
     <use xlink:href="#DejaVuSansMono-Bold-65" x="842.871094"/>
     <use xlink:href="#DejaVuSansMono-Bold-6e" x="903.076172"/>
     <use xlink:href="#DejaVuSansMono-Bold-20" x="963.28125"/>
     <use xlink:href="#DejaVuSansMono-Bold-43" x="1023.486328"/>
     <use xlink:href="#DejaVuSansMono-Bold-61" x="1083.691406"/>
     <use xlink:href="#DejaVuSansMono-Bold-6e" x="1143.896484"/>
     <use xlink:href="#DejaVuSansMono-Bold-64" x="1204.101562"/>
     <use xlink:href="#DejaVuSansMono-Bold-69" x="1264.306641"/>
     <use xlink:href="#DejaVuSansMono-Bold-64" x="1324.511719"/>
     <use xlink:href="#DejaVuSansMono-Bold-61" x="1384.716797"/>
     <use xlink:href="#DejaVuSansMono-Bold-74" x="1444.921875"/>
     <use xlink:href="#DejaVuSansMono-Bold-65" x="1505.126953"/>
     <use xlink:href="#DejaVuSansMono-Bold-20" x="1565.332031"/>
     <use xlink:href="#DejaVuSansMono-Bold-57" x="1625.537109"/>
     <use xlink:href="#DejaVuSansMono-Bold-69" x="1685.742188"/>
     <use xlink:href="#DejaVuSansMono-Bold-6e" x="1745.947266"/>
     <use xlink:href="#DejaVuSansMono-Bold-73" x="1806.152344"/>
     <use xlink:href="#DejaVuSansMono-Bold-20" x="1866.357422"/>
     <use xlink:href="#DejaVuSansMono-Bold-61" x="1926.5625"/>
     <use xlink:href="#DejaVuSansMono-Bold-6e" x="1986.767578"/>
     <use xlink:href="#DejaVuSansMono-Bold-64" x="2046.972656"/>
     <use xlink:href="#DejaVuSansMono-Bold-20" x="2107.177734"/>
     <use xlink:href="#DejaVuSansMono-Bold-45" x="2167.382812"/>
     <use xlink:href="#DejaVuSansMono-Bold-6c" x="2227.587891"/>
     <use xlink:href="#DejaVuSansMono-Bold-65" x="2287.792969"/>
     <use xlink:href="#DejaVuSansMono-Bold-63" x="2347.998047"/>
     <use xlink:href="#DejaVuSansMono-Bold-74" x="2408.203125"/>
     <use xlink:href="#DejaVuSansMono-Bold-6f" x="2468.408203"/>
     <use xlink:href="#DejaVuSansMono-Bold-72" x="2528.613281"/>
     <use xlink:href="#DejaVuSansMono-Bold-61" x="2588.818359"/>
     <use xlink:href="#DejaVuSansMono-Bold-6c" x="2649.023438"/>
     <use xlink:href="#DejaVuSansMono-Bold-20" x="2709.228516"/>
     <use xlink:href="#DejaVuSansMono-Bold-44" x="2769.433594"/>
     <use xlink:href="#DejaVuSansMono-Bold-69" x="2829.638672"/>
     <use xlink:href="#DejaVuSansMono-Bold-73" x="2889.84375"/>
     <use xlink:href="#DejaVuSansMono-Bold-63" x="2950.048828"/>
     <use xlink:href="#DejaVuSansMono-Bold-72" x="3010.253906"/>
     <use xlink:href="#DejaVuSansMono-Bold-65" x="3070.458984"/>
     <use xlink:href="#DejaVuSansMono-Bold-70" x="3130.664062"/>
     <use xlink:href="#DejaVuSansMono-Bold-61" x="3190.869141"/>
     <use xlink:href="#DejaVuSansMono-Bold-6e" x="3251.074219"/>
     <use xlink:href="#DejaVuSansMono-Bold-63" x="3311.279297"/>
     <use xlink:href="#DejaVuSansMono-Bold-69" x="3371.484375"/>
     <use xlink:href="#DejaVuSansMono-Bold-65" x="3431.689453"/>
     <use xlink:href="#DejaVuSansMono-Bold-73" x="3491.894531"/>
     <use xlink:href="#DejaVuSansMono-Bold-20" x="3552.099609"/>
     <use xlink:href="#DejaVuSansMono-Bold-69" x="3612.304688"/>
     <use xlink:href="#DejaVuSansMono-Bold-6e" x="3672.509766"/>
     <use xlink:href="#DejaVuSansMono-Bold-20" x="3732.714844"/>
     <use xlink:href="#DejaVuSansMono-Bold-4e" x="3792.919922"/>
     <use xlink:href="#DejaVuSansMono-Bold-41" x="3853.125"/>
     <use xlink:href="#DejaVuSansMono-Bold-2d" x="3913.330078"/>
     <use xlink:href="#DejaVuSansMono-Bold-32" x="3973.535156"/>
     <use xlink:href="#DejaVuSansMono-Bold-34" x="4033.740234"/>
     <use xlink:href="#DejaVuSansMono-Bold-32" x="4093.945312"/>
    </g>
   </g>
   <g id="legend_1">
    <g id="text_9">
     <!-- Categories -->
     <g transform="translate(180.454375 551.105313) scale(0.12 -0.12)">
      <defs>
       <path id="DejaVuSansMono-43" d="M 3353 166 
Q 3113 38 2859 -26 
Q 2606 -91 2322 -91 
Q 1425 -91 929 543 
Q 434 1178 434 2328 
Q 434 3472 932 4111 
Q 1431 4750 2322 4750 
Q 2606 4750 2859 4686 
Q 3113 4622 3353 4494 
L 3353 3847 
Q 3122 4038 2856 4138 
Q 2591 4238 2322 4238 
Q 1706 4238 1400 3763 
Q 1094 3288 1094 2328 
Q 1094 1372 1400 897 
Q 1706 422 2322 422 
Q 2597 422 2861 522 
Q 3125 622 3353 813 
L 3353 166 
z
" transform="scale(0.015625)"/>
       <path id="DejaVuSansMono-61" d="M 2194 1759 
L 2003 1759 
Q 1500 1759 1245 1582 
Q 991 1406 991 1056 
Q 991 741 1181 566 
Q 1372 391 1709 391 
Q 2184 391 2456 720 
Q 2728 1050 2731 1631 
L 2731 1759 
L 2194 1759 
z
M 3309 1997 
L 3309 0 
L 2731 0 
L 2731 519 
Q 2547 206 2267 57 
Q 1988 -91 1588 -91 
Q 1053 -91 734 211 
Q 416 513 416 1019 
Q 416 1603 808 1906 
Q 1200 2209 1959 2209 
L 2731 2209 
L 2731 2300 
Q 2728 2719 2518 2908 
Q 2309 3097 1850 3097 
Q 1556 3097 1256 3012 
Q 956 2928 672 2766 
L 672 3341 
Q 991 3463 1283 3523 
Q 1575 3584 1850 3584 
Q 2284 3584 2592 3456 
Q 2900 3328 3091 3072 
Q 3209 2916 3259 2686 
Q 3309 2456 3309 1997 
z
" transform="scale(0.015625)"/>
       <path id="DejaVuSansMono-74" d="M 1919 4494 
L 1919 3500 
L 3225 3500 
L 3225 3053 
L 1919 3053 
L 1919 1153 
Q 1919 766 2066 612 
Q 2213 459 2578 459 
L 3225 459 
L 3225 0 
L 2522 0 
Q 1875 0 1609 259 
Q 1344 519 1344 1153 
L 1344 3053 
L 409 3053 
L 409 3500 
L 1344 3500 
L 1344 4494 
L 1919 4494 
z
" transform="scale(0.015625)"/>
       <path id="DejaVuSansMono-65" d="M 3475 1894 
L 3475 1613 
L 984 1613 
L 984 1594 
Q 984 1022 1282 709 
Q 1581 397 2125 397 
Q 2400 397 2700 484 
Q 3000 572 3341 750 
L 3341 178 
Q 3013 44 2708 -23 
Q 2403 -91 2119 -91 
Q 1303 -91 843 398 
Q 384 888 384 1747 
Q 384 2584 834 3084 
Q 1284 3584 2034 3584 
Q 2703 3584 3089 3131 
Q 3475 2678 3475 1894 
z
M 2900 2063 
Q 2888 2569 2661 2833 
Q 2434 3097 2009 3097 
Q 1594 3097 1325 2822 
Q 1056 2547 1006 2059 
L 2900 2063 
z
" transform="scale(0.015625)"/>
       <path id="DejaVuSansMono-67" d="M 2681 1778 
Q 2681 2425 2470 2761 
Q 2259 3097 1856 3097 
Q 1434 3097 1212 2761 
Q 991 2425 991 1778 
Q 991 1131 1214 792 
Q 1438 453 1863 453 
Q 2259 453 2470 793 
Q 2681 1134 2681 1778 
z
M 3256 225 
Q 3256 -563 2884 -969 
Q 2513 -1375 1791 -1375 
Q 1553 -1375 1293 -1331 
Q 1034 -1288 775 -1203 
L 775 -634 
Q 1081 -778 1331 -847 
Q 1581 -916 1791 -916 
Q 2256 -916 2468 -662 
Q 2681 -409 2681 141 
L 2681 166 
L 2681 556 
Q 2544 263 2306 119 
Q 2069 -25 1728 -25 
Q 1116 -25 750 465 
Q 384 956 384 1778 
Q 384 2603 750 3093 
Q 1116 3584 1728 3584 
Q 2066 3584 2300 3450 
Q 2534 3316 2681 3034 
L 2681 3488 
L 3256 3488 
L 3256 225 
z
" transform="scale(0.015625)"/>
       <path id="DejaVuSansMono-6f" d="M 1925 3097 
Q 1488 3097 1263 2756 
Q 1038 2416 1038 1747 
Q 1038 1081 1263 739 
Q 1488 397 1925 397 
Q 2366 397 2591 739 
Q 2816 1081 2816 1747 
Q 2816 2416 2591 2756 
Q 2366 3097 1925 3097 
z
M 1925 3584 
Q 2653 3584 3039 3112 
Q 3425 2641 3425 1747 
Q 3425 850 3040 379 
Q 2656 -91 1925 -91 
Q 1197 -91 812 379 
Q 428 850 428 1747 
Q 428 2641 812 3112 
Q 1197 3584 1925 3584 
z
" transform="scale(0.015625)"/>
       <path id="DejaVuSansMono-72" d="M 3609 2778 
Q 3425 2922 3234 2987 
Q 3044 3053 2816 3053 
Q 2278 3053 1993 2715 
Q 1709 2378 1709 1741 
L 1709 0 
L 1131 0 
L 1131 3500 
L 1709 3500 
L 1709 2816 
Q 1853 3188 2151 3386 
Q 2450 3584 2859 3584 
Q 3072 3584 3256 3531 
Q 3441 3478 3609 3366 
L 3609 2778 
z
" transform="scale(0.015625)"/>
       <path id="DejaVuSansMono-69" d="M 800 3500 
L 2272 3500 
L 2272 447 
L 3413 447 
L 3413 0 
L 556 0 
L 556 447 
L 1697 447 
L 1697 3053 
L 800 3053 
L 800 3500 
z
M 1697 4863 
L 2272 4863 
L 2272 4134 
L 1697 4134 
L 1697 4863 
z
" transform="scale(0.015625)"/>
       <path id="DejaVuSansMono-73" d="M 3041 3378 
L 3041 2816 
Q 2794 2959 2544 3031 
Q 2294 3103 2034 3103 
Q 1644 3103 1451 2976 
Q 1259 2850 1259 2591 
Q 1259 2356 1403 2240 
Q 1547 2125 2119 2016 
L 2350 1972 
Q 2778 1891 2998 1647 
Q 3219 1403 3219 1013 
Q 3219 494 2850 201 
Q 2481 -91 1825 -91 
Q 1566 -91 1281 -36 
Q 997 19 666 128 
L 666 722 
Q 988 556 1281 473 
Q 1575 391 1838 391 
Q 2219 391 2428 545 
Q 2638 700 2638 978 
Q 2638 1378 1872 1531 
L 1847 1538 
L 1631 1581 
Q 1134 1678 906 1908 
Q 678 2138 678 2534 
Q 678 3038 1018 3311 
Q 1359 3584 1991 3584 
Q 2272 3584 2531 3532 
Q 2791 3481 3041 3378 
z
" transform="scale(0.015625)"/>
      </defs>
      <use xlink:href="#DejaVuSansMono-43"/>
      <use xlink:href="#DejaVuSansMono-61" x="60.205078"/>
      <use xlink:href="#DejaVuSansMono-74" x="120.410156"/>
      <use xlink:href="#DejaVuSansMono-65" x="180.615234"/>
      <use xlink:href="#DejaVuSansMono-67" x="240.820312"/>
      <use xlink:href="#DejaVuSansMono-6f" x="301.025391"/>
      <use xlink:href="#DejaVuSansMono-72" x="361.230469"/>
      <use xlink:href="#DejaVuSansMono-69" x="421.435547"/>
      <use xlink:href="#DejaVuSansMono-65" x="481.640625"/>
      <use xlink:href="#DejaVuSansMono-73" x="541.845703"/>
     </g>
    </g>
    <g id="line2d_1">
     <path d="M 109.261406 562.835 
L 119.261406 562.835 
L 129.261406 562.835 
" style="fill: none; stroke: #ffc300; stroke-width: 6; stroke-linecap: round"/>
    </g>
    <g id="text_10">
     <!-- Mustafa Kamal Wins -->
     <g transform="translate(137.261406 566.335) scale(0.1 -0.1)">
      <defs>
       <path id="DejaVuSansMono-4d" d="M 269 4666 
L 1113 4666 
L 1919 2291 
L 2731 4666 
L 3578 4666 
L 3578 0 
L 2994 0 
L 2994 4122 
L 2163 1663 
L 1684 1663 
L 850 4122 
L 850 0 
L 269 0 
L 269 4666 
z
" transform="scale(0.015625)"/>
       <path id="DejaVuSansMono-75" d="M 609 1325 
L 609 3494 
L 1184 3494 
L 1184 1325 
Q 1184 853 1351 631 
Q 1519 409 1869 409 
Q 2275 409 2490 695 
Q 2706 981 2706 1516 
L 2706 3494 
L 3284 3494 
L 3284 0 
L 2706 0 
L 2706 525 
Q 2553 222 2289 65 
Q 2025 -91 1672 -91 
Q 1134 -91 871 261 
Q 609 613 609 1325 
z
" transform="scale(0.015625)"/>
       <path id="DejaVuSansMono-66" d="M 3322 4863 
L 3322 4384 
L 2669 4384 
Q 2359 4384 2239 4257 
Q 2119 4131 2119 3809 
L 2119 3500 
L 3322 3500 
L 3322 3053 
L 2119 3053 
L 2119 0 
L 1544 0 
L 1544 3053 
L 609 3053 
L 609 3500 
L 1544 3500 
L 1544 3744 
Q 1544 4319 1808 4591 
Q 2072 4863 2631 4863 
L 3322 4863 
z
" transform="scale(0.015625)"/>
       <path id="DejaVuSansMono-20" transform="scale(0.015625)"/>
       <path id="DejaVuSansMono-4b" d="M 428 4666 
L 1063 4666 
L 1063 2591 
L 3034 4666 
L 3775 4666 
L 1959 2759 
L 3828 0 
L 3066 0 
L 1544 2338 
L 1063 1825 
L 1063 0 
L 428 0 
L 428 4666 
z
" transform="scale(0.015625)"/>
       <path id="DejaVuSansMono-6d" d="M 2113 3144 
Q 2219 3369 2383 3476 
Q 2547 3584 2778 3584 
Q 3200 3584 3373 3257 
Q 3547 2931 3547 2028 
L 3547 0 
L 3022 0 
L 3022 2003 
Q 3022 2744 2939 2923 
Q 2856 3103 2638 3103 
Q 2388 3103 2295 2911 
Q 2203 2719 2203 2003 
L 2203 0 
L 1678 0 
L 1678 2003 
Q 1678 2753 1589 2928 
Q 1500 3103 1269 3103 
Q 1041 3103 952 2911 
Q 863 2719 863 2003 
L 863 0 
L 341 0 
L 341 3500 
L 863 3500 
L 863 3200 
Q 966 3388 1120 3486 
Q 1275 3584 1472 3584 
Q 1709 3584 1867 3475 
Q 2025 3366 2113 3144 
z
" transform="scale(0.015625)"/>
       <path id="DejaVuSansMono-6c" d="M 1997 1269 
Q 1997 881 2139 684 
Q 2281 488 2559 488 
L 3231 488 
L 3231 0 
L 2503 0 
Q 1988 0 1705 331 
Q 1422 663 1422 1269 
L 1422 4447 
L 500 4447 
L 500 4897 
L 1997 4897 
L 1997 1269 
z
" transform="scale(0.015625)"/>
       <path id="DejaVuSansMono-57" d="M 0 4666 
L 616 4666 
L 1063 878 
L 1594 3384 
L 2253 3384 
L 2791 872 
L 3238 4666 
L 3853 4666 
L 3156 0 
L 2559 0 
L 1925 2772 
L 1294 0 
L 697 0 
L 0 4666 
z
" transform="scale(0.015625)"/>
       <path id="DejaVuSansMono-6e" d="M 3284 2169 
L 3284 0 
L 2706 0 
L 2706 2169 
Q 2706 2641 2540 2862 
Q 2375 3084 2022 3084 
Q 1619 3084 1401 2798 
Q 1184 2513 1184 1978 
L 1184 0 
L 609 0 
L 609 3500 
L 1184 3500 
L 1184 2975 
Q 1338 3275 1600 3429 
Q 1863 3584 2222 3584 
Q 2756 3584 3020 3232 
Q 3284 2881 3284 2169 
z
" transform="scale(0.015625)"/>
      </defs>
      <use xlink:href="#DejaVuSansMono-4d"/>
      <use xlink:href="#DejaVuSansMono-75" x="60.205078"/>
      <use xlink:href="#DejaVuSansMono-73" x="120.410156"/>
      <use xlink:href="#DejaVuSansMono-74" x="180.615234"/>
      <use xlink:href="#DejaVuSansMono-61" x="240.820312"/>
      <use xlink:href="#DejaVuSansMono-66" x="301.025391"/>
      <use xlink:href="#DejaVuSansMono-61" x="361.230469"/>
      <use xlink:href="#DejaVuSansMono-20" x="421.435547"/>
      <use xlink:href="#DejaVuSansMono-4b" x="481.640625"/>
      <use xlink:href="#DejaVuSansMono-61" x="541.845703"/>
      <use xlink:href="#DejaVuSansMono-6d" x="602.050781"/>
      <use xlink:href="#DejaVuSansMono-61" x="662.255859"/>
      <use xlink:href="#DejaVuSansMono-6c" x="722.460938"/>
      <use xlink:href="#DejaVuSansMono-20" x="782.666016"/>
      <use xlink:href="#DejaVuSansMono-57" x="842.871094"/>
      <use xlink:href="#DejaVuSansMono-69" x="903.076172"/>
      <use xlink:href="#DejaVuSansMono-6e" x="963.28125"/>
      <use xlink:href="#DejaVuSansMono-73" x="1023.486328"/>
     </g>
    </g>
    <g id="line2d_2">
     <path d="M 109.261406 577.56625 
L 119.261406 577.56625 
L 129.261406 577.56625 
" style="fill: none; stroke: #f45f74; stroke-width: 6; stroke-linecap: round"/>
    </g>
    <g id="text_11">
     <!-- Winner Discrepant | ECP-PTI -->
     <g transform="translate(137.261406 581.06625) scale(0.1 -0.1)">
      <defs>
       <path id="DejaVuSansMono-44" d="M 1363 519 
Q 2159 519 2475 911 
Q 2791 1303 2791 2328 
Q 2791 3363 2477 3755 
Q 2163 4147 1363 4147 
L 1063 4147 
L 1063 519 
L 1363 519 
z
M 1375 4666 
Q 2444 4666 2950 4097 
Q 3456 3528 3456 2328 
Q 3456 1134 2950 567 
Q 2444 0 1375 0 
L 428 0 
L 428 4666 
L 1375 4666 
z
" transform="scale(0.015625)"/>
       <path id="DejaVuSansMono-63" d="M 3316 178 
Q 3084 44 2839 -23 
Q 2594 -91 2338 -91 
Q 1525 -91 1067 396 
Q 609 884 609 1747 
Q 609 2609 1067 3096 
Q 1525 3584 2338 3584 
Q 2591 3584 2831 3518 
Q 3072 3453 3316 3316 
L 3316 2713 
Q 3088 2916 2858 3006 
Q 2628 3097 2338 3097 
Q 1797 3097 1506 2747 
Q 1216 2397 1216 1747 
Q 1216 1100 1508 748 
Q 1800 397 2338 397 
Q 2638 397 2875 489 
Q 3113 581 3316 775 
L 3316 178 
z
" transform="scale(0.015625)"/>
       <path id="DejaVuSansMono-70" d="M 1172 441 
L 1172 -1331 
L 594 -1331 
L 594 3500 
L 1172 3500 
L 1172 3053 
Q 1316 3313 1555 3448 
Q 1794 3584 2106 3584 
Q 2741 3584 3102 3093 
Q 3463 2603 3463 1734 
Q 3463 881 3100 395 
Q 2738 -91 2106 -91 
Q 1788 -91 1548 45 
Q 1309 181 1172 441 
z
M 2859 1747 
Q 2859 2416 2648 2756 
Q 2438 3097 2022 3097 
Q 1603 3097 1387 2755 
Q 1172 2413 1172 1747 
Q 1172 1084 1387 740 
Q 1603 397 2022 397 
Q 2438 397 2648 737 
Q 2859 1078 2859 1747 
z
" transform="scale(0.015625)"/>
       <path id="DejaVuSansMono-7c" d="M 2194 4891 
L 2194 -1509 
L 1656 -1509 
L 1656 4891 
L 2194 4891 
z
" transform="scale(0.015625)"/>
       <path id="DejaVuSansMono-45" d="M 616 4666 
L 3384 4666 
L 3384 4134 
L 1247 4134 
L 1247 2753 
L 3291 2753 
L 3291 2222 
L 1247 2222 
L 1247 531 
L 3444 531 
L 3444 0 
L 616 0 
L 616 4666 
z
" transform="scale(0.015625)"/>
       <path id="DejaVuSansMono-50" d="M 1247 4147 
L 1247 2394 
L 1978 2394 
Q 2416 2394 2661 2625 
Q 2906 2856 2906 3272 
Q 2906 3688 2662 3917 
Q 2419 4147 1978 4147 
L 1247 4147 
z
M 616 4666 
L 1978 4666 
Q 2759 4666 3162 4311 
Q 3566 3956 3566 3272 
Q 3566 2581 3164 2228 
Q 2763 1875 1978 1875 
L 1247 1875 
L 1247 0 
L 616 0 
L 616 4666 
z
" transform="scale(0.015625)"/>
       <path id="DejaVuSansMono-2d" d="M 1113 2009 
L 2741 2009 
L 2741 1497 
L 1113 1497 
L 1113 2009 
z
" transform="scale(0.015625)"/>
       <path id="DejaVuSansMono-54" d="M 147 4666 
L 3706 4666 
L 3706 4134 
L 2247 4134 
L 2247 0 
L 1613 0 
L 1613 4134 
L 147 4134 
L 147 4666 
z
" transform="scale(0.015625)"/>
       <path id="DejaVuSansMono-49" d="M 628 4666 
L 3219 4666 
L 3219 4134 
L 2241 4134 
L 2241 531 
L 3219 531 
L 3219 0 
L 628 0 
L 628 531 
L 1606 531 
L 1606 4134 
L 628 4134 
L 628 4666 
z
" transform="scale(0.015625)"/>
      </defs>
      <use xlink:href="#DejaVuSansMono-57"/>
      <use xlink:href="#DejaVuSansMono-69" x="60.205078"/>
      <use xlink:href="#DejaVuSansMono-6e" x="120.410156"/>
      <use xlink:href="#DejaVuSansMono-6e" x="180.615234"/>
      <use xlink:href="#DejaVuSansMono-65" x="240.820312"/>
      <use xlink:href="#DejaVuSansMono-72" x="301.025391"/>
      <use xlink:href="#DejaVuSansMono-20" x="361.230469"/>
      <use xlink:href="#DejaVuSansMono-44" x="421.435547"/>
      <use xlink:href="#DejaVuSansMono-69" x="481.640625"/>
      <use xlink:href="#DejaVuSansMono-73" x="541.845703"/>
      <use xlink:href="#DejaVuSansMono-63" x="602.050781"/>
      <use xlink:href="#DejaVuSansMono-72" x="662.255859"/>
      <use xlink:href="#DejaVuSansMono-65" x="722.460938"/>
      <use xlink:href="#DejaVuSansMono-70" x="782.666016"/>
      <use xlink:href="#DejaVuSansMono-61" x="842.871094"/>
      <use xlink:href="#DejaVuSansMono-6e" x="903.076172"/>
      <use xlink:href="#DejaVuSansMono-74" x="963.28125"/>
      <use xlink:href="#DejaVuSansMono-20" x="1023.486328"/>
      <use xlink:href="#DejaVuSansMono-7c" x="1083.691406"/>
      <use xlink:href="#DejaVuSansMono-20" x="1143.896484"/>
      <use xlink:href="#DejaVuSansMono-45" x="1204.101562"/>
      <use xlink:href="#DejaVuSansMono-43" x="1264.306641"/>
      <use xlink:href="#DejaVuSansMono-50" x="1324.511719"/>
      <use xlink:href="#DejaVuSansMono-2d" x="1384.716797"/>
      <use xlink:href="#DejaVuSansMono-50" x="1444.921875"/>
      <use xlink:href="#DejaVuSansMono-54" x="1505.126953"/>
      <use xlink:href="#DejaVuSansMono-49" x="1565.332031"/>
     </g>
    </g>
    <g id="line2d_3">
     <path d="M 109.261406 592.575625 
L 119.261406 592.575625 
L 129.261406 592.575625 
" style="fill: none; stroke: #00b0be; stroke-width: 6; stroke-linecap: round"/>
    </g>
    <g id="text_12">
     <!-- Turnout Discrepant  50 | NA-PA -->
     <g transform="translate(137.261406 596.075625) scale(0.1 -0.1)">
      <defs>
       <path id="DejaVuSansMono-2265" d="M 275 1369 
L 2784 2100 
L 275 2822 
L 275 3397 
L 3578 2363 
L 3578 1838 
L 275 800 
L 275 1369 
z
M 275 531 
L 3578 531 
L 3578 0 
L 275 0 
L 275 531 
z
" transform="scale(0.015625)"/>
       <path id="DejaVuSansMono-35" d="M 647 4666 
L 3009 4666 
L 3009 4134 
L 1222 4134 
L 1222 2988 
Q 1356 3038 1492 3061 
Q 1628 3084 1766 3084 
Q 2491 3084 2916 2656 
Q 3341 2228 3341 1497 
Q 3341 759 2895 334 
Q 2450 -91 1678 -91 
Q 1306 -91 998 -41 
Q 691 9 447 109 
L 447 750 
Q 734 594 1025 517 
Q 1316 441 1619 441 
Q 2141 441 2423 716 
Q 2706 991 2706 1497 
Q 2706 1997 2414 2275 
Q 2122 2553 1600 2553 
Q 1347 2553 1106 2495 
Q 866 2438 647 2322 
L 647 4666 
z
" transform="scale(0.015625)"/>
       <path id="DejaVuSansMono-30" d="M 1509 2344 
Q 1509 2516 1629 2641 
Q 1750 2766 1919 2766 
Q 2094 2766 2219 2641 
Q 2344 2516 2344 2344 
Q 2344 2169 2220 2047 
Q 2097 1925 1919 1925 
Q 1744 1925 1626 2044 
Q 1509 2163 1509 2344 
z
M 1925 4250 
Q 1484 4250 1267 3775 
Q 1050 3300 1050 2328 
Q 1050 1359 1267 884 
Q 1484 409 1925 409 
Q 2369 409 2586 884 
Q 2803 1359 2803 2328 
Q 2803 3300 2586 3775 
Q 2369 4250 1925 4250 
z
M 1925 4750 
Q 2672 4750 3055 4137 
Q 3438 3525 3438 2328 
Q 3438 1134 3055 521 
Q 2672 -91 1925 -91 
Q 1178 -91 797 521 
Q 416 1134 416 2328 
Q 416 3525 797 4137 
Q 1178 4750 1925 4750 
z
" transform="scale(0.015625)"/>
       <path id="DejaVuSansMono-4e" d="M 434 4666 
L 1234 4666 
L 2809 825 
L 2809 4666 
L 3419 4666 
L 3419 0 
L 2619 0 
L 1044 3841 
L 1044 0 
L 434 0 
L 434 4666 
z
" transform="scale(0.015625)"/>
       <path id="DejaVuSansMono-41" d="M 1925 4109 
L 1259 1722 
L 2591 1722 
L 1925 4109 
z
M 1544 4666 
L 2309 4666 
L 3738 0 
L 3084 0 
L 2741 1216 
L 1106 1216 
L 769 0 
L 116 0 
L 1544 4666 
z
" transform="scale(0.015625)"/>
      </defs>
      <use xlink:href="#DejaVuSansMono-54"/>
      <use xlink:href="#DejaVuSansMono-75" x="60.205078"/>
      <use xlink:href="#DejaVuSansMono-72" x="120.410156"/>
      <use xlink:href="#DejaVuSansMono-6e" x="180.615234"/>
      <use xlink:href="#DejaVuSansMono-6f" x="240.820312"/>
      <use xlink:href="#DejaVuSansMono-75" x="301.025391"/>
      <use xlink:href="#DejaVuSansMono-74" x="361.230469"/>
      <use xlink:href="#DejaVuSansMono-20" x="421.435547"/>
      <use xlink:href="#DejaVuSansMono-44" x="481.640625"/>
      <use xlink:href="#DejaVuSansMono-69" x="541.845703"/>
      <use xlink:href="#DejaVuSansMono-73" x="602.050781"/>
      <use xlink:href="#DejaVuSansMono-63" x="662.255859"/>
      <use xlink:href="#DejaVuSansMono-72" x="722.460938"/>
      <use xlink:href="#DejaVuSansMono-65" x="782.666016"/>
      <use xlink:href="#DejaVuSansMono-70" x="842.871094"/>
      <use xlink:href="#DejaVuSansMono-61" x="903.076172"/>
      <use xlink:href="#DejaVuSansMono-6e" x="963.28125"/>
      <use xlink:href="#DejaVuSansMono-74" x="1023.486328"/>
      <use xlink:href="#DejaVuSansMono-20" x="1083.691406"/>
      <use xlink:href="#DejaVuSansMono-2265" x="1143.896484"/>
      <use xlink:href="#DejaVuSansMono-20" x="1204.101562"/>
      <use xlink:href="#DejaVuSansMono-35" x="1264.306641"/>
      <use xlink:href="#DejaVuSansMono-30" x="1324.511719"/>
      <use xlink:href="#DejaVuSansMono-20" x="1384.716797"/>
      <use xlink:href="#DejaVuSansMono-7c" x="1444.921875"/>
      <use xlink:href="#DejaVuSansMono-20" x="1505.126953"/>
      <use xlink:href="#DejaVuSansMono-4e" x="1565.332031"/>
      <use xlink:href="#DejaVuSansMono-41" x="1625.537109"/>
      <use xlink:href="#DejaVuSansMono-2d" x="1685.742188"/>
      <use xlink:href="#DejaVuSansMono-50" x="1745.947266"/>
      <use xlink:href="#DejaVuSansMono-41" x="1806.152344"/>
     </g>
    </g>
   </g>
  </g>
 </g>
 <defs>
  <clipPath id="p90df2bca06">
   <rect x="100.261406" y="45.833437" width="561.6" height="561.6"/>
  </clipPath>
 </defs>
</svg>
