<?xml version="1.0" encoding="utf-8" standalone="no"?>
<!DOCTYPE svg PUBLIC "-//W3C//DTD SVG 1.1//EN"
  "http://www.w3.org/Graphics/SVG/1.1/DTD/svg11.dtd">
<svg xmlns:xlink="http://www.w3.org/1999/xlink" width="519.136pt" height="568.113187pt" viewBox="0 0 519.136 568.113187" xmlns="http://www.w3.org/2000/svg" version="1.1">
 <metadata>
  <rdf:RDF xmlns:dc="http://purl.org/dc/elements/1.1/" xmlns:cc="http://creativecommons.org/ns#" xmlns:rdf="http://www.w3.org/1999/02/22-rdf-syntax-ns#">
   <cc:Work>
    <dc:type rdf:resource="http://purl.org/dc/dcmitype/StillImage"/>
    <dc:date>2025-07-17T14:23:58.491211</dc:date>
    <dc:format>image/svg+xml</dc:format>
    <dc:creator>
     <cc:Agent>
      <dc:title>Matplotlib v3.9.2, https://matplotlib.org/</dc:title>
     </cc:Agent>
    </dc:creator>
   </cc:Work>
  </rdf:RDF>
 </metadata>
 <defs>
  <style type="text/css">*{stroke-linejoin: round; stroke-linecap: butt}</style>
 </defs>
 <g id="figure_1">
  <g id="patch_1">
   <path d="M 0 568.113187 
L 519.136 568.113187 
L 519.136 0 
L 0 0 
z
" style="fill: #ffffff"/>
  </g>
  <g id="axes_1">
   <g id="matplotlib.axis_1"/>
   <g id="matplotlib.axis_2"/>
   <g id="patch_2">
    <path d="M 124.882877 173.860064 
C 103.452417 195.290523 87.119997 221.274002 77.100805 249.877236 
C 67.081614 278.48047 63.630461 308.976022 67.004123 339.094912 
C 70.377785 369.213803 80.490464 398.19005 96.58974 423.867715 
C 112.689016 449.54538 134.365453 471.271429 160.006245 487.429367 
C 185.647037 503.587305 214.600089 513.766202 244.711188 517.208713 
C 274.822287 520.651223 305.32565 517.269797 333.951714 507.316024 
C 362.577779 497.362251 388.598529 481.089276 410.077926 459.707866 
C 431.557323 438.326457 447.949104 412.380384 458.033661 383.800131 
L 267.643776 316.620963 
z
"/>
   </g>
   <g id="patch_3">
    <path d="M 462.339161 376.967795 
C 477.570005 333.802649 477.677655 286.715015 462.644334 243.48068 
C 447.611013 200.246345 418.312431 163.383763 379.586791 138.980213 
C 340.861151 114.576663 294.96427 104.053683 249.475299 109.148977 
C 203.986329 114.244271 161.555059 134.661034 129.188351 167.027754 
L 271.949277 309.788627 
z
"/>
   </g>
   <g id="patch_4">
    <path d="M 127.262225 176.239412 
C 106.18894 197.312697 90.128726 222.863119 80.276522 250.989632 
C 70.424317 279.116145 67.030683 309.103438 70.348117 338.720347 
C 73.665552 368.337256 83.609686 396.830565 99.440641 422.080269 
C 115.271596 447.329973 136.586759 468.693922 161.800204 484.58256 
C 187.01365 500.471199 215.484151 510.480448 245.093398 513.865584 
C 274.702645 517.250719 304.697618 513.92565 332.846582 504.137773 
C 360.995545 494.349896 386.582616 478.348137 407.704023 457.323085 
C 428.82543 436.298032 444.944015 410.784394 454.860496 382.680478 
L 267.643776 316.620963 
z
"/>
   </g>
   <g id="patch_5">
    <path d="M 459.165996 375.848142 
C 474.142993 333.402415 474.248848 287.099575 459.466083 244.585812 
C 444.683318 202.07205 415.873045 165.823844 377.792833 141.82702 
C 339.71262 117.830196 294.580686 107.482598 249.849866 112.492971 
C 205.119045 117.503344 163.394963 137.579827 131.567699 169.407102 
L 271.949277 309.788627 
z
"/>
   </g>
   <g id="patch_6">
    <path d="M 129.641573 178.618761 
C 108.925463 199.334871 93.137456 224.452235 83.452238 252.102027 
C 73.76702 279.75182 70.430905 309.230853 73.692111 338.345781 
C 76.953318 367.460708 86.728908 395.47108 102.291542 420.292823 
C 117.854175 445.114566 138.808064 466.116414 163.594163 481.735754 
C 188.380262 497.355093 216.368212 507.194694 245.475608 510.522454 
C 274.583004 513.850215 304.069587 510.581502 331.74145 500.959522 
C 359.413312 491.337542 384.566704 475.606999 405.330121 454.938303 
C 426.093538 434.269607 441.938926 409.188404 451.687331 381.560826 
L 267.643776 316.620963 
z
"/>
   </g>
   <g id="patch_7">
    <path d="M 455.992832 374.728489 
C 470.715981 333.002181 470.820042 287.484135 456.287832 245.690945 
C 441.755622 203.897755 413.433659 168.263925 375.998874 144.673827 
C 338.564089 121.083729 294.197103 110.911514 250.224432 115.836965 
C 206.251761 120.762417 165.234866 140.49862 133.947048 171.78645 
L 271.949277 309.788627 
z
"/>
   </g>
   <g id="patch_8">
    <path d="M 132.020922 180.998109 
C 111.661985 201.357045 96.146186 226.041351 86.627954 253.214423 
C 77.109722 280.387494 73.831127 309.358269 77.036106 337.971215 
C 80.241085 366.584161 89.84813 394.111595 105.142442 418.505377 
C 120.436754 442.899159 141.029369 463.538906 165.388122 478.888947 
C 189.746874 494.238988 217.252273 503.90894 245.857818 507.179325 
C 274.463362 510.44971 303.441556 507.237355 330.636317 497.781271 
C 357.831079 488.325187 382.550791 472.86586 402.956218 452.553521 
C 423.361645 432.241182 438.933837 407.592413 448.514166 380.441173 
L 267.643776 316.620963 
z
"/>
   </g>
   <g id="patch_9">
    <path d="M 452.819667 373.608836 
C 467.288969 332.601948 467.391236 287.868695 453.109581 246.796077 
C 438.827926 205.723459 410.994273 170.704006 374.204915 147.520634 
C 337.415558 124.337262 293.81352 114.34043 250.598998 119.18096 
C 207.384477 124.021489 167.07477 143.417413 136.326397 174.165798 
L 271.949277 309.788627 
z
"/>
   </g>
   <g id="patch_10">
    <path d="M 134.40027 183.377457 
C 114.398508 203.379219 99.154915 227.630467 89.80367 254.326818 
C 80.452425 281.023169 77.231348 309.485685 80.3801 337.596649 
C 83.528851 365.707614 92.967352 392.752111 107.993343 416.717931 
C 123.019334 440.683752 143.250675 460.961398 167.182081 476.04214 
C 191.113487 491.122882 218.136335 500.623186 246.240027 503.836196 
C 274.34372 507.049206 302.813525 503.893208 329.531185 494.60302 
C 356.248845 485.312832 380.534878 470.124722 400.582316 450.168739 
C 420.629753 430.212757 435.928749 405.996423 445.341002 379.32152 
L 267.643776 316.620963 
z
"/>
   </g>
   <g id="patch_11">
    <path d="M 449.646502 372.489183 
C 463.861956 332.201714 463.96243 288.253255 449.93133 247.90121 
C 435.900231 207.549164 408.554887 173.144087 372.410957 150.367441 
C 336.267026 127.590794 293.429937 117.769346 250.973565 122.524954 
C 208.517192 127.280562 168.914674 146.336207 138.705746 176.545146 
L 271.949277 309.788627 
z
"/>
   </g>
   <g id="patch_12">
    <path d="M 136.779618 185.756806 
C 117.135031 205.401393 102.163645 229.219583 92.979386 255.439213 
C 83.795128 281.658844 80.63157 309.6131 83.724094 337.222083 
C 86.816618 364.831066 96.086574 391.392626 110.844243 414.930485 
C 125.601913 438.468345 145.47198 458.383891 168.97604 473.195334 
C 192.480099 488.006776 219.020396 497.337432 246.622237 500.493067 
C 274.224078 503.648702 302.185493 500.549061 328.426053 491.424769 
C 354.666612 482.300477 378.518966 467.383583 398.208413 447.783958 
C 417.89786 428.184332 432.92366 404.400433 442.167837 378.201867 
L 267.643776 316.620963 
z
"/>
   </g>
   <g id="patch_13">
    <path d="M 446.473338 371.369531 
C 460.434944 331.80148 460.533623 288.637816 446.753079 249.006342 
C 432.972535 209.374869 406.115502 175.584168 370.616998 153.214248 
C 335.118495 130.844327 293.046353 121.198261 251.348131 125.868948 
C 209.649908 130.539634 170.754577 149.255 141.085094 178.924494 
L 271.949277 309.788627 
z
"/>
   </g>
   <g id="patch_14">
    <path d="M 139.158967 188.136154 
C 119.871553 207.423567 105.172375 230.808699 96.155103 256.551609 
C 87.137831 282.294519 84.031792 309.740516 87.068088 336.847518 
C 90.104384 363.954519 99.205795 390.033141 113.695144 413.14304 
C 128.184492 436.252938 147.693286 455.806383 170.769998 470.348527 
C 193.846711 484.890671 219.904458 494.051678 247.004447 497.149938 
C 274.104436 500.248197 301.557462 497.204914 327.32092 488.246518 
C 353.084378 479.288122 376.503053 464.642445 395.834511 445.399176 
C 415.165968 426.155908 429.918571 402.804442 438.994672 377.082214 
L 267.643776 316.620963 
z
"/>
   </g>
   <g id="patch_15">
    <path d="M 443.300173 370.249878 
C 457.007932 331.401247 457.104817 289.022376 443.574828 250.111475 
C 430.04484 211.200573 403.676116 178.024249 368.82304 156.061055 
C 333.969964 134.09786 292.66277 124.627177 251.722697 129.212942 
C 210.782624 133.798707 172.594481 152.173793 143.464443 181.303842 
L 271.949277 309.788627 
z
"/>
   </g>
   <g id="patch_16">
    <path d="M 141.538315 190.515502 
C 122.608076 209.445741 108.181104 232.397815 99.330819 257.664004 
C 90.480533 282.930194 87.432014 309.867932 90.412082 336.472952 
C 93.392151 363.077972 102.325017 388.673656 116.546045 411.355594 
C 130.767072 434.037531 149.914591 453.228875 172.563957 467.50172 
C 195.213324 481.774565 220.788519 490.765924 247.386657 493.806809 
C 273.984794 496.847693 300.929431 493.860766 326.215788 485.068267 
C 351.502145 476.275768 374.487141 461.901306 393.460608 443.014394 
C 412.434076 424.127483 426.913482 401.208452 435.821507 375.962562 
L 267.643776 316.620963 
z
"/>
   </g>
   <g id="patch_17">
    <path d="M 440.127008 369.130225 
C 453.58092 331.001013 453.676011 289.406936 440.396577 251.216607 
C 427.117144 213.026278 401.23673 180.46433 367.029081 158.907862 
C 332.821433 137.351393 292.279187 128.056093 252.097263 132.556936 
C 211.91534 137.05778 174.434384 155.092586 145.843792 183.683189 
L 271.949277 309.788627 
z
"/>
   </g>
   <g id="patch_18">
    <path d="M 143.917663 192.894851 
C 125.344599 211.467915 111.189834 233.986931 102.506535 258.7764 
C 93.823236 283.565869 90.832236 309.995347 93.756077 336.098386 
C 96.679917 362.201424 105.444239 387.314172 119.396945 409.568148 
C 133.349651 431.822124 152.135896 450.651367 174.357916 464.654913 
C 196.579936 478.658459 221.672581 487.48017 247.768867 490.46368 
C 273.865152 493.447189 300.3014 490.516619 325.110656 481.890016 
C 349.919912 473.263413 372.471228 459.160167 391.086706 440.629613 
C 409.702183 422.099058 423.908393 399.612462 432.648343 374.842909 
L 267.643776 316.620963 
z
"/>
   </g>
   <g id="patch_19">
    <path d="M 436.953843 368.010572 
C 450.153908 330.600779 450.247204 289.791496 437.218326 252.32174 
C 424.189448 214.851983 398.797344 182.904412 365.235123 161.754668 
C 331.672901 140.604925 291.895604 131.485009 252.47183 135.90093 
C 213.048056 140.316852 176.274288 158.011379 148.223141 186.062537 
L 271.949277 309.788627 
z
"/>
   </g>
   <g id="patch_20">
    <path d="M 146.297012 195.274199 
C 128.081121 213.490089 114.198563 235.576047 105.682251 259.888795 
C 97.165939 284.201544 94.232458 310.122763 97.100071 335.72382 
C 99.967684 361.324877 108.563461 385.954687 122.247846 407.780702 
C 135.93223 429.606717 154.357202 448.07386 176.151875 461.808107 
C 197.946548 475.542354 222.556642 484.194417 248.151076 487.12055 
C 273.745511 490.046684 299.673369 487.172472 324.005523 478.711765 
C 348.337678 470.251058 370.455316 456.419029 388.712803 438.244831 
C 406.970291 420.070633 420.903305 398.016471 429.475178 373.723256 
L 267.643776 316.620963 
z
"/>
   </g>
   <g id="patch_21">
    <path d="M 433.780679 366.89092 
C 446.726896 330.200545 446.818398 290.176056 434.040075 253.426872 
C 421.261753 216.677688 396.357958 185.344493 363.441164 164.601475 
C 330.52437 143.858458 291.512021 134.913924 252.846396 139.244925 
C 214.180771 143.575925 178.114192 160.930173 150.602489 188.441885 
L 271.949277 309.788627 
z
"/>
   </g>
   <g id="patch_22">
    <path d="M 148.67636 197.653547 
C 130.817644 215.512263 117.207293 237.165163 108.857967 261.001191 
C 100.508641 284.837219 97.63268 310.250179 100.444065 335.349254 
C 103.25545 360.44833 111.682683 384.595202 125.098746 405.993256 
C 138.51481 427.39131 156.578507 445.496352 177.945834 458.9613 
C 199.313161 472.426248 223.440704 480.908663 248.533286 483.777421 
C 273.625869 486.64618 299.045337 483.828325 322.900391 475.533514 
C 346.755445 467.238703 368.439403 453.67789 386.338901 435.860049 
C 404.238398 418.042208 417.898216 396.420481 426.302013 372.603603 
L 267.643776 316.620963 
z
"/>
   </g>
   <g id="patch_23">
    <path d="M 430.607514 365.771267 
C 443.299884 329.800312 443.389592 290.560617 430.861824 254.532004 
C 418.334057 218.503392 393.918572 187.784574 361.647205 167.448282 
C 329.375839 147.111991 291.128437 138.34284 253.220962 142.588919 
C 215.313487 146.834997 179.954095 163.848966 152.981838 190.821233 
L 271.949277 309.788627 
z
"/>
   </g>
   <g id="patch_24">
    <path d="M 151.055708 200.032896 
C 133.554167 217.534437 120.216023 238.754279 112.033683 262.113586 
C 103.851344 285.472894 101.032902 310.377595 103.788059 334.974688 
C 106.543217 359.571782 114.801905 383.235717 127.949647 404.20581 
C 141.097389 425.175903 158.799812 442.918844 179.739793 456.114493 
C 200.679773 469.310142 224.324765 477.622909 248.915496 480.434292 
C 273.506227 483.245676 298.417306 480.484177 321.795259 472.355263 
C 345.173212 464.226348 366.423491 450.936752 383.964998 433.475267 
C 401.506506 416.013783 414.893127 394.824491 423.128848 371.48395 
L 267.643776 316.620963 
z
"/>
   </g>
   <g id="patch_25">
    <path d="M 427.434349 364.651614 
C 439.872871 329.400078 439.960785 290.945177 427.683573 255.637137 
C 415.406361 220.329097 391.479186 190.224655 359.853247 170.295089 
C 328.227308 150.365523 290.744854 141.771756 253.595529 145.932913 
C 216.446203 150.09407 181.793999 166.767759 155.361187 193.200581 
L 271.949277 309.788627 
z
"/>
   </g>
   <g id="patch_26">
    <path d="M 153.435057 202.412244 
C 136.290689 219.556611 123.224752 240.343395 115.2094 263.225982 
C 107.194047 286.108569 104.433124 310.50501 107.132054 334.600123 
C 109.830983 358.695235 117.921127 381.876233 130.800548 402.418364 
C 143.679968 422.960496 161.021118 440.341336 181.533752 453.267686 
C 202.046385 466.194037 225.208826 474.337155 249.297706 477.091163 
C 273.386585 479.845171 297.789275 477.14003 320.690127 469.177012 
C 343.590978 461.213994 364.407578 448.195613 381.591096 431.090486 
C 398.774613 413.985358 411.888038 393.2285 419.955684 370.364298 
L 267.643776 316.620963 
z
"/>
   </g>
   <g id="patch_27">
    <path d="M 424.261184 363.531961 
C 436.445859 328.999844 436.531979 291.329737 424.505322 256.742269 
C 412.478666 222.154802 389.0398 192.664736 358.059288 173.141896 
C 327.078776 153.619056 290.361271 145.200672 253.970095 149.276907 
C 217.578919 153.353143 183.633903 169.686552 157.740536 195.579929 
L 271.949277 309.788627 
z
"/>
   </g>
   <g id="patch_28">
    <path d="M 155.814405 204.791592 
C 139.027212 221.578785 126.233482 241.932511 118.385116 264.338377 
C 110.536749 286.744243 107.833346 310.632426 110.476048 334.225557 
C 113.11875 357.818688 121.040349 380.516748 133.651448 400.630919 
C 146.262548 420.745089 163.242423 437.763829 183.32771 450.42088 
C 203.412997 463.077931 226.092888 471.051401 249.679916 473.748034 
C 273.266943 476.444667 297.161244 473.795883 319.584994 465.998761 
C 342.008745 458.201639 362.391666 445.454475 379.217193 428.705704 
C 396.042721 411.956933 408.882949 391.63251 416.782519 369.244645 
L 267.643776 316.620963 
z
"/>
   </g>
   <g id="patch_29">
    <path d="M 421.08802 362.412308 
C 433.018847 328.599611 433.103173 291.714297 421.327072 257.847402 
C 409.55097 223.980506 386.600414 195.104817 356.26533 175.988703 
C 325.930245 156.872589 289.977688 148.629587 254.344661 152.620901 
C 218.711635 156.612215 185.473806 172.605346 160.119885 197.959277 
L 271.949277 309.788627 
z
"/>
   </g>
   <g id="patch_30">
    <path d="M 158.193753 207.170941 
C 141.763734 223.600959 129.242212 243.521627 121.560832 265.450773 
C 113.879452 287.379918 111.233568 310.759842 113.820042 333.850991 
C 116.406516 356.94214 124.15957 379.157263 136.502349 398.843473 
C 148.845127 418.529683 165.463729 435.186321 185.121669 447.574073 
C 204.77961 459.961825 226.976949 467.765647 250.062125 470.404905 
C 273.147301 473.044163 296.533212 470.451736 318.479862 462.82051 
C 340.426511 455.189284 360.375753 442.713336 376.843291 426.320922 
C 393.310828 409.928508 405.877861 390.03652 413.609354 368.124992 
L 267.643776 316.620963 
z
"/>
   </g>
   <g id="patch_31">
    <path d="M 417.914855 361.292656 
C 429.591835 328.199377 429.674367 292.098857 418.148821 258.952534 
C 406.623275 225.806211 384.161028 197.544898 354.471371 178.83551 
C 324.781714 160.126122 289.594105 152.058503 254.719227 155.964895 
C 219.84435 159.871288 187.31371 175.524139 162.499233 200.338625 
L 271.949277 309.788627 
z
"/>
   </g>
   <g id="patch_32">
    <path d="M 116.807101 165.784288 
C 95.376641 187.214747 79.044221 213.198226 69.025029 241.80146 
C 59.005838 270.404694 55.554685 300.900246 58.928347 331.019136 
C 62.302009 361.138027 72.414688 390.114274 88.513964 415.791939 
C 104.61324 441.469604 126.289677 463.195653 151.930469 479.353591 
C 177.571261 495.511529 206.524313 505.690426 236.635412 509.132937 
C 266.746511 512.575447 297.249874 509.194021 325.875938 499.240248 
C 354.502003 489.286475 380.522753 473.0135 402.00215 451.63209 
C 423.481547 430.250681 439.873328 404.304608 449.957885 375.724355 
L 259.568 308.545187 
z
" style="fill: #f45f74"/>
   </g>
   <g id="patch_33">
    <path d="M 454.263385 368.892019 
C 469.494229 325.726873 469.601879 278.639239 454.568558 235.404904 
C 439.535237 192.170569 410.236655 155.307987 371.511015 130.904437 
C 332.785375 106.500887 286.888494 95.977907 241.399523 101.073201 
C 195.910553 106.168495 153.479283 126.585258 121.112575 158.951978 
L 263.873501 301.712851 
z
" style="fill: #00b0be"/>
   </g>
   <g id="patch_34">
    <path d="M 118.520231 167.497419 
C 97.346938 188.670713 81.210506 214.34239 71.311545 242.602385 
C 61.412584 270.86238 58.002845 300.991985 61.336023 330.749449 
C 64.669201 360.506913 74.660528 389.135445 90.566613 414.504978 
C 106.472698 439.874511 127.889017 461.339848 153.22212 477.30389 
C 178.555222 493.267933 207.160837 503.324683 236.910603 506.725884 
C 266.660369 510.127084 296.797691 506.786235 325.080243 496.951907 
C 353.362795 487.11758 379.071296 471.03988 400.29294 449.915047 
C 421.514584 428.790215 437.709664 403.155495 447.673206 374.918205 
L 259.568 308.545187 
z
" style="fill: #f45f74"/>
   </g>
   <g id="patch_35">
    <path d="M 451.978707 368.085869 
C 467.02678 325.438704 467.133138 278.916122 452.280217 236.200599 
C 437.427296 193.485077 408.480297 157.064845 370.219365 132.954138 
C 331.958433 108.843431 286.612314 98.446726 241.669211 103.480877 
C 196.726109 108.515028 154.804014 128.686789 122.825706 160.665109 
L 263.873501 301.712851 
z
" style="fill: #00b0be"/>
   </g>
   <g id="patch_36">
    <path d="M 120.233362 169.21055 
C 99.317234 190.126678 83.376791 215.486554 73.598061 243.40331 
C 63.81933 271.320066 60.451004 301.083724 63.743699 330.479762 
C 67.036393 359.875799 76.906368 388.156616 92.619261 413.218017 
C 108.332155 438.279418 129.488357 459.484042 154.51377 475.254189 
C 179.539183 491.024337 207.797362 500.958941 237.185794 504.318831 
C 266.574227 507.678721 296.345509 504.378449 324.284548 494.663567 
C 352.223587 484.948684 377.619839 469.06626 398.58373 448.198005 
C 419.547622 427.329749 435.546 402.006382 445.388527 374.112055 
L 259.568 308.545187 
z
" style="fill: #f45f74"/>
   </g>
   <g id="patch_37">
    <path d="M 449.694028 367.279719 
C 464.559331 325.150536 464.664398 279.193005 449.991877 236.996295 
C 435.319355 194.799584 406.723939 158.821704 368.927715 135.003839 
C 331.13149 111.185975 286.336134 100.915545 241.938899 105.888553 
C 197.541664 110.86156 156.128744 130.78832 124.538837 162.378239 
L 263.873501 301.712851 
z
" style="fill: #00b0be"/>
   </g>
   <g id="patch_38">
    <path d="M 121.946493 170.923681 
C 101.28753 191.582643 85.543077 216.630717 75.884576 244.204234 
C 66.226076 271.777752 62.899164 301.175464 66.151374 330.210074 
C 69.403585 359.244685 79.152208 387.177787 94.67191 411.931056 
C 110.191612 436.684325 131.087697 457.628237 155.80542 473.204489 
C 180.523144 488.780741 208.433886 498.593198 237.460985 501.911778 
C 266.488085 505.230358 295.893326 501.970663 323.488852 492.375226 
C 351.084379 482.779789 376.168382 467.09264 396.87452 446.480962 
C 417.580659 425.869283 433.382336 400.857269 443.103849 373.305905 
L 259.568 308.545187 
z
" style="fill: #f45f74"/>
   </g>
   <g id="patch_39">
    <path d="M 447.409349 366.473569 
C 462.091883 324.862368 462.195657 279.469889 447.703536 237.79199 
C 433.211415 196.114091 404.967582 160.578562 367.636065 137.05354 
C 330.304548 113.528518 286.059954 103.384365 242.208587 108.296228 
C 198.357219 113.208092 157.453475 132.889851 126.251968 164.09137 
L 263.873501 301.712851 
z
" style="fill: #00b0be"/>
   </g>
   <g id="patch_40">
    <path d="M 123.659624 172.636811 
C 103.257827 193.038609 87.709362 217.774881 78.171092 245.005159 
C 68.632822 272.235438 65.347324 301.267203 68.55905 329.940387 
C 71.770777 358.613571 81.398047 386.198958 96.724558 410.644095 
C 112.051069 435.089232 132.687037 455.772431 157.097071 471.154788 
C 181.507105 486.537144 209.07041 496.227455 237.736176 499.504725 
C 266.401943 502.781995 295.441144 499.562877 322.693157 490.086885 
C 349.945171 480.610893 374.716925 465.119021 395.16531 444.763919 
C 415.613696 424.408817 431.218672 399.708156 440.81917 372.499755 
L 259.568 308.545187 
z
" style="fill: #f45f74"/>
   </g>
   <g id="patch_41">
    <path d="M 445.124671 365.667419 
C 459.624434 324.5742 459.726917 279.746772 445.415195 238.587685 
C 431.103474 197.428599 403.211224 162.33542 366.344415 139.103241 
C 329.477605 115.871062 285.783774 105.853184 242.478274 110.703904 
C 199.172775 115.554624 158.778205 134.991382 127.965099 165.8045 
L 263.873501 301.712851 
z
" style="fill: #00b0be"/>
   </g>
   <g id="patch_42">
    <path d="M 125.372755 174.349942 
C 105.228123 194.494574 89.875647 218.919044 80.457608 245.806084 
C 71.039568 272.693123 67.795484 301.358942 70.966726 329.6707 
C 74.137969 357.982457 83.643887 385.220129 98.777207 409.357134 
C 113.910526 433.494139 134.286377 453.916626 158.388721 469.105087 
C 182.491066 484.293548 209.706934 493.861712 238.011367 497.097672 
C 266.315801 500.333632 294.988961 497.155091 321.897462 487.798544 
C 348.805963 478.441998 373.265467 463.145401 393.456101 443.046876 
C 413.646734 422.948351 429.055008 398.559043 438.534492 371.693605 
L 259.568 308.545187 
z
" style="fill: #f45f74"/>
   </g>
   <g id="patch_43">
    <path d="M 442.839992 364.861269 
C 457.156985 324.286031 457.258176 280.023655 443.126855 239.383381 
C 428.995533 198.743106 401.454866 164.092279 365.052764 141.152942 
C 328.650663 118.213605 285.507594 108.322003 242.747962 113.11158 
C 199.98833 117.901157 160.102936 137.092913 129.67823 167.517631 
L 263.873501 301.712851 
z
" style="fill: #00b0be"/>
   </g>
   <g id="patch_44">
    <path d="M 127.085885 176.063073 
C 107.198419 195.950539 92.041933 220.063208 82.744123 246.607009 
C 73.446314 273.150809 70.243643 301.450682 73.374402 329.401012 
C 76.50516 357.351343 85.889727 384.2413 100.829855 408.070173 
C 115.769983 431.899046 135.885717 452.06082 159.680372 467.055386 
C 183.475027 482.049952 210.343459 491.495969 238.286559 494.690619 
C 266.229658 497.885269 294.536779 494.747305 321.101767 485.510204 
C 347.666754 476.273102 371.81401 461.171781 391.746891 441.329833 
C 411.679771 421.487885 426.891344 397.40993 436.249813 370.887455 
L 259.568 308.545187 
z
" style="fill: #f45f74"/>
   </g>
   <g id="patch_45">
    <path d="M 440.555314 364.055119 
C 454.689537 323.997863 454.789436 280.300539 440.838514 240.179076 
C 426.887592 200.057614 399.698508 165.849137 363.761114 143.202643 
C 327.82372 120.556149 285.231414 110.790823 243.01765 115.519256 
C 200.803886 120.247689 161.427667 139.194444 131.391361 169.230761 
L 263.873501 301.712851 
z
" style="fill: #00b0be"/>
   </g>
   <g id="patch_46">
    <path d="M 128.799016 177.776204 
C 109.168716 197.406504 94.208218 221.207371 85.030639 247.407933 
C 75.85306 273.608495 72.691803 301.542421 75.782078 329.131325 
C 78.872352 356.720229 88.135566 383.262471 102.882503 406.783212 
C 117.62944 430.303953 137.485056 450.205014 160.972022 465.005685 
C 184.458987 479.806356 210.979983 489.130226 238.56175 492.283566 
C 266.143516 495.436905 294.084596 492.339519 320.306071 483.221863 
C 346.527546 474.104207 370.362553 459.198162 390.037681 439.61279 
C 409.712809 420.027419 424.72768 396.260817 433.965134 370.081305 
L 259.568 308.545187 
z
" style="fill: #f45f74"/>
   </g>
   <g id="patch_47">
    <path d="M 438.270635 363.248969 
C 452.222088 323.709695 452.320695 280.577422 438.550173 240.974771 
C 424.779651 201.372121 397.94215 167.605996 362.469464 145.252344 
C 326.996778 122.898692 284.955234 113.259642 243.287338 117.926932 
C 201.619441 122.594221 162.752397 141.295976 133.104492 170.943892 
L 263.873501 301.712851 
z
" style="fill: #00b0be"/>
   </g>
   <g id="patch_48">
    <path d="M 130.512147 179.489335 
C 111.139012 198.86247 96.374503 222.351535 87.317155 248.208858 
C 78.259806 274.066181 75.139963 301.63416 78.189754 328.861637 
C 81.239544 356.089114 90.381406 382.283642 104.935152 405.496251 
C 119.488897 428.70886 139.084396 448.349209 162.263672 462.955984 
C 185.442948 477.56276 211.616507 486.764483 238.836941 489.876513 
C 266.057374 492.988542 293.632414 489.931733 319.510376 480.933522 
C 345.388338 471.935312 368.911096 457.224542 388.328471 437.895748 
C 407.745846 418.566954 422.564016 395.111704 431.680456 369.275155 
L 259.568 308.545187 
z
" style="fill: #f45f74"/>
   </g>
   <g id="patch_49">
    <path d="M 435.985956 362.442819 
C 449.754639 323.421527 449.851954 280.854305 436.261832 241.770467 
C 422.67171 202.686628 396.185792 169.362854 361.177814 147.302045 
C 326.169835 125.241236 284.679054 115.728461 243.557025 120.334607 
C 202.434996 124.940754 164.077128 143.397507 134.817623 172.657022 
L 263.873501 301.712851 
z
" style="fill: #00b0be"/>
   </g>
   <g id="patch_50">
    <path d="M 132.225278 181.202465 
C 113.109308 200.318435 98.540789 223.495698 89.60367 249.009783 
C 80.666552 274.523867 77.588123 301.7259 80.597429 328.59195 
C 83.606736 355.458 92.627246 381.304812 106.9878 404.20929 
C 121.348354 427.113767 140.683736 446.493403 163.555323 460.906284 
C 186.426909 475.319164 212.253031 484.398741 239.112132 487.46946 
C 265.971232 490.540179 293.180231 487.523947 318.714681 478.645181 
C 344.24913 469.766416 367.459639 455.250922 386.619262 436.178705 
C 405.778884 417.106488 420.400352 393.962591 429.395777 368.469005 
L 259.568 308.545187 
z
" style="fill: #f45f74"/>
   </g>
   <g id="patch_51">
    <path d="M 433.701278 361.636669 
C 447.28719 323.133358 447.383214 281.131189 433.973492 242.566162 
C 420.56377 204.001136 394.429434 171.119712 359.886164 149.351746 
C 325.342893 127.58378 284.402874 118.197281 243.826713 122.742283 
C 203.250552 127.287286 165.401859 145.499038 136.530755 174.370153 
L 263.873501 301.712851 
z
" style="fill: #00b0be"/>
   </g>
   <g id="patch_52">
    <path d="M 133.938409 182.915596 
C 115.079604 201.7744 100.707074 224.639862 91.890186 249.810707 
C 83.073298 274.981553 80.036283 301.817639 83.005105 328.322263 
C 85.973928 354.826886 94.873086 380.325983 109.040449 402.922329 
C 123.207812 425.518674 142.283076 444.637598 164.846973 458.856583 
C 187.41087 473.075568 212.889556 482.032998 239.387323 485.062407 
C 265.88509 488.091816 292.728049 485.116161 317.918986 476.356841 
C 343.109922 467.597521 366.008182 453.277302 384.910052 434.461662 
C 403.811921 415.646022 418.236688 392.813478 427.111098 367.662855 
L 259.568 308.545187 
z
" style="fill: #f45f74"/>
   </g>
   <g id="patch_53">
    <path d="M 431.416599 360.830519 
C 444.819742 322.84519 444.914473 281.408072 431.685151 243.361858 
C 418.455829 205.315643 392.673077 172.876571 358.594513 151.401447 
C 324.51595 129.926323 284.126694 120.6661 244.096401 125.149959 
C 204.066107 129.633818 166.726589 147.600569 138.243886 176.083283 
L 263.873501 301.712851 
z
" style="fill: #00b0be"/>
   </g>
   <g id="patch_54">
    <path d="M 135.651539 184.628727 
C 117.049901 203.230365 102.873359 225.784025 94.176702 250.611632 
C 85.480044 275.439239 82.484442 301.909378 85.412781 328.052575 
C 88.34112 354.195772 97.118925 379.347154 111.093097 401.635368 
C 125.067269 423.923581 143.882416 442.781792 166.138623 456.806882 
C 188.394831 470.831972 213.52608 479.667255 239.662514 482.655354 
C 265.798948 485.643453 292.275866 482.708375 317.12329 474.0685 
C 341.970714 465.428625 364.556725 451.303683 383.200842 432.744619 
C 401.844959 414.185556 416.073024 391.664365 424.82642 366.856705 
L 259.568 308.545187 
z
" style="fill: #f45f74"/>
   </g>
   <g id="patch_55">
    <path d="M 429.13192 360.024369 
C 442.352293 322.557022 442.445733 281.684955 429.39681 244.157553 
C 416.347888 206.63015 390.916719 174.633429 357.302863 153.451148 
C 323.689008 132.268867 283.850514 123.134919 244.366088 127.557635 
C 204.881662 131.98035 168.05132 149.7021 139.957017 177.796414 
L 263.873501 301.712851 
z
" style="fill: #00b0be"/>
   </g>
   <g id="patch_56">
    <path d="M 137.36467 186.341858 
C 119.020197 204.686331 105.039645 226.928189 96.463217 251.412557 
C 87.88679 275.896925 84.932602 302.001117 87.820457 327.782888 
C 90.708312 353.564658 99.364765 378.368325 113.145746 400.348407 
C 126.926726 422.328488 145.481756 440.925986 167.430274 454.757181 
C 189.378792 468.588376 214.162604 477.301512 239.937705 480.248301 
C 265.712806 483.19509 291.823684 480.300589 316.327595 471.780159 
C 340.831506 463.25973 363.105268 449.330063 381.491632 431.027576 
C 399.877996 412.72509 413.909361 390.515252 422.541741 366.050555 
L 259.568 308.545187 
z
" style="fill: #f45f74"/>
   </g>
   <g id="patch_57">
    <path d="M 426.847242 359.218219 
C 439.884844 322.268854 439.976992 281.961839 427.10847 244.953248 
C 414.239947 207.944658 389.160361 176.390287 356.011213 155.500849 
C 322.862065 134.61141 283.574335 125.603739 244.635776 129.965311 
C 205.697218 134.326883 169.37605 151.803631 141.670148 179.509544 
L 263.873501 301.712851 
z
" style="fill: #00b0be"/>
   </g>
   <g id="patch_58">
    <path d="M 139.077801 188.054988 
C 120.990493 206.142296 107.20593 228.072352 98.749733 252.213482 
C 90.293536 276.354611 87.380762 302.092857 90.228133 327.5132 
C 93.075504 352.933544 101.610605 377.389496 115.198394 399.061446 
C 128.786183 420.733395 147.081096 439.070181 168.721924 452.70748 
C 190.362753 466.34478 214.799128 474.935769 240.212896 477.841248 
C 265.626663 480.746727 291.371501 477.892803 315.5319 469.491819 
C 339.692298 461.090834 361.653811 447.356443 379.782422 429.310533 
C 397.911033 411.264624 411.745697 389.366139 420.257063 365.244405 
L 259.568 308.545187 
z
" style="fill: #f45f74"/>
   </g>
   <g id="patch_59">
    <path d="M 424.562563 358.412069 
C 437.417395 321.980685 437.508252 282.238722 424.820129 245.748944 
C 412.132006 209.259165 387.404003 178.147146 354.719563 157.55055 
C 322.035123 136.953954 283.298155 128.072558 244.905464 132.372986 
C 206.512773 136.673415 170.700781 153.905162 143.383279 181.222674 
L 263.873501 301.712851 
z
" style="fill: #00b0be"/>
   </g>
   <g id="patch_60">
    <path d="M 140.790932 189.768119 
C 122.96079 207.598261 109.372216 229.216516 101.036249 253.014406 
C 92.700282 276.812297 89.828922 302.184596 92.635809 327.243513 
C 95.442696 352.30243 103.856445 376.410667 117.251042 397.774485 
C 130.64564 419.138302 148.680436 437.214375 170.013575 450.657779 
C 191.346713 464.101183 215.435653 472.570026 240.488087 475.434195 
C 265.540521 478.298364 290.919319 475.485017 314.736205 467.203478 
C 338.55309 458.921939 360.202354 445.382823 378.073213 427.593491 
C 395.944071 409.804158 409.582033 388.217026 417.972384 364.438255 
L 259.568 308.545187 
z
" style="fill: #f45f74"/>
   </g>
   <g id="patch_61">
    <path d="M 422.277885 357.605918 
C 434.949947 321.692517 435.039511 282.515605 422.531788 246.544639 
C 410.024065 210.573673 385.647645 179.904004 353.427913 159.600251 
C 321.20818 139.296497 283.021975 130.541377 245.175152 134.780662 
C 207.328328 139.019947 172.025512 156.006693 145.09641 182.935805 
L 263.873501 301.712851 
z
" style="fill: #00b0be"/>
   </g>
   <g id="patch_62">
    <path d="M 142.504063 191.48125 
C 124.931086 209.054227 111.538501 230.360679 103.322764 253.815331 
C 95.107028 277.269983 92.277082 302.276335 95.043485 326.973826 
C 97.809888 351.671316 106.102284 375.431838 119.303691 396.487524 
C 132.505097 417.543209 150.279775 435.35857 171.305225 448.608078 
C 192.330674 461.857587 216.072177 470.204283 240.763278 473.027142 
C 265.454379 475.85 290.467136 473.077231 313.940509 464.915137 
C 337.413882 456.753043 358.750897 443.409204 376.364003 425.876448 
C 393.977108 408.343692 407.418369 387.067913 415.687705 363.632105 
L 259.568 308.545187 
z
" style="fill: #f45f74"/>
   </g>
   <g id="patch_63">
    <path d="M 419.993206 356.799768 
C 432.482498 321.404349 432.570771 282.792489 420.243448 247.340334 
C 407.916125 211.88818 383.891287 181.660863 352.136263 161.649952 
C 320.381238 141.639041 282.745795 133.010197 245.444839 137.188338 
C 208.143884 141.366479 173.350242 158.108224 146.809541 184.648935 
L 263.873501 301.712851 
z
" style="fill: #00b0be"/>
   </g>
   <g id="patch_64">
    <path d="M 144.217193 193.194381 
C 126.901382 210.510192 113.704786 231.504843 105.60928 254.616256 
C 97.513773 277.727669 94.725241 302.368075 97.45116 326.704138 
C 100.177079 351.040202 108.348124 374.453009 121.356339 395.200562 
C 134.364554 415.948116 151.879115 433.502764 172.596875 446.558378 
C 193.314635 459.613991 216.708701 467.83854 241.038469 470.620089 
C 265.368237 473.401637 290.014954 470.669445 313.144814 462.626796 
C 336.274674 454.584148 357.29944 441.435584 374.654793 424.159405 
C 392.010146 406.883226 405.254705 385.9188 413.403027 362.825955 
L 259.568 308.545187 
z
" style="fill: #f45f74"/>
   </g>
   <g id="patch_65">
    <path d="M 417.708527 355.993618 
C 430.015049 321.116181 430.10203 283.069372 417.955107 248.13603 
C 405.808184 213.202687 382.134929 183.417721 350.844612 163.699653 
C 319.554295 143.981584 282.469615 135.479016 245.714527 139.596014 
C 208.959439 143.713012 174.674973 160.209756 148.522672 186.362066 
L 263.873501 301.712851 
z
" style="fill: #00b0be"/>
   </g>
   <g id="patch_66">
    <path d="M 145.930324 194.907512 
C 128.871679 211.966157 115.871072 232.649007 107.895795 255.417181 
C 99.920519 278.185355 97.173401 302.459814 99.858836 326.434451 
C 102.544271 350.409088 110.593964 373.47418 123.408988 393.913601 
C 136.224011 414.353023 153.478455 431.646958 173.888526 444.508677 
C 194.298596 457.370395 217.345225 465.472798 241.31366 468.213036 
C 265.282095 470.953274 289.562771 468.261659 312.349119 460.338456 
C 335.135466 452.415252 355.847983 439.461964 372.945583 422.442362 
C 390.043183 405.42276 403.091041 384.769687 411.118348 362.019805 
L 259.568 308.545187 
z
" style="fill: #f45f74"/>
   </g>
   <g id="patch_67">
    <path d="M 415.423849 355.187468 
C 427.5476 320.828012 427.63329 283.346255 415.666766 248.931725 
C 403.700243 214.517195 380.378572 185.174579 349.552962 165.749354 
C 318.727353 146.324128 282.193435 137.947835 245.984215 142.00369 
C 209.774995 146.059544 175.999703 162.311287 150.235803 188.075196 
L 263.873501 301.712851 
z
" style="fill: #00b0be"/>
   </g>
   <g id="patch_68">
    <path d="M 147.643455 196.620642 
C 130.841975 213.422122 118.037357 233.79317 110.182311 256.218105 
C 102.327265 278.64304 99.621561 302.551553 102.266512 326.164763 
C 104.911463 349.777974 112.839804 372.495351 125.461636 392.62664 
C 138.083469 412.75793 155.077795 429.791153 175.180176 442.458976 
C 195.282557 455.126799 217.981749 463.107055 241.588851 465.805983 
C 265.195953 468.504911 289.110589 465.853873 311.553423 458.050115 
C 333.996258 450.246357 354.396526 437.488344 371.236373 420.725319 
C 388.076221 403.962294 400.927377 383.620574 408.83367 361.213655 
L 259.568 308.545187 
z
" style="fill: #f45f74"/>
   </g>
   <g id="patch_69">
    <path d="M 413.13917 354.381318 
C 425.080152 320.539844 425.164549 283.623139 413.378426 249.72742 
C 401.592302 215.831702 378.622214 186.931438 348.261312 167.799055 
C 317.90041 148.666672 281.917255 140.416655 246.253903 144.411365 
C 210.59055 148.406076 177.324434 164.412818 151.948935 189.788327 
L 263.873501 301.712851 
z
" style="fill: #00b0be"/>
   </g>
   <g id="patch_70">
    <path d="M 149.356586 198.333773 
C 132.812271 214.878088 120.203642 234.937334 112.468827 257.01903 
C 104.734011 279.100726 102.069721 302.643293 104.674188 325.895076 
C 107.278655 349.14686 115.085643 371.516522 127.514285 391.339679 
C 139.942926 411.162837 156.677135 427.935347 176.471826 440.409275 
C 196.266518 452.883203 218.618274 460.741312 241.864042 463.39893 
C 265.109811 466.056548 288.658406 463.446087 310.757728 455.761774 
C 332.85705 448.077462 352.945069 435.514725 369.527164 419.008276 
C 386.109258 402.501828 398.763713 382.471461 406.548991 360.407505 
L 259.568 308.545187 
z
" style="fill: #f45f74"/>
   </g>
   <g id="patch_71">
    <path d="M 410.854492 353.575168 
C 422.612703 320.251676 422.695809 283.900022 411.090085 250.523116 
C 399.484361 217.146209 376.865856 188.688296 346.969662 169.848756 
C 317.073468 151.009215 281.641075 142.885474 246.52359 146.819041 
C 211.406105 150.752608 178.649165 166.514349 153.662066 191.501457 
L 263.873501 301.712851 
z
" style="fill: #00b0be"/>
   </g>
   <g id="patch_72">
    <path d="M 151.069717 200.046904 
C 134.782568 216.334053 122.369928 236.081497 114.755342 257.819955 
C 107.140757 279.558412 104.51788 302.735032 107.081864 325.625389 
C 109.645847 348.515746 117.331483 370.537693 129.566933 390.052718 
C 141.802383 409.567744 158.276475 426.079542 177.763477 438.359574 
C 197.250479 450.639607 219.254798 458.375569 242.139233 460.991877 
C 265.023669 463.608185 288.206224 461.038301 309.962033 453.473433 
C 331.717842 445.908566 351.493612 433.541105 367.817954 417.291234 
C 384.142295 401.041362 396.600049 381.322347 404.264312 359.601355 
L 259.568 308.545187 
z
" style="fill: #f45f74"/>
   </g>
   <g id="patch_73">
    <path d="M 408.569813 352.769018 
C 420.145254 319.963507 420.227068 284.176906 408.801744 251.318811 
C 397.37642 218.460717 375.109498 190.445154 345.678012 171.898457 
C 316.246525 153.351759 281.364895 145.354293 246.793278 149.226717 
C 212.221661 153.099141 179.973895 168.61588 155.375197 193.214588 
L 263.873501 301.712851 
z
" style="fill: #00b0be"/>
   </g>
   <g id="patch_74">
    <path d="M 152.782847 201.760035 
C 136.752864 217.790018 124.536213 237.225661 117.041858 258.620879 
C 109.547503 280.016098 106.96604 302.826771 109.48954 325.355701 
C 112.013039 347.884631 119.577323 369.558864 131.619581 388.765757 
C 143.66184 407.972651 159.875815 424.223736 179.055127 436.309873 
C 198.23444 448.396011 219.891322 456.009826 242.414424 458.584824 
C 264.937526 461.159822 287.754041 458.630515 309.166338 451.185093 
C 330.578634 443.739671 350.042155 431.567485 366.108744 415.574191 
C 382.175333 399.580897 394.436385 380.173234 401.979634 358.795205 
L 259.568 308.545187 
z
" style="fill: #f45f74"/>
   </g>
   <g id="patch_75">
    <path d="M 406.285134 351.962868 
C 417.677805 319.675339 417.758327 284.453789 406.513404 252.114507 
C 395.26848 219.775224 373.35314 192.202013 344.386362 173.948157 
C 315.419583 155.694302 281.088715 147.823113 247.062966 151.634393 
C 213.037216 155.445673 181.298626 170.717411 157.088328 194.927718 
L 263.873501 301.712851 
z
" style="fill: #00b0be"/>
   </g>
   <g id="patch_76">
    <path d="M 154.495978 203.473166 
C 138.72316 219.245984 126.702498 238.369824 119.328374 259.421804 
C 111.954249 280.473784 109.4142 302.91851 111.897215 325.086014 
C 114.380231 347.253517 121.823163 368.580035 133.67223 387.478796 
C 145.521297 406.377558 161.475155 422.36793 180.346777 434.260173 
C 199.2184 446.152415 220.527846 453.644083 242.689615 456.177771 
C 264.851384 458.711459 287.301859 456.222729 308.370642 448.896752 
C 329.439426 441.570775 348.590698 429.593865 364.399534 413.857148 
C 380.20837 398.120431 392.272721 379.024121 399.694955 357.989055 
L 259.568 308.545187 
z
" style="fill: #f45f74"/>
   </g>
   <g id="patch_77">
    <path d="M 404.000456 351.156718 
C 415.210357 319.387171 415.289587 284.730672 404.225063 252.910202 
C 393.160539 221.089732 371.596782 193.958871 343.094711 175.997858 
C 314.59264 158.036846 280.812535 150.291932 247.332653 154.042069 
C 213.852771 157.792205 182.623356 172.818942 158.801459 196.640849 
L 263.873501 301.712851 
z
" style="fill: #00b0be"/>
   </g>
   <g id="patch_78">
    <path d="M 156.209109 205.186296 
C 140.693456 220.701949 128.868784 239.513988 121.614889 260.222729 
C 114.360995 280.93147 111.86236 303.01025 114.304891 324.816327 
C 116.747423 346.622403 124.069002 367.601206 135.724878 386.191835 
C 147.380754 404.782465 163.074494 420.512125 181.638428 432.210472 
C 200.202361 443.908819 221.164371 451.27834 242.964806 453.770718 
C 264.765242 456.263096 286.849676 453.814943 307.574947 446.608411 
C 328.300218 439.40188 347.139241 427.620246 362.690324 412.140105 
C 378.241408 396.659965 390.109057 377.875008 397.410276 357.182905 
L 259.568 308.545187 
z
" style="fill: #f45f74"/>
   </g>
   <g id="patch_79">
    <path d="M 401.715777 350.350568 
C 412.742908 319.099003 412.820846 285.007556 401.936722 253.705897 
C 391.052598 222.404239 369.840424 195.715729 341.803061 178.047559 
C 313.765698 160.379389 280.536355 152.760751 247.602341 156.449744 
C 214.668327 160.138738 183.948087 174.920473 160.51459 198.353979 
L 263.873501 301.712851 
z
" style="fill: #00b0be"/>
   </g>
   <g id="patch_80">
    <path d="M 157.92224 206.899427 
C 142.663753 222.157914 131.035069 240.658151 123.901405 261.023654 
C 116.767741 281.389156 114.31052 303.101989 116.712567 324.546639 
C 119.114615 345.991289 126.314842 366.622377 137.777527 384.904874 
C 149.240211 403.187372 164.673834 418.656319 182.930078 430.160771 
C 201.186322 441.665223 221.800895 448.912598 243.239997 451.363665 
C 264.6791 453.814732 286.397494 451.407157 306.779252 444.320071 
C 327.16101 437.232984 345.687784 425.646626 360.981115 410.423062 
C 376.274445 395.199499 387.945393 376.725895 395.125598 356.376755 
L 259.568 308.545187 
z
" style="fill: #f45f74"/>
   </g>
   <g id="patch_81">
    <path d="M 399.431098 349.544418 
C 410.275459 318.810834 410.352106 285.284439 399.648381 254.501593 
C 388.944657 223.718746 368.084067 197.472588 340.511411 180.09726 
C 312.938755 162.721933 280.260176 155.229571 247.872029 158.85742 
C 215.483882 162.48527 185.272818 177.022005 162.227721 200.06711 
L 263.873501 301.712851 
z
" style="fill: #00b0be"/>
   </g>
   <g id="patch_82">
    <path d="M 116.807101 165.784288 
C 95.376641 187.214747 79.044221 213.198226 69.025029 241.80146 
C 59.005838 270.404694 55.554685 300.900246 58.928347 331.019136 
C 62.302009 361.138027 72.414688 390.114274 88.513964 415.791939 
C 104.61324 441.469604 126.289677 463.195653 151.930469 479.353591 
C 177.571261 495.511529 206.524313 505.690426 236.635412 509.132937 
C 266.746511 512.575447 297.249874 509.194021 325.875938 499.240248 
C 354.502003 489.286475 380.522753 473.0135 402.00215 451.63209 
C 423.481547 430.250681 439.873328 404.304608 449.957885 375.724355 
L 259.568 308.545187 
z
" style="fill: #f45f74; stroke: #ffffff; stroke-width: 1.5; stroke-linejoin: miter"/>
   </g>
   <g id="patch_83">
    <path d="M 454.263385 368.892019 
C 469.494229 325.726873 469.601879 278.639239 454.568558 235.404904 
C 439.535237 192.170569 410.236655 155.307987 371.511015 130.904437 
C 332.785375 106.500887 286.888494 95.977907 241.399523 101.073201 
C 195.910553 106.168495 153.479283 126.585258 121.112575 158.951978 
L 263.873501 301.712851 
z
" style="fill: #00b0be; stroke: #ffffff; stroke-width: 1.5; stroke-linejoin: miter"/>
   </g>
   <g id="text_1">
    <!-- 57.1% -->
    <g style="fill: #ffffff" transform="translate(179.9347 413.789605) scale(0.1 -0.1)">
     <defs>
      <path id="DejaVuSansMono-Bold-35" d="M 603 4666 
L 3138 4666 
L 3138 3853 
L 1350 3853 
L 1350 2988 
Q 1463 3031 1591 3051 
Q 1719 3072 1863 3072 
Q 2556 3072 2987 2634 
Q 3419 2197 3419 1497 
Q 3419 763 2951 336 
Q 2484 -91 1678 -91 
Q 1378 -91 1072 -41 
Q 766 9 447 109 
L 447 941 
Q 706 813 979 748 
Q 1253 684 1528 684 
Q 2016 684 2269 892 
Q 2522 1100 2522 1497 
Q 2522 1863 2270 2083 
Q 2019 2303 1600 2303 
Q 1353 2303 1104 2242 
Q 856 2181 603 2059 
L 603 4666 
z
" transform="scale(0.015625)"/>
      <path id="DejaVuSansMono-Bold-37" d="M 422 4666 
L 3372 4666 
L 3372 4013 
L 1791 0 
L 850 0 
L 2369 3853 
L 422 3853 
L 422 4666 
z
" transform="scale(0.015625)"/>
      <path id="DejaVuSansMono-Bold-2e" d="M 1403 1147 
L 2444 1147 
L 2444 0 
L 1403 0 
L 1403 1147 
z
" transform="scale(0.015625)"/>
      <path id="DejaVuSansMono-Bold-31" d="M 588 813 
L 1619 813 
L 1619 3841 
L 659 3603 
L 659 4434 
L 1625 4666 
L 2516 4666 
L 2516 813 
L 3547 813 
L 3547 0 
L 588 0 
L 588 813 
z
" transform="scale(0.015625)"/>
      <path id="DejaVuSansMono-Bold-25" d="M 103 3475 
Q 103 3894 393 4184 
Q 684 4475 1100 4475 
Q 1516 4475 1808 4183 
Q 2100 3891 2100 3475 
Q 2100 3059 1808 2768 
Q 1516 2478 1100 2478 
Q 684 2478 393 2767 
Q 103 3056 103 3475 
z
M 1100 3903 
Q 922 3903 797 3779 
Q 672 3656 672 3475 
Q 672 3294 797 3170 
Q 922 3047 1100 3047 
Q 1281 3047 1404 3170 
Q 1528 3294 1528 3475 
Q 1528 3653 1403 3778 
Q 1278 3903 1100 3903 
z
M 269 1753 
L 3525 3059 
L 3653 2759 
L 378 1453 
L 269 1753 
z
M 1813 997 
Q 1813 1416 2102 1706 
Q 2391 1997 2809 1997 
Q 3222 1997 3515 1705 
Q 3809 1413 3809 997 
Q 3809 584 3515 292 
Q 3222 0 2809 0 
Q 2391 0 2102 289 
Q 1813 578 1813 997 
z
M 2803 1428 
Q 2628 1428 2504 1303 
Q 2381 1178 2381 997 
Q 2381 816 2503 692 
Q 2625 569 2803 569 
Q 2984 569 3111 694 
Q 3238 819 3238 997 
Q 3238 1175 3109 1301 
Q 2981 1428 2803 1428 
z
" transform="scale(0.015625)"/>
     </defs>
     <use xlink:href="#DejaVuSansMono-Bold-35"/>
     <use xlink:href="#DejaVuSansMono-Bold-37" x="60.205078"/>
     <use xlink:href="#DejaVuSansMono-Bold-2e" x="120.410156"/>
     <use xlink:href="#DejaVuSansMono-Bold-31" x="180.615234"/>
     <use xlink:href="#DejaVuSansMono-Bold-25" x="240.820312"/>
    </g>
   </g>
   <g id="text_2">
    <!-- 42.9% -->
    <g style="fill: #ffffff" transform="translate(313.405228 201.987178) scale(0.1 -0.1)">
     <defs>
      <path id="DejaVuSansMono-Bold-34" d="M 2169 3641 
L 991 1797 
L 2169 1797 
L 2169 3641 
z
M 2088 4666 
L 3053 4666 
L 3053 1797 
L 3566 1797 
L 3566 1006 
L 3053 1006 
L 3053 0 
L 2169 0 
L 2169 1006 
L 319 1006 
L 319 1900 
L 2088 4666 
z
" transform="scale(0.015625)"/>
      <path id="DejaVuSansMono-Bold-32" d="M 1356 813 
L 3322 813 
L 3322 0 
L 359 0 
L 359 788 
L 859 1319 
Q 1750 2266 1941 2484 
Q 2175 2753 2278 2961 
Q 2381 3169 2381 3372 
Q 2381 3684 2192 3854 
Q 2003 4025 1656 4025 
Q 1409 4025 1101 3926 
Q 794 3828 459 3641 
L 459 4500 
Q 794 4622 1114 4686 
Q 1434 4750 1728 4750 
Q 2469 4750 2892 4404 
Q 3316 4059 3316 3463 
Q 3316 3188 3223 2947 
Q 3131 2706 2906 2413 
Q 2741 2200 1997 1456 
Q 1594 1053 1356 813 
z
" transform="scale(0.015625)"/>
      <path id="DejaVuSansMono-Bold-39" d="M 634 63 
L 634 903 
Q 881 759 1107 690 
Q 1334 622 1544 622 
Q 2041 622 2302 955 
Q 2563 1288 2578 1950 
Q 2431 1747 2203 1645 
Q 1975 1544 1663 1544 
Q 1034 1544 690 1942 
Q 347 2341 347 3072 
Q 347 3853 731 4281 
Q 1116 4709 1819 4709 
Q 2672 4709 3058 4139 
Q 3444 3569 3444 2297 
Q 3444 1088 2972 483 
Q 2500 -122 1556 -122 
Q 1338 -122 1105 -75 
Q 872 -28 634 63 
z
M 1844 2316 
Q 2141 2316 2298 2533 
Q 2456 2750 2456 3163 
Q 2456 3572 2298 3789 
Q 2141 4006 1844 4006 
Q 1544 4006 1383 3789 
Q 1222 3572 1222 3163 
Q 1222 2753 1383 2534 
Q 1544 2316 1844 2316 
z
" transform="scale(0.015625)"/>
     </defs>
     <use xlink:href="#DejaVuSansMono-Bold-34"/>
     <use xlink:href="#DejaVuSansMono-Bold-32" x="60.205078"/>
     <use xlink:href="#DejaVuSansMono-Bold-2e" x="120.410156"/>
     <use xlink:href="#DejaVuSansMono-Bold-39" x="180.615234"/>
     <use xlink:href="#DejaVuSansMono-Bold-25" x="240.820312"/>
    </g>
   </g>
   <g id="text_3">
    <!-- Syed Mustafa Kamal (MQM) -->
    <g transform="translate(47.39546 527.756581) scale(0.1 -0.1)">
     <defs>
      <path id="DejaVuSansMono-Bold-53" d="M 1594 2047 
Q 897 2313 650 2605 
Q 403 2897 403 3391 
Q 403 4025 809 4387 
Q 1216 4750 1925 4750 
Q 2247 4750 2569 4676 
Q 2891 4603 3206 4459 
L 3206 3559 
Q 2909 3769 2603 3878 
Q 2297 3988 1997 3988 
Q 1663 3988 1484 3853 
Q 1306 3719 1306 3469 
Q 1306 3275 1436 3148 
Q 1566 3022 1978 2869 
L 2375 2719 
Q 2938 2513 3203 2172 
Q 3469 1831 3469 1313 
Q 3469 606 3051 257 
Q 2634 -91 1791 -91 
Q 1444 -91 1095 -8 
Q 747 75 422 238 
L 422 1191 
Q 791 928 1136 800 
Q 1481 672 1819 672 
Q 2159 672 2346 826 
Q 2534 981 2534 1259 
Q 2534 1469 2409 1626 
Q 2284 1784 2047 1875 
L 1594 2047 
z
" transform="scale(0.015625)"/>
      <path id="DejaVuSansMono-Bold-79" d="M 2222 -378 
Q 2038 -872 1780 -1098 
Q 1522 -1325 1153 -1325 
L 397 -1325 
L 397 -628 
L 769 -628 
Q 1050 -628 1181 -533 
Q 1313 -438 1447 -91 
L 1516 97 
L 184 3500 
L 1147 3500 
L 1947 1228 
L 2713 3500 
L 3675 3500 
L 2222 -378 
z
" transform="scale(0.015625)"/>
      <path id="DejaVuSansMono-Bold-65" d="M 3444 172 
Q 3125 41 2794 -25 
Q 2463 -91 2094 -91 
Q 1216 -91 752 379 
Q 288 850 288 1734 
Q 288 2591 734 3087 
Q 1181 3584 1953 3584 
Q 2731 3584 3161 3123 
Q 3591 2663 3591 1825 
L 3591 1453 
L 1219 1453 
Q 1222 1041 1462 837 
Q 1703 634 2181 634 
Q 2497 634 2803 725 
Q 3109 816 3444 1013 
L 3444 172 
z
M 2669 2141 
Q 2663 2503 2483 2689 
Q 2303 2875 1953 2875 
Q 1638 2875 1450 2683 
Q 1263 2491 1228 2138 
L 2669 2141 
z
" transform="scale(0.015625)"/>
      <path id="DejaVuSansMono-Bold-64" d="M 2472 3003 
L 2472 4863 
L 3384 4863 
L 3384 0 
L 2472 0 
L 2472 519 
Q 2325 216 2092 62 
Q 1859 -91 1544 -91 
Q 944 -91 612 390 
Q 281 872 281 1747 
Q 281 2634 617 3109 
Q 953 3584 1575 3584 
Q 1856 3584 2079 3439 
Q 2303 3294 2472 3003 
z
M 1197 1741 
Q 1197 1234 1365 946 
Q 1534 659 1831 659 
Q 2128 659 2300 946 
Q 2472 1234 2472 1741 
Q 2472 2247 2300 2534 
Q 2128 2822 1831 2822 
Q 1534 2822 1365 2534 
Q 1197 2247 1197 1741 
z
" transform="scale(0.015625)"/>
      <path id="DejaVuSansMono-Bold-20" transform="scale(0.015625)"/>
      <path id="DejaVuSansMono-Bold-4d" d="M 269 4666 
L 1369 4666 
L 1925 2619 
L 2478 4666 
L 3584 4666 
L 3584 0 
L 2791 0 
L 2791 3738 
L 2297 1697 
L 1563 1697 
L 1063 3738 
L 1063 0 
L 269 0 
L 269 4666 
z
" transform="scale(0.015625)"/>
      <path id="DejaVuSansMono-Bold-75" d="M 500 1222 
L 500 3500 
L 1416 3500 
L 1416 1363 
Q 1416 984 1522 821 
Q 1628 659 1875 659 
Q 2122 659 2261 878 
Q 2400 1097 2400 1491 
L 2400 3500 
L 3316 3500 
L 3316 0 
L 2400 0 
L 2400 519 
Q 2303 228 2070 68 
Q 1838 -91 1509 -91 
Q 1009 -91 754 240 
Q 500 572 500 1222 
z
" transform="scale(0.015625)"/>
      <path id="DejaVuSansMono-Bold-73" d="M 3097 3391 
L 3097 2591 
Q 2844 2753 2570 2836 
Q 2297 2919 2022 2919 
Q 1716 2919 1559 2830 
Q 1403 2741 1403 2566 
Q 1403 2316 2072 2159 
L 2106 2150 
L 2369 2088 
Q 2869 1969 3101 1705 
Q 3334 1441 3334 991 
Q 3334 450 2979 179 
Q 2625 -91 1913 -91 
Q 1597 -91 1265 -36 
Q 934 19 594 128 
L 594 928 
Q 897 756 1211 665 
Q 1525 575 1819 575 
Q 2141 575 2306 669 
Q 2472 763 2472 941 
Q 2472 1116 2355 1209 
Q 2238 1303 1797 1409 
L 1544 1466 
Q 1019 1584 778 1837 
Q 538 2091 538 2516 
Q 538 3022 903 3303 
Q 1269 3584 1931 3584 
Q 2228 3584 2523 3536 
Q 2819 3488 3097 3391 
z
" transform="scale(0.015625)"/>
      <path id="DejaVuSansMono-Bold-74" d="M 2156 4494 
L 2156 3500 
L 3353 3500 
L 3353 2797 
L 2156 2797 
L 2156 1141 
Q 2156 906 2270 804 
Q 2384 703 2650 703 
L 3353 703 
L 3353 0 
L 2584 0 
Q 1797 0 1519 251 
Q 1241 503 1241 1184 
L 1241 2797 
L 347 2797 
L 347 3500 
L 1241 3500 
L 1241 4494 
L 2156 4494 
z
" transform="scale(0.015625)"/>
      <path id="DejaVuSansMono-Bold-61" d="M 2188 1644 
Q 1675 1644 1472 1512 
Q 1269 1381 1269 1063 
Q 1269 825 1409 684 
Q 1550 544 1791 544 
Q 2153 544 2353 817 
Q 2553 1091 2553 1581 
L 2553 1644 
L 2188 1644 
z
M 3463 1997 
L 3463 0 
L 2553 0 
L 2553 391 
Q 2388 159 2128 34 
Q 1869 -91 1556 -91 
Q 959 -91 626 225 
Q 294 541 294 1106 
Q 294 1719 691 2011 
Q 1088 2303 1919 2303 
L 2553 2303 
L 2553 2456 
Q 2553 2678 2392 2792 
Q 2231 2906 1919 2906 
Q 1591 2906 1283 2823 
Q 975 2741 641 2559 
L 641 3341 
Q 944 3466 1256 3525 
Q 1569 3584 1919 3584 
Q 2772 3584 3117 3237 
Q 3463 2891 3463 1997 
z
" transform="scale(0.015625)"/>
      <path id="DejaVuSansMono-Bold-66" d="M 2309 3806 
L 2309 3500 
L 3384 3500 
L 3384 2797 
L 2309 2797 
L 2309 0 
L 1394 0 
L 1394 2797 
L 544 2797 
L 544 3500 
L 1394 3500 
L 1394 3744 
Q 1394 4375 1656 4619 
Q 1919 4863 2631 4863 
L 3384 4863 
L 3384 4159 
L 2669 4159 
Q 2463 4159 2389 4084 
Q 2316 4009 2309 3806 
z
" transform="scale(0.015625)"/>
      <path id="DejaVuSansMono-Bold-4b" d="M 366 4666 
L 1288 4666 
L 1288 2822 
L 2731 4666 
L 3775 4666 
L 2303 2828 
L 3828 0 
L 2803 0 
L 1697 2100 
L 1288 1581 
L 1288 0 
L 366 0 
L 366 4666 
z
" transform="scale(0.015625)"/>
      <path id="DejaVuSansMono-Bold-6d" d="M 2156 3150 
Q 2259 3372 2418 3478 
Q 2578 3584 2809 3584 
Q 3263 3584 3436 3271 
Q 3609 2959 3609 1972 
L 3609 0 
L 2859 0 
L 2859 2247 
Q 2859 2638 2800 2769 
Q 2741 2900 2584 2900 
Q 2428 2900 2365 2765 
Q 2303 2631 2303 2247 
L 2303 0 
L 1563 0 
L 1563 2247 
Q 1563 2631 1500 2765 
Q 1438 2900 1281 2900 
Q 1125 2900 1065 2769 
Q 1006 2638 1006 2247 
L 1006 0 
L 256 0 
L 256 3500 
L 922 3500 
L 922 3138 
Q 1000 3344 1172 3464 
Q 1344 3584 1556 3584 
Q 1769 3584 1944 3457 
Q 2119 3331 2156 3150 
z
" transform="scale(0.015625)"/>
      <path id="DejaVuSansMono-Bold-6c" d="M 1209 1459 
L 1209 4159 
L 281 4159 
L 281 4863 
L 2125 4863 
L 2125 1459 
Q 2125 1047 2253 875 
Q 2381 703 2688 703 
L 3419 703 
L 3419 0 
L 2431 0 
Q 1778 0 1493 337 
Q 1209 675 1209 1459 
z
" transform="scale(0.015625)"/>
      <path id="DejaVuSansMono-Bold-28" d="M 2888 4856 
Q 2475 4109 2275 3409 
Q 2075 2709 2075 2009 
Q 2075 1316 2275 611 
Q 2475 -94 2888 -844 
L 2175 -844 
Q 1678 -122 1437 579 
Q 1197 1281 1197 2009 
Q 1197 2734 1439 3439 
Q 1681 4144 2175 4856 
L 2888 4856 
z
" transform="scale(0.015625)"/>
      <path id="DejaVuSansMono-Bold-51" d="M 2050 -72 
Q 2006 -81 1976 -86 
Q 1947 -91 1919 -91 
Q 1116 -91 702 521 
Q 288 1134 288 2328 
Q 288 3525 702 4137 
Q 1116 4750 1925 4750 
Q 2738 4750 3152 4137 
Q 3566 3525 3566 2328 
Q 3566 1506 3369 951 
Q 3172 397 2797 159 
L 3378 -409 
L 2747 -878 
L 2050 -72 
z
M 1925 3922 
Q 1572 3922 1409 3545 
Q 1247 3169 1247 2328 
Q 1247 1491 1409 1114 
Q 1572 738 1925 738 
Q 2281 738 2443 1114 
Q 2606 1491 2606 2328 
Q 2606 3169 2443 3545 
Q 2281 3922 1925 3922 
z
" transform="scale(0.015625)"/>
      <path id="DejaVuSansMono-Bold-29" d="M 966 4856 
L 1678 4856 
Q 2172 4144 2414 3439 
Q 2656 2734 2656 2009 
Q 2656 1281 2415 579 
Q 2175 -122 1678 -844 
L 966 -844 
Q 1378 -94 1578 611 
Q 1778 1316 1778 2009 
Q 1778 2709 1578 3409 
Q 1378 4109 966 4856 
z
" transform="scale(0.015625)"/>
     </defs>
     <use xlink:href="#DejaVuSansMono-Bold-53"/>
     <use xlink:href="#DejaVuSansMono-Bold-79" x="60.205078"/>
     <use xlink:href="#DejaVuSansMono-Bold-65" x="120.410156"/>
     <use xlink:href="#DejaVuSansMono-Bold-64" x="180.615234"/>
     <use xlink:href="#DejaVuSansMono-Bold-20" x="240.820312"/>
     <use xlink:href="#DejaVuSansMono-Bold-4d" x="301.025391"/>
     <use xlink:href="#DejaVuSansMono-Bold-75" x="361.230469"/>
     <use xlink:href="#DejaVuSansMono-Bold-73" x="421.435547"/>
     <use xlink:href="#DejaVuSansMono-Bold-74" x="481.640625"/>
     <use xlink:href="#DejaVuSansMono-Bold-61" x="541.845703"/>
     <use xlink:href="#DejaVuSansMono-Bold-66" x="602.050781"/>
     <use xlink:href="#DejaVuSansMono-Bold-61" x="662.255859"/>
     <use xlink:href="#DejaVuSansMono-Bold-20" x="722.460938"/>
     <use xlink:href="#DejaVuSansMono-Bold-4b" x="782.666016"/>
     <use xlink:href="#DejaVuSansMono-Bold-61" x="842.871094"/>
     <use xlink:href="#DejaVuSansMono-Bold-6d" x="903.076172"/>
     <use xlink:href="#DejaVuSansMono-Bold-61" x="963.28125"/>
     <use xlink:href="#DejaVuSansMono-Bold-6c" x="1023.486328"/>
     <use xlink:href="#DejaVuSansMono-Bold-20" x="1083.691406"/>
     <use xlink:href="#DejaVuSansMono-Bold-28" x="1143.896484"/>
     <use xlink:href="#DejaVuSansMono-Bold-4d" x="1204.101562"/>
     <use xlink:href="#DejaVuSansMono-Bold-51" x="1264.306641"/>
     <use xlink:href="#DejaVuSansMono-Bold-4d" x="1324.511719"/>
     <use xlink:href="#DejaVuSansMono-Bold-29" x="1384.716797"/>
    </g>
    <!-- (71,597 votes) -->
    <g transform="translate(77.497023 538.954393) scale(0.1 -0.1)">
     <defs>
      <path id="DejaVuSansMono-Bold-2c" d="M 1441 1147 
L 2419 1147 
L 2419 300 
L 1806 -897 
L 1131 -897 
L 1441 300 
L 1441 1147 
z
" transform="scale(0.015625)"/>
      <path id="DejaVuSansMono-Bold-76" d="M 3603 3500 
L 2491 0 
L 1363 0 
L 250 3500 
L 1178 3500 
L 1925 769 
L 2675 3500 
L 3603 3500 
z
" transform="scale(0.015625)"/>
      <path id="DejaVuSansMono-Bold-6f" d="M 1925 2841 
Q 1597 2841 1409 2552 
Q 1222 2263 1222 1747 
Q 1222 1231 1409 942 
Q 1597 653 1925 653 
Q 2256 653 2443 942 
Q 2631 1231 2631 1747 
Q 2631 2263 2443 2552 
Q 2256 2841 1925 2841 
z
M 306 1747 
Q 306 2594 745 3089 
Q 1184 3584 1925 3584 
Q 2669 3584 3108 3089 
Q 3547 2594 3547 1747 
Q 3547 900 3108 404 
Q 2669 -91 1925 -91 
Q 1184 -91 745 404 
Q 306 900 306 1747 
z
" transform="scale(0.015625)"/>
     </defs>
     <use xlink:href="#DejaVuSansMono-Bold-28"/>
     <use xlink:href="#DejaVuSansMono-Bold-37" x="60.205078"/>
     <use xlink:href="#DejaVuSansMono-Bold-31" x="120.410156"/>
     <use xlink:href="#DejaVuSansMono-Bold-2c" x="180.615234"/>
     <use xlink:href="#DejaVuSansMono-Bold-35" x="240.820312"/>
     <use xlink:href="#DejaVuSansMono-Bold-39" x="301.025391"/>
     <use xlink:href="#DejaVuSansMono-Bold-37" x="361.230469"/>
     <use xlink:href="#DejaVuSansMono-Bold-20" x="421.435547"/>
     <use xlink:href="#DejaVuSansMono-Bold-76" x="481.640625"/>
     <use xlink:href="#DejaVuSansMono-Bold-6f" x="541.845703"/>
     <use xlink:href="#DejaVuSansMono-Bold-74" x="602.050781"/>
     <use xlink:href="#DejaVuSansMono-Bold-65" x="662.255859"/>
     <use xlink:href="#DejaVuSansMono-Bold-73" x="722.460938"/>
     <use xlink:href="#DejaVuSansMono-Bold-29" x="782.666016"/>
    </g>
   </g>
   <g id="text_4">
    <!-- Dawa Khan Sabir (PTI) -->
    <g transform="translate(336.283488 83.654718) scale(0.1 -0.1)">
     <defs>
      <path id="DejaVuSansMono-Bold-44" d="M 1350 3834 
L 1350 831 
L 1600 831 
Q 2144 831 2375 1173 
Q 2606 1516 2606 2338 
Q 2606 3153 2375 3493 
Q 2144 3834 1600 3834 
L 1350 3834 
z
M 428 4666 
L 1416 4666 
Q 2559 4666 3062 4120 
Q 3566 3575 3566 2338 
Q 3566 1097 3062 548 
Q 2559 0 1416 0 
L 428 0 
L 428 4666 
z
" transform="scale(0.015625)"/>
      <path id="DejaVuSansMono-Bold-77" d="M 0 3500 
L 763 3500 
L 1178 819 
L 1556 2584 
L 2297 2584 
L 2669 819 
L 3091 3500 
L 3853 3500 
L 3219 0 
L 2350 0 
L 1925 1819 
L 1503 0 
L 634 0 
L 0 3500 
z
" transform="scale(0.015625)"/>
      <path id="DejaVuSansMono-Bold-68" d="M 3347 2272 
L 3347 0 
L 2438 0 
L 2438 2131 
Q 2438 2509 2330 2671 
Q 2222 2834 1978 2834 
Q 1728 2834 1587 2614 
Q 1447 2394 1447 2003 
L 1447 0 
L 538 0 
L 538 4863 
L 1447 4863 
L 1447 2975 
Q 1544 3266 1778 3425 
Q 2013 3584 2344 3584 
Q 2841 3584 3094 3254 
Q 3347 2925 3347 2272 
z
" transform="scale(0.015625)"/>
      <path id="DejaVuSansMono-Bold-6e" d="M 3347 2272 
L 3347 0 
L 2438 0 
L 2438 2131 
Q 2438 2513 2330 2677 
Q 2222 2841 1978 2841 
Q 1731 2841 1589 2619 
Q 1447 2397 1447 2003 
L 1447 0 
L 538 0 
L 538 3500 
L 1447 3500 
L 1447 2975 
Q 1544 3266 1778 3425 
Q 2013 3584 2344 3584 
Q 2841 3584 3094 3254 
Q 3347 2925 3347 2272 
z
" transform="scale(0.015625)"/>
      <path id="DejaVuSansMono-Bold-62" d="M 2656 1741 
Q 2656 2247 2487 2534 
Q 2319 2822 2022 2822 
Q 1725 2822 1553 2534 
Q 1381 2247 1381 1741 
Q 1381 1234 1553 946 
Q 1725 659 2022 659 
Q 2319 659 2487 946 
Q 2656 1234 2656 1741 
z
M 1381 3003 
Q 1550 3294 1773 3439 
Q 1997 3584 2278 3584 
Q 2900 3584 3236 3109 
Q 3572 2634 3572 1747 
Q 3572 872 3240 390 
Q 2909 -91 2309 -91 
Q 1994 -91 1759 62 
Q 1525 216 1381 519 
L 1381 0 
L 469 0 
L 469 4863 
L 1381 4863 
L 1381 3003 
z
" transform="scale(0.015625)"/>
      <path id="DejaVuSansMono-Bold-69" d="M 691 3500 
L 2503 3500 
L 2503 703 
L 3641 703 
L 3641 0 
L 447 0 
L 447 703 
L 1588 703 
L 1588 2797 
L 691 2797 
L 691 3500 
z
M 1588 5203 
L 2503 5203 
L 2503 4134 
L 1588 4134 
L 1588 5203 
z
" transform="scale(0.015625)"/>
      <path id="DejaVuSansMono-Bold-72" d="M 3597 2534 
Q 3447 2672 3245 2740 
Q 3044 2809 2803 2809 
Q 2513 2809 2295 2707 
Q 2078 2606 1959 2413 
Q 1884 2294 1854 2125 
Q 1825 1956 1825 1613 
L 1825 0 
L 909 0 
L 909 3500 
L 1825 3500 
L 1825 2956 
Q 1959 3256 2237 3420 
Q 2516 3584 2888 3584 
Q 3075 3584 3254 3539 
Q 3434 3494 3597 3406 
L 3597 2534 
z
" transform="scale(0.015625)"/>
      <path id="DejaVuSansMono-Bold-50" d="M 1428 3891 
L 1428 2522 
L 1806 2522 
Q 2259 2522 2442 2675 
Q 2625 2828 2625 3206 
Q 2625 3584 2442 3737 
Q 2259 3891 1806 3891 
L 1428 3891 
z
M 506 4666 
L 1772 4666 
Q 2738 4666 3161 4322 
Q 3584 3978 3584 3206 
Q 3584 2434 3161 2090 
Q 2738 1747 1772 1747 
L 1428 1747 
L 1428 0 
L 506 0 
L 506 4666 
z
" transform="scale(0.015625)"/>
      <path id="DejaVuSansMono-Bold-54" d="M 2388 0 
L 1466 0 
L 1466 3859 
L 281 3859 
L 281 4666 
L 3572 4666 
L 3572 3859 
L 2388 3859 
L 2388 0 
z
" transform="scale(0.015625)"/>
      <path id="DejaVuSansMono-Bold-49" d="M 538 3853 
L 538 4666 
L 3316 4666 
L 3316 3853 
L 2388 3853 
L 2388 813 
L 3316 813 
L 3316 0 
L 538 0 
L 538 813 
L 1466 813 
L 1466 3853 
L 538 3853 
z
" transform="scale(0.015625)"/>
     </defs>
     <use xlink:href="#DejaVuSansMono-Bold-44"/>
     <use xlink:href="#DejaVuSansMono-Bold-61" x="60.205078"/>
     <use xlink:href="#DejaVuSansMono-Bold-77" x="120.410156"/>
     <use xlink:href="#DejaVuSansMono-Bold-61" x="180.615234"/>
     <use xlink:href="#DejaVuSansMono-Bold-20" x="240.820312"/>
     <use xlink:href="#DejaVuSansMono-Bold-4b" x="301.025391"/>
     <use xlink:href="#DejaVuSansMono-Bold-68" x="361.230469"/>
     <use xlink:href="#DejaVuSansMono-Bold-61" x="421.435547"/>
     <use xlink:href="#DejaVuSansMono-Bold-6e" x="481.640625"/>
     <use xlink:href="#DejaVuSansMono-Bold-20" x="541.845703"/>
     <use xlink:href="#DejaVuSansMono-Bold-53" x="602.050781"/>
     <use xlink:href="#DejaVuSansMono-Bold-61" x="662.255859"/>
     <use xlink:href="#DejaVuSansMono-Bold-62" x="722.460938"/>
     <use xlink:href="#DejaVuSansMono-Bold-69" x="782.666016"/>
     <use xlink:href="#DejaVuSansMono-Bold-72" x="842.871094"/>
     <use xlink:href="#DejaVuSansMono-Bold-20" x="903.076172"/>
     <use xlink:href="#DejaVuSansMono-Bold-28" x="963.28125"/>
     <use xlink:href="#DejaVuSansMono-Bold-50" x="1023.486328"/>
     <use xlink:href="#DejaVuSansMono-Bold-54" x="1083.691406"/>
     <use xlink:href="#DejaVuSansMono-Bold-49" x="1143.896484"/>
     <use xlink:href="#DejaVuSansMono-Bold-29" x="1204.101562"/>
    </g>
    <!-- (53,789 votes) -->
    <g transform="translate(357.354582 94.852531) scale(0.1 -0.1)">
     <defs>
      <path id="DejaVuSansMono-Bold-33" d="M 1716 2088 
L 1222 2088 
L 1222 2900 
L 1716 2900 
Q 2059 2900 2248 3036 
Q 2438 3172 2438 3419 
Q 2438 3678 2248 3823 
Q 2059 3969 1716 3969 
Q 1453 3969 1153 3903 
Q 853 3838 531 3713 
L 531 4550 
Q 853 4647 1165 4698 
Q 1478 4750 1766 4750 
Q 2503 4750 2915 4428 
Q 3328 4106 3328 3541 
Q 3328 3125 3090 2861 
Q 2853 2597 2413 2516 
Q 2913 2428 3175 2117 
Q 3438 1806 3438 1300 
Q 3438 622 3003 265 
Q 2569 -91 1741 -91 
Q 1388 -91 1045 -31 
Q 703 28 391 141 
L 391 997 
Q 684 850 1025 773 
Q 1366 697 1741 697 
Q 2116 697 2334 870 
Q 2553 1044 2553 1338 
Q 2553 1697 2334 1892 
Q 2116 2088 1716 2088 
z
" transform="scale(0.015625)"/>
      <path id="DejaVuSansMono-Bold-38" d="M 1925 2081 
Q 1616 2081 1425 1886 
Q 1234 1691 1234 1369 
Q 1234 1047 1425 850 
Q 1616 653 1925 653 
Q 2234 653 2426 853 
Q 2619 1053 2619 1369 
Q 2619 1691 2428 1886 
Q 2238 2081 1925 2081 
z
M 1241 2472 
Q 888 2594 703 2855 
Q 519 3116 519 3494 
Q 519 4075 897 4412 
Q 1275 4750 1925 4750 
Q 2578 4750 2956 4412 
Q 3334 4075 3334 3494 
Q 3334 3119 3153 2858 
Q 2972 2597 2625 2472 
Q 3013 2353 3231 2047 
Q 3450 1741 3450 1313 
Q 3450 641 3053 275 
Q 2656 -91 1925 -91 
Q 1197 -91 800 275 
Q 403 641 403 1313 
Q 403 1744 625 2050 
Q 847 2356 1241 2472 
z
M 1338 3419 
Q 1338 3144 1495 2983 
Q 1653 2822 1925 2822 
Q 2200 2822 2358 2983 
Q 2516 3144 2516 3419 
Q 2516 3691 2358 3848 
Q 2200 4006 1925 4006 
Q 1656 4006 1497 3847 
Q 1338 3688 1338 3419 
z
" transform="scale(0.015625)"/>
     </defs>
     <use xlink:href="#DejaVuSansMono-Bold-28"/>
     <use xlink:href="#DejaVuSansMono-Bold-35" x="60.205078"/>
     <use xlink:href="#DejaVuSansMono-Bold-33" x="120.410156"/>
     <use xlink:href="#DejaVuSansMono-Bold-2c" x="180.615234"/>
     <use xlink:href="#DejaVuSansMono-Bold-37" x="240.820312"/>
     <use xlink:href="#DejaVuSansMono-Bold-38" x="301.025391"/>
     <use xlink:href="#DejaVuSansMono-Bold-39" x="361.230469"/>
     <use xlink:href="#DejaVuSansMono-Bold-20" x="421.435547"/>
     <use xlink:href="#DejaVuSansMono-Bold-76" x="481.640625"/>
     <use xlink:href="#DejaVuSansMono-Bold-6f" x="541.845703"/>
     <use xlink:href="#DejaVuSansMono-Bold-74" x="602.050781"/>
     <use xlink:href="#DejaVuSansMono-Bold-65" x="662.255859"/>
     <use xlink:href="#DejaVuSansMono-Bold-73" x="722.460938"/>
     <use xlink:href="#DejaVuSansMono-Bold-29" x="782.666016"/>
    </g>
   </g>
   <g id="text_5">
    <!-- Total votes received by candidates in NA-242 -->
    <g transform="translate(60.897687 19.380469) scale(0.15 -0.15)">
     <defs>
      <path id="DejaVuSansMono-Bold-63" d="M 3316 178 
Q 3084 44 2818 -23 
Q 2553 -91 2247 -91 
Q 1438 -91 981 396 
Q 525 884 525 1747 
Q 525 2613 984 3102 
Q 1444 3591 2253 3591 
Q 2534 3591 2795 3525 
Q 3056 3459 3316 3322 
L 3316 2484 
Q 3116 2656 2877 2748 
Q 2638 2841 2381 2841 
Q 1934 2841 1693 2556 
Q 1453 2272 1453 1747 
Q 1453 1222 1693 940 
Q 1934 659 2381 659 
Q 2647 659 2878 748 
Q 3109 838 3316 1019 
L 3316 178 
z
" transform="scale(0.015625)"/>
      <path id="DejaVuSansMono-Bold-4e" d="M 372 4666 
L 1363 4666 
L 2663 1275 
L 2663 4666 
L 3475 4666 
L 3475 0 
L 2491 0 
L 1184 3391 
L 1184 0 
L 372 0 
L 372 4666 
z
" transform="scale(0.015625)"/>
      <path id="DejaVuSansMono-Bold-41" d="M 1925 3822 
L 1491 1913 
L 2363 1913 
L 1925 3822 
z
M 1363 4666 
L 2491 4666 
L 3750 0 
L 2828 0 
L 2541 1153 
L 1306 1153 
L 1025 0 
L 103 0 
L 1363 4666 
z
" transform="scale(0.015625)"/>
      <path id="DejaVuSansMono-Bold-2d" d="M 941 2297 
L 2913 2297 
L 2913 1388 
L 941 1388 
L 941 2297 
z
" transform="scale(0.015625)"/>
     </defs>
     <use xlink:href="#DejaVuSansMono-Bold-54"/>
     <use xlink:href="#DejaVuSansMono-Bold-6f" x="60.205078"/>
     <use xlink:href="#DejaVuSansMono-Bold-74" x="120.410156"/>
     <use xlink:href="#DejaVuSansMono-Bold-61" x="180.615234"/>
     <use xlink:href="#DejaVuSansMono-Bold-6c" x="240.820312"/>
     <use xlink:href="#DejaVuSansMono-Bold-20" x="301.025391"/>
     <use xlink:href="#DejaVuSansMono-Bold-76" x="361.230469"/>
     <use xlink:href="#DejaVuSansMono-Bold-6f" x="421.435547"/>
     <use xlink:href="#DejaVuSansMono-Bold-74" x="481.640625"/>
     <use xlink:href="#DejaVuSansMono-Bold-65" x="541.845703"/>
     <use xlink:href="#DejaVuSansMono-Bold-73" x="602.050781"/>
     <use xlink:href="#DejaVuSansMono-Bold-20" x="662.255859"/>
     <use xlink:href="#DejaVuSansMono-Bold-72" x="722.460938"/>
     <use xlink:href="#DejaVuSansMono-Bold-65" x="782.666016"/>
     <use xlink:href="#DejaVuSansMono-Bold-63" x="842.871094"/>
     <use xlink:href="#DejaVuSansMono-Bold-65" x="903.076172"/>
     <use xlink:href="#DejaVuSansMono-Bold-69" x="963.28125"/>
     <use xlink:href="#DejaVuSansMono-Bold-76" x="1023.486328"/>
     <use xlink:href="#DejaVuSansMono-Bold-65" x="1083.691406"/>
     <use xlink:href="#DejaVuSansMono-Bold-64" x="1143.896484"/>
     <use xlink:href="#DejaVuSansMono-Bold-20" x="1204.101562"/>
     <use xlink:href="#DejaVuSansMono-Bold-62" x="1264.306641"/>
     <use xlink:href="#DejaVuSansMono-Bold-79" x="1324.511719"/>
     <use xlink:href="#DejaVuSansMono-Bold-20" x="1384.716797"/>
     <use xlink:href="#DejaVuSansMono-Bold-63" x="1444.921875"/>
     <use xlink:href="#DejaVuSansMono-Bold-61" x="1505.126953"/>
     <use xlink:href="#DejaVuSansMono-Bold-6e" x="1565.332031"/>
     <use xlink:href="#DejaVuSansMono-Bold-64" x="1625.537109"/>
     <use xlink:href="#DejaVuSansMono-Bold-69" x="1685.742188"/>
     <use xlink:href="#DejaVuSansMono-Bold-64" x="1745.947266"/>
     <use xlink:href="#DejaVuSansMono-Bold-61" x="1806.152344"/>
     <use xlink:href="#DejaVuSansMono-Bold-74" x="1866.357422"/>
     <use xlink:href="#DejaVuSansMono-Bold-65" x="1926.5625"/>
     <use xlink:href="#DejaVuSansMono-Bold-73" x="1986.767578"/>
     <use xlink:href="#DejaVuSansMono-Bold-20" x="2046.972656"/>
     <use xlink:href="#DejaVuSansMono-Bold-69" x="2107.177734"/>
     <use xlink:href="#DejaVuSansMono-Bold-6e" x="2167.382812"/>
     <use xlink:href="#DejaVuSansMono-Bold-20" x="2227.587891"/>
     <use xlink:href="#DejaVuSansMono-Bold-4e" x="2287.792969"/>
     <use xlink:href="#DejaVuSansMono-Bold-41" x="2347.998047"/>
     <use xlink:href="#DejaVuSansMono-Bold-2d" x="2408.203125"/>
     <use xlink:href="#DejaVuSansMono-Bold-32" x="2468.408203"/>
     <use xlink:href="#DejaVuSansMono-Bold-34" x="2528.613281"/>
     <use xlink:href="#DejaVuSansMono-Bold-32" x="2588.818359"/>
    </g>
    <!-- (Source: ECP Form-45s) -->
    <g transform="translate(160.232844 36.177187) scale(0.15 -0.15)">
     <defs>
      <path id="DejaVuSansMono-Bold-3a" d="M 1403 3322 
L 2444 3322 
L 2444 2181 
L 1403 2181 
L 1403 3322 
z
M 1403 1147 
L 2444 1147 
L 2444 0 
L 1403 0 
L 1403 1147 
z
" transform="scale(0.015625)"/>
      <path id="DejaVuSansMono-Bold-45" d="M 3431 0 
L 525 0 
L 525 4666 
L 3431 4666 
L 3431 3853 
L 1447 3853 
L 1447 2847 
L 3244 2847 
L 3244 2034 
L 1447 2034 
L 1447 813 
L 3431 813 
L 3431 0 
z
" transform="scale(0.015625)"/>
      <path id="DejaVuSansMono-Bold-43" d="M 3378 134 
Q 3159 22 2918 -34 
Q 2678 -91 2413 -91 
Q 1469 -91 972 531 
Q 475 1153 475 2328 
Q 475 3506 972 4128 
Q 1469 4750 2413 4750 
Q 2678 4750 2922 4694 
Q 3166 4638 3378 4525 
L 3378 3500 
Q 3141 3719 2917 3820 
Q 2694 3922 2456 3922 
Q 1950 3922 1692 3520 
Q 1434 3119 1434 2328 
Q 1434 1541 1692 1139 
Q 1950 738 2456 738 
Q 2694 738 2917 839 
Q 3141 941 3378 1159 
L 3378 134 
z
" transform="scale(0.015625)"/>
      <path id="DejaVuSansMono-Bold-46" d="M 3475 3853 
L 1491 3853 
L 1491 2847 
L 3297 2847 
L 3297 2034 
L 1491 2034 
L 1491 0 
L 569 0 
L 569 4666 
L 3475 4666 
L 3475 3853 
z
" transform="scale(0.015625)"/>
     </defs>
     <use xlink:href="#DejaVuSansMono-Bold-28"/>
     <use xlink:href="#DejaVuSansMono-Bold-53" x="60.205078"/>
     <use xlink:href="#DejaVuSansMono-Bold-6f" x="120.410156"/>
     <use xlink:href="#DejaVuSansMono-Bold-75" x="180.615234"/>
     <use xlink:href="#DejaVuSansMono-Bold-72" x="240.820312"/>
     <use xlink:href="#DejaVuSansMono-Bold-63" x="301.025391"/>
     <use xlink:href="#DejaVuSansMono-Bold-65" x="361.230469"/>
     <use xlink:href="#DejaVuSansMono-Bold-3a" x="421.435547"/>
     <use xlink:href="#DejaVuSansMono-Bold-20" x="481.640625"/>
     <use xlink:href="#DejaVuSansMono-Bold-45" x="541.845703"/>
     <use xlink:href="#DejaVuSansMono-Bold-43" x="602.050781"/>
     <use xlink:href="#DejaVuSansMono-Bold-50" x="662.255859"/>
     <use xlink:href="#DejaVuSansMono-Bold-20" x="722.460938"/>
     <use xlink:href="#DejaVuSansMono-Bold-46" x="782.666016"/>
     <use xlink:href="#DejaVuSansMono-Bold-6f" x="842.871094"/>
     <use xlink:href="#DejaVuSansMono-Bold-72" x="903.076172"/>
     <use xlink:href="#DejaVuSansMono-Bold-6d" x="963.28125"/>
     <use xlink:href="#DejaVuSansMono-Bold-2d" x="1023.486328"/>
     <use xlink:href="#DejaVuSansMono-Bold-34" x="1083.691406"/>
     <use xlink:href="#DejaVuSansMono-Bold-35" x="1143.896484"/>
     <use xlink:href="#DejaVuSansMono-Bold-73" x="1204.101562"/>
     <use xlink:href="#DejaVuSansMono-Bold-29" x="1264.306641"/>
    </g>
   </g>
  </g>
 </g>
</svg>
