<?xml version="1.0" encoding="utf-8" standalone="no"?>
<!DOCTYPE svg PUBLIC "-//W3C//DTD SVG 1.1//EN"
  "http://www.w3.org/Graphics/SVG/1.1/DTD/svg11.dtd">
<svg xmlns:xlink="http://www.w3.org/1999/xlink" width="873.528842pt" height="348.997969pt" viewBox="0 0 873.528842 348.997969" xmlns="http://www.w3.org/2000/svg" version="1.1">
 <metadata>
  <rdf:RDF xmlns:dc="http://purl.org/dc/elements/1.1/" xmlns:cc="http://creativecommons.org/ns#" xmlns:rdf="http://www.w3.org/1999/02/22-rdf-syntax-ns#">
   <cc:Work>
    <dc:type rdf:resource="http://purl.org/dc/dcmitype/StillImage"/>
    <dc:date>2025-07-17T14:23:59.083300</dc:date>
    <dc:format>image/svg+xml</dc:format>
    <dc:creator>
     <cc:Agent>
      <dc:title>Matplotlib v3.9.2, https://matplotlib.org/</dc:title>
     </cc:Agent>
    </dc:creator>
   </cc:Work>
  </rdf:RDF>
 </metadata>
 <defs>
  <style type="text/css">*{stroke-linejoin: round; stroke-linecap: butt}</style>
 </defs>
 <g id="figure_1">
  <g id="patch_1">
   <path d="M 0 348.997969 
L 873.528842 348.997969 
L 873.528842 0 
L 0 0 
z
" style="fill: #ffffff"/>
  </g>
  <g id="patch_2">
   <path d="M 27.847344 341.797969 
L 346.567344 341.797969 
L 346.567344 23.077969 
L 27.847344 23.077969 
z
" style="fill: #ffffff"/>
  </g>
  <g id="pane3d_1">
   <g id="patch_3">
    <path d="M 152.50787 225.654717 
L 50.501452 262.629596 
L 48.242894 107.491343 
L 151.94347 84.968757 
" style="fill: #f1f1f1; stroke: #f1f1f1; stroke-linejoin: miter"/>
   </g>
  </g>
  <g id="pane3d_2">
   <g id="patch_4">
    <path d="M 325.903509 244.391128 
L 152.50787 225.654717 
L 151.94347 84.968757 
L 327.953326 96.373127 
" style="fill: #ffffff; stroke: #ffffff; stroke-linejoin: miter"/>
   </g>
  </g>
  <g id="pane3d_3">
   <g id="patch_5">
    <path d="M 325.903509 244.391128 
L 152.50787 225.654717 
L 50.501452 262.629596 
L 237.182045 285.646825 
" style="fill: #f0f0f0; stroke: #f0f0f0; stroke-linejoin: miter"/>
   </g>
  </g>
  <g id="grid3d_1">
   <g id="Line3DCollection_1">
    <path d="M 231.013875 284.886306 
L 320.205395 243.775413 
L 322.164984 95.998077 
" style="fill: none"/>
    <path d="M 206.567628 281.872147 
L 297.601308 241.33291 
L 299.205861 94.510465 
" style="fill: none"/>
    <path d="M 182.477736 278.901927 
L 275.29416 238.922492 
L 276.552872 93.042689 
" style="fill: none"/>
    <path d="M 158.736463 275.97469 
L 253.278138 236.543533 
L 254.199934 91.594355 
" style="fill: none"/>
    <path d="M 135.336297 273.089511 
L 231.54758 234.195419 
L 232.141126 90.165078 
" style="fill: none"/>
    <path d="M 112.269938 270.245489 
L 210.096968 231.877555 
L 210.37068 88.754485 
" style="fill: none"/>
    <path d="M 89.530294 267.44175 
L 188.920929 229.589361 
L 188.882978 87.362213 
" style="fill: none"/>
    <path d="M 67.110472 264.677445 
L 168.014224 227.330269 
L 167.672547 85.987906 
" style="fill: none"/>
   </g>
  </g>
  <g id="grid3d_2"/>
  <g id="grid3d_3">
   <g id="Line3DCollection_2">
    <path d="M 325.903509 244.391128 
L 152.50787 225.654717 
L 50.501452 262.629596 
" style="fill: none; stroke: #000000; stroke-width: 0.4"/>
    <path d="M 326.579903 195.548454 
L 152.321534 179.207439 
L 49.756553 211.463189 
" style="fill: none; stroke: #000000; stroke-width: 0.4"/>
    <path d="M 327.263141 146.211633 
L 152.133409 132.31427 
L 49.003742 159.75334 
" style="fill: none; stroke: #000000; stroke-width: 0.4"/>
    <path d="M 327.953326 96.373127 
L 151.94347 84.968757 
L 48.242894 107.491343 
" style="fill: none; stroke: #000000; stroke-width: 0.4"/>
   </g>
  </g>
  <g id="axis3d_1">
   <g id="line2d_1">
    <path d="M 50.501452 262.629596 
L 237.182045 285.646825 
" style="fill: none; stroke: #262626; stroke-width: 1.25; stroke-linecap: round"/>
   </g>
   <g id="xtick_1">
    <g id="line2d_2">
     <path d="M 231.806106 284.521144 
L 229.425172 285.618584 
" style="fill: none; stroke: #262626; stroke-width: 0.8; stroke-linecap: round"/>
    </g>
    <g id="text_1">
     <!-- 0 -->
     <g style="fill: #262626" transform="translate(222.842207 308.941163) rotate(-30) scale(0.1 -0.1)">
      <defs>
       <path id="DejaVuSansMono-30" d="M 1509 2344 
Q 1509 2516 1629 2641 
Q 1750 2766 1919 2766 
Q 2094 2766 2219 2641 
Q 2344 2516 2344 2344 
Q 2344 2169 2220 2047 
Q 2097 1925 1919 1925 
Q 1744 1925 1626 2044 
Q 1509 2163 1509 2344 
z
M 1925 4250 
Q 1484 4250 1267 3775 
Q 1050 3300 1050 2328 
Q 1050 1359 1267 884 
Q 1484 409 1925 409 
Q 2369 409 2586 884 
Q 2803 1359 2803 2328 
Q 2803 3300 2586 3775 
Q 2369 4250 1925 4250 
z
M 1925 4750 
Q 2672 4750 3055 4137 
Q 3438 3525 3438 2328 
Q 3438 1134 3055 521 
Q 2672 -91 1925 -91 
Q 1178 -91 797 521 
Q 416 1134 416 2328 
Q 416 3525 797 4137 
Q 1178 4750 1925 4750 
z
" transform="scale(0.015625)"/>
      </defs>
      <use xlink:href="#DejaVuSansMono-30"/>
     </g>
    </g>
   </g>
   <g id="xtick_2">
    <g id="line2d_3">
     <path d="M 207.375633 281.512325 
L 204.947325 282.593703 
" style="fill: none; stroke: #262626; stroke-width: 0.8; stroke-linecap: round"/>
    </g>
    <g id="text_2">
     <!-- 200 -->
     <g style="fill: #262626" transform="translate(193.073531 311.821024) rotate(-30) scale(0.1 -0.1)">
      <defs>
       <path id="DejaVuSansMono-32" d="M 1166 531 
L 3309 531 
L 3309 0 
L 475 0 
L 475 531 
Q 1059 1147 1496 1619 
Q 1934 2091 2100 2284 
Q 2413 2666 2522 2902 
Q 2631 3138 2631 3384 
Q 2631 3775 2401 3997 
Q 2172 4219 1772 4219 
Q 1488 4219 1175 4116 
Q 863 4013 513 3803 
L 513 4441 
Q 834 4594 1145 4672 
Q 1456 4750 1759 4750 
Q 2444 4750 2861 4386 
Q 3278 4022 3278 3431 
Q 3278 3131 3139 2831 
Q 3000 2531 2688 2169 
Q 2513 1966 2180 1606 
Q 1847 1247 1166 531 
z
" transform="scale(0.015625)"/>
      </defs>
      <use xlink:href="#DejaVuSansMono-32"/>
      <use xlink:href="#DejaVuSansMono-30" x="60.205078"/>
      <use xlink:href="#DejaVuSansMono-30" x="120.410156"/>
     </g>
    </g>
   </g>
   <g id="xtick_3">
    <g id="line2d_4">
     <path d="M 183.300973 278.547329 
L 180.826922 279.612993 
" style="fill: none; stroke: #262626; stroke-width: 0.8; stroke-linecap: round"/>
    </g>
    <g id="text_3">
     <!-- 400 -->
     <g style="fill: #262626" transform="translate(168.878865 308.726648) rotate(-30) scale(0.1 -0.1)">
      <defs>
       <path id="DejaVuSansMono-34" d="M 2297 4091 
L 825 1625 
L 2297 1625 
L 2297 4091 
z
M 2194 4666 
L 2925 4666 
L 2925 1625 
L 3547 1625 
L 3547 1113 
L 2925 1113 
L 2925 0 
L 2297 0 
L 2297 1113 
L 319 1113 
L 319 1709 
L 2194 4666 
z
" transform="scale(0.015625)"/>
      </defs>
      <use xlink:href="#DejaVuSansMono-34"/>
      <use xlink:href="#DejaVuSansMono-30" x="60.205078"/>
      <use xlink:href="#DejaVuSansMono-30" x="120.410156"/>
     </g>
    </g>
   </g>
   <g id="xtick_4">
    <g id="line2d_5">
     <path d="M 159.574408 275.625203 
L 157.056188 276.675494 
" style="fill: none; stroke: #262626; stroke-width: 0.8; stroke-linecap: round"/>
    </g>
    <g id="text_4">
     <!-- 600 -->
     <g style="fill: #262626" transform="translate(145.036595 305.677343) rotate(-30) scale(0.1 -0.1)">
      <defs>
       <path id="DejaVuSansMono-36" d="M 3097 4563 
L 3097 3981 
Q 2900 4097 2678 4158 
Q 2456 4219 2216 4219 
Q 1616 4219 1306 3767 
Q 997 3316 997 2438 
Q 1147 2750 1412 2917 
Q 1678 3084 2022 3084 
Q 2697 3084 3067 2670 
Q 3438 2256 3438 1497 
Q 3438 741 3056 325 
Q 2675 -91 1984 -91 
Q 1172 -91 794 492 
Q 416 1075 416 2328 
Q 416 3509 870 4129 
Q 1325 4750 2188 4750 
Q 2419 4750 2650 4701 
Q 2881 4653 3097 4563 
z
M 1972 2591 
Q 1569 2591 1337 2300 
Q 1106 2009 1106 1497 
Q 1106 984 1337 693 
Q 1569 403 1972 403 
Q 2391 403 2603 679 
Q 2816 956 2816 1497 
Q 2816 2041 2603 2316 
Q 2391 2591 1972 2591 
z
" transform="scale(0.015625)"/>
      </defs>
      <use xlink:href="#DejaVuSansMono-36"/>
      <use xlink:href="#DejaVuSansMono-30" x="60.205078"/>
      <use xlink:href="#DejaVuSansMono-30" x="120.410156"/>
     </g>
    </g>
   </g>
   <g id="xtick_5">
    <g id="line2d_6">
     <path d="M 136.188443 272.745024 
L 133.627575 273.780274 
" style="fill: none; stroke: #262626; stroke-width: 0.8; stroke-linecap: round"/>
    </g>
    <g id="text_5">
     <!-- 800 -->
     <g style="fill: #262626" transform="translate(121.539076 302.672129) rotate(-30) scale(0.1 -0.1)">
      <defs>
       <path id="DejaVuSansMono-38" d="M 1925 2216 
Q 1503 2216 1273 1980 
Q 1044 1744 1044 1313 
Q 1044 881 1276 642 
Q 1509 403 1925 403 
Q 2350 403 2579 639 
Q 2809 875 2809 1313 
Q 2809 1741 2576 1978 
Q 2344 2216 1925 2216 
z
M 1375 2478 
Q 972 2581 745 2862 
Q 519 3144 519 3541 
Q 519 4097 897 4423 
Q 1275 4750 1925 4750 
Q 2578 4750 2956 4423 
Q 3334 4097 3334 3541 
Q 3334 3144 3107 2862 
Q 2881 2581 2478 2478 
Q 2947 2375 3195 2062 
Q 3444 1750 3444 1253 
Q 3444 622 3041 265 
Q 2638 -91 1925 -91 
Q 1213 -91 811 264 
Q 409 619 409 1247 
Q 409 1747 657 2061 
Q 906 2375 1375 2478 
z
M 1147 3481 
Q 1147 3106 1347 2909 
Q 1547 2713 1925 2713 
Q 2306 2713 2506 2909 
Q 2706 3106 2706 3481 
Q 2706 3863 2507 4063 
Q 2309 4263 1925 4263 
Q 1547 4263 1347 4061 
Q 1147 3859 1147 3481 
z
" transform="scale(0.015625)"/>
      </defs>
      <use xlink:href="#DejaVuSansMono-38"/>
      <use xlink:href="#DejaVuSansMono-30" x="60.205078"/>
      <use xlink:href="#DejaVuSansMono-30" x="120.410156"/>
     </g>
    </g>
   </g>
   <g id="xtick_6">
    <g id="line2d_7">
     <path d="M 113.135797 269.905897 
L 110.53375 270.926425 
" style="fill: none; stroke: #262626; stroke-width: 0.8; stroke-linecap: round"/>
    </g>
    <g id="text_6">
     <!-- 1000 -->
     <g style="fill: #262626" transform="translate(95.772014 302.720214) rotate(-30) scale(0.1 -0.1)">
      <defs>
       <path id="DejaVuSansMono-31" d="M 844 531 
L 1825 531 
L 1825 4097 
L 769 3859 
L 769 4434 
L 1819 4666 
L 2450 4666 
L 2450 531 
L 3419 531 
L 3419 0 
L 844 0 
L 844 531 
z
" transform="scale(0.015625)"/>
      </defs>
      <use xlink:href="#DejaVuSansMono-31"/>
      <use xlink:href="#DejaVuSansMono-30" x="60.205078"/>
      <use xlink:href="#DejaVuSansMono-30" x="120.410156"/>
      <use xlink:href="#DejaVuSansMono-30" x="180.615234"/>
     </g>
    </g>
   </g>
   <g id="xtick_7">
    <g id="line2d_8">
     <path d="M 90.409394 267.10695 
L 87.767588 268.113067 
" style="fill: none; stroke: #262626; stroke-width: 0.8; stroke-linecap: round"/>
    </g>
    <g id="text_7">
     <!-- 1200 -->
     <g style="fill: #262626" transform="translate(72.941939 299.800363) rotate(-30) scale(0.1 -0.1)">
      <use xlink:href="#DejaVuSansMono-31"/>
      <use xlink:href="#DejaVuSansMono-32" x="60.205078"/>
      <use xlink:href="#DejaVuSansMono-30" x="120.410156"/>
      <use xlink:href="#DejaVuSansMono-30" x="180.615234"/>
     </g>
    </g>
   </g>
   <g id="xtick_8">
    <g id="line2d_9">
     <path d="M 68.002357 264.347335 
L 65.322165 265.339345 
" style="fill: none; stroke: #262626; stroke-width: 0.8; stroke-linecap: round"/>
    </g>
    <g id="text_8">
     <!-- 1400 -->
     <g style="fill: #262626" transform="translate(50.434973 296.921836) rotate(-30) scale(0.1 -0.1)">
      <use xlink:href="#DejaVuSansMono-31"/>
      <use xlink:href="#DejaVuSansMono-34" x="60.205078"/>
      <use xlink:href="#DejaVuSansMono-30" x="120.410156"/>
      <use xlink:href="#DejaVuSansMono-30" x="180.615234"/>
     </g>
    </g>
   </g>
   <g id="text_9">
    <!-- Turnout Difference (NA - PA) -->
    <g style="fill: #262626" transform="translate(18.374897 306.501105) rotate(-352.971056) scale(0.12 -0.12)">
     <defs>
      <path id="DejaVuSansMono-Bold-54" d="M 2388 0 
L 1466 0 
L 1466 3859 
L 281 3859 
L 281 4666 
L 3572 4666 
L 3572 3859 
L 2388 3859 
L 2388 0 
z
" transform="scale(0.015625)"/>
      <path id="DejaVuSansMono-Bold-75" d="M 500 1222 
L 500 3500 
L 1416 3500 
L 1416 1363 
Q 1416 984 1522 821 
Q 1628 659 1875 659 
Q 2122 659 2261 878 
Q 2400 1097 2400 1491 
L 2400 3500 
L 3316 3500 
L 3316 0 
L 2400 0 
L 2400 519 
Q 2303 228 2070 68 
Q 1838 -91 1509 -91 
Q 1009 -91 754 240 
Q 500 572 500 1222 
z
" transform="scale(0.015625)"/>
      <path id="DejaVuSansMono-Bold-72" d="M 3597 2534 
Q 3447 2672 3245 2740 
Q 3044 2809 2803 2809 
Q 2513 2809 2295 2707 
Q 2078 2606 1959 2413 
Q 1884 2294 1854 2125 
Q 1825 1956 1825 1613 
L 1825 0 
L 909 0 
L 909 3500 
L 1825 3500 
L 1825 2956 
Q 1959 3256 2237 3420 
Q 2516 3584 2888 3584 
Q 3075 3584 3254 3539 
Q 3434 3494 3597 3406 
L 3597 2534 
z
" transform="scale(0.015625)"/>
      <path id="DejaVuSansMono-Bold-6e" d="M 3347 2272 
L 3347 0 
L 2438 0 
L 2438 2131 
Q 2438 2513 2330 2677 
Q 2222 2841 1978 2841 
Q 1731 2841 1589 2619 
Q 1447 2397 1447 2003 
L 1447 0 
L 538 0 
L 538 3500 
L 1447 3500 
L 1447 2975 
Q 1544 3266 1778 3425 
Q 2013 3584 2344 3584 
Q 2841 3584 3094 3254 
Q 3347 2925 3347 2272 
z
" transform="scale(0.015625)"/>
      <path id="DejaVuSansMono-Bold-6f" d="M 1925 2841 
Q 1597 2841 1409 2552 
Q 1222 2263 1222 1747 
Q 1222 1231 1409 942 
Q 1597 653 1925 653 
Q 2256 653 2443 942 
Q 2631 1231 2631 1747 
Q 2631 2263 2443 2552 
Q 2256 2841 1925 2841 
z
M 306 1747 
Q 306 2594 745 3089 
Q 1184 3584 1925 3584 
Q 2669 3584 3108 3089 
Q 3547 2594 3547 1747 
Q 3547 900 3108 404 
Q 2669 -91 1925 -91 
Q 1184 -91 745 404 
Q 306 900 306 1747 
z
" transform="scale(0.015625)"/>
      <path id="DejaVuSansMono-Bold-74" d="M 2156 4494 
L 2156 3500 
L 3353 3500 
L 3353 2797 
L 2156 2797 
L 2156 1141 
Q 2156 906 2270 804 
Q 2384 703 2650 703 
L 3353 703 
L 3353 0 
L 2584 0 
Q 1797 0 1519 251 
Q 1241 503 1241 1184 
L 1241 2797 
L 347 2797 
L 347 3500 
L 1241 3500 
L 1241 4494 
L 2156 4494 
z
" transform="scale(0.015625)"/>
      <path id="DejaVuSansMono-Bold-20" transform="scale(0.015625)"/>
      <path id="DejaVuSansMono-Bold-44" d="M 1350 3834 
L 1350 831 
L 1600 831 
Q 2144 831 2375 1173 
Q 2606 1516 2606 2338 
Q 2606 3153 2375 3493 
Q 2144 3834 1600 3834 
L 1350 3834 
z
M 428 4666 
L 1416 4666 
Q 2559 4666 3062 4120 
Q 3566 3575 3566 2338 
Q 3566 1097 3062 548 
Q 2559 0 1416 0 
L 428 0 
L 428 4666 
z
" transform="scale(0.015625)"/>
      <path id="DejaVuSansMono-Bold-69" d="M 691 3500 
L 2503 3500 
L 2503 703 
L 3641 703 
L 3641 0 
L 447 0 
L 447 703 
L 1588 703 
L 1588 2797 
L 691 2797 
L 691 3500 
z
M 1588 5203 
L 2503 5203 
L 2503 4134 
L 1588 4134 
L 1588 5203 
z
" transform="scale(0.015625)"/>
      <path id="DejaVuSansMono-Bold-66" d="M 2309 3806 
L 2309 3500 
L 3384 3500 
L 3384 2797 
L 2309 2797 
L 2309 0 
L 1394 0 
L 1394 2797 
L 544 2797 
L 544 3500 
L 1394 3500 
L 1394 3744 
Q 1394 4375 1656 4619 
Q 1919 4863 2631 4863 
L 3384 4863 
L 3384 4159 
L 2669 4159 
Q 2463 4159 2389 4084 
Q 2316 4009 2309 3806 
z
" transform="scale(0.015625)"/>
      <path id="DejaVuSansMono-Bold-65" d="M 3444 172 
Q 3125 41 2794 -25 
Q 2463 -91 2094 -91 
Q 1216 -91 752 379 
Q 288 850 288 1734 
Q 288 2591 734 3087 
Q 1181 3584 1953 3584 
Q 2731 3584 3161 3123 
Q 3591 2663 3591 1825 
L 3591 1453 
L 1219 1453 
Q 1222 1041 1462 837 
Q 1703 634 2181 634 
Q 2497 634 2803 725 
Q 3109 816 3444 1013 
L 3444 172 
z
M 2669 2141 
Q 2663 2503 2483 2689 
Q 2303 2875 1953 2875 
Q 1638 2875 1450 2683 
Q 1263 2491 1228 2138 
L 2669 2141 
z
" transform="scale(0.015625)"/>
      <path id="DejaVuSansMono-Bold-63" d="M 3316 178 
Q 3084 44 2818 -23 
Q 2553 -91 2247 -91 
Q 1438 -91 981 396 
Q 525 884 525 1747 
Q 525 2613 984 3102 
Q 1444 3591 2253 3591 
Q 2534 3591 2795 3525 
Q 3056 3459 3316 3322 
L 3316 2484 
Q 3116 2656 2877 2748 
Q 2638 2841 2381 2841 
Q 1934 2841 1693 2556 
Q 1453 2272 1453 1747 
Q 1453 1222 1693 940 
Q 1934 659 2381 659 
Q 2647 659 2878 748 
Q 3109 838 3316 1019 
L 3316 178 
z
" transform="scale(0.015625)"/>
      <path id="DejaVuSansMono-Bold-28" d="M 2888 4856 
Q 2475 4109 2275 3409 
Q 2075 2709 2075 2009 
Q 2075 1316 2275 611 
Q 2475 -94 2888 -844 
L 2175 -844 
Q 1678 -122 1437 579 
Q 1197 1281 1197 2009 
Q 1197 2734 1439 3439 
Q 1681 4144 2175 4856 
L 2888 4856 
z
" transform="scale(0.015625)"/>
      <path id="DejaVuSansMono-Bold-4e" d="M 372 4666 
L 1363 4666 
L 2663 1275 
L 2663 4666 
L 3475 4666 
L 3475 0 
L 2491 0 
L 1184 3391 
L 1184 0 
L 372 0 
L 372 4666 
z
" transform="scale(0.015625)"/>
      <path id="DejaVuSansMono-Bold-41" d="M 1925 3822 
L 1491 1913 
L 2363 1913 
L 1925 3822 
z
M 1363 4666 
L 2491 4666 
L 3750 0 
L 2828 0 
L 2541 1153 
L 1306 1153 
L 1025 0 
L 103 0 
L 1363 4666 
z
" transform="scale(0.015625)"/>
      <path id="DejaVuSansMono-Bold-2d" d="M 941 2297 
L 2913 2297 
L 2913 1388 
L 941 1388 
L 941 2297 
z
" transform="scale(0.015625)"/>
      <path id="DejaVuSansMono-Bold-50" d="M 1428 3891 
L 1428 2522 
L 1806 2522 
Q 2259 2522 2442 2675 
Q 2625 2828 2625 3206 
Q 2625 3584 2442 3737 
Q 2259 3891 1806 3891 
L 1428 3891 
z
M 506 4666 
L 1772 4666 
Q 2738 4666 3161 4322 
Q 3584 3978 3584 3206 
Q 3584 2434 3161 2090 
Q 2738 1747 1772 1747 
L 1428 1747 
L 1428 0 
L 506 0 
L 506 4666 
z
" transform="scale(0.015625)"/>
      <path id="DejaVuSansMono-Bold-29" d="M 966 4856 
L 1678 4856 
Q 2172 4144 2414 3439 
Q 2656 2734 2656 2009 
Q 2656 1281 2415 579 
Q 2175 -122 1678 -844 
L 966 -844 
Q 1378 -94 1578 611 
Q 1778 1316 1778 2009 
Q 1778 2709 1578 3409 
Q 1378 4109 966 4856 
z
" transform="scale(0.015625)"/>
     </defs>
     <use xlink:href="#DejaVuSansMono-Bold-54"/>
     <use xlink:href="#DejaVuSansMono-Bold-75" x="60.205078"/>
     <use xlink:href="#DejaVuSansMono-Bold-72" x="120.410156"/>
     <use xlink:href="#DejaVuSansMono-Bold-6e" x="180.615234"/>
     <use xlink:href="#DejaVuSansMono-Bold-6f" x="240.820312"/>
     <use xlink:href="#DejaVuSansMono-Bold-75" x="301.025391"/>
     <use xlink:href="#DejaVuSansMono-Bold-74" x="361.230469"/>
     <use xlink:href="#DejaVuSansMono-Bold-20" x="421.435547"/>
     <use xlink:href="#DejaVuSansMono-Bold-44" x="481.640625"/>
     <use xlink:href="#DejaVuSansMono-Bold-69" x="541.845703"/>
     <use xlink:href="#DejaVuSansMono-Bold-66" x="602.050781"/>
     <use xlink:href="#DejaVuSansMono-Bold-66" x="662.255859"/>
     <use xlink:href="#DejaVuSansMono-Bold-65" x="722.460938"/>
     <use xlink:href="#DejaVuSansMono-Bold-72" x="782.666016"/>
     <use xlink:href="#DejaVuSansMono-Bold-65" x="842.871094"/>
     <use xlink:href="#DejaVuSansMono-Bold-6e" x="903.076172"/>
     <use xlink:href="#DejaVuSansMono-Bold-63" x="963.28125"/>
     <use xlink:href="#DejaVuSansMono-Bold-65" x="1023.486328"/>
     <use xlink:href="#DejaVuSansMono-Bold-20" x="1083.691406"/>
     <use xlink:href="#DejaVuSansMono-Bold-28" x="1143.896484"/>
     <use xlink:href="#DejaVuSansMono-Bold-4e" x="1204.101562"/>
     <use xlink:href="#DejaVuSansMono-Bold-41" x="1264.306641"/>
     <use xlink:href="#DejaVuSansMono-Bold-20" x="1324.511719"/>
     <use xlink:href="#DejaVuSansMono-Bold-2d" x="1384.716797"/>
     <use xlink:href="#DejaVuSansMono-Bold-20" x="1444.921875"/>
     <use xlink:href="#DejaVuSansMono-Bold-50" x="1505.126953"/>
     <use xlink:href="#DejaVuSansMono-Bold-41" x="1565.332031"/>
     <use xlink:href="#DejaVuSansMono-Bold-29" x="1625.537109"/>
    </g>
   </g>
  </g>
  <g id="axis3d_2">
   <g id="line2d_10">
    <path d="M 325.903509 244.391128 
L 237.182045 285.646825 
" style="fill: none; stroke: #262626; stroke-width: 1.25; stroke-linecap: round"/>
   </g>
  </g>
  <g id="axis3d_3">
   <g id="line2d_11">
    <path d="M 325.903509 244.391128 
L 327.953326 96.373127 
" style="fill: none; stroke: #262626; stroke-width: 1.25; stroke-linecap: round"/>
   </g>
   <g id="xtick_9">
    <g id="line2d_12">
     <path d="M 324.442984 244.23331 
L 328.828302 244.707169 
" style="fill: none; stroke: #262626; stroke-width: 0.8; stroke-linecap: round"/>
    </g>
    <g id="text_10">
     <!-- 0 -->
     <g style="fill: #262626" transform="translate(341.017235 250.842438) scale(0.1 -0.1)">
      <use xlink:href="#DejaVuSansMono-30"/>
     </g>
    </g>
   </g>
   <g id="xtick_10">
    <g id="line2d_13">
     <path d="M 325.11174 195.410778 
L 329.52001 195.824161 
" style="fill: none; stroke: #262626; stroke-width: 0.8; stroke-linecap: round"/>
    </g>
    <g id="text_11">
     <!-- 5 -->
     <g style="fill: #262626" transform="translate(341.782347 202.152964) scale(0.1 -0.1)">
      <defs>
       <path id="DejaVuSansMono-35" d="M 647 4666 
L 3009 4666 
L 3009 4134 
L 1222 4134 
L 1222 2988 
Q 1356 3038 1492 3061 
Q 1628 3084 1766 3084 
Q 2491 3084 2916 2656 
Q 3341 2228 3341 1497 
Q 3341 759 2895 334 
Q 2450 -91 1678 -91 
Q 1306 -91 998 -41 
Q 691 9 447 109 
L 447 750 
Q 734 594 1025 517 
Q 1316 441 1619 441 
Q 2141 441 2423 716 
Q 2706 991 2706 1497 
Q 2706 1997 2414 2275 
Q 2122 2553 1600 2553 
Q 1347 2553 1106 2495 
Q 866 2438 647 2322 
L 647 4666 
z
" transform="scale(0.015625)"/>
      </defs>
      <use xlink:href="#DejaVuSansMono-35"/>
     </g>
    </g>
   </g>
   <g id="xtick_11">
    <g id="line2d_14">
     <path d="M 325.78726 146.094515 
L 330.218723 146.446172 
" style="fill: none; stroke: #262626; stroke-width: 0.8; stroke-linecap: round"/>
    </g>
    <g id="text_12">
     <!-- 10 -->
     <g style="fill: #262626" transform="translate(339.545017 152.972505) scale(0.1 -0.1)">
      <use xlink:href="#DejaVuSansMono-31"/>
      <use xlink:href="#DejaVuSansMono-30" x="60.205078"/>
     </g>
    </g>
   </g>
   <g id="xtick_12">
    <g id="line2d_15">
     <path d="M 326.469646 96.276993 
L 330.924547 96.565644 
" style="fill: none; stroke: #262626; stroke-width: 0.8; stroke-linecap: round"/>
    </g>
    <g id="text_13">
     <!-- 15 -->
     <g style="fill: #262626" transform="translate(340.325677 103.293599) scale(0.1 -0.1)">
      <use xlink:href="#DejaVuSansMono-31"/>
      <use xlink:href="#DejaVuSansMono-35" x="60.205078"/>
     </g>
    </g>
   </g>
   <g id="text_14">
    <!-- Polling Stations -->
    <g style="fill: #262626" transform="translate(375.08605 216.70983) rotate(-89.206594) scale(0.1 -0.1)">
     <defs>
      <path id="DejaVuSansMono-Bold-6c" d="M 1209 1459 
L 1209 4159 
L 281 4159 
L 281 4863 
L 2125 4863 
L 2125 1459 
Q 2125 1047 2253 875 
Q 2381 703 2688 703 
L 3419 703 
L 3419 0 
L 2431 0 
Q 1778 0 1493 337 
Q 1209 675 1209 1459 
z
" transform="scale(0.015625)"/>
      <path id="DejaVuSansMono-Bold-67" d="M 2509 1806 
Q 2509 2275 2331 2558 
Q 2153 2841 1863 2841 
Q 1575 2841 1398 2559 
Q 1222 2278 1222 1806 
Q 1222 1331 1398 1050 
Q 1575 769 1863 769 
Q 2153 769 2331 1051 
Q 2509 1334 2509 1806 
z
M 3425 263 
Q 3425 -578 3045 -951 
Q 2666 -1325 1813 -1325 
Q 1525 -1325 1244 -1283 
Q 963 -1241 672 -1153 
L 672 -313 
Q 931 -456 1200 -525 
Q 1469 -594 1753 -594 
Q 2141 -594 2325 -411 
Q 2509 -228 2509 159 
L 2509 538 
Q 2375 288 2153 166 
Q 1931 44 1613 44 
Q 1013 44 659 512 
Q 306 981 306 1784 
Q 306 2616 659 3103 
Q 1013 3591 1606 3591 
Q 1906 3591 2140 3450 
Q 2375 3309 2509 3053 
L 2509 3500 
L 3425 3500 
L 3425 263 
z
" transform="scale(0.015625)"/>
      <path id="DejaVuSansMono-Bold-53" d="M 1594 2047 
Q 897 2313 650 2605 
Q 403 2897 403 3391 
Q 403 4025 809 4387 
Q 1216 4750 1925 4750 
Q 2247 4750 2569 4676 
Q 2891 4603 3206 4459 
L 3206 3559 
Q 2909 3769 2603 3878 
Q 2297 3988 1997 3988 
Q 1663 3988 1484 3853 
Q 1306 3719 1306 3469 
Q 1306 3275 1436 3148 
Q 1566 3022 1978 2869 
L 2375 2719 
Q 2938 2513 3203 2172 
Q 3469 1831 3469 1313 
Q 3469 606 3051 257 
Q 2634 -91 1791 -91 
Q 1444 -91 1095 -8 
Q 747 75 422 238 
L 422 1191 
Q 791 928 1136 800 
Q 1481 672 1819 672 
Q 2159 672 2346 826 
Q 2534 981 2534 1259 
Q 2534 1469 2409 1626 
Q 2284 1784 2047 1875 
L 1594 2047 
z
" transform="scale(0.015625)"/>
      <path id="DejaVuSansMono-Bold-61" d="M 2188 1644 
Q 1675 1644 1472 1512 
Q 1269 1381 1269 1063 
Q 1269 825 1409 684 
Q 1550 544 1791 544 
Q 2153 544 2353 817 
Q 2553 1091 2553 1581 
L 2553 1644 
L 2188 1644 
z
M 3463 1997 
L 3463 0 
L 2553 0 
L 2553 391 
Q 2388 159 2128 34 
Q 1869 -91 1556 -91 
Q 959 -91 626 225 
Q 294 541 294 1106 
Q 294 1719 691 2011 
Q 1088 2303 1919 2303 
L 2553 2303 
L 2553 2456 
Q 2553 2678 2392 2792 
Q 2231 2906 1919 2906 
Q 1591 2906 1283 2823 
Q 975 2741 641 2559 
L 641 3341 
Q 944 3466 1256 3525 
Q 1569 3584 1919 3584 
Q 2772 3584 3117 3237 
Q 3463 2891 3463 1997 
z
" transform="scale(0.015625)"/>
      <path id="DejaVuSansMono-Bold-73" d="M 3097 3391 
L 3097 2591 
Q 2844 2753 2570 2836 
Q 2297 2919 2022 2919 
Q 1716 2919 1559 2830 
Q 1403 2741 1403 2566 
Q 1403 2316 2072 2159 
L 2106 2150 
L 2369 2088 
Q 2869 1969 3101 1705 
Q 3334 1441 3334 991 
Q 3334 450 2979 179 
Q 2625 -91 1913 -91 
Q 1597 -91 1265 -36 
Q 934 19 594 128 
L 594 928 
Q 897 756 1211 665 
Q 1525 575 1819 575 
Q 2141 575 2306 669 
Q 2472 763 2472 941 
Q 2472 1116 2355 1209 
Q 2238 1303 1797 1409 
L 1544 1466 
Q 1019 1584 778 1837 
Q 538 2091 538 2516 
Q 538 3022 903 3303 
Q 1269 3584 1931 3584 
Q 2228 3584 2523 3536 
Q 2819 3488 3097 3391 
z
" transform="scale(0.015625)"/>
     </defs>
     <use xlink:href="#DejaVuSansMono-Bold-50"/>
     <use xlink:href="#DejaVuSansMono-Bold-6f" x="60.205078"/>
     <use xlink:href="#DejaVuSansMono-Bold-6c" x="120.410156"/>
     <use xlink:href="#DejaVuSansMono-Bold-6c" x="180.615234"/>
     <use xlink:href="#DejaVuSansMono-Bold-69" x="240.820312"/>
     <use xlink:href="#DejaVuSansMono-Bold-6e" x="301.025391"/>
     <use xlink:href="#DejaVuSansMono-Bold-67" x="361.230469"/>
     <use xlink:href="#DejaVuSansMono-Bold-20" x="421.435547"/>
     <use xlink:href="#DejaVuSansMono-Bold-53" x="481.640625"/>
     <use xlink:href="#DejaVuSansMono-Bold-74" x="541.845703"/>
     <use xlink:href="#DejaVuSansMono-Bold-61" x="602.050781"/>
     <use xlink:href="#DejaVuSansMono-Bold-74" x="662.255859"/>
     <use xlink:href="#DejaVuSansMono-Bold-69" x="722.460938"/>
     <use xlink:href="#DejaVuSansMono-Bold-6f" x="782.666016"/>
     <use xlink:href="#DejaVuSansMono-Bold-6e" x="842.871094"/>
     <use xlink:href="#DejaVuSansMono-Bold-73" x="903.076172"/>
    </g>
   </g>
  </g>
  <g id="axes_1">
   <g id="Poly3DCollection_1">
    <path d="M 162.82903 226.769979 
L 152.50787 225.654717 
L 152.50787 225.654717 
L 162.82903 226.769979 
z
" clip-path="url(#pa5d8153d70)" style="fill: #00727b; stroke: #000000; stroke-width: 0.25"/>
    <path d="M 173.215932 227.892344 
L 162.82903 226.769979 
L 162.82903 226.769979 
L 173.215932 227.892344 
z
" clip-path="url(#pa5d8153d70)" style="fill: #00727b; stroke: #000000; stroke-width: 0.25"/>
    <path d="M 183.669205 229.021881 
L 173.215932 227.892344 
L 173.215932 227.892344 
L 183.669205 229.021881 
z
" clip-path="url(#pa5d8153d70)" style="fill: #00727b; stroke: #000000; stroke-width: 0.25"/>
    <path d="M 194.189487 230.158659 
L 183.669205 229.021881 
L 183.669205 229.021881 
L 194.189487 230.158659 
z
" clip-path="url(#pa5d8153d70)" style="fill: #00727b; stroke: #000000; stroke-width: 0.25"/>
    <path d="M 204.777424 231.302748 
L 194.189487 230.158659 
L 194.189487 230.158659 
L 204.777424 231.302748 
z
" clip-path="url(#pa5d8153d70)" style="fill: #00727b; stroke: #000000; stroke-width: 0.25"/>
    <path d="M 215.433672 232.454217 
L 204.777424 231.302748 
L 204.790251 221.905194 
L 215.456879 223.027436 
z
" clip-path="url(#pa5d8153d70)" style="fill: #009ba8; stroke: #000000; stroke-width: 0.25"/>
    <path d="M 226.158894 233.61314 
L 215.433672 232.454217 
L 215.433672 232.454217 
L 226.158894 233.61314 
z
" clip-path="url(#pa5d8153d70)" style="fill: #00727b; stroke: #000000; stroke-width: 0.25"/>
    <path d="M 236.953761 234.779589 
L 226.158894 233.61314 
L 226.158894 233.61314 
L 236.953761 234.779589 
z
" clip-path="url(#pa5d8153d70)" style="fill: #00727b; stroke: #000000; stroke-width: 0.25"/>
    <path d="M 247.818954 235.953636 
L 236.953761 234.779589 
L 236.953761 234.779589 
L 247.818954 235.953636 
z
" clip-path="url(#pa5d8153d70)" style="fill: #00727b; stroke: #000000; stroke-width: 0.25"/>
    <path d="M 258.755163 237.135357 
L 247.818954 235.953636 
L 247.818954 235.953636 
L 258.755163 237.135357 
z
" clip-path="url(#pa5d8153d70)" style="fill: #00727b; stroke: #000000; stroke-width: 0.25"/>
    <path d="M 269.763085 238.324827 
L 258.755163 237.135357 
L 258.821254 227.589828 
L 269.840249 228.749143 
z
" clip-path="url(#pa5d8153d70)" style="fill: #009ba8; stroke: #000000; stroke-width: 0.25"/>
    <path d="M 280.84343 239.522123 
L 269.763085 238.324827 
L 269.763085 238.324827 
L 280.84343 239.522123 
z
" clip-path="url(#pa5d8153d70)" style="fill: #00727b; stroke: #000000; stroke-width: 0.25"/>
    <path d="M 291.996913 240.727322 
L 280.84343 239.522123 
L 281.109096 210.646895 
L 292.296739 211.760107 
z
" clip-path="url(#pa5d8153d70)" style="fill: #009ba8; stroke: #000000; stroke-width: 0.25"/>
    <path d="M 152.50787 225.654717 
L 66.36897 256.878002 
L 66.36897 256.878002 
L 152.50787 225.654717 
z
" clip-path="url(#pa5d8153d70)" style="fill: #00727b; stroke: #000000; stroke-width: 0.25"/>
    <path d="M 303.224261 241.940503 
L 291.996913 240.727322 
L 292.096656 231.090753 
L 303.335517 232.273201 
z
" clip-path="url(#pa5d8153d70)" style="fill: #009ba8; stroke: #000000; stroke-width: 0.25"/>
    <path d="M 162.82903 226.769979 
L 77.312785 258.200693 
L 66.36897 256.878002 
L 152.50787 225.654717 
z
" clip-path="url(#pa5d8153d70)" style="fill: #005e65; stroke: #000000; stroke-width: 0.25"/>
    <path d="M 162.82903 226.769979 
L 152.50787 225.654717 
L 66.36897 256.878002 
L 77.312785 258.200693 
z
" clip-path="url(#pa5d8153d70)" style="fill: #008792; stroke: #000000; stroke-width: 0.25"/>
    <path d="M 162.82903 226.769979 
L 77.312785 258.200693 
L 77.312785 258.200693 
L 162.82903 226.769979 
z
" clip-path="url(#pa5d8153d70)" style="fill: #00727b; stroke: #000000; stroke-width: 0.25"/>
    <path d="M 162.82903 226.769979 
L 162.82903 226.769979 
L 77.312785 258.200693 
L 77.312785 258.200693 
z
" clip-path="url(#pa5d8153d70)" style="fill: #00727b; stroke: #000000; stroke-width: 0.25"/>
    <path d="M 173.215932 227.892344 
L 88.332545 259.532563 
L 77.312785 258.200693 
L 162.82903 226.769979 
z
" clip-path="url(#pa5d8153d70)" style="fill: #005e65; stroke: #000000; stroke-width: 0.25"/>
    <path d="M 173.215932 227.892344 
L 162.82903 226.769979 
L 77.312785 258.200693 
L 88.332545 259.532563 
z
" clip-path="url(#pa5d8153d70)" style="fill: #008792; stroke: #000000; stroke-width: 0.25"/>
    <path d="M 314.526211 243.161744 
L 303.224261 241.940503 
L 303.558696 212.880713 
L 314.895708 214.008787 
z
" clip-path="url(#pa5d8153d70)" style="fill: #009ba8; stroke: #000000; stroke-width: 0.25"/>
    <path d="M 173.215932 227.892344 
L 88.332545 259.532563 
L 88.332545 259.532563 
L 173.215932 227.892344 
z
" clip-path="url(#pa5d8153d70)" style="fill: #00727b; stroke: #000000; stroke-width: 0.25"/>
    <path d="M 173.215932 227.892344 
L 173.215932 227.892344 
L 88.332545 259.532563 
L 88.332545 259.532563 
z
" clip-path="url(#pa5d8153d70)" style="fill: #00727b; stroke: #000000; stroke-width: 0.25"/>
    <path d="M 183.669205 229.021881 
L 99.429044 260.873708 
L 88.332545 259.532563 
L 173.215932 227.892344 
z
" clip-path="url(#pa5d8153d70)" style="fill: #005e65; stroke: #000000; stroke-width: 0.25"/>
    <path d="M 183.669205 229.021881 
L 173.215932 227.892344 
L 88.332545 259.532563 
L 99.429044 260.873708 
z
" clip-path="url(#pa5d8153d70)" style="fill: #008792; stroke: #000000; stroke-width: 0.25"/>
    <path d="M 183.669205 229.021881 
L 99.429044 260.873708 
L 99.429044 260.873708 
L 183.669205 229.021881 
z
" clip-path="url(#pa5d8153d70)" style="fill: #00727b; stroke: #000000; stroke-width: 0.25"/>
    <path d="M 183.669205 229.021881 
L 183.669205 229.021881 
L 99.429044 260.873708 
L 99.429044 260.873708 
z
" clip-path="url(#pa5d8153d70)" style="fill: #00727b; stroke: #000000; stroke-width: 0.25"/>
    <path d="M 194.189487 230.158659 
L 110.603086 262.224224 
L 99.429044 260.873708 
L 183.669205 229.021881 
z
" clip-path="url(#pa5d8153d70)" style="fill: #005e65; stroke: #000000; stroke-width: 0.25"/>
    <path d="M 194.189487 230.158659 
L 183.669205 229.021881 
L 99.429044 260.873708 
L 110.603086 262.224224 
z
" clip-path="url(#pa5d8153d70)" style="fill: #008792; stroke: #000000; stroke-width: 0.25"/>
    <path d="M 194.189487 230.158659 
L 110.603086 262.224224 
L 110.603086 262.224224 
L 194.189487 230.158659 
z
" clip-path="url(#pa5d8153d70)" style="fill: #00727b; stroke: #000000; stroke-width: 0.25"/>
    <path d="M 194.189487 230.158659 
L 194.189487 230.158659 
L 110.603086 262.224224 
L 110.603086 262.224224 
z
" clip-path="url(#pa5d8153d70)" style="fill: #00727b; stroke: #000000; stroke-width: 0.25"/>
    <path d="M 204.777424 231.302748 
L 121.855487 263.584212 
L 110.603086 262.224224 
L 194.189487 230.158659 
z
" clip-path="url(#pa5d8153d70)" style="fill: #005e65; stroke: #000000; stroke-width: 0.25"/>
    <path d="M 204.777424 231.302748 
L 194.189487 230.158659 
L 110.603086 262.224224 
L 121.855487 263.584212 
z
" clip-path="url(#pa5d8153d70)" style="fill: #008792; stroke: #000000; stroke-width: 0.25"/>
    <path d="M 204.777424 231.302748 
L 204.777424 231.302748 
L 121.855487 263.584212 
L 121.855487 263.584212 
z
" clip-path="url(#pa5d8153d70)" style="fill: #00727b; stroke: #000000; stroke-width: 0.25"/>
    <path d="M 204.777424 231.302748 
L 121.855487 263.584212 
L 121.782022 253.369921 
L 204.790251 221.905194 
z
" clip-path="url(#pa5d8153d70)" style="fill: #00494f; stroke: #000000; stroke-width: 0.25"/>
    <path d="M 215.433672 232.454217 
L 133.187074 264.95377 
L 121.855487 263.584212 
L 204.777424 231.302748 
z
" clip-path="url(#pa5d8153d70)" style="fill: #005e65; stroke: #000000; stroke-width: 0.25"/>
    <path d="M 215.456879 223.027436 
L 204.790251 221.905194 
L 121.782022 253.369921 
L 133.125343 254.70495 
z
" clip-path="url(#pa5d8153d70)" style="fill: #008792; stroke: #000000; stroke-width: 0.25"/>
    <path d="M 215.433672 232.454217 
L 133.187074 264.95377 
L 133.187074 264.95377 
L 215.433672 232.454217 
z
" clip-path="url(#pa5d8153d70)" style="fill: #00727b; stroke: #000000; stroke-width: 0.25"/>
    <path d="M 215.433672 232.454217 
L 215.456879 223.027436 
L 133.125343 254.70495 
L 133.187074 264.95377 
z
" clip-path="url(#pa5d8153d70)" style="fill: #009ba8; stroke: #000000; stroke-width: 0.25"/>
    <path d="M 226.158894 233.61314 
L 144.598686 266.332999 
L 133.187074 264.95377 
L 215.433672 232.454217 
z
" clip-path="url(#pa5d8153d70)" style="fill: #005e65; stroke: #000000; stroke-width: 0.25"/>
    <path d="M 226.158894 233.61314 
L 215.433672 232.454217 
L 133.187074 264.95377 
L 144.598686 266.332999 
z
" clip-path="url(#pa5d8153d70)" style="fill: #008792; stroke: #000000; stroke-width: 0.25"/>
    <path d="M 226.158894 233.61314 
L 144.598686 266.332999 
L 144.598686 266.332999 
L 226.158894 233.61314 
z
" clip-path="url(#pa5d8153d70)" style="fill: #00727b; stroke: #000000; stroke-width: 0.25"/>
    <path d="M 226.158894 233.61314 
L 226.158894 233.61314 
L 144.598686 266.332999 
L 144.598686 266.332999 
z
" clip-path="url(#pa5d8153d70)" style="fill: #00727b; stroke: #000000; stroke-width: 0.25"/>
    <path d="M 236.953761 234.779589 
L 156.091173 267.722004 
L 144.598686 266.332999 
L 226.158894 233.61314 
z
" clip-path="url(#pa5d8153d70)" style="fill: #005e65; stroke: #000000; stroke-width: 0.25"/>
    <path d="M 236.953761 234.779589 
L 226.158894 233.61314 
L 144.598686 266.332999 
L 156.091173 267.722004 
z
" clip-path="url(#pa5d8153d70)" style="fill: #008792; stroke: #000000; stroke-width: 0.25"/>
    <path d="M 236.953761 234.779589 
L 156.091173 267.722004 
L 156.091173 267.722004 
L 236.953761 234.779589 
z
" clip-path="url(#pa5d8153d70)" style="fill: #00727b; stroke: #000000; stroke-width: 0.25"/>
    <path d="M 236.953761 234.779589 
L 236.953761 234.779589 
L 156.091173 267.722004 
L 156.091173 267.722004 
z
" clip-path="url(#pa5d8153d70)" style="fill: #00727b; stroke: #000000; stroke-width: 0.25"/>
    <path d="M 247.818954 235.953636 
L 167.665398 269.120888 
L 156.091173 267.722004 
L 236.953761 234.779589 
z
" clip-path="url(#pa5d8153d70)" style="fill: #005e65; stroke: #000000; stroke-width: 0.25"/>
    <path d="M 247.818954 235.953636 
L 236.953761 234.779589 
L 156.091173 267.722004 
L 167.665398 269.120888 
z
" clip-path="url(#pa5d8153d70)" style="fill: #008792; stroke: #000000; stroke-width: 0.25"/>
    <path d="M 247.818954 235.953636 
L 167.665398 269.120888 
L 167.665398 269.120888 
L 247.818954 235.953636 
z
" clip-path="url(#pa5d8153d70)" style="fill: #00727b; stroke: #000000; stroke-width: 0.25"/>
    <path d="M 247.818954 235.953636 
L 247.818954 235.953636 
L 167.665398 269.120888 
L 167.665398 269.120888 
z
" clip-path="url(#pa5d8153d70)" style="fill: #00727b; stroke: #000000; stroke-width: 0.25"/>
    <path d="M 258.755163 237.135357 
L 179.322237 270.529756 
L 167.665398 269.120888 
L 247.818954 235.953636 
z
" clip-path="url(#pa5d8153d70)" style="fill: #005e65; stroke: #000000; stroke-width: 0.25"/>
    <path d="M 258.755163 237.135357 
L 247.818954 235.953636 
L 167.665398 269.120888 
L 179.322237 270.529756 
z
" clip-path="url(#pa5d8153d70)" style="fill: #008792; stroke: #000000; stroke-width: 0.25"/>
    <path d="M 258.755163 237.135357 
L 258.755163 237.135357 
L 179.322237 270.529756 
L 179.322237 270.529756 
z
" clip-path="url(#pa5d8153d70)" style="fill: #00727b; stroke: #000000; stroke-width: 0.25"/>
    <path d="M 258.755163 237.135357 
L 179.322237 270.529756 
L 179.309149 260.140459 
L 258.821254 227.589828 
z
" clip-path="url(#pa5d8153d70)" style="fill: #00494f; stroke: #000000; stroke-width: 0.25"/>
    <path d="M 269.763085 238.324827 
L 191.062577 271.948717 
L 179.322237 270.529756 
L 258.755163 237.135357 
z
" clip-path="url(#pa5d8153d70)" style="fill: #005e65; stroke: #000000; stroke-width: 0.25"/>
    <path d="M 269.840249 228.749143 
L 258.821254 227.589828 
L 179.309149 260.140459 
L 191.06209 261.523697 
z
" clip-path="url(#pa5d8153d70)" style="fill: #008792; stroke: #000000; stroke-width: 0.25"/>
    <path d="M 269.763085 238.324827 
L 191.062577 271.948717 
L 191.062577 271.948717 
L 269.763085 238.324827 
z
" clip-path="url(#pa5d8153d70)" style="fill: #00727b; stroke: #000000; stroke-width: 0.25"/>
    <path d="M 269.763085 238.324827 
L 269.840249 228.749143 
L 191.06209 261.523697 
L 191.062577 271.948717 
z
" clip-path="url(#pa5d8153d70)" style="fill: #009ba8; stroke: #000000; stroke-width: 0.25"/>
    <path d="M 280.84343 239.522123 
L 202.887318 273.377878 
L 191.062577 271.948717 
L 269.763085 238.324827 
z
" clip-path="url(#pa5d8153d70)" style="fill: #005e65; stroke: #000000; stroke-width: 0.25"/>
    <path d="M 280.84343 239.522123 
L 269.763085 238.324827 
L 191.062577 271.948717 
L 202.887318 273.377878 
z
" clip-path="url(#pa5d8153d70)" style="fill: #008792; stroke: #000000; stroke-width: 0.25"/>
    <path d="M 280.84343 239.522123 
L 280.84343 239.522123 
L 202.887318 273.377878 
L 202.887318 273.377878 
z
" clip-path="url(#pa5d8153d70)" style="fill: #00727b; stroke: #000000; stroke-width: 0.25"/>
    <path d="M 280.84343 239.522123 
L 202.887318 273.377878 
L 202.924287 241.926906 
L 281.109096 210.646895 
z
" clip-path="url(#pa5d8153d70)" style="fill: #00494f; stroke: #000000; stroke-width: 0.25"/>
    <path d="M 291.996913 240.727322 
L 214.797374 274.817351 
L 202.887318 273.377878 
L 280.84343 239.522123 
z
" clip-path="url(#pa5d8153d70)" style="fill: #005e65; stroke: #000000; stroke-width: 0.25"/>
    <path d="M 77.312785 258.200693 
L 77.312785 258.200693 
L 66.36897 256.878002 
L 66.36897 256.878002 
z
" clip-path="url(#pa5d8153d70)" style="fill: #00727b; stroke: #000000; stroke-width: 0.25"/>
    <path d="M 291.996913 240.727322 
L 214.797374 274.817351 
L 214.822639 264.320147 
L 292.096656 231.090753 
z
" clip-path="url(#pa5d8153d70)" style="fill: #00494f; stroke: #000000; stroke-width: 0.25"/>
    <path d="M 292.296739 211.760107 
L 281.109096 210.646895 
L 202.924287 241.926906 
L 214.873333 243.257246 
z
" clip-path="url(#pa5d8153d70)" style="fill: #008792; stroke: #000000; stroke-width: 0.25"/>
    <path d="M 291.996913 240.727322 
L 292.296739 211.760107 
L 214.873333 243.257246 
L 214.797374 274.817351 
z
" clip-path="url(#pa5d8153d70)" style="fill: #009ba8; stroke: #000000; stroke-width: 0.25"/>
    <path d="M 303.224261 241.940503 
L 226.793672 276.267247 
L 214.797374 274.817351 
L 291.996913 240.727322 
z
" clip-path="url(#pa5d8153d70)" style="fill: #005e65; stroke: #000000; stroke-width: 0.25"/>
    <path d="M 303.335517 232.273201 
L 292.096656 231.090753 
L 214.822639 264.320147 
L 226.832092 265.733575 
z
" clip-path="url(#pa5d8153d70)" style="fill: #008792; stroke: #000000; stroke-width: 0.25"/>
    <path d="M 88.332545 259.532563 
L 88.332545 259.532563 
L 77.312785 258.200693 
L 77.312785 258.200693 
z
" clip-path="url(#pa5d8153d70)" style="fill: #00727b; stroke: #000000; stroke-width: 0.25"/>
    <path d="M 303.224261 241.940503 
L 303.335517 232.273201 
L 226.832092 265.733575 
L 226.793672 276.267247 
z
" clip-path="url(#pa5d8153d70)" style="fill: #009ba8; stroke: #000000; stroke-width: 0.25"/>
    <path d="M 303.224261 241.940503 
L 226.793672 276.267247 
L 226.909185 244.597251 
L 303.558696 212.880713 
z
" clip-path="url(#pa5d8153d70)" style="fill: #00494f; stroke: #000000; stroke-width: 0.25"/>
    <path d="M 314.526211 243.161744 
L 238.877151 277.72768 
L 226.793672 276.267247 
L 303.224261 241.940503 
z
" clip-path="url(#pa5d8153d70)" style="fill: #005e65; stroke: #000000; stroke-width: 0.25"/>
    <path d="M 99.429044 260.873708 
L 99.429044 260.873708 
L 88.332545 259.532563 
L 88.332545 259.532563 
z
" clip-path="url(#pa5d8153d70)" style="fill: #00727b; stroke: #000000; stroke-width: 0.25"/>
    <path d="M 314.895708 214.008787 
L 303.558696 212.880713 
L 226.909185 244.597251 
L 239.032795 245.947027 
z
" clip-path="url(#pa5d8153d70)" style="fill: #008792; stroke: #000000; stroke-width: 0.25"/>
    <path d="M 314.526211 243.161744 
L 314.895708 214.008787 
L 239.032795 245.947027 
L 238.877151 277.72768 
z
" clip-path="url(#pa5d8153d70)" style="fill: #009ba8; stroke: #000000; stroke-width: 0.25"/>
    <path d="M 110.603086 262.224224 
L 110.603086 262.224224 
L 99.429044 260.873708 
L 99.429044 260.873708 
z
" clip-path="url(#pa5d8153d70)" style="fill: #00727b; stroke: #000000; stroke-width: 0.25"/>
    <path d="M 121.855487 263.584212 
L 121.855487 263.584212 
L 110.603086 262.224224 
L 110.603086 262.224224 
z
" clip-path="url(#pa5d8153d70)" style="fill: #00727b; stroke: #000000; stroke-width: 0.25"/>
    <path d="M 133.187074 264.95377 
L 133.125343 254.70495 
L 121.782022 253.369921 
L 121.855487 263.584212 
z
" clip-path="url(#pa5d8153d70)" style="fill: #00494f; stroke: #000000; stroke-width: 0.25"/>
    <path d="M 144.598686 266.332999 
L 144.598686 266.332999 
L 133.187074 264.95377 
L 133.187074 264.95377 
z
" clip-path="url(#pa5d8153d70)" style="fill: #00727b; stroke: #000000; stroke-width: 0.25"/>
    <path d="M 156.091173 267.722004 
L 156.091173 267.722004 
L 144.598686 266.332999 
L 144.598686 266.332999 
z
" clip-path="url(#pa5d8153d70)" style="fill: #00727b; stroke: #000000; stroke-width: 0.25"/>
    <path d="M 167.665398 269.120888 
L 167.665398 269.120888 
L 156.091173 267.722004 
L 156.091173 267.722004 
z
" clip-path="url(#pa5d8153d70)" style="fill: #00727b; stroke: #000000; stroke-width: 0.25"/>
    <path d="M 179.322237 270.529756 
L 179.322237 270.529756 
L 167.665398 269.120888 
L 167.665398 269.120888 
z
" clip-path="url(#pa5d8153d70)" style="fill: #00727b; stroke: #000000; stroke-width: 0.25"/>
    <path d="M 191.062577 271.948717 
L 191.06209 261.523697 
L 179.309149 260.140459 
L 179.322237 270.529756 
z
" clip-path="url(#pa5d8153d70)" style="fill: #00494f; stroke: #000000; stroke-width: 0.25"/>
    <path d="M 202.887318 273.377878 
L 202.887318 273.377878 
L 191.062577 271.948717 
L 191.062577 271.948717 
z
" clip-path="url(#pa5d8153d70)" style="fill: #00727b; stroke: #000000; stroke-width: 0.25"/>
    <path d="M 214.797374 274.817351 
L 214.873333 243.257246 
L 202.924287 241.926906 
L 202.887318 273.377878 
z
" clip-path="url(#pa5d8153d70)" style="fill: #00494f; stroke: #000000; stroke-width: 0.25"/>
    <path d="M 226.793672 276.267247 
L 226.832092 265.733575 
L 214.822639 264.320147 
L 214.797374 274.817351 
z
" clip-path="url(#pa5d8153d70)" style="fill: #00494f; stroke: #000000; stroke-width: 0.25"/>
    <path d="M 238.877151 277.72768 
L 239.032795 245.947027 
L 226.909185 244.597251 
L 226.793672 276.267247 
z
" clip-path="url(#pa5d8153d70)" style="fill: #00494f; stroke: #000000; stroke-width: 0.25"/>
   </g>
   <g id="text_15">
    <!-- Dawa Khan Sabir (PTI) - (Source: ECP Form-45s) -->
    <g transform="translate(7.2 17.077969) scale(0.13 -0.13)">
     <defs>
      <path id="DejaVuSansMono-Bold-77" d="M 0 3500 
L 763 3500 
L 1178 819 
L 1556 2584 
L 2297 2584 
L 2669 819 
L 3091 3500 
L 3853 3500 
L 3219 0 
L 2350 0 
L 1925 1819 
L 1503 0 
L 634 0 
L 0 3500 
z
" transform="scale(0.015625)"/>
      <path id="DejaVuSansMono-Bold-4b" d="M 366 4666 
L 1288 4666 
L 1288 2822 
L 2731 4666 
L 3775 4666 
L 2303 2828 
L 3828 0 
L 2803 0 
L 1697 2100 
L 1288 1581 
L 1288 0 
L 366 0 
L 366 4666 
z
" transform="scale(0.015625)"/>
      <path id="DejaVuSansMono-Bold-68" d="M 3347 2272 
L 3347 0 
L 2438 0 
L 2438 2131 
Q 2438 2509 2330 2671 
Q 2222 2834 1978 2834 
Q 1728 2834 1587 2614 
Q 1447 2394 1447 2003 
L 1447 0 
L 538 0 
L 538 4863 
L 1447 4863 
L 1447 2975 
Q 1544 3266 1778 3425 
Q 2013 3584 2344 3584 
Q 2841 3584 3094 3254 
Q 3347 2925 3347 2272 
z
" transform="scale(0.015625)"/>
      <path id="DejaVuSansMono-Bold-62" d="M 2656 1741 
Q 2656 2247 2487 2534 
Q 2319 2822 2022 2822 
Q 1725 2822 1553 2534 
Q 1381 2247 1381 1741 
Q 1381 1234 1553 946 
Q 1725 659 2022 659 
Q 2319 659 2487 946 
Q 2656 1234 2656 1741 
z
M 1381 3003 
Q 1550 3294 1773 3439 
Q 1997 3584 2278 3584 
Q 2900 3584 3236 3109 
Q 3572 2634 3572 1747 
Q 3572 872 3240 390 
Q 2909 -91 2309 -91 
Q 1994 -91 1759 62 
Q 1525 216 1381 519 
L 1381 0 
L 469 0 
L 469 4863 
L 1381 4863 
L 1381 3003 
z
" transform="scale(0.015625)"/>
      <path id="DejaVuSansMono-Bold-49" d="M 538 3853 
L 538 4666 
L 3316 4666 
L 3316 3853 
L 2388 3853 
L 2388 813 
L 3316 813 
L 3316 0 
L 538 0 
L 538 813 
L 1466 813 
L 1466 3853 
L 538 3853 
z
" transform="scale(0.015625)"/>
      <path id="DejaVuSansMono-Bold-3a" d="M 1403 3322 
L 2444 3322 
L 2444 2181 
L 1403 2181 
L 1403 3322 
z
M 1403 1147 
L 2444 1147 
L 2444 0 
L 1403 0 
L 1403 1147 
z
" transform="scale(0.015625)"/>
      <path id="DejaVuSansMono-Bold-45" d="M 3431 0 
L 525 0 
L 525 4666 
L 3431 4666 
L 3431 3853 
L 1447 3853 
L 1447 2847 
L 3244 2847 
L 3244 2034 
L 1447 2034 
L 1447 813 
L 3431 813 
L 3431 0 
z
" transform="scale(0.015625)"/>
      <path id="DejaVuSansMono-Bold-43" d="M 3378 134 
Q 3159 22 2918 -34 
Q 2678 -91 2413 -91 
Q 1469 -91 972 531 
Q 475 1153 475 2328 
Q 475 3506 972 4128 
Q 1469 4750 2413 4750 
Q 2678 4750 2922 4694 
Q 3166 4638 3378 4525 
L 3378 3500 
Q 3141 3719 2917 3820 
Q 2694 3922 2456 3922 
Q 1950 3922 1692 3520 
Q 1434 3119 1434 2328 
Q 1434 1541 1692 1139 
Q 1950 738 2456 738 
Q 2694 738 2917 839 
Q 3141 941 3378 1159 
L 3378 134 
z
" transform="scale(0.015625)"/>
      <path id="DejaVuSansMono-Bold-46" d="M 3475 3853 
L 1491 3853 
L 1491 2847 
L 3297 2847 
L 3297 2034 
L 1491 2034 
L 1491 0 
L 569 0 
L 569 4666 
L 3475 4666 
L 3475 3853 
z
" transform="scale(0.015625)"/>
      <path id="DejaVuSansMono-Bold-6d" d="M 2156 3150 
Q 2259 3372 2418 3478 
Q 2578 3584 2809 3584 
Q 3263 3584 3436 3271 
Q 3609 2959 3609 1972 
L 3609 0 
L 2859 0 
L 2859 2247 
Q 2859 2638 2800 2769 
Q 2741 2900 2584 2900 
Q 2428 2900 2365 2765 
Q 2303 2631 2303 2247 
L 2303 0 
L 1563 0 
L 1563 2247 
Q 1563 2631 1500 2765 
Q 1438 2900 1281 2900 
Q 1125 2900 1065 2769 
Q 1006 2638 1006 2247 
L 1006 0 
L 256 0 
L 256 3500 
L 922 3500 
L 922 3138 
Q 1000 3344 1172 3464 
Q 1344 3584 1556 3584 
Q 1769 3584 1944 3457 
Q 2119 3331 2156 3150 
z
" transform="scale(0.015625)"/>
      <path id="DejaVuSansMono-Bold-34" d="M 2169 3641 
L 991 1797 
L 2169 1797 
L 2169 3641 
z
M 2088 4666 
L 3053 4666 
L 3053 1797 
L 3566 1797 
L 3566 1006 
L 3053 1006 
L 3053 0 
L 2169 0 
L 2169 1006 
L 319 1006 
L 319 1900 
L 2088 4666 
z
" transform="scale(0.015625)"/>
      <path id="DejaVuSansMono-Bold-35" d="M 603 4666 
L 3138 4666 
L 3138 3853 
L 1350 3853 
L 1350 2988 
Q 1463 3031 1591 3051 
Q 1719 3072 1863 3072 
Q 2556 3072 2987 2634 
Q 3419 2197 3419 1497 
Q 3419 763 2951 336 
Q 2484 -91 1678 -91 
Q 1378 -91 1072 -41 
Q 766 9 447 109 
L 447 941 
Q 706 813 979 748 
Q 1253 684 1528 684 
Q 2016 684 2269 892 
Q 2522 1100 2522 1497 
Q 2522 1863 2270 2083 
Q 2019 2303 1600 2303 
Q 1353 2303 1104 2242 
Q 856 2181 603 2059 
L 603 4666 
z
" transform="scale(0.015625)"/>
     </defs>
     <use xlink:href="#DejaVuSansMono-Bold-44"/>
     <use xlink:href="#DejaVuSansMono-Bold-61" x="60.205078"/>
     <use xlink:href="#DejaVuSansMono-Bold-77" x="120.410156"/>
     <use xlink:href="#DejaVuSansMono-Bold-61" x="180.615234"/>
     <use xlink:href="#DejaVuSansMono-Bold-20" x="240.820312"/>
     <use xlink:href="#DejaVuSansMono-Bold-4b" x="301.025391"/>
     <use xlink:href="#DejaVuSansMono-Bold-68" x="361.230469"/>
     <use xlink:href="#DejaVuSansMono-Bold-61" x="421.435547"/>
     <use xlink:href="#DejaVuSansMono-Bold-6e" x="481.640625"/>
     <use xlink:href="#DejaVuSansMono-Bold-20" x="541.845703"/>
     <use xlink:href="#DejaVuSansMono-Bold-53" x="602.050781"/>
     <use xlink:href="#DejaVuSansMono-Bold-61" x="662.255859"/>
     <use xlink:href="#DejaVuSansMono-Bold-62" x="722.460938"/>
     <use xlink:href="#DejaVuSansMono-Bold-69" x="782.666016"/>
     <use xlink:href="#DejaVuSansMono-Bold-72" x="842.871094"/>
     <use xlink:href="#DejaVuSansMono-Bold-20" x="903.076172"/>
     <use xlink:href="#DejaVuSansMono-Bold-28" x="963.28125"/>
     <use xlink:href="#DejaVuSansMono-Bold-50" x="1023.486328"/>
     <use xlink:href="#DejaVuSansMono-Bold-54" x="1083.691406"/>
     <use xlink:href="#DejaVuSansMono-Bold-49" x="1143.896484"/>
     <use xlink:href="#DejaVuSansMono-Bold-29" x="1204.101562"/>
     <use xlink:href="#DejaVuSansMono-Bold-20" x="1264.306641"/>
     <use xlink:href="#DejaVuSansMono-Bold-2d" x="1324.511719"/>
     <use xlink:href="#DejaVuSansMono-Bold-20" x="1384.716797"/>
     <use xlink:href="#DejaVuSansMono-Bold-28" x="1444.921875"/>
     <use xlink:href="#DejaVuSansMono-Bold-53" x="1505.126953"/>
     <use xlink:href="#DejaVuSansMono-Bold-6f" x="1565.332031"/>
     <use xlink:href="#DejaVuSansMono-Bold-75" x="1625.537109"/>
     <use xlink:href="#DejaVuSansMono-Bold-72" x="1685.742188"/>
     <use xlink:href="#DejaVuSansMono-Bold-63" x="1745.947266"/>
     <use xlink:href="#DejaVuSansMono-Bold-65" x="1806.152344"/>
     <use xlink:href="#DejaVuSansMono-Bold-3a" x="1866.357422"/>
     <use xlink:href="#DejaVuSansMono-Bold-20" x="1926.5625"/>
     <use xlink:href="#DejaVuSansMono-Bold-45" x="1986.767578"/>
     <use xlink:href="#DejaVuSansMono-Bold-43" x="2046.972656"/>
     <use xlink:href="#DejaVuSansMono-Bold-50" x="2107.177734"/>
     <use xlink:href="#DejaVuSansMono-Bold-20" x="2167.382812"/>
     <use xlink:href="#DejaVuSansMono-Bold-46" x="2227.587891"/>
     <use xlink:href="#DejaVuSansMono-Bold-6f" x="2287.792969"/>
     <use xlink:href="#DejaVuSansMono-Bold-72" x="2347.998047"/>
     <use xlink:href="#DejaVuSansMono-Bold-6d" x="2408.203125"/>
     <use xlink:href="#DejaVuSansMono-Bold-2d" x="2468.408203"/>
     <use xlink:href="#DejaVuSansMono-Bold-34" x="2528.613281"/>
     <use xlink:href="#DejaVuSansMono-Bold-35" x="2588.818359"/>
     <use xlink:href="#DejaVuSansMono-Bold-73" x="2649.023438"/>
     <use xlink:href="#DejaVuSansMono-Bold-29" x="2709.228516"/>
    </g>
   </g>
  </g>
  <g id="patch_6">
   <path d="M 515.221889 341.797969 
L 833.941889 341.797969 
L 833.941889 23.077969 
L 515.221889 23.077969 
z
" style="fill: #ffffff"/>
  </g>
  <g id="pane3d_4">
   <g id="patch_7">
    <path d="M 639.882415 225.654717 
L 537.875997 262.629596 
L 535.617439 107.491343 
L 639.318016 84.968757 
" style="fill: #f1f1f1; stroke: #f1f1f1; stroke-linejoin: miter"/>
   </g>
  </g>
  <g id="pane3d_5">
   <g id="patch_8">
    <path d="M 813.278054 244.391128 
L 639.882415 225.654717 
L 639.318016 84.968757 
L 815.327872 96.373127 
" style="fill: #ffffff; stroke: #ffffff; stroke-linejoin: miter"/>
   </g>
  </g>
  <g id="pane3d_6">
   <g id="patch_9">
    <path d="M 813.278054 244.391128 
L 639.882415 225.654717 
L 537.875997 262.629596 
L 724.556591 285.646825 
" style="fill: #f0f0f0; stroke: #f0f0f0; stroke-linejoin: miter"/>
   </g>
  </g>
  <g id="grid3d_4">
   <g id="Line3DCollection_3">
    <path d="M 718.38842 284.886306 
L 807.57994 243.775413 
L 809.539529 95.998077 
" style="fill: none"/>
    <path d="M 693.942173 281.872147 
L 784.975853 241.33291 
L 786.580406 94.510465 
" style="fill: none"/>
    <path d="M 669.852281 278.901927 
L 762.668706 238.922492 
L 763.927417 93.042689 
" style="fill: none"/>
    <path d="M 646.111009 275.97469 
L 740.652683 236.543533 
L 741.57448 91.594355 
" style="fill: none"/>
    <path d="M 622.710842 273.089511 
L 718.922125 234.195419 
L 719.515672 90.165078 
" style="fill: none"/>
    <path d="M 599.644483 270.245489 
L 697.471514 231.877555 
L 697.745225 88.754485 
" style="fill: none"/>
    <path d="M 576.904839 267.44175 
L 676.295475 229.589361 
L 676.257523 87.362213 
" style="fill: none"/>
    <path d="M 554.485017 264.677445 
L 655.38877 227.330269 
L 655.047092 85.987906 
" style="fill: none"/>
   </g>
  </g>
  <g id="grid3d_5"/>
  <g id="grid3d_6">
   <g id="Line3DCollection_4">
    <path d="M 813.278054 244.391128 
L 639.882415 225.654717 
L 537.875997 262.629596 
" style="fill: none; stroke: #000000; stroke-width: 0.4"/>
    <path d="M 813.954449 195.548454 
L 639.696079 179.207439 
L 537.131098 211.463189 
" style="fill: none; stroke: #000000; stroke-width: 0.4"/>
    <path d="M 814.637686 146.211633 
L 639.507955 132.31427 
L 536.378288 159.75334 
" style="fill: none; stroke: #000000; stroke-width: 0.4"/>
    <path d="M 815.327872 96.373127 
L 639.318016 84.968757 
L 535.617439 107.491343 
" style="fill: none; stroke: #000000; stroke-width: 0.4"/>
   </g>
  </g>
  <g id="axis3d_4">
   <g id="line2d_16">
    <path d="M 537.875997 262.629596 
L 724.556591 285.646825 
" style="fill: none; stroke: #262626; stroke-width: 1.25; stroke-linecap: round"/>
   </g>
   <g id="xtick_13">
    <g id="line2d_17">
     <path d="M 719.180652 284.521144 
L 716.799717 285.618584 
" style="fill: none; stroke: #262626; stroke-width: 0.8; stroke-linecap: round"/>
    </g>
    <g id="text_16">
     <!-- 0 -->
     <g style="fill: #262626" transform="translate(710.216753 308.941163) rotate(-30) scale(0.1 -0.1)">
      <use xlink:href="#DejaVuSansMono-30"/>
     </g>
    </g>
   </g>
   <g id="xtick_14">
    <g id="line2d_18">
     <path d="M 694.750179 281.512325 
L 692.321871 282.593703 
" style="fill: none; stroke: #262626; stroke-width: 0.8; stroke-linecap: round"/>
    </g>
    <g id="text_17">
     <!-- 200 -->
     <g style="fill: #262626" transform="translate(680.448077 311.821024) rotate(-30) scale(0.1 -0.1)">
      <use xlink:href="#DejaVuSansMono-32"/>
      <use xlink:href="#DejaVuSansMono-30" x="60.205078"/>
      <use xlink:href="#DejaVuSansMono-30" x="120.410156"/>
     </g>
    </g>
   </g>
   <g id="xtick_15">
    <g id="line2d_19">
     <path d="M 670.675518 278.547329 
L 668.201467 279.612993 
" style="fill: none; stroke: #262626; stroke-width: 0.8; stroke-linecap: round"/>
    </g>
    <g id="text_18">
     <!-- 400 -->
     <g style="fill: #262626" transform="translate(656.253411 308.726648) rotate(-30) scale(0.1 -0.1)">
      <use xlink:href="#DejaVuSansMono-34"/>
      <use xlink:href="#DejaVuSansMono-30" x="60.205078"/>
      <use xlink:href="#DejaVuSansMono-30" x="120.410156"/>
     </g>
    </g>
   </g>
   <g id="xtick_16">
    <g id="line2d_20">
     <path d="M 646.948953 275.625203 
L 644.430733 276.675494 
" style="fill: none; stroke: #262626; stroke-width: 0.8; stroke-linecap: round"/>
    </g>
    <g id="text_19">
     <!-- 600 -->
     <g style="fill: #262626" transform="translate(632.41114 305.677343) rotate(-30) scale(0.1 -0.1)">
      <use xlink:href="#DejaVuSansMono-36"/>
      <use xlink:href="#DejaVuSansMono-30" x="60.205078"/>
      <use xlink:href="#DejaVuSansMono-30" x="120.410156"/>
     </g>
    </g>
   </g>
   <g id="xtick_17">
    <g id="line2d_21">
     <path d="M 623.562989 272.745024 
L 621.002121 273.780274 
" style="fill: none; stroke: #262626; stroke-width: 0.8; stroke-linecap: round"/>
    </g>
    <g id="text_20">
     <!-- 800 -->
     <g style="fill: #262626" transform="translate(608.913621 302.672129) rotate(-30) scale(0.1 -0.1)">
      <use xlink:href="#DejaVuSansMono-38"/>
      <use xlink:href="#DejaVuSansMono-30" x="60.205078"/>
      <use xlink:href="#DejaVuSansMono-30" x="120.410156"/>
     </g>
    </g>
   </g>
   <g id="xtick_18">
    <g id="line2d_22">
     <path d="M 600.510343 269.905897 
L 597.908296 270.926425 
" style="fill: none; stroke: #262626; stroke-width: 0.8; stroke-linecap: round"/>
    </g>
    <g id="text_21">
     <!-- 1000 -->
     <g style="fill: #262626" transform="translate(583.146559 302.720214) rotate(-30) scale(0.1 -0.1)">
      <use xlink:href="#DejaVuSansMono-31"/>
      <use xlink:href="#DejaVuSansMono-30" x="60.205078"/>
      <use xlink:href="#DejaVuSansMono-30" x="120.410156"/>
      <use xlink:href="#DejaVuSansMono-30" x="180.615234"/>
     </g>
    </g>
   </g>
   <g id="xtick_19">
    <g id="line2d_23">
     <path d="M 577.78394 267.10695 
L 575.142134 268.113067 
" style="fill: none; stroke: #262626; stroke-width: 0.8; stroke-linecap: round"/>
    </g>
    <g id="text_22">
     <!-- 1200 -->
     <g style="fill: #262626" transform="translate(560.316485 299.800363) rotate(-30) scale(0.1 -0.1)">
      <use xlink:href="#DejaVuSansMono-31"/>
      <use xlink:href="#DejaVuSansMono-32" x="60.205078"/>
      <use xlink:href="#DejaVuSansMono-30" x="120.410156"/>
      <use xlink:href="#DejaVuSansMono-30" x="180.615234"/>
     </g>
    </g>
   </g>
   <g id="xtick_20">
    <g id="line2d_24">
     <path d="M 555.376902 264.347335 
L 552.69671 265.339345 
" style="fill: none; stroke: #262626; stroke-width: 0.8; stroke-linecap: round"/>
    </g>
    <g id="text_23">
     <!-- 1400 -->
     <g style="fill: #262626" transform="translate(537.809518 296.921836) rotate(-30) scale(0.1 -0.1)">
      <use xlink:href="#DejaVuSansMono-31"/>
      <use xlink:href="#DejaVuSansMono-34" x="60.205078"/>
      <use xlink:href="#DejaVuSansMono-30" x="120.410156"/>
      <use xlink:href="#DejaVuSansMono-30" x="180.615234"/>
     </g>
    </g>
   </g>
   <g id="text_24">
    <!-- Turnout Difference (NA - PA) -->
    <g style="fill: #262626" transform="translate(505.749442 306.501105) rotate(-352.971056) scale(0.12 -0.12)">
     <use xlink:href="#DejaVuSansMono-Bold-54"/>
     <use xlink:href="#DejaVuSansMono-Bold-75" x="60.205078"/>
     <use xlink:href="#DejaVuSansMono-Bold-72" x="120.410156"/>
     <use xlink:href="#DejaVuSansMono-Bold-6e" x="180.615234"/>
     <use xlink:href="#DejaVuSansMono-Bold-6f" x="240.820312"/>
     <use xlink:href="#DejaVuSansMono-Bold-75" x="301.025391"/>
     <use xlink:href="#DejaVuSansMono-Bold-74" x="361.230469"/>
     <use xlink:href="#DejaVuSansMono-Bold-20" x="421.435547"/>
     <use xlink:href="#DejaVuSansMono-Bold-44" x="481.640625"/>
     <use xlink:href="#DejaVuSansMono-Bold-69" x="541.845703"/>
     <use xlink:href="#DejaVuSansMono-Bold-66" x="602.050781"/>
     <use xlink:href="#DejaVuSansMono-Bold-66" x="662.255859"/>
     <use xlink:href="#DejaVuSansMono-Bold-65" x="722.460938"/>
     <use xlink:href="#DejaVuSansMono-Bold-72" x="782.666016"/>
     <use xlink:href="#DejaVuSansMono-Bold-65" x="842.871094"/>
     <use xlink:href="#DejaVuSansMono-Bold-6e" x="903.076172"/>
     <use xlink:href="#DejaVuSansMono-Bold-63" x="963.28125"/>
     <use xlink:href="#DejaVuSansMono-Bold-65" x="1023.486328"/>
     <use xlink:href="#DejaVuSansMono-Bold-20" x="1083.691406"/>
     <use xlink:href="#DejaVuSansMono-Bold-28" x="1143.896484"/>
     <use xlink:href="#DejaVuSansMono-Bold-4e" x="1204.101562"/>
     <use xlink:href="#DejaVuSansMono-Bold-41" x="1264.306641"/>
     <use xlink:href="#DejaVuSansMono-Bold-20" x="1324.511719"/>
     <use xlink:href="#DejaVuSansMono-Bold-2d" x="1384.716797"/>
     <use xlink:href="#DejaVuSansMono-Bold-20" x="1444.921875"/>
     <use xlink:href="#DejaVuSansMono-Bold-50" x="1505.126953"/>
     <use xlink:href="#DejaVuSansMono-Bold-41" x="1565.332031"/>
     <use xlink:href="#DejaVuSansMono-Bold-29" x="1625.537109"/>
    </g>
   </g>
  </g>
  <g id="axis3d_5">
   <g id="line2d_25">
    <path d="M 813.278054 244.391128 
L 724.556591 285.646825 
" style="fill: none; stroke: #262626; stroke-width: 1.25; stroke-linecap: round"/>
   </g>
  </g>
  <g id="axis3d_6">
   <g id="line2d_26">
    <path d="M 813.278054 244.391128 
L 815.327872 96.373127 
" style="fill: none; stroke: #262626; stroke-width: 1.25; stroke-linecap: round"/>
   </g>
   <g id="xtick_21">
    <g id="line2d_27">
     <path d="M 811.817529 244.23331 
L 816.202847 244.707169 
" style="fill: none; stroke: #262626; stroke-width: 0.8; stroke-linecap: round"/>
    </g>
    <g id="text_25">
     <!-- 0 -->
     <g style="fill: #262626" transform="translate(828.391781 250.842438) scale(0.1 -0.1)">
      <use xlink:href="#DejaVuSansMono-30"/>
     </g>
    </g>
   </g>
   <g id="xtick_22">
    <g id="line2d_28">
     <path d="M 812.486286 195.410778 
L 816.894556 195.824161 
" style="fill: none; stroke: #262626; stroke-width: 0.8; stroke-linecap: round"/>
    </g>
    <g id="text_26">
     <!-- 5 -->
     <g style="fill: #262626" transform="translate(829.156892 202.152964) scale(0.1 -0.1)">
      <use xlink:href="#DejaVuSansMono-35"/>
     </g>
    </g>
   </g>
   <g id="xtick_23">
    <g id="line2d_29">
     <path d="M 813.161805 146.094515 
L 817.593268 146.446172 
" style="fill: none; stroke: #262626; stroke-width: 0.8; stroke-linecap: round"/>
    </g>
    <g id="text_27">
     <!-- 10 -->
     <g style="fill: #262626" transform="translate(826.919563 152.972505) scale(0.1 -0.1)">
      <use xlink:href="#DejaVuSansMono-31"/>
      <use xlink:href="#DejaVuSansMono-30" x="60.205078"/>
     </g>
    </g>
   </g>
   <g id="xtick_24">
    <g id="line2d_30">
     <path d="M 813.844191 96.276993 
L 818.299092 96.565644 
" style="fill: none; stroke: #262626; stroke-width: 0.8; stroke-linecap: round"/>
    </g>
    <g id="text_28">
     <!-- 15 -->
     <g style="fill: #262626" transform="translate(827.700222 103.293599) scale(0.1 -0.1)">
      <use xlink:href="#DejaVuSansMono-31"/>
      <use xlink:href="#DejaVuSansMono-35" x="60.205078"/>
     </g>
    </g>
   </g>
   <g id="text_29">
    <!-- Polling Stations -->
    <g style="fill: #262626" transform="translate(862.460595 216.70983) rotate(-89.206594) scale(0.1 -0.1)">
     <use xlink:href="#DejaVuSansMono-Bold-50"/>
     <use xlink:href="#DejaVuSansMono-Bold-6f" x="60.205078"/>
     <use xlink:href="#DejaVuSansMono-Bold-6c" x="120.410156"/>
     <use xlink:href="#DejaVuSansMono-Bold-6c" x="180.615234"/>
     <use xlink:href="#DejaVuSansMono-Bold-69" x="240.820312"/>
     <use xlink:href="#DejaVuSansMono-Bold-6e" x="301.025391"/>
     <use xlink:href="#DejaVuSansMono-Bold-67" x="361.230469"/>
     <use xlink:href="#DejaVuSansMono-Bold-20" x="421.435547"/>
     <use xlink:href="#DejaVuSansMono-Bold-53" x="481.640625"/>
     <use xlink:href="#DejaVuSansMono-Bold-74" x="541.845703"/>
     <use xlink:href="#DejaVuSansMono-Bold-61" x="602.050781"/>
     <use xlink:href="#DejaVuSansMono-Bold-74" x="662.255859"/>
     <use xlink:href="#DejaVuSansMono-Bold-69" x="722.460938"/>
     <use xlink:href="#DejaVuSansMono-Bold-6f" x="782.666016"/>
     <use xlink:href="#DejaVuSansMono-Bold-6e" x="842.871094"/>
     <use xlink:href="#DejaVuSansMono-Bold-73" x="903.076172"/>
    </g>
   </g>
  </g>
  <g id="axes_2">
   <g id="Poly3DCollection_2">
    <path d="M 650.203576 226.769979 
L 639.882415 225.654717 
L 639.808094 207.128905 
L 650.148746 208.187373 
z
" clip-path="url(#ped69ec2eca)" style="fill: #d85466; stroke: #000000; stroke-width: 0.25"/>
    <path d="M 660.590478 227.892344 
L 650.203576 226.769979 
L 650.176187 217.487547 
L 660.572951 218.581397 
z
" clip-path="url(#ped69ec2eca)" style="fill: #d85466; stroke: #000000; stroke-width: 0.25"/>
    <path d="M 671.04375 229.021881 
L 660.590478 227.892344 
L 660.572951 218.581397 
L 671.036212 219.682243 
z
" clip-path="url(#ped69ec2eca)" style="fill: #d85466; stroke: #000000; stroke-width: 0.25"/>
    <path d="M 681.564032 230.158659 
L 671.04375 229.021881 
L 671.028659 210.324638 
L 681.569195 211.403566 
z
" clip-path="url(#ped69ec2eca)" style="fill: #d85466; stroke: #000000; stroke-width: 0.25"/>
    <path d="M 692.15197 231.302748 
L 681.564032 230.158659 
L 681.576976 183.134805 
L 692.216352 184.132508 
z
" clip-path="url(#ped69ec2eca)" style="fill: #d85466; stroke: #000000; stroke-width: 0.25"/>
    <path d="M 702.808218 232.454217 
L 692.15197 231.302748 
L 692.268309 146.065308 
L 703.018712 146.949527 
z
" clip-path="url(#ped69ec2eca)" style="fill: #d85466; stroke: #000000; stroke-width: 0.25"/>
    <path d="M 713.533439 233.61314 
L 702.808218 232.454217 
L 703.04233 137.356019 
L 713.873633 138.215534 
z
" clip-path="url(#ped69ec2eca)" style="fill: #d85466; stroke: #000000; stroke-width: 0.25"/>
    <path d="M 724.328307 234.779589 
L 713.533439 233.61314 
L 713.66872 195.677604 
L 724.506317 196.72497 
z
" clip-path="url(#ped69ec2eca)" style="fill: #d85466; stroke: #000000; stroke-width: 0.25"/>
    <path d="M 735.1935 235.953636 
L 724.328307 234.779589 
L 724.595847 177.585631 
L 735.526099 178.57921 
z
" clip-path="url(#ped69ec2eca)" style="fill: #d85466; stroke: #000000; stroke-width: 0.25"/>
    <path d="M 746.129708 237.135357 
L 735.1935 235.953636 
L 735.359309 207.350903 
L 746.328373 208.442365 
z
" clip-path="url(#ped69ec2eca)" style="fill: #d85466; stroke: #000000; stroke-width: 0.25"/>
    <path d="M 757.137631 238.324827 
L 746.129708 237.135357 
L 746.262021 218.025516 
L 757.29211 219.154555 
z
" clip-path="url(#ped69ec2eca)" style="fill: #d85466; stroke: #000000; stroke-width: 0.25"/>
    <path d="M 768.217975 239.522123 
L 757.137631 238.324827 
L 757.214794 228.749143 
L 768.306355 229.916093 
z
" clip-path="url(#ped69ec2eca)" style="fill: #d85466; stroke: #000000; stroke-width: 0.25"/>
    <path d="M 779.371458 240.727322 
L 768.217975 239.522123 
L 768.572549 200.983615 
L 779.771625 202.065915 
z
" clip-path="url(#ped69ec2eca)" style="fill: #d85466; stroke: #000000; stroke-width: 0.25"/>
    <path d="M 639.882415 225.654717 
L 553.743515 256.878002 
L 553.483832 236.767011 
L 639.808094 207.128905 
z
" clip-path="url(#ped69ec2eca)" style="fill: #662830; stroke: #000000; stroke-width: 0.25"/>
    <path d="M 650.203576 226.769979 
L 564.68733 258.200693 
L 553.743515 256.878002 
L 639.882415 225.654717 
z
" clip-path="url(#ped69ec2eca)" style="fill: #82333e; stroke: #000000; stroke-width: 0.25"/>
    <path d="M 790.598807 241.940503 
L 779.371458 240.727322 
L 779.671285 211.760107 
L 790.933241 212.880713 
z
" clip-path="url(#ped69ec2eca)" style="fill: #d85466; stroke: #000000; stroke-width: 0.25"/>
    <path d="M 650.148746 208.187373 
L 639.808094 207.128905 
L 553.483832 236.767011 
L 564.449535 238.022772 
z
" clip-path="url(#ped69ec2eca)" style="fill: #bb4959; stroke: #000000; stroke-width: 0.25"/>
    <path d="M 650.203576 226.769979 
L 564.68733 258.200693 
L 564.568556 248.122225 
L 650.176187 217.487547 
z
" clip-path="url(#ped69ec2eca)" style="fill: #662830; stroke: #000000; stroke-width: 0.25"/>
    <path d="M 650.203576 226.769979 
L 650.148746 208.187373 
L 564.449535 238.022772 
L 564.68733 258.200693 
z
" clip-path="url(#ped69ec2eca)" style="fill: #d85466; stroke: #000000; stroke-width: 0.25"/>
    <path d="M 660.590478 227.892344 
L 575.707091 259.532563 
L 564.68733 258.200693 
L 650.203576 226.769979 
z
" clip-path="url(#ped69ec2eca)" style="fill: #82333e; stroke: #000000; stroke-width: 0.25"/>
    <path d="M 801.900757 243.161744 
L 790.598807 241.940503 
L 790.933241 212.880713 
L 802.270254 214.008787 
z
" clip-path="url(#ped69ec2eca)" style="fill: #d85466; stroke: #000000; stroke-width: 0.25"/>
    <path d="M 660.572951 218.581397 
L 650.176187 217.487547 
L 564.568556 248.122225 
L 575.599405 249.420479 
z
" clip-path="url(#ped69ec2eca)" style="fill: #bb4959; stroke: #000000; stroke-width: 0.25"/>
    <path d="M 660.590478 227.892344 
L 575.707091 259.532563 
L 575.599405 249.420479 
L 660.572951 218.581397 
z
" clip-path="url(#ped69ec2eca)" style="fill: #662830; stroke: #000000; stroke-width: 0.25"/>
    <path d="M 660.590478 227.892344 
L 660.572951 218.581397 
L 575.599405 249.420479 
L 575.707091 259.532563 
z
" clip-path="url(#ped69ec2eca)" style="fill: #d85466; stroke: #000000; stroke-width: 0.25"/>
    <path d="M 671.04375 229.021881 
L 586.80359 260.873708 
L 575.707091 259.532563 
L 660.590478 227.892344 
z
" clip-path="url(#ped69ec2eca)" style="fill: #82333e; stroke: #000000; stroke-width: 0.25"/>
    <path d="M 671.036212 219.682243 
L 660.572951 218.581397 
L 575.599405 249.420479 
L 586.70715 250.727782 
z
" clip-path="url(#ped69ec2eca)" style="fill: #bb4959; stroke: #000000; stroke-width: 0.25"/>
    <path d="M 671.04375 229.021881 
L 671.036212 219.682243 
L 586.70715 250.727782 
L 586.80359 260.873708 
z
" clip-path="url(#ped69ec2eca)" style="fill: #d85466; stroke: #000000; stroke-width: 0.25"/>
    <path d="M 671.04375 229.021881 
L 586.80359 260.873708 
L 586.610508 240.560583 
L 671.028659 210.324638 
z
" clip-path="url(#ped69ec2eca)" style="fill: #662830; stroke: #000000; stroke-width: 0.25"/>
    <path d="M 681.564032 230.158659 
L 597.977632 262.224224 
L 586.80359 260.873708 
L 671.04375 229.021881 
z
" clip-path="url(#ped69ec2eca)" style="fill: #82333e; stroke: #000000; stroke-width: 0.25"/>
    <path d="M 681.569195 211.403566 
L 671.028659 210.324638 
L 586.610508 240.560583 
L 597.807385 241.842817 
z
" clip-path="url(#ped69ec2eca)" style="fill: #bb4959; stroke: #000000; stroke-width: 0.25"/>
    <path d="M 681.564032 230.158659 
L 681.569195 211.403566 
L 597.807385 241.842817 
L 597.977632 262.224224 
z
" clip-path="url(#ped69ec2eca)" style="fill: #d85466; stroke: #000000; stroke-width: 0.25"/>
    <path d="M 692.15197 231.302748 
L 609.230033 263.584212 
L 597.977632 262.224224 
L 681.564032 230.158659 
z
" clip-path="url(#ped69ec2eca)" style="fill: #82333e; stroke: #000000; stroke-width: 0.25"/>
    <path d="M 681.564032 230.158659 
L 597.977632 262.224224 
L 597.550668 211.109379 
L 681.576976 183.134805 
z
" clip-path="url(#ped69ec2eca)" style="fill: #662830; stroke: #000000; stroke-width: 0.25"/>
    <path d="M 702.808218 232.454217 
L 620.56162 264.95377 
L 609.230033 263.584212 
L 692.15197 231.302748 
z
" clip-path="url(#ped69ec2eca)" style="fill: #82333e; stroke: #000000; stroke-width: 0.25"/>
    <path d="M 692.15197 231.302748 
L 692.216352 184.132508 
L 608.861151 212.296396 
L 609.230033 263.584212 
z
" clip-path="url(#ped69ec2eca)" style="fill: #d85466; stroke: #000000; stroke-width: 0.25"/>
    <path d="M 692.216352 184.132508 
L 681.576976 183.134805 
L 597.550668 211.109379 
L 608.861151 212.296396 
z
" clip-path="url(#ped69ec2eca)" style="fill: #bb4959; stroke: #000000; stroke-width: 0.25"/>
    <path d="M 692.15197 231.302748 
L 609.230033 263.584212 
L 608.563221 170.87338 
L 692.268309 146.065308 
z
" clip-path="url(#ped69ec2eca)" style="fill: #662830; stroke: #000000; stroke-width: 0.25"/>
    <path d="M 713.533439 233.61314 
L 631.973231 266.332999 
L 620.56162 264.95377 
L 702.808218 232.454217 
z
" clip-path="url(#ped69ec2eca)" style="fill: #82333e; stroke: #000000; stroke-width: 0.25"/>
    <path d="M 702.808218 232.454217 
L 703.018712 146.949527 
L 620.001296 171.926747 
L 620.56162 264.95377 
z
" clip-path="url(#ped69ec2eca)" style="fill: #d85466; stroke: #000000; stroke-width: 0.25"/>
    <path d="M 724.328307 234.779589 
L 643.465718 267.722004 
L 631.973231 266.332999 
L 713.533439 233.61314 
z
" clip-path="url(#ped69ec2eca)" style="fill: #82333e; stroke: #000000; stroke-width: 0.25"/>
    <path d="M 702.808218 232.454217 
L 620.56162 264.95377 
L 619.938373 161.479963 
L 703.04233 137.356019 
z
" clip-path="url(#ped69ec2eca)" style="fill: #662830; stroke: #000000; stroke-width: 0.25"/>
    <path d="M 713.533439 233.61314 
L 631.973231 266.332999 
L 631.773278 225.067185 
L 713.66872 195.677604 
z
" clip-path="url(#ped69ec2eca)" style="fill: #662830; stroke: #000000; stroke-width: 0.25"/>
    <path d="M 703.018712 146.949527 
L 692.268309 146.065308 
L 608.563221 170.87338 
L 620.001296 171.926747 
z
" clip-path="url(#ped69ec2eca)" style="fill: #bb4959; stroke: #000000; stroke-width: 0.25"/>
    <path d="M 735.1935 235.953636 
L 655.039944 269.120888 
L 643.465718 267.722004 
L 724.328307 234.779589 
z
" clip-path="url(#ped69ec2eca)" style="fill: #82333e; stroke: #000000; stroke-width: 0.25"/>
    <path d="M 713.533439 233.61314 
L 713.873633 138.215534 
L 631.470132 162.504695 
L 631.973231 266.332999 
z
" clip-path="url(#ped69ec2eca)" style="fill: #d85466; stroke: #000000; stroke-width: 0.25"/>
    <path d="M 724.328307 234.779589 
L 724.506317 196.72497 
L 643.314209 226.315277 
L 643.465718 267.722004 
z
" clip-path="url(#ped69ec2eca)" style="fill: #d85466; stroke: #000000; stroke-width: 0.25"/>
    <path d="M 724.506317 196.72497 
L 713.66872 195.677604 
L 631.773278 225.067185 
L 643.314209 226.315277 
z
" clip-path="url(#ped69ec2eca)" style="fill: #bb4959; stroke: #000000; stroke-width: 0.25"/>
    <path d="M 724.328307 234.779589 
L 643.465718 267.722004 
L 643.237967 205.478803 
L 724.595847 177.585631 
z
" clip-path="url(#ped69ec2eca)" style="fill: #662830; stroke: #000000; stroke-width: 0.25"/>
    <path d="M 735.1935 235.953636 
L 655.039944 269.120888 
L 654.963249 237.992839 
L 735.359309 207.350903 
z
" clip-path="url(#ped69ec2eca)" style="fill: #662830; stroke: #000000; stroke-width: 0.25"/>
    <path d="M 746.129708 237.135357 
L 666.696782 270.529756 
L 655.039944 269.120888 
L 735.1935 235.953636 
z
" clip-path="url(#ped69ec2eca)" style="fill: #82333e; stroke: #000000; stroke-width: 0.25"/>
    <path d="M 713.873633 138.215534 
L 703.04233 137.356019 
L 619.938373 161.479963 
L 631.470132 162.504695 
z
" clip-path="url(#ped69ec2eca)" style="fill: #bb4959; stroke: #000000; stroke-width: 0.25"/>
    <path d="M 735.1935 235.953636 
L 735.526099 178.57921 
L 654.886059 206.663938 
L 655.039944 269.120888 
z
" clip-path="url(#ped69ec2eca)" style="fill: #d85466; stroke: #000000; stroke-width: 0.25"/>
    <path d="M 746.129708 237.135357 
L 666.696782 270.529756 
L 666.670578 249.728832 
L 746.262021 218.025516 
z
" clip-path="url(#ped69ec2eca)" style="fill: #662830; stroke: #000000; stroke-width: 0.25"/>
    <path d="M 735.526099 178.57921 
L 724.595847 177.585631 
L 643.237967 205.478803 
L 654.886059 206.663938 
z
" clip-path="url(#ped69ec2eca)" style="fill: #bb4959; stroke: #000000; stroke-width: 0.25"/>
    <path d="M 746.328373 208.442365 
L 735.359309 207.350903 
L 654.963249 237.992839 
L 666.657434 239.294804 
z
" clip-path="url(#ped69ec2eca)" style="fill: #bb4959; stroke: #000000; stroke-width: 0.25"/>
    <path d="M 746.129708 237.135357 
L 746.328373 208.442365 
L 666.657434 239.294804 
L 666.696782 270.529756 
z
" clip-path="url(#ped69ec2eca)" style="fill: #d85466; stroke: #000000; stroke-width: 0.25"/>
    <path d="M 757.137631 238.324827 
L 678.437122 271.948717 
L 666.696782 270.529756 
L 746.129708 237.135357 
z
" clip-path="url(#ped69ec2eca)" style="fill: #82333e; stroke: #000000; stroke-width: 0.25"/>
    <path d="M 757.29211 219.154555 
L 746.262021 218.025516 
L 666.670578 249.728832 
L 678.436147 251.076192 
z
" clip-path="url(#ped69ec2eca)" style="fill: #bb4959; stroke: #000000; stroke-width: 0.25"/>
    <path d="M 757.137631 238.324827 
L 678.437122 271.948717 
L 678.436635 261.523697 
L 757.214794 228.749143 
z
" clip-path="url(#ped69ec2eca)" style="fill: #662830; stroke: #000000; stroke-width: 0.25"/>
    <path d="M 757.137631 238.324827 
L 757.29211 219.154555 
L 678.436147 251.076192 
L 678.437122 271.948717 
z
" clip-path="url(#ped69ec2eca)" style="fill: #d85466; stroke: #000000; stroke-width: 0.25"/>
    <path d="M 768.217975 239.522123 
L 690.261863 273.377878 
L 678.437122 271.948717 
L 757.137631 238.324827 
z
" clip-path="url(#ped69ec2eca)" style="fill: #82333e; stroke: #000000; stroke-width: 0.25"/>
    <path d="M 768.306355 229.916093 
L 757.214794 228.749143 
L 678.436635 261.523697 
L 690.27416 262.916891 
z
" clip-path="url(#ped69ec2eca)" style="fill: #bb4959; stroke: #000000; stroke-width: 0.25"/>
    <path d="M 768.217975 239.522123 
L 768.306355 229.916093 
L 690.27416 262.916891 
L 690.261863 273.377878 
z
" clip-path="url(#ped69ec2eca)" style="fill: #d85466; stroke: #000000; stroke-width: 0.25"/>
    <path d="M 779.371458 240.727322 
L 702.171919 274.817351 
L 690.261863 273.377878 
L 768.217975 239.522123 
z
" clip-path="url(#ped69ec2eca)" style="fill: #82333e; stroke: #000000; stroke-width: 0.25"/>
    <path d="M 768.217975 239.522123 
L 690.261863 273.377878 
L 690.311209 231.397761 
L 768.572549 200.983615 
z
" clip-path="url(#ped69ec2eca)" style="fill: #662830; stroke: #000000; stroke-width: 0.25"/>
    <path d="M 564.68733 258.200693 
L 564.449535 238.022772 
L 553.483832 236.767011 
L 553.743515 256.878002 
z
" clip-path="url(#ped69ec2eca)" style="fill: #662830; stroke: #000000; stroke-width: 0.25"/>
    <path d="M 779.371458 240.727322 
L 702.171919 274.817351 
L 702.247878 243.257246 
L 779.671285 211.760107 
z
" clip-path="url(#ped69ec2eca)" style="fill: #662830; stroke: #000000; stroke-width: 0.25"/>
    <path d="M 790.598807 241.940503 
L 714.168217 276.267247 
L 702.171919 274.817351 
L 779.371458 240.727322 
z
" clip-path="url(#ped69ec2eca)" style="fill: #82333e; stroke: #000000; stroke-width: 0.25"/>
    <path d="M 779.371458 240.727322 
L 779.771625 202.065915 
L 702.273308 232.691401 
L 702.171919 274.817351 
z
" clip-path="url(#ped69ec2eca)" style="fill: #d85466; stroke: #000000; stroke-width: 0.25"/>
    <path d="M 779.771625 202.065915 
L 768.572549 200.983615 
L 690.311209 231.397761 
L 702.273308 232.691401 
z
" clip-path="url(#ped69ec2eca)" style="fill: #bb4959; stroke: #000000; stroke-width: 0.25"/>
    <path d="M 575.707091 259.532563 
L 575.599405 249.420479 
L 564.568556 248.122225 
L 564.68733 258.200693 
z
" clip-path="url(#ped69ec2eca)" style="fill: #662830; stroke: #000000; stroke-width: 0.25"/>
    <path d="M 790.933241 212.880713 
L 779.671285 211.760107 
L 702.247878 243.257246 
L 714.283731 244.597251 
z
" clip-path="url(#ped69ec2eca)" style="fill: #bb4959; stroke: #000000; stroke-width: 0.25"/>
    <path d="M 790.598807 241.940503 
L 714.168217 276.267247 
L 714.283731 244.597251 
L 790.933241 212.880713 
z
" clip-path="url(#ped69ec2eca)" style="fill: #662830; stroke: #000000; stroke-width: 0.25"/>
    <path d="M 790.598807 241.940503 
L 790.933241 212.880713 
L 714.283731 244.597251 
L 714.168217 276.267247 
z
" clip-path="url(#ped69ec2eca)" style="fill: #d85466; stroke: #000000; stroke-width: 0.25"/>
    <path d="M 801.900757 243.161744 
L 726.251697 277.72768 
L 714.168217 276.267247 
L 790.598807 241.940503 
z
" clip-path="url(#ped69ec2eca)" style="fill: #82333e; stroke: #000000; stroke-width: 0.25"/>
    <path d="M 586.80359 260.873708 
L 586.70715 250.727782 
L 575.599405 249.420479 
L 575.707091 259.532563 
z
" clip-path="url(#ped69ec2eca)" style="fill: #662830; stroke: #000000; stroke-width: 0.25"/>
    <path d="M 802.270254 214.008787 
L 790.933241 212.880713 
L 714.283731 244.597251 
L 726.40734 245.947027 
z
" clip-path="url(#ped69ec2eca)" style="fill: #bb4959; stroke: #000000; stroke-width: 0.25"/>
    <path d="M 801.900757 243.161744 
L 802.270254 214.008787 
L 726.40734 245.947027 
L 726.251697 277.72768 
z
" clip-path="url(#ped69ec2eca)" style="fill: #d85466; stroke: #000000; stroke-width: 0.25"/>
    <path d="M 597.977632 262.224224 
L 597.807385 241.842817 
L 586.610508 240.560583 
L 586.80359 260.873708 
z
" clip-path="url(#ped69ec2eca)" style="fill: #662830; stroke: #000000; stroke-width: 0.25"/>
    <path d="M 609.230033 263.584212 
L 608.861151 212.296396 
L 597.550668 211.109379 
L 597.977632 262.224224 
z
" clip-path="url(#ped69ec2eca)" style="fill: #662830; stroke: #000000; stroke-width: 0.25"/>
    <path d="M 620.56162 264.95377 
L 620.001296 171.926747 
L 608.563221 170.87338 
L 609.230033 263.584212 
z
" clip-path="url(#ped69ec2eca)" style="fill: #662830; stroke: #000000; stroke-width: 0.25"/>
    <path d="M 631.973231 266.332999 
L 631.470132 162.504695 
L 619.938373 161.479963 
L 620.56162 264.95377 
z
" clip-path="url(#ped69ec2eca)" style="fill: #662830; stroke: #000000; stroke-width: 0.25"/>
    <path d="M 643.465718 267.722004 
L 643.314209 226.315277 
L 631.773278 225.067185 
L 631.973231 266.332999 
z
" clip-path="url(#ped69ec2eca)" style="fill: #662830; stroke: #000000; stroke-width: 0.25"/>
    <path d="M 655.039944 269.120888 
L 654.886059 206.663938 
L 643.237967 205.478803 
L 643.465718 267.722004 
z
" clip-path="url(#ped69ec2eca)" style="fill: #662830; stroke: #000000; stroke-width: 0.25"/>
    <path d="M 666.696782 270.529756 
L 666.657434 239.294804 
L 654.963249 237.992839 
L 655.039944 269.120888 
z
" clip-path="url(#ped69ec2eca)" style="fill: #662830; stroke: #000000; stroke-width: 0.25"/>
    <path d="M 678.437122 271.948717 
L 678.436147 251.076192 
L 666.670578 249.728832 
L 666.696782 270.529756 
z
" clip-path="url(#ped69ec2eca)" style="fill: #662830; stroke: #000000; stroke-width: 0.25"/>
    <path d="M 690.261863 273.377878 
L 690.27416 262.916891 
L 678.436635 261.523697 
L 678.437122 271.948717 
z
" clip-path="url(#ped69ec2eca)" style="fill: #662830; stroke: #000000; stroke-width: 0.25"/>
    <path d="M 702.171919 274.817351 
L 702.273308 232.691401 
L 690.311209 231.397761 
L 690.261863 273.377878 
z
" clip-path="url(#ped69ec2eca)" style="fill: #662830; stroke: #000000; stroke-width: 0.25"/>
    <path d="M 714.168217 276.267247 
L 714.283731 244.597251 
L 702.247878 243.257246 
L 702.171919 274.817351 
z
" clip-path="url(#ped69ec2eca)" style="fill: #662830; stroke: #000000; stroke-width: 0.25"/>
    <path d="M 726.251697 277.72768 
L 726.40734 245.947027 
L 714.283731 244.597251 
L 714.168217 276.267247 
z
" clip-path="url(#ped69ec2eca)" style="fill: #662830; stroke: #000000; stroke-width: 0.25"/>
   </g>
   <g id="text_30">
    <!-- Syed Mustafa Kamal (MQM) - (Source: ECP Form-45s) -->
    <g transform="translate(482.834936 17.077969) scale(0.13 -0.13)">
     <defs>
      <path id="DejaVuSansMono-Bold-79" d="M 2222 -378 
Q 2038 -872 1780 -1098 
Q 1522 -1325 1153 -1325 
L 397 -1325 
L 397 -628 
L 769 -628 
Q 1050 -628 1181 -533 
Q 1313 -438 1447 -91 
L 1516 97 
L 184 3500 
L 1147 3500 
L 1947 1228 
L 2713 3500 
L 3675 3500 
L 2222 -378 
z
" transform="scale(0.015625)"/>
      <path id="DejaVuSansMono-Bold-64" d="M 2472 3003 
L 2472 4863 
L 3384 4863 
L 3384 0 
L 2472 0 
L 2472 519 
Q 2325 216 2092 62 
Q 1859 -91 1544 -91 
Q 944 -91 612 390 
Q 281 872 281 1747 
Q 281 2634 617 3109 
Q 953 3584 1575 3584 
Q 1856 3584 2079 3439 
Q 2303 3294 2472 3003 
z
M 1197 1741 
Q 1197 1234 1365 946 
Q 1534 659 1831 659 
Q 2128 659 2300 946 
Q 2472 1234 2472 1741 
Q 2472 2247 2300 2534 
Q 2128 2822 1831 2822 
Q 1534 2822 1365 2534 
Q 1197 2247 1197 1741 
z
" transform="scale(0.015625)"/>
      <path id="DejaVuSansMono-Bold-4d" d="M 269 4666 
L 1369 4666 
L 1925 2619 
L 2478 4666 
L 3584 4666 
L 3584 0 
L 2791 0 
L 2791 3738 
L 2297 1697 
L 1563 1697 
L 1063 3738 
L 1063 0 
L 269 0 
L 269 4666 
z
" transform="scale(0.015625)"/>
      <path id="DejaVuSansMono-Bold-51" d="M 2050 -72 
Q 2006 -81 1976 -86 
Q 1947 -91 1919 -91 
Q 1116 -91 702 521 
Q 288 1134 288 2328 
Q 288 3525 702 4137 
Q 1116 4750 1925 4750 
Q 2738 4750 3152 4137 
Q 3566 3525 3566 2328 
Q 3566 1506 3369 951 
Q 3172 397 2797 159 
L 3378 -409 
L 2747 -878 
L 2050 -72 
z
M 1925 3922 
Q 1572 3922 1409 3545 
Q 1247 3169 1247 2328 
Q 1247 1491 1409 1114 
Q 1572 738 1925 738 
Q 2281 738 2443 1114 
Q 2606 1491 2606 2328 
Q 2606 3169 2443 3545 
Q 2281 3922 1925 3922 
z
" transform="scale(0.015625)"/>
     </defs>
     <use xlink:href="#DejaVuSansMono-Bold-53"/>
     <use xlink:href="#DejaVuSansMono-Bold-79" x="60.205078"/>
     <use xlink:href="#DejaVuSansMono-Bold-65" x="120.410156"/>
     <use xlink:href="#DejaVuSansMono-Bold-64" x="180.615234"/>
     <use xlink:href="#DejaVuSansMono-Bold-20" x="240.820312"/>
     <use xlink:href="#DejaVuSansMono-Bold-4d" x="301.025391"/>
     <use xlink:href="#DejaVuSansMono-Bold-75" x="361.230469"/>
     <use xlink:href="#DejaVuSansMono-Bold-73" x="421.435547"/>
     <use xlink:href="#DejaVuSansMono-Bold-74" x="481.640625"/>
     <use xlink:href="#DejaVuSansMono-Bold-61" x="541.845703"/>
     <use xlink:href="#DejaVuSansMono-Bold-66" x="602.050781"/>
     <use xlink:href="#DejaVuSansMono-Bold-61" x="662.255859"/>
     <use xlink:href="#DejaVuSansMono-Bold-20" x="722.460938"/>
     <use xlink:href="#DejaVuSansMono-Bold-4b" x="782.666016"/>
     <use xlink:href="#DejaVuSansMono-Bold-61" x="842.871094"/>
     <use xlink:href="#DejaVuSansMono-Bold-6d" x="903.076172"/>
     <use xlink:href="#DejaVuSansMono-Bold-61" x="963.28125"/>
     <use xlink:href="#DejaVuSansMono-Bold-6c" x="1023.486328"/>
     <use xlink:href="#DejaVuSansMono-Bold-20" x="1083.691406"/>
     <use xlink:href="#DejaVuSansMono-Bold-28" x="1143.896484"/>
     <use xlink:href="#DejaVuSansMono-Bold-4d" x="1204.101562"/>
     <use xlink:href="#DejaVuSansMono-Bold-51" x="1264.306641"/>
     <use xlink:href="#DejaVuSansMono-Bold-4d" x="1324.511719"/>
     <use xlink:href="#DejaVuSansMono-Bold-29" x="1384.716797"/>
     <use xlink:href="#DejaVuSansMono-Bold-20" x="1444.921875"/>
     <use xlink:href="#DejaVuSansMono-Bold-2d" x="1505.126953"/>
     <use xlink:href="#DejaVuSansMono-Bold-20" x="1565.332031"/>
     <use xlink:href="#DejaVuSansMono-Bold-28" x="1625.537109"/>
     <use xlink:href="#DejaVuSansMono-Bold-53" x="1685.742188"/>
     <use xlink:href="#DejaVuSansMono-Bold-6f" x="1745.947266"/>
     <use xlink:href="#DejaVuSansMono-Bold-75" x="1806.152344"/>
     <use xlink:href="#DejaVuSansMono-Bold-72" x="1866.357422"/>
     <use xlink:href="#DejaVuSansMono-Bold-63" x="1926.5625"/>
     <use xlink:href="#DejaVuSansMono-Bold-65" x="1986.767578"/>
     <use xlink:href="#DejaVuSansMono-Bold-3a" x="2046.972656"/>
     <use xlink:href="#DejaVuSansMono-Bold-20" x="2107.177734"/>
     <use xlink:href="#DejaVuSansMono-Bold-45" x="2167.382812"/>
     <use xlink:href="#DejaVuSansMono-Bold-43" x="2227.587891"/>
     <use xlink:href="#DejaVuSansMono-Bold-50" x="2287.792969"/>
     <use xlink:href="#DejaVuSansMono-Bold-20" x="2347.998047"/>
     <use xlink:href="#DejaVuSansMono-Bold-46" x="2408.203125"/>
     <use xlink:href="#DejaVuSansMono-Bold-6f" x="2468.408203"/>
     <use xlink:href="#DejaVuSansMono-Bold-72" x="2528.613281"/>
     <use xlink:href="#DejaVuSansMono-Bold-6d" x="2588.818359"/>
     <use xlink:href="#DejaVuSansMono-Bold-2d" x="2649.023438"/>
     <use xlink:href="#DejaVuSansMono-Bold-34" x="2709.228516"/>
     <use xlink:href="#DejaVuSansMono-Bold-35" x="2769.433594"/>
     <use xlink:href="#DejaVuSansMono-Bold-73" x="2829.638672"/>
     <use xlink:href="#DejaVuSansMono-Bold-29" x="2889.84375"/>
    </g>
   </g>
  </g>
 </g>
 <defs>
  <clipPath id="pa5d8153d70">
   <rect x="27.847344" y="23.077969" width="318.72" height="318.72"/>
  </clipPath>
  <clipPath id="ped69ec2eca">
   <rect x="515.221889" y="23.077969" width="318.72" height="318.72"/>
  </clipPath>
 </defs>
</svg>
