<?xml version="1.0" encoding="utf-8" standalone="no"?>
<!DOCTYPE svg PUBLIC "-//W3C//DTD SVG 1.1//EN"
  "http://www.w3.org/Graphics/SVG/1.1/DTD/svg11.dtd">
<svg xmlns:xlink="http://www.w3.org/1999/xlink" width="523.596105pt" height="568.113187pt" viewBox="0 0 523.596105 568.113187" xmlns="http://www.w3.org/2000/svg" version="1.1">
 <metadata>
  <rdf:RDF xmlns:dc="http://purl.org/dc/elements/1.1/" xmlns:cc="http://creativecommons.org/ns#" xmlns:rdf="http://www.w3.org/1999/02/22-rdf-syntax-ns#">
   <cc:Work>
    <dc:type rdf:resource="http://purl.org/dc/dcmitype/StillImage"/>
    <dc:date>2025-07-22T16:40:41.226229</dc:date>
    <dc:format>image/svg+xml</dc:format>
    <dc:creator>
     <cc:Agent>
      <dc:title>Matplotlib v3.9.2, https://matplotlib.org/</dc:title>
     </cc:Agent>
    </dc:creator>
   </cc:Work>
  </rdf:RDF>
 </metadata>
 <defs>
  <style type="text/css">*{stroke-linejoin: round; stroke-linecap: butt}</style>
 </defs>
 <g id="figure_1">
  <g id="patch_1">
   <path d="M 0 568.113187 
L 523.596105 568.113187 
L 523.596105 0 
L 0 0 
z
" style="fill: #ffffff"/>
  </g>
  <g id="axes_1">
   <g id="matplotlib.axis_1"/>
   <g id="matplotlib.axis_2"/>
   <g id="patch_2">
    <path d="M 459.497578 336.643457 
C 463.874346 305.501133 460.91478 273.76267 450.855582 243.966478 
C 440.796384 214.170287 423.913076 187.132481 401.555965 165.015516 
C 379.198855 142.898552 351.980302 126.308211 322.077218 116.57137 
C 292.174134 106.83453 260.405561 104.217882 229.312318 108.930703 
L 259.568 308.545187 
z
" style="fill: #f45f74"/>
   </g>
   <g id="patch_3">
    <path d="M 229.312318 108.930703 
C 192.298011 114.540983 157.563554 130.337511 129.007856 154.547143 
C 100.452159 178.756775 79.185202 210.438464 67.594183 246.035969 
C 56.003164 281.633475 54.538633 319.763096 63.364983 356.144818 
C 72.191333 392.52654 90.965477 425.746177 117.580035 452.074859 
C 144.194593 478.40354 177.615037 496.817848 214.089953 505.250795 
C 250.56487 513.683742 288.676452 511.807533 324.146709 499.83277 
C 359.616967 487.858006 391.067145 466.250158 414.966991 437.434684 
C 438.866837 408.619211 454.287345 373.716191 459.497578 336.643457 
L 259.568 308.545187 
z
" style="fill: #00b0be"/>
   </g>
   <g id="patch_4">
    <path d="M 457.098423 336.306278 
C 461.42267 305.537661 458.498618 274.18006 448.560131 244.741423 
C 438.621644 215.302785 421.940935 188.589433 399.85211 166.737873 
C 377.763285 144.886312 350.871354 128.495054 321.327107 118.875056 
C 291.782861 109.255058 260.395511 106.66981 229.675386 111.326077 
L 259.568 308.545187 
z
" style="fill: #f45f74"/>
   </g>
   <g id="patch_5">
    <path d="M 229.675386 111.326077 
C 193.105251 116.869033 158.787607 132.476003 130.574578 156.39512 
C 102.361549 180.314236 81.349796 211.615745 69.897869 246.78608 
C 58.445942 281.956416 56.998985 319.628481 65.719419 355.573622 
C 74.439853 391.518763 92.988707 424.339766 119.28389 450.352502 
C 145.579074 476.365239 178.598472 494.558576 214.63569 502.890328 
C 250.672907 511.222079 288.32715 509.368384 323.371765 497.537319 
C 358.41638 485.706253 389.489156 464.357698 413.102203 435.88801 
C 436.715251 407.418322 451.950712 372.934139 457.098423 336.306278 
L 259.568 308.545187 
z
" style="fill: #00b0be"/>
   </g>
   <g id="patch_6">
    <path d="M 454.699268 335.969099 
C 458.970994 305.57419 456.082457 274.59745 446.26468 245.516367 
C 436.446903 216.435284 419.968794 190.046386 398.148254 168.460229 
C 376.327715 146.874072 349.762407 130.681898 320.576997 121.178742 
C 291.391587 111.675586 260.38546 109.121737 230.038454 113.721451 
L 259.568 308.545187 
z
" style="fill: #f45f74"/>
   </g>
   <g id="patch_7">
    <path d="M 230.038454 113.721451 
C 193.912491 119.197084 160.011661 134.614496 132.1413 158.243096 
C 104.270939 181.871697 83.51439 212.793025 72.201555 247.536191 
C 60.88872 282.279356 59.459338 319.493866 68.073855 355.002427 
C 76.688373 390.510987 95.011937 422.933354 120.987746 448.630146 
C 146.963554 474.326939 179.581908 492.299304 215.181426 500.52986 
C 250.780945 508.760417 287.977849 506.929236 322.59682 495.241868 
C 357.215792 483.554499 387.911166 462.465239 411.237415 434.341336 
C 434.563664 406.217434 449.61408 372.152087 454.699268 335.969099 
L 259.568 308.545187 
z
" style="fill: #00b0be"/>
   </g>
   <g id="patch_8">
    <path d="M 452.300113 335.63192 
C 456.519317 305.610719 453.666296 275.01484 443.969229 246.291312 
C 434.272163 217.567783 417.996653 191.503338 396.444399 170.182585 
C 374.892144 148.861831 348.653459 132.868742 319.826886 123.482428 
C 291.000313 114.096114 260.375409 111.573665 230.401522 116.116824 
L 259.568 308.545187 
z
" style="fill: #f45f74"/>
   </g>
   <g id="patch_9">
    <path d="M 230.401522 116.116824 
C 194.719731 121.525134 161.235714 136.752988 133.708021 160.091073 
C 106.180329 183.429158 85.678983 213.970306 74.50524 248.286301 
C 63.331498 282.602297 61.91969 319.359251 70.428291 354.431231 
C 78.936893 389.503211 97.035168 421.526942 122.691601 446.90779 
C 148.348035 472.288639 180.565343 490.040032 215.727163 498.169393 
C 250.888983 506.298754 287.628547 504.490088 321.821876 492.946417 
C 356.015204 481.402745 386.333176 460.572779 409.372627 432.794662 
C 432.412078 405.016546 447.277448 371.370035 452.300113 335.63192 
L 259.568 308.545187 
z
" style="fill: #00b0be"/>
   </g>
   <g id="patch_10">
    <path d="M 449.900958 335.29474 
C 454.067641 305.647247 451.250134 275.43223 441.673778 247.066256 
C 432.097422 218.700282 416.024512 192.960291 394.740543 171.904941 
C 373.456574 150.849591 347.544511 135.055586 319.076776 125.786114 
C 290.60904 116.516642 260.365358 114.025593 230.76459 118.512198 
L 259.568 308.545187 
z
" style="fill: #f45f74"/>
   </g>
   <g id="patch_11">
    <path d="M 230.76459 118.512198 
C 195.52697 123.853185 162.459767 138.89148 135.274743 161.939049 
C 108.089719 184.986619 87.843577 215.147587 76.808926 249.036412 
C 65.774276 282.925237 64.380042 319.224636 72.782728 353.860035 
C 81.185413 388.495435 99.058398 420.12053 124.395457 445.185434 
C 149.732516 470.250339 181.548779 487.78076 216.272899 495.808926 
C 250.99702 503.837091 287.279246 502.05094 321.046931 490.650966 
C 354.814617 479.250991 384.755186 458.680319 407.507839 431.247988 
C 430.260492 403.815658 444.940816 370.587983 449.900958 335.29474 
L 259.568 308.545187 
z
" style="fill: #00b0be"/>
   </g>
   <g id="patch_12">
    <path d="M 447.501803 334.957561 
C 451.615965 305.683776 448.833973 275.849621 439.378327 247.841201 
C 429.922681 219.832781 414.052371 194.417243 393.036687 173.627297 
C 372.021004 152.83735 346.435564 137.242429 318.326665 128.0898 
C 290.217766 118.93717 260.355308 116.47752 231.127659 120.907572 
L 259.568 308.545187 
z
" style="fill: #f45f74"/>
   </g>
   <g id="patch_13">
    <path d="M 231.127659 120.907572 
C 196.33421 126.181235 163.683821 141.029972 136.841465 163.787026 
C 109.999109 186.54408 90.00817 216.324867 79.112612 249.786523 
C 68.217054 283.248178 66.840395 319.090021 75.137164 353.28884 
C 83.433933 387.487658 101.081628 418.714118 126.099313 443.463078 
C 151.116997 468.212038 182.532214 485.521488 216.818636 493.448459 
C 251.105058 501.375429 286.929945 499.611792 320.271987 488.355515 
C 353.614029 477.099237 383.177197 456.78786 405.643051 429.701314 
C 428.108906 402.614769 442.604184 369.805931 447.501803 334.957561 
L 259.568 308.545187 
z
" style="fill: #00b0be"/>
   </g>
   <g id="patch_14">
    <path d="M 445.102648 334.620382 
C 449.164289 305.720305 446.417812 276.267011 437.082876 248.616145 
C 427.747941 220.96528 412.08023 195.874196 391.332832 175.349653 
C 370.585434 154.82511 345.326616 139.429273 317.576554 130.393485 
C 289.826493 121.357698 260.345257 118.929448 231.490727 123.302946 
L 259.568 308.545187 
z
" style="fill: #f45f74"/>
   </g>
   <g id="patch_15">
    <path d="M 231.490727 123.302946 
C 197.14145 128.509285 164.907874 143.168464 138.408187 165.635002 
C 111.908499 188.101541 92.172764 217.502148 81.416298 250.536633 
C 70.659832 283.571118 69.300747 318.955406 77.4916 352.717644 
C 85.682453 386.479882 103.104858 417.307706 127.803168 441.740722 
C 152.501478 466.173738 183.51565 483.262216 217.364373 491.087991 
C 251.213095 498.913766 286.580643 497.172644 319.497042 486.060064 
C 352.413442 474.947484 381.599207 454.8954 403.778264 428.15464 
C 425.95732 401.413881 440.267552 369.023879 445.102648 334.620382 
L 259.568 308.545187 
z
" style="fill: #00b0be"/>
   </g>
   <g id="patch_16">
    <path d="M 442.703493 334.283203 
C 446.712613 305.756833 444.00165 276.684401 434.787425 249.39109 
C 425.5732 222.097778 410.108089 197.331148 389.628976 177.072009 
C 369.149863 156.81287 344.217668 141.616117 316.826444 132.697171 
C 289.435219 123.778225 260.335206 121.381376 231.853795 125.69832 
L 259.568 308.545187 
z
" style="fill: #f45f74"/>
   </g>
   <g id="patch_17">
    <path d="M 231.853795 125.69832 
C 197.94869 130.837336 166.131927 145.306956 139.974908 167.482979 
C 113.817889 189.659002 94.337357 218.679429 83.719984 251.286744 
C 73.10261 283.894059 71.7611 318.820792 79.846036 352.146449 
C 87.930973 385.472106 105.128089 415.901294 129.507024 440.018366 
C 153.885959 464.135438 184.499086 481.002944 217.910109 488.727524 
C 251.321133 496.452103 286.231342 494.733496 318.722098 483.764613 
C 351.212854 472.79573 380.021217 453.00294 401.913476 426.607966 
C 423.805734 400.212993 437.93092 368.241827 442.703493 334.283203 
L 259.568 308.545187 
z
" style="fill: #00b0be"/>
   </g>
   <g id="patch_18">
    <path d="M 440.304338 333.946023 
C 444.260937 305.793362 441.585489 277.101791 432.491974 250.166034 
C 423.39846 223.230277 408.135948 198.7881 387.925121 178.794365 
C 367.714293 158.800629 343.108721 143.802961 316.076333 135.000857 
C 289.043945 126.198753 260.325155 123.833303 232.216863 128.093693 
L 259.568 308.545187 
z
" style="fill: #f45f74"/>
   </g>
   <g id="patch_19">
    <path d="M 232.216863 128.093693 
C 198.75593 133.165386 167.355981 147.445448 141.54163 169.330956 
C 115.72728 191.216463 96.501951 219.856709 86.023669 252.036854 
C 75.545388 284.217 74.221452 318.686177 82.200472 351.575253 
C 90.179493 384.46433 107.151319 414.494882 131.210879 438.29601 
C 155.27044 462.097138 185.482521 478.743673 218.455846 486.367057 
C 251.42917 493.990441 285.88204 492.294347 317.947153 481.469162 
C 350.012266 470.643976 378.443227 451.110481 400.048688 425.061293 
C 421.654148 399.012104 435.594288 367.459775 440.304338 333.946023 
L 259.568 308.545187 
z
" style="fill: #00b0be"/>
   </g>
   <g id="patch_20">
    <path d="M 437.905183 333.608844 
C 441.809261 305.829891 439.169327 277.519181 430.196523 250.940979 
C 421.223719 224.362776 406.163807 200.245053 386.221265 180.516721 
C 366.278723 160.788389 341.999773 145.989804 315.326222 137.304543 
C 288.652672 128.619281 260.315105 126.285231 232.579931 130.489067 
L 259.568 308.545187 
z
" style="fill: #f45f74"/>
   </g>
   <g id="patch_21">
    <path d="M 232.579931 130.489067 
C 199.56317 135.493437 168.580034 149.58394 143.108352 171.178932 
C 117.63667 192.773924 98.666545 221.03399 88.327355 252.786965 
C 77.988166 284.53994 76.681804 318.551562 84.554909 351.004058 
C 92.428013 383.456554 109.174549 413.088471 132.914735 436.573654 
C 156.654921 460.058838 186.465957 476.484401 219.001582 484.006589 
C 251.537208 491.528778 285.532739 489.855199 317.172209 479.173711 
C 348.811679 468.492222 376.865238 449.218021 398.1839 423.514619 
C 419.502562 397.811216 433.257655 366.677723 437.905183 333.608844 
L 259.568 308.545187 
z
" style="fill: #00b0be"/>
   </g>
   <g id="patch_22">
    <path d="M 435.506028 333.271665 
C 439.357584 305.866419 436.753166 277.936572 427.901072 251.715923 
C 419.048978 225.495275 404.191666 201.702005 384.517409 182.239077 
C 364.843152 162.776149 340.890826 148.176648 314.576112 139.608229 
C 288.261398 131.039809 260.305054 128.737159 232.942999 132.884441 
L 259.568 308.545187 
z
" style="fill: #f45f74"/>
   </g>
   <g id="patch_23">
    <path d="M 232.942999 132.884441 
C 200.37041 137.821487 169.804087 151.722432 144.675074 173.026909 
C 119.54606 194.331385 100.831138 222.211271 90.631041 253.537076 
C 80.430944 284.862881 79.142157 318.416947 86.909345 350.432862 
C 94.676533 382.448777 111.19778 411.682059 134.618591 434.851298 
C 158.039402 458.020537 187.449392 474.225129 219.547319 481.646122 
C 251.645245 489.067115 285.183437 487.416051 316.397264 476.87826 
C 347.611091 466.340468 375.287248 447.325561 396.319112 421.967945 
C 417.350976 396.610328 430.921023 365.895671 435.506028 333.271665 
L 259.568 308.545187 
z
" style="fill: #00b0be"/>
   </g>
   <g id="patch_24">
    <path d="M 433.106873 332.934486 
C 436.905908 305.902948 434.337005 278.353962 425.605621 252.490868 
C 416.874238 226.627774 402.219526 203.158958 382.813554 183.961433 
C 363.407582 164.763908 339.781878 150.363492 313.826001 141.911914 
C 287.870124 133.460337 260.295003 131.189086 233.306068 135.279815 
L 259.568 308.545187 
z
" style="fill: #f45f74"/>
   </g>
   <g id="patch_25">
    <path d="M 233.306068 135.279815 
C 201.177649 140.149538 171.028141 153.860925 146.241795 174.874885 
C 121.45545 195.888846 102.995732 223.388551 92.934727 254.287186 
C 82.873722 285.185821 81.602509 318.282332 89.263781 349.861666 
C 96.925053 381.441001 113.22101 410.275647 136.322446 433.128942 
C 159.423882 455.982237 188.432828 471.965857 220.093055 479.285655 
C 251.753283 486.605453 284.834136 484.976903 315.62232 474.582809 
C 346.410504 464.188714 373.709258 445.433102 394.454324 420.421271 
C 415.19939 395.40944 428.584391 365.113619 433.106873 332.934486 
L 259.568 308.545187 
z
" style="fill: #00b0be"/>
   </g>
   <g id="patch_26">
    <path d="M 430.707718 332.597306 
C 434.454232 305.939477 431.920843 278.771352 423.31017 253.265812 
C 414.699497 227.760272 400.247385 204.61591 381.109698 185.683789 
C 361.972012 166.751668 338.67293 152.550335 313.075891 144.2156 
C 287.478851 135.880865 260.284952 133.641014 233.669136 137.675189 
L 259.568 308.545187 
z
" style="fill: #f45f74"/>
   </g>
   <g id="patch_27">
    <path d="M 233.669136 137.675189 
C 201.984889 142.477588 172.252194 155.999417 147.808517 176.722862 
C 123.36484 197.446307 105.160325 224.565832 95.238413 255.037297 
C 85.3165 285.508762 84.062862 318.147717 91.618217 349.290471 
C 99.173573 380.433225 115.24424 408.869235 138.026302 431.406586 
C 160.808363 453.943937 189.416263 469.706585 220.638792 476.925187 
C 251.861321 484.14379 284.484835 482.537755 314.847375 472.287358 
C 345.209916 462.036961 372.131268 443.540642 392.589536 418.874597 
C 413.047804 394.208551 426.247759 364.331567 430.707718 332.597306 
L 259.568 308.545187 
z
" style="fill: #00b0be"/>
   </g>
   <g id="patch_28">
    <path d="M 428.308563 332.260127 
C 432.002556 305.976005 429.504682 279.188742 421.014719 254.040757 
C 412.524756 228.892771 398.275244 206.072863 379.405843 187.406145 
C 360.536442 168.739427 337.563983 154.737179 312.32578 146.519286 
C 287.087577 138.301393 260.274902 136.092942 234.032204 140.070563 
L 259.568 308.545187 
z
" style="fill: #f45f74"/>
   </g>
   <g id="patch_29">
    <path d="M 234.032204 140.070563 
C 202.792129 144.805639 173.476247 158.137909 149.375239 178.570838 
C 125.27423 199.003768 107.324919 225.743113 97.542098 255.787407 
C 87.759278 285.831702 86.523214 318.013102 93.972653 348.719275 
C 101.422093 379.425449 117.26747 407.462823 139.730157 429.68423 
C 162.192844 451.905637 190.399699 467.447313 221.184529 474.56472 
C 251.969358 481.682127 284.135533 480.098607 314.072431 469.991907 
C 344.009328 459.885207 370.553279 441.648182 390.724748 417.327923 
C 410.896218 393.007663 423.911127 363.549515 428.308563 332.260127 
L 259.568 308.545187 
z
" style="fill: #00b0be"/>
   </g>
   <g id="patch_30">
    <path d="M 425.909409 331.922948 
C 429.55088 306.012534 427.088521 279.606133 418.719268 254.815701 
C 410.350016 230.02527 396.303103 207.529815 377.701987 189.128501 
C 359.100871 170.727187 336.455035 156.924023 311.575669 148.822972 
C 286.696304 140.721921 260.264851 138.544869 234.395272 142.465936 
L 259.568 308.545187 
z
" style="fill: #f45f74"/>
   </g>
   <g id="patch_31">
    <path d="M 234.395272 142.465936 
C 203.599369 147.133689 174.700301 160.276401 150.94196 180.418815 
C 127.18362 200.561228 109.489512 226.920393 99.845784 256.537518 
C 90.202056 286.154643 88.983566 317.878487 96.32709 348.14808 
C 103.670613 378.417672 119.290701 406.056411 141.434013 427.961874 
C 163.577325 449.867336 191.383134 465.188041 221.730265 472.204253 
C 252.077396 479.220465 283.786232 477.659459 313.297486 467.696456 
C 342.808741 457.733453 368.975289 439.755723 388.85996 415.781249 
C 408.744632 391.806775 421.574495 362.767463 425.909409 331.922948 
L 259.568 308.545187 
z
" style="fill: #00b0be"/>
   </g>
   <g id="patch_32">
    <path d="M 423.510254 331.585769 
C 427.099204 306.049063 424.672359 280.023523 416.423817 255.590646 
C 408.175275 231.157769 394.330962 208.986768 375.998132 190.850857 
C 357.665301 172.714947 335.346088 159.110867 310.825559 151.126658 
C 286.30503 143.142449 260.2548 140.996797 234.75834 144.86131 
L 259.568 308.545187 
z
" style="fill: #f45f74"/>
   </g>
   <g id="patch_33">
    <path d="M 234.75834 144.86131 
C 204.406609 149.46174 175.924354 162.414893 152.508682 182.266791 
C 129.09301 202.118689 111.654106 228.097674 102.14947 257.287629 
C 92.644834 286.477583 91.443919 317.743872 98.681526 347.576884 
C 105.919133 377.409896 121.313931 404.649999 143.137868 426.239518 
C 164.961806 447.829036 192.36657 462.928769 222.276002 469.843786 
C 252.185433 476.758802 283.43693 475.22031 312.522542 465.401005 
C 341.608153 455.581699 367.397299 437.863263 386.995173 414.234575 
C 406.593046 390.605886 419.237863 361.985411 423.510254 331.585769 
L 259.568 308.545187 
z
" style="fill: #00b0be"/>
   </g>
   <g id="patch_34">
    <path d="M 421.111099 331.248589 
C 424.647527 306.085591 422.256198 280.440913 414.128366 256.36559 
C 406.000535 232.290268 392.358821 210.44372 374.294276 192.573213 
C 356.229731 174.702706 334.23714 161.29771 310.075448 153.430343 
C 285.913756 145.562976 260.244749 143.448725 235.121409 147.256684 
L 259.568 308.545187 
z
" style="fill: #f45f74"/>
   </g>
   <g id="patch_35">
    <path d="M 235.121409 147.256684 
C 205.213849 151.78979 177.148407 164.553385 154.075404 184.114768 
C 131.0024 203.67615 113.8187 229.274955 104.453156 258.037739 
C 95.087612 286.800524 93.904271 317.609257 101.035962 347.005689 
C 108.167653 376.40212 123.337161 403.243587 144.841724 424.517162 
C 166.346287 445.790736 193.350006 460.669497 222.821738 467.483318 
C 252.293471 474.29714 283.087629 472.781162 311.747597 463.105554 
C 340.407566 453.429945 365.819309 435.970804 385.130385 412.687901 
C 404.44146 389.404998 416.90123 361.203359 421.111099 331.248589 
L 259.568 308.545187 
z
" style="fill: #00b0be"/>
   </g>
   <g id="patch_36">
    <path d="M 418.711944 330.91141 
C 422.195851 306.12212 419.840037 280.858303 411.832915 257.140535 
C 403.825794 233.422766 390.38668 211.900673 372.59042 194.295569 
C 354.794161 176.690466 333.128192 163.484554 309.325338 155.734029 
C 285.522483 147.983504 260.234699 145.900652 235.484477 149.652058 
L 259.568 308.545187 
z
" style="fill: #f45f74"/>
   </g>
   <g id="patch_37">
    <path d="M 235.484477 149.652058 
C 206.021089 154.117841 178.372461 166.691877 155.642126 185.962744 
C 132.91179 205.233611 115.983293 230.452235 106.756842 258.78785 
C 97.53039 287.123464 96.364624 317.474643 103.390398 346.434493 
C 110.416173 375.394344 125.360392 401.837176 146.54558 422.794806 
C 167.730768 443.752436 194.333441 458.410225 223.367475 465.122851 
C 252.401508 471.835477 282.738327 470.342014 310.972653 460.810103 
C 339.206978 451.278191 364.24132 434.078344 383.265597 411.141227 
C 402.289874 388.20411 414.564598 360.421307 418.711944 330.91141 
L 259.568 308.545187 
z
" style="fill: #00b0be"/>
   </g>
   <g id="patch_38">
    <path d="M 416.312789 330.574231 
C 419.744175 306.158648 417.423875 281.275693 409.537464 257.915479 
C 401.651053 234.555265 388.414539 213.357625 370.886565 196.017925 
C 353.35859 178.678226 332.019245 165.671398 308.575227 158.037715 
C 285.131209 150.404032 260.224648 148.35258 235.847545 152.047432 
L 259.568 308.545187 
z
" style="fill: #f45f74"/>
   </g>
   <g id="patch_39">
    <path d="M 235.847545 152.047432 
C 206.828329 156.445891 179.596514 168.830369 157.208847 187.810721 
C 134.82118 206.791072 118.147887 231.629516 109.060527 259.537961 
C 99.973168 287.446405 98.824976 317.340028 105.744835 345.863298 
C 112.664693 374.386567 127.383622 400.430764 148.249435 421.07245 
C 169.115249 441.714136 195.316877 456.150953 223.913211 462.762384 
C 252.509546 469.373814 282.389026 467.902866 310.197708 458.514652 
C 338.00639 449.126438 362.66333 432.185884 381.400809 409.594553 
C 400.138288 387.003222 412.227966 359.639254 416.312789 330.574231 
L 259.568 308.545187 
z
" style="fill: #00b0be"/>
   </g>
   <g id="patch_40">
    <path d="M 413.913634 330.237052 
C 417.292499 306.195177 415.007714 281.693084 407.242013 258.690424 
C 399.476313 235.687764 386.442398 214.814578 369.182709 197.740281 
C 351.92302 180.665985 330.910297 167.858241 307.825116 160.341401 
C 284.739936 152.82456 260.214597 150.804508 236.210613 154.442805 
L 259.568 308.545187 
z
" style="fill: #f45f74"/>
   </g>
   <g id="patch_41">
    <path d="M 236.210613 154.442805 
C 207.635568 158.773941 180.820568 170.968862 158.775569 189.658697 
C 136.730571 208.348533 120.31248 232.806797 111.364213 260.288071 
C 102.415946 287.769346 101.285329 317.205413 108.099271 345.292102 
C 114.913213 373.378791 129.406852 399.024352 149.953291 419.350094 
C 170.49973 439.675835 196.300312 453.891681 224.458948 460.401916 
C 252.617584 466.912152 282.039725 465.463718 309.422764 456.219201 
C 336.805803 446.974684 361.08534 430.293425 379.536021 408.047879 
C 397.986702 385.802333 409.891334 358.857202 413.913634 330.237052 
L 259.568 308.545187 
z
" style="fill: #00b0be"/>
   </g>
   <g id="patch_42">
    <path d="M 411.514479 329.899872 
C 414.840823 306.231706 412.591553 282.110474 404.946562 259.465368 
C 397.301572 236.820263 384.470257 216.27153 367.478854 199.462638 
C 350.48745 182.653745 329.801349 170.045085 307.075006 162.645087 
C 284.348662 155.245088 260.204547 153.256435 236.573681 156.838179 
L 259.568 308.545187 
z
" style="fill: #f45f74"/>
   </g>
   <g id="patch_43">
    <path d="M 236.573681 156.838179 
C 208.442808 161.101992 182.044621 173.107354 160.342291 191.506674 
C 138.639961 209.905994 122.477074 233.984078 113.667899 261.038182 
C 104.858724 288.092286 103.745681 317.070798 110.453707 344.720906 
C 117.161733 372.371015 131.430082 397.61794 151.657146 417.627737 
C 171.88421 437.637535 197.283748 451.632409 225.004684 458.041449 
C 252.725621 464.450489 281.690423 463.02457 308.647819 453.92375 
C 335.605215 444.82293 359.50735 428.400965 377.671233 406.501205 
C 395.835116 384.601445 407.554702 358.07515 411.514479 329.899872 
L 259.568 308.545187 
z
" style="fill: #00b0be"/>
   </g>
   <g id="patch_44">
    <path d="M 409.115324 329.562693 
C 412.389147 306.268234 410.175391 282.527864 402.651111 260.240313 
C 395.126832 237.952762 382.498116 217.728483 365.774998 201.184994 
C 349.05188 184.641504 328.692402 172.231929 306.324895 164.948772 
C 283.957388 157.665616 260.194496 155.708363 236.93675 159.233553 
L 259.568 308.545187 
z
" style="fill: #f45f74"/>
   </g>
   <g id="patch_45">
    <path d="M 236.93675 159.233553 
C 209.250048 163.430042 183.268674 175.245846 161.909013 193.35465 
C 140.549351 211.463455 124.641667 235.161358 115.971585 261.788292 
C 107.301502 288.415227 106.206033 316.936183 112.808143 344.149711 
C 119.410253 371.363239 133.453313 396.211528 153.361002 415.905381 
C 173.268691 435.599235 198.267183 449.373138 225.550421 455.680982 
C 252.833659 461.988826 281.341122 460.585422 307.872875 451.628299 
C 334.404627 442.671176 357.929361 426.508505 375.806445 404.954531 
C 393.68353 383.400557 405.21807 357.293098 409.115324 329.562693 
L 259.568 308.545187 
z
" style="fill: #00b0be"/>
   </g>
   <g id="patch_46">
    <path d="M 406.716169 329.225514 
C 409.937471 306.304763 407.75923 282.945254 400.35566 261.015257 
C 392.952091 239.08526 380.525976 219.185435 364.071142 202.90735 
C 347.616309 186.629264 327.583454 174.418773 305.574784 167.252458 
C 283.566115 160.086144 260.184445 158.160291 237.299818 161.628927 
L 259.568 308.545187 
z
" style="fill: #f45f74"/>
   </g>
   <g id="patch_47">
    <path d="M 237.299818 161.628927 
C 210.057288 165.758093 184.492728 177.384338 163.475734 195.202627 
C 142.458741 213.020916 126.806261 236.338639 118.275271 262.538403 
C 109.74428 288.738167 108.666386 316.801568 115.162579 343.578515 
C 121.658773 370.355463 135.476543 394.805116 155.064858 414.183025 
C 174.653172 433.560935 199.250619 447.113866 226.096158 453.320515 
C 252.941696 459.527164 280.99182 458.146273 307.09793 449.332848 
C 333.20404 440.519422 356.351371 424.616046 373.941657 403.407857 
C 391.531944 382.199669 402.881438 356.511046 406.716169 329.225514 
L 259.568 308.545187 
z
" style="fill: #00b0be"/>
   </g>
   <g id="patch_48">
    <path d="M 404.317014 328.888335 
C 407.485794 306.341292 405.343068 283.362644 398.060209 261.790202 
C 390.77735 240.217759 378.553835 220.642388 362.367287 204.629706 
C 346.180739 188.617024 326.474507 176.605616 304.824674 169.556144 
C 283.174841 162.506672 260.174394 160.612218 237.662886 164.024301 
L 259.568 308.545187 
z
" style="fill: #f45f74"/>
   </g>
   <g id="patch_49">
    <path d="M 237.662886 164.024301 
C 210.864528 168.086143 185.716781 179.52283 165.042456 197.050603 
C 144.368131 214.578377 128.970855 237.51592 120.578956 263.288514 
C 112.187058 289.061108 111.126738 316.666953 117.517016 343.00732 
C 123.907293 369.347686 137.499773 393.398704 156.768713 412.460669 
C 176.037653 431.522634 200.234054 444.854594 226.641894 450.960047 
C 253.049734 457.065501 280.642519 455.707125 306.322986 447.037397 
C 332.003452 438.367668 354.773381 422.723586 372.076869 401.861183 
C 389.380358 380.99878 400.544805 355.728994 404.317014 328.888335 
L 259.568 308.545187 
z
" style="fill: #00b0be"/>
   </g>
   <g id="patch_50">
    <path d="M 401.917859 328.551156 
C 405.034118 306.37782 402.926907 283.780035 395.764758 262.565146 
C 388.60261 241.350258 376.581694 222.09934 360.663431 206.352062 
C 344.745169 190.604783 325.365559 178.79246 304.074563 171.85983 
C 282.783568 164.9272 260.164344 163.064146 238.025954 166.419675 
L 259.568 308.545187 
z
" style="fill: #f45f74"/>
   </g>
   <g id="patch_51">
    <path d="M 238.025954 166.419675 
C 211.671768 170.414194 186.940834 181.661322 166.609178 198.89858 
C 146.277521 216.135838 131.135448 238.6932 122.882642 264.038624 
C 114.629836 289.384048 113.587091 316.532338 119.871452 342.436124 
C 126.155813 368.33991 139.523003 391.992292 158.472569 410.738313 
C 177.422134 429.484334 201.21749 442.595322 227.187631 448.59958 
C 253.157771 454.603838 280.293218 453.267977 305.548041 444.741946 
C 330.802865 436.215915 353.195391 420.831126 370.212082 400.314509 
C 387.228772 379.797892 398.208173 354.946942 401.917859 328.551156 
L 259.568 308.545187 
z
" style="fill: #00b0be"/>
   </g>
   <g id="patch_52">
    <path d="M 459.497578 336.643457 
C 463.874346 305.501133 460.91478 273.76267 450.855582 243.966478 
C 440.796384 214.170287 423.913076 187.132481 401.555965 165.015516 
C 379.198855 142.898552 351.980302 126.308211 322.077218 116.57137 
C 292.174134 106.83453 260.405561 104.217882 229.312318 108.930703 
L 259.568 308.545187 
z
" style="fill: #f45f74; stroke: #ffffff; stroke-width: 1.5; stroke-linejoin: miter"/>
   </g>
   <g id="patch_53">
    <path d="M 229.312318 108.930703 
C 192.298011 114.540983 157.563554 130.337511 129.007856 154.547143 
C 100.452159 178.756775 79.185202 210.438464 67.594183 246.035969 
C 56.003164 281.633475 54.538633 319.763096 63.364983 356.144818 
C 72.191333 392.52654 90.965477 425.746177 117.580035 452.074859 
C 144.194593 478.40354 177.615037 496.817848 214.089953 505.250795 
C 250.56487 513.683742 288.676452 511.807533 324.146709 499.83277 
C 359.616967 487.858006 391.067145 466.250158 414.966991 437.434684 
C 438.866837 408.619211 454.287345 373.716191 459.497578 336.643457 
L 259.568 308.545187 
z
" style="fill: #00b0be; stroke: #ffffff; stroke-width: 1.5; stroke-linejoin: miter"/>
   </g>
   <g id="text_1">
    <!-- 29.6% -->
    <g style="fill: #ffffff" transform="translate(329.709998 225.18676) scale(0.1 -0.1)">
     <defs>
      <path id="DejaVuSansMono-Bold-32" d="M 1356 813 
L 3322 813 
L 3322 0 
L 359 0 
L 359 788 
L 859 1319 
Q 1750 2266 1941 2484 
Q 2175 2753 2278 2961 
Q 2381 3169 2381 3372 
Q 2381 3684 2192 3854 
Q 2003 4025 1656 4025 
Q 1409 4025 1101 3926 
Q 794 3828 459 3641 
L 459 4500 
Q 794 4622 1114 4686 
Q 1434 4750 1728 4750 
Q 2469 4750 2892 4404 
Q 3316 4059 3316 3463 
Q 3316 3188 3223 2947 
Q 3131 2706 2906 2413 
Q 2741 2200 1997 1456 
Q 1594 1053 1356 813 
z
" transform="scale(0.015625)"/>
      <path id="DejaVuSansMono-Bold-39" d="M 634 63 
L 634 903 
Q 881 759 1107 690 
Q 1334 622 1544 622 
Q 2041 622 2302 955 
Q 2563 1288 2578 1950 
Q 2431 1747 2203 1645 
Q 1975 1544 1663 1544 
Q 1034 1544 690 1942 
Q 347 2341 347 3072 
Q 347 3853 731 4281 
Q 1116 4709 1819 4709 
Q 2672 4709 3058 4139 
Q 3444 3569 3444 2297 
Q 3444 1088 2972 483 
Q 2500 -122 1556 -122 
Q 1338 -122 1105 -75 
Q 872 -28 634 63 
z
M 1844 2316 
Q 2141 2316 2298 2533 
Q 2456 2750 2456 3163 
Q 2456 3572 2298 3789 
Q 2141 4006 1844 4006 
Q 1544 4006 1383 3789 
Q 1222 3572 1222 3163 
Q 1222 2753 1383 2534 
Q 1544 2316 1844 2316 
z
" transform="scale(0.015625)"/>
      <path id="DejaVuSansMono-Bold-2e" d="M 1403 1147 
L 2444 1147 
L 2444 0 
L 1403 0 
L 1403 1147 
z
" transform="scale(0.015625)"/>
      <path id="DejaVuSansMono-Bold-36" d="M 2009 2338 
Q 1709 2338 1551 2120 
Q 1394 1903 1394 1491 
Q 1394 1081 1551 864 
Q 1709 647 2009 647 
Q 2309 647 2470 864 
Q 2631 1081 2631 1491 
Q 2631 1900 2470 2119 
Q 2309 2338 2009 2338 
z
M 3219 4556 
L 3219 3719 
Q 2972 3859 2745 3929 
Q 2519 4000 2309 4000 
Q 1809 4000 1548 3664 
Q 1288 3328 1275 2672 
Q 1422 2875 1650 2976 
Q 1878 3078 2188 3078 
Q 2819 3078 3162 2679 
Q 3506 2281 3506 1550 
Q 3506 766 3120 334 
Q 2734 -97 2034 -97 
Q 1181 -97 795 475 
Q 409 1047 409 2322 
Q 409 3534 881 4139 
Q 1353 4744 2297 4744 
Q 2516 4744 2748 4697 
Q 2981 4650 3219 4556 
z
" transform="scale(0.015625)"/>
      <path id="DejaVuSansMono-Bold-25" d="M 103 3475 
Q 103 3894 393 4184 
Q 684 4475 1100 4475 
Q 1516 4475 1808 4183 
Q 2100 3891 2100 3475 
Q 2100 3059 1808 2768 
Q 1516 2478 1100 2478 
Q 684 2478 393 2767 
Q 103 3056 103 3475 
z
M 1100 3903 
Q 922 3903 797 3779 
Q 672 3656 672 3475 
Q 672 3294 797 3170 
Q 922 3047 1100 3047 
Q 1281 3047 1404 3170 
Q 1528 3294 1528 3475 
Q 1528 3653 1403 3778 
Q 1278 3903 1100 3903 
z
M 269 1753 
L 3525 3059 
L 3653 2759 
L 378 1453 
L 269 1753 
z
M 1813 997 
Q 1813 1416 2102 1706 
Q 2391 1997 2809 1997 
Q 3222 1997 3515 1705 
Q 3809 1413 3809 997 
Q 3809 584 3515 292 
Q 3222 0 2809 0 
Q 2391 0 2102 289 
Q 1813 578 1813 997 
z
M 2803 1428 
Q 2628 1428 2504 1303 
Q 2381 1178 2381 997 
Q 2381 816 2503 692 
Q 2625 569 2803 569 
Q 2984 569 3111 694 
Q 3238 819 3238 997 
Q 3238 1175 3109 1301 
Q 2981 1428 2803 1428 
z
" transform="scale(0.015625)"/>
     </defs>
     <use xlink:href="#DejaVuSansMono-Bold-32"/>
     <use xlink:href="#DejaVuSansMono-Bold-39" x="60.205078"/>
     <use xlink:href="#DejaVuSansMono-Bold-2e" x="120.410156"/>
     <use xlink:href="#DejaVuSansMono-Bold-36" x="180.615234"/>
     <use xlink:href="#DejaVuSansMono-Bold-25" x="240.820312"/>
    </g>
   </g>
   <g id="text_2">
    <!-- 70.4% -->
    <g style="fill: #ffffff" transform="translate(159.32444 397.422365) scale(0.1 -0.1)">
     <defs>
      <path id="DejaVuSansMono-Bold-37" d="M 422 4666 
L 3372 4666 
L 3372 4013 
L 1791 0 
L 850 0 
L 2369 3853 
L 422 3853 
L 422 4666 
z
" transform="scale(0.015625)"/>
      <path id="DejaVuSansMono-Bold-30" d="M 1538 2328 
Q 1538 2494 1650 2606 
Q 1763 2719 1925 2719 
Q 2091 2719 2203 2606 
Q 2316 2494 2316 2328 
Q 2316 2166 2203 2053 
Q 2091 1941 1925 1941 
Q 1763 1941 1650 2052 
Q 1538 2163 1538 2328 
z
M 1925 3969 
Q 1606 3969 1459 3578 
Q 1313 3188 1313 2328 
Q 1313 1472 1459 1081 
Q 1606 691 1925 691 
Q 2247 691 2394 1081 
Q 2541 1472 2541 2328 
Q 2541 3188 2394 3578 
Q 2247 3969 1925 3969 
z
M 384 2328 
Q 384 3541 768 4145 
Q 1153 4750 1925 4750 
Q 2700 4750 3084 4147 
Q 3469 3544 3469 2328 
Q 3469 1116 3084 512 
Q 2700 -91 1925 -91 
Q 1153 -91 768 514 
Q 384 1119 384 2328 
z
" transform="scale(0.015625)"/>
      <path id="DejaVuSansMono-Bold-34" d="M 2169 3641 
L 991 1797 
L 2169 1797 
L 2169 3641 
z
M 2088 4666 
L 3053 4666 
L 3053 1797 
L 3566 1797 
L 3566 1006 
L 3053 1006 
L 3053 0 
L 2169 0 
L 2169 1006 
L 319 1006 
L 319 1900 
L 2088 4666 
z
" transform="scale(0.015625)"/>
     </defs>
     <use xlink:href="#DejaVuSansMono-Bold-37"/>
     <use xlink:href="#DejaVuSansMono-Bold-30" x="60.205078"/>
     <use xlink:href="#DejaVuSansMono-Bold-2e" x="120.410156"/>
     <use xlink:href="#DejaVuSansMono-Bold-34" x="180.615234"/>
     <use xlink:href="#DejaVuSansMono-Bold-25" x="240.820312"/>
    </g>
   </g>
   <g id="text_3">
    <!-- Syed Mustafa Kamal (MQM) -->
    <g transform="translate(371.908605 119.117084) scale(0.1 -0.1)">
     <defs>
      <path id="DejaVuSansMono-Bold-53" d="M 1594 2047 
Q 897 2313 650 2605 
Q 403 2897 403 3391 
Q 403 4025 809 4387 
Q 1216 4750 1925 4750 
Q 2247 4750 2569 4676 
Q 2891 4603 3206 4459 
L 3206 3559 
Q 2909 3769 2603 3878 
Q 2297 3988 1997 3988 
Q 1663 3988 1484 3853 
Q 1306 3719 1306 3469 
Q 1306 3275 1436 3148 
Q 1566 3022 1978 2869 
L 2375 2719 
Q 2938 2513 3203 2172 
Q 3469 1831 3469 1313 
Q 3469 606 3051 257 
Q 2634 -91 1791 -91 
Q 1444 -91 1095 -8 
Q 747 75 422 238 
L 422 1191 
Q 791 928 1136 800 
Q 1481 672 1819 672 
Q 2159 672 2346 826 
Q 2534 981 2534 1259 
Q 2534 1469 2409 1626 
Q 2284 1784 2047 1875 
L 1594 2047 
z
" transform="scale(0.015625)"/>
      <path id="DejaVuSansMono-Bold-79" d="M 2222 -378 
Q 2038 -872 1780 -1098 
Q 1522 -1325 1153 -1325 
L 397 -1325 
L 397 -628 
L 769 -628 
Q 1050 -628 1181 -533 
Q 1313 -438 1447 -91 
L 1516 97 
L 184 3500 
L 1147 3500 
L 1947 1228 
L 2713 3500 
L 3675 3500 
L 2222 -378 
z
" transform="scale(0.015625)"/>
      <path id="DejaVuSansMono-Bold-65" d="M 3444 172 
Q 3125 41 2794 -25 
Q 2463 -91 2094 -91 
Q 1216 -91 752 379 
Q 288 850 288 1734 
Q 288 2591 734 3087 
Q 1181 3584 1953 3584 
Q 2731 3584 3161 3123 
Q 3591 2663 3591 1825 
L 3591 1453 
L 1219 1453 
Q 1222 1041 1462 837 
Q 1703 634 2181 634 
Q 2497 634 2803 725 
Q 3109 816 3444 1013 
L 3444 172 
z
M 2669 2141 
Q 2663 2503 2483 2689 
Q 2303 2875 1953 2875 
Q 1638 2875 1450 2683 
Q 1263 2491 1228 2138 
L 2669 2141 
z
" transform="scale(0.015625)"/>
      <path id="DejaVuSansMono-Bold-64" d="M 2472 3003 
L 2472 4863 
L 3384 4863 
L 3384 0 
L 2472 0 
L 2472 519 
Q 2325 216 2092 62 
Q 1859 -91 1544 -91 
Q 944 -91 612 390 
Q 281 872 281 1747 
Q 281 2634 617 3109 
Q 953 3584 1575 3584 
Q 1856 3584 2079 3439 
Q 2303 3294 2472 3003 
z
M 1197 1741 
Q 1197 1234 1365 946 
Q 1534 659 1831 659 
Q 2128 659 2300 946 
Q 2472 1234 2472 1741 
Q 2472 2247 2300 2534 
Q 2128 2822 1831 2822 
Q 1534 2822 1365 2534 
Q 1197 2247 1197 1741 
z
" transform="scale(0.015625)"/>
      <path id="DejaVuSansMono-Bold-20" transform="scale(0.015625)"/>
      <path id="DejaVuSansMono-Bold-4d" d="M 269 4666 
L 1369 4666 
L 1925 2619 
L 2478 4666 
L 3584 4666 
L 3584 0 
L 2791 0 
L 2791 3738 
L 2297 1697 
L 1563 1697 
L 1063 3738 
L 1063 0 
L 269 0 
L 269 4666 
z
" transform="scale(0.015625)"/>
      <path id="DejaVuSansMono-Bold-75" d="M 500 1222 
L 500 3500 
L 1416 3500 
L 1416 1363 
Q 1416 984 1522 821 
Q 1628 659 1875 659 
Q 2122 659 2261 878 
Q 2400 1097 2400 1491 
L 2400 3500 
L 3316 3500 
L 3316 0 
L 2400 0 
L 2400 519 
Q 2303 228 2070 68 
Q 1838 -91 1509 -91 
Q 1009 -91 754 240 
Q 500 572 500 1222 
z
" transform="scale(0.015625)"/>
      <path id="DejaVuSansMono-Bold-73" d="M 3097 3391 
L 3097 2591 
Q 2844 2753 2570 2836 
Q 2297 2919 2022 2919 
Q 1716 2919 1559 2830 
Q 1403 2741 1403 2566 
Q 1403 2316 2072 2159 
L 2106 2150 
L 2369 2088 
Q 2869 1969 3101 1705 
Q 3334 1441 3334 991 
Q 3334 450 2979 179 
Q 2625 -91 1913 -91 
Q 1597 -91 1265 -36 
Q 934 19 594 128 
L 594 928 
Q 897 756 1211 665 
Q 1525 575 1819 575 
Q 2141 575 2306 669 
Q 2472 763 2472 941 
Q 2472 1116 2355 1209 
Q 2238 1303 1797 1409 
L 1544 1466 
Q 1019 1584 778 1837 
Q 538 2091 538 2516 
Q 538 3022 903 3303 
Q 1269 3584 1931 3584 
Q 2228 3584 2523 3536 
Q 2819 3488 3097 3391 
z
" transform="scale(0.015625)"/>
      <path id="DejaVuSansMono-Bold-74" d="M 2156 4494 
L 2156 3500 
L 3353 3500 
L 3353 2797 
L 2156 2797 
L 2156 1141 
Q 2156 906 2270 804 
Q 2384 703 2650 703 
L 3353 703 
L 3353 0 
L 2584 0 
Q 1797 0 1519 251 
Q 1241 503 1241 1184 
L 1241 2797 
L 347 2797 
L 347 3500 
L 1241 3500 
L 1241 4494 
L 2156 4494 
z
" transform="scale(0.015625)"/>
      <path id="DejaVuSansMono-Bold-61" d="M 2188 1644 
Q 1675 1644 1472 1512 
Q 1269 1381 1269 1063 
Q 1269 825 1409 684 
Q 1550 544 1791 544 
Q 2153 544 2353 817 
Q 2553 1091 2553 1581 
L 2553 1644 
L 2188 1644 
z
M 3463 1997 
L 3463 0 
L 2553 0 
L 2553 391 
Q 2388 159 2128 34 
Q 1869 -91 1556 -91 
Q 959 -91 626 225 
Q 294 541 294 1106 
Q 294 1719 691 2011 
Q 1088 2303 1919 2303 
L 2553 2303 
L 2553 2456 
Q 2553 2678 2392 2792 
Q 2231 2906 1919 2906 
Q 1591 2906 1283 2823 
Q 975 2741 641 2559 
L 641 3341 
Q 944 3466 1256 3525 
Q 1569 3584 1919 3584 
Q 2772 3584 3117 3237 
Q 3463 2891 3463 1997 
z
" transform="scale(0.015625)"/>
      <path id="DejaVuSansMono-Bold-66" d="M 2309 3806 
L 2309 3500 
L 3384 3500 
L 3384 2797 
L 2309 2797 
L 2309 0 
L 1394 0 
L 1394 2797 
L 544 2797 
L 544 3500 
L 1394 3500 
L 1394 3744 
Q 1394 4375 1656 4619 
Q 1919 4863 2631 4863 
L 3384 4863 
L 3384 4159 
L 2669 4159 
Q 2463 4159 2389 4084 
Q 2316 4009 2309 3806 
z
" transform="scale(0.015625)"/>
      <path id="DejaVuSansMono-Bold-4b" d="M 366 4666 
L 1288 4666 
L 1288 2822 
L 2731 4666 
L 3775 4666 
L 2303 2828 
L 3828 0 
L 2803 0 
L 1697 2100 
L 1288 1581 
L 1288 0 
L 366 0 
L 366 4666 
z
" transform="scale(0.015625)"/>
      <path id="DejaVuSansMono-Bold-6d" d="M 2156 3150 
Q 2259 3372 2418 3478 
Q 2578 3584 2809 3584 
Q 3263 3584 3436 3271 
Q 3609 2959 3609 1972 
L 3609 0 
L 2859 0 
L 2859 2247 
Q 2859 2638 2800 2769 
Q 2741 2900 2584 2900 
Q 2428 2900 2365 2765 
Q 2303 2631 2303 2247 
L 2303 0 
L 1563 0 
L 1563 2247 
Q 1563 2631 1500 2765 
Q 1438 2900 1281 2900 
Q 1125 2900 1065 2769 
Q 1006 2638 1006 2247 
L 1006 0 
L 256 0 
L 256 3500 
L 922 3500 
L 922 3138 
Q 1000 3344 1172 3464 
Q 1344 3584 1556 3584 
Q 1769 3584 1944 3457 
Q 2119 3331 2156 3150 
z
" transform="scale(0.015625)"/>
      <path id="DejaVuSansMono-Bold-6c" d="M 1209 1459 
L 1209 4159 
L 281 4159 
L 281 4863 
L 2125 4863 
L 2125 1459 
Q 2125 1047 2253 875 
Q 2381 703 2688 703 
L 3419 703 
L 3419 0 
L 2431 0 
Q 1778 0 1493 337 
Q 1209 675 1209 1459 
z
" transform="scale(0.015625)"/>
      <path id="DejaVuSansMono-Bold-28" d="M 2888 4856 
Q 2475 4109 2275 3409 
Q 2075 2709 2075 2009 
Q 2075 1316 2275 611 
Q 2475 -94 2888 -844 
L 2175 -844 
Q 1678 -122 1437 579 
Q 1197 1281 1197 2009 
Q 1197 2734 1439 3439 
Q 1681 4144 2175 4856 
L 2888 4856 
z
" transform="scale(0.015625)"/>
      <path id="DejaVuSansMono-Bold-51" d="M 2050 -72 
Q 2006 -81 1976 -86 
Q 1947 -91 1919 -91 
Q 1116 -91 702 521 
Q 288 1134 288 2328 
Q 288 3525 702 4137 
Q 1116 4750 1925 4750 
Q 2738 4750 3152 4137 
Q 3566 3525 3566 2328 
Q 3566 1506 3369 951 
Q 3172 397 2797 159 
L 3378 -409 
L 2747 -878 
L 2050 -72 
z
M 1925 3922 
Q 1572 3922 1409 3545 
Q 1247 3169 1247 2328 
Q 1247 1491 1409 1114 
Q 1572 738 1925 738 
Q 2281 738 2443 1114 
Q 2606 1491 2606 2328 
Q 2606 3169 2443 3545 
Q 2281 3922 1925 3922 
z
" transform="scale(0.015625)"/>
      <path id="DejaVuSansMono-Bold-29" d="M 966 4856 
L 1678 4856 
Q 2172 4144 2414 3439 
Q 2656 2734 2656 2009 
Q 2656 1281 2415 579 
Q 2175 -122 1678 -844 
L 966 -844 
Q 1378 -94 1578 611 
Q 1778 1316 1778 2009 
Q 1778 2709 1578 3409 
Q 1378 4109 966 4856 
z
" transform="scale(0.015625)"/>
     </defs>
     <use xlink:href="#DejaVuSansMono-Bold-53"/>
     <use xlink:href="#DejaVuSansMono-Bold-79" x="60.205078"/>
     <use xlink:href="#DejaVuSansMono-Bold-65" x="120.410156"/>
     <use xlink:href="#DejaVuSansMono-Bold-64" x="180.615234"/>
     <use xlink:href="#DejaVuSansMono-Bold-20" x="240.820312"/>
     <use xlink:href="#DejaVuSansMono-Bold-4d" x="301.025391"/>
     <use xlink:href="#DejaVuSansMono-Bold-75" x="361.230469"/>
     <use xlink:href="#DejaVuSansMono-Bold-73" x="421.435547"/>
     <use xlink:href="#DejaVuSansMono-Bold-74" x="481.640625"/>
     <use xlink:href="#DejaVuSansMono-Bold-61" x="541.845703"/>
     <use xlink:href="#DejaVuSansMono-Bold-66" x="602.050781"/>
     <use xlink:href="#DejaVuSansMono-Bold-61" x="662.255859"/>
     <use xlink:href="#DejaVuSansMono-Bold-20" x="722.460938"/>
     <use xlink:href="#DejaVuSansMono-Bold-4b" x="782.666016"/>
     <use xlink:href="#DejaVuSansMono-Bold-61" x="842.871094"/>
     <use xlink:href="#DejaVuSansMono-Bold-6d" x="903.076172"/>
     <use xlink:href="#DejaVuSansMono-Bold-61" x="963.28125"/>
     <use xlink:href="#DejaVuSansMono-Bold-6c" x="1023.486328"/>
     <use xlink:href="#DejaVuSansMono-Bold-20" x="1083.691406"/>
     <use xlink:href="#DejaVuSansMono-Bold-28" x="1143.896484"/>
     <use xlink:href="#DejaVuSansMono-Bold-4d" x="1204.101562"/>
     <use xlink:href="#DejaVuSansMono-Bold-51" x="1264.306641"/>
     <use xlink:href="#DejaVuSansMono-Bold-4d" x="1324.511719"/>
     <use xlink:href="#DejaVuSansMono-Bold-29" x="1384.716797"/>
    </g>
    <!-- (20,934 votes) -->
    <g transform="translate(402.010167 130.314896) scale(0.1 -0.1)">
     <defs>
      <path id="DejaVuSansMono-Bold-2c" d="M 1441 1147 
L 2419 1147 
L 2419 300 
L 1806 -897 
L 1131 -897 
L 1441 300 
L 1441 1147 
z
" transform="scale(0.015625)"/>
      <path id="DejaVuSansMono-Bold-33" d="M 1716 2088 
L 1222 2088 
L 1222 2900 
L 1716 2900 
Q 2059 2900 2248 3036 
Q 2438 3172 2438 3419 
Q 2438 3678 2248 3823 
Q 2059 3969 1716 3969 
Q 1453 3969 1153 3903 
Q 853 3838 531 3713 
L 531 4550 
Q 853 4647 1165 4698 
Q 1478 4750 1766 4750 
Q 2503 4750 2915 4428 
Q 3328 4106 3328 3541 
Q 3328 3125 3090 2861 
Q 2853 2597 2413 2516 
Q 2913 2428 3175 2117 
Q 3438 1806 3438 1300 
Q 3438 622 3003 265 
Q 2569 -91 1741 -91 
Q 1388 -91 1045 -31 
Q 703 28 391 141 
L 391 997 
Q 684 850 1025 773 
Q 1366 697 1741 697 
Q 2116 697 2334 870 
Q 2553 1044 2553 1338 
Q 2553 1697 2334 1892 
Q 2116 2088 1716 2088 
z
" transform="scale(0.015625)"/>
      <path id="DejaVuSansMono-Bold-76" d="M 3603 3500 
L 2491 0 
L 1363 0 
L 250 3500 
L 1178 3500 
L 1925 769 
L 2675 3500 
L 3603 3500 
z
" transform="scale(0.015625)"/>
      <path id="DejaVuSansMono-Bold-6f" d="M 1925 2841 
Q 1597 2841 1409 2552 
Q 1222 2263 1222 1747 
Q 1222 1231 1409 942 
Q 1597 653 1925 653 
Q 2256 653 2443 942 
Q 2631 1231 2631 1747 
Q 2631 2263 2443 2552 
Q 2256 2841 1925 2841 
z
M 306 1747 
Q 306 2594 745 3089 
Q 1184 3584 1925 3584 
Q 2669 3584 3108 3089 
Q 3547 2594 3547 1747 
Q 3547 900 3108 404 
Q 2669 -91 1925 -91 
Q 1184 -91 745 404 
Q 306 900 306 1747 
z
" transform="scale(0.015625)"/>
     </defs>
     <use xlink:href="#DejaVuSansMono-Bold-28"/>
     <use xlink:href="#DejaVuSansMono-Bold-32" x="60.205078"/>
     <use xlink:href="#DejaVuSansMono-Bold-30" x="120.410156"/>
     <use xlink:href="#DejaVuSansMono-Bold-2c" x="180.615234"/>
     <use xlink:href="#DejaVuSansMono-Bold-39" x="240.820312"/>
     <use xlink:href="#DejaVuSansMono-Bold-33" x="301.025391"/>
     <use xlink:href="#DejaVuSansMono-Bold-34" x="361.230469"/>
     <use xlink:href="#DejaVuSansMono-Bold-20" x="421.435547"/>
     <use xlink:href="#DejaVuSansMono-Bold-76" x="481.640625"/>
     <use xlink:href="#DejaVuSansMono-Bold-6f" x="541.845703"/>
     <use xlink:href="#DejaVuSansMono-Bold-74" x="602.050781"/>
     <use xlink:href="#DejaVuSansMono-Bold-65" x="662.255859"/>
     <use xlink:href="#DejaVuSansMono-Bold-73" x="722.460938"/>
     <use xlink:href="#DejaVuSansMono-Bold-29" x="782.666016"/>
    </g>
   </g>
   <g id="text_4">
    <!-- Dawa Khan Sabir (PTI) -->
    <g transform="translate(11.770364 492.294229) scale(0.1 -0.1)">
     <defs>
      <path id="DejaVuSansMono-Bold-44" d="M 1350 3834 
L 1350 831 
L 1600 831 
Q 2144 831 2375 1173 
Q 2606 1516 2606 2338 
Q 2606 3153 2375 3493 
Q 2144 3834 1600 3834 
L 1350 3834 
z
M 428 4666 
L 1416 4666 
Q 2559 4666 3062 4120 
Q 3566 3575 3566 2338 
Q 3566 1097 3062 548 
Q 2559 0 1416 0 
L 428 0 
L 428 4666 
z
" transform="scale(0.015625)"/>
      <path id="DejaVuSansMono-Bold-77" d="M 0 3500 
L 763 3500 
L 1178 819 
L 1556 2584 
L 2297 2584 
L 2669 819 
L 3091 3500 
L 3853 3500 
L 3219 0 
L 2350 0 
L 1925 1819 
L 1503 0 
L 634 0 
L 0 3500 
z
" transform="scale(0.015625)"/>
      <path id="DejaVuSansMono-Bold-68" d="M 3347 2272 
L 3347 0 
L 2438 0 
L 2438 2131 
Q 2438 2509 2330 2671 
Q 2222 2834 1978 2834 
Q 1728 2834 1587 2614 
Q 1447 2394 1447 2003 
L 1447 0 
L 538 0 
L 538 4863 
L 1447 4863 
L 1447 2975 
Q 1544 3266 1778 3425 
Q 2013 3584 2344 3584 
Q 2841 3584 3094 3254 
Q 3347 2925 3347 2272 
z
" transform="scale(0.015625)"/>
      <path id="DejaVuSansMono-Bold-6e" d="M 3347 2272 
L 3347 0 
L 2438 0 
L 2438 2131 
Q 2438 2513 2330 2677 
Q 2222 2841 1978 2841 
Q 1731 2841 1589 2619 
Q 1447 2397 1447 2003 
L 1447 0 
L 538 0 
L 538 3500 
L 1447 3500 
L 1447 2975 
Q 1544 3266 1778 3425 
Q 2013 3584 2344 3584 
Q 2841 3584 3094 3254 
Q 3347 2925 3347 2272 
z
" transform="scale(0.015625)"/>
      <path id="DejaVuSansMono-Bold-62" d="M 2656 1741 
Q 2656 2247 2487 2534 
Q 2319 2822 2022 2822 
Q 1725 2822 1553 2534 
Q 1381 2247 1381 1741 
Q 1381 1234 1553 946 
Q 1725 659 2022 659 
Q 2319 659 2487 946 
Q 2656 1234 2656 1741 
z
M 1381 3003 
Q 1550 3294 1773 3439 
Q 1997 3584 2278 3584 
Q 2900 3584 3236 3109 
Q 3572 2634 3572 1747 
Q 3572 872 3240 390 
Q 2909 -91 2309 -91 
Q 1994 -91 1759 62 
Q 1525 216 1381 519 
L 1381 0 
L 469 0 
L 469 4863 
L 1381 4863 
L 1381 3003 
z
" transform="scale(0.015625)"/>
      <path id="DejaVuSansMono-Bold-69" d="M 691 3500 
L 2503 3500 
L 2503 703 
L 3641 703 
L 3641 0 
L 447 0 
L 447 703 
L 1588 703 
L 1588 2797 
L 691 2797 
L 691 3500 
z
M 1588 5203 
L 2503 5203 
L 2503 4134 
L 1588 4134 
L 1588 5203 
z
" transform="scale(0.015625)"/>
      <path id="DejaVuSansMono-Bold-72" d="M 3597 2534 
Q 3447 2672 3245 2740 
Q 3044 2809 2803 2809 
Q 2513 2809 2295 2707 
Q 2078 2606 1959 2413 
Q 1884 2294 1854 2125 
Q 1825 1956 1825 1613 
L 1825 0 
L 909 0 
L 909 3500 
L 1825 3500 
L 1825 2956 
Q 1959 3256 2237 3420 
Q 2516 3584 2888 3584 
Q 3075 3584 3254 3539 
Q 3434 3494 3597 3406 
L 3597 2534 
z
" transform="scale(0.015625)"/>
      <path id="DejaVuSansMono-Bold-50" d="M 1428 3891 
L 1428 2522 
L 1806 2522 
Q 2259 2522 2442 2675 
Q 2625 2828 2625 3206 
Q 2625 3584 2442 3737 
Q 2259 3891 1806 3891 
L 1428 3891 
z
M 506 4666 
L 1772 4666 
Q 2738 4666 3161 4322 
Q 3584 3978 3584 3206 
Q 3584 2434 3161 2090 
Q 2738 1747 1772 1747 
L 1428 1747 
L 1428 0 
L 506 0 
L 506 4666 
z
" transform="scale(0.015625)"/>
      <path id="DejaVuSansMono-Bold-54" d="M 2388 0 
L 1466 0 
L 1466 3859 
L 281 3859 
L 281 4666 
L 3572 4666 
L 3572 3859 
L 2388 3859 
L 2388 0 
z
" transform="scale(0.015625)"/>
      <path id="DejaVuSansMono-Bold-49" d="M 538 3853 
L 538 4666 
L 3316 4666 
L 3316 3853 
L 2388 3853 
L 2388 813 
L 3316 813 
L 3316 0 
L 538 0 
L 538 813 
L 1466 813 
L 1466 3853 
L 538 3853 
z
" transform="scale(0.015625)"/>
     </defs>
     <use xlink:href="#DejaVuSansMono-Bold-44"/>
     <use xlink:href="#DejaVuSansMono-Bold-61" x="60.205078"/>
     <use xlink:href="#DejaVuSansMono-Bold-77" x="120.410156"/>
     <use xlink:href="#DejaVuSansMono-Bold-61" x="180.615234"/>
     <use xlink:href="#DejaVuSansMono-Bold-20" x="240.820312"/>
     <use xlink:href="#DejaVuSansMono-Bold-4b" x="301.025391"/>
     <use xlink:href="#DejaVuSansMono-Bold-68" x="361.230469"/>
     <use xlink:href="#DejaVuSansMono-Bold-61" x="421.435547"/>
     <use xlink:href="#DejaVuSansMono-Bold-6e" x="481.640625"/>
     <use xlink:href="#DejaVuSansMono-Bold-20" x="541.845703"/>
     <use xlink:href="#DejaVuSansMono-Bold-53" x="602.050781"/>
     <use xlink:href="#DejaVuSansMono-Bold-61" x="662.255859"/>
     <use xlink:href="#DejaVuSansMono-Bold-62" x="722.460938"/>
     <use xlink:href="#DejaVuSansMono-Bold-69" x="782.666016"/>
     <use xlink:href="#DejaVuSansMono-Bold-72" x="842.871094"/>
     <use xlink:href="#DejaVuSansMono-Bold-20" x="903.076172"/>
     <use xlink:href="#DejaVuSansMono-Bold-28" x="963.28125"/>
     <use xlink:href="#DejaVuSansMono-Bold-50" x="1023.486328"/>
     <use xlink:href="#DejaVuSansMono-Bold-54" x="1083.691406"/>
     <use xlink:href="#DejaVuSansMono-Bold-49" x="1143.896484"/>
     <use xlink:href="#DejaVuSansMono-Bold-29" x="1204.101562"/>
    </g>
    <!-- (49,750 votes) -->
    <g transform="translate(32.841458 503.492041) scale(0.1 -0.1)">
     <defs>
      <path id="DejaVuSansMono-Bold-35" d="M 603 4666 
L 3138 4666 
L 3138 3853 
L 1350 3853 
L 1350 2988 
Q 1463 3031 1591 3051 
Q 1719 3072 1863 3072 
Q 2556 3072 2987 2634 
Q 3419 2197 3419 1497 
Q 3419 763 2951 336 
Q 2484 -91 1678 -91 
Q 1378 -91 1072 -41 
Q 766 9 447 109 
L 447 941 
Q 706 813 979 748 
Q 1253 684 1528 684 
Q 2016 684 2269 892 
Q 2522 1100 2522 1497 
Q 2522 1863 2270 2083 
Q 2019 2303 1600 2303 
Q 1353 2303 1104 2242 
Q 856 2181 603 2059 
L 603 4666 
z
" transform="scale(0.015625)"/>
     </defs>
     <use xlink:href="#DejaVuSansMono-Bold-28"/>
     <use xlink:href="#DejaVuSansMono-Bold-34" x="60.205078"/>
     <use xlink:href="#DejaVuSansMono-Bold-39" x="120.410156"/>
     <use xlink:href="#DejaVuSansMono-Bold-2c" x="180.615234"/>
     <use xlink:href="#DejaVuSansMono-Bold-37" x="240.820312"/>
     <use xlink:href="#DejaVuSansMono-Bold-35" x="301.025391"/>
     <use xlink:href="#DejaVuSansMono-Bold-30" x="361.230469"/>
     <use xlink:href="#DejaVuSansMono-Bold-20" x="421.435547"/>
     <use xlink:href="#DejaVuSansMono-Bold-76" x="481.640625"/>
     <use xlink:href="#DejaVuSansMono-Bold-6f" x="541.845703"/>
     <use xlink:href="#DejaVuSansMono-Bold-74" x="602.050781"/>
     <use xlink:href="#DejaVuSansMono-Bold-65" x="662.255859"/>
     <use xlink:href="#DejaVuSansMono-Bold-73" x="722.460938"/>
     <use xlink:href="#DejaVuSansMono-Bold-29" x="782.666016"/>
    </g>
   </g>
   <g id="text_5">
    <!-- Total votes received by candidates in NA-242 -->
    <g transform="translate(60.897687 19.380469) scale(0.15 -0.15)">
     <defs>
      <path id="DejaVuSansMono-Bold-63" d="M 3316 178 
Q 3084 44 2818 -23 
Q 2553 -91 2247 -91 
Q 1438 -91 981 396 
Q 525 884 525 1747 
Q 525 2613 984 3102 
Q 1444 3591 2253 3591 
Q 2534 3591 2795 3525 
Q 3056 3459 3316 3322 
L 3316 2484 
Q 3116 2656 2877 2748 
Q 2638 2841 2381 2841 
Q 1934 2841 1693 2556 
Q 1453 2272 1453 1747 
Q 1453 1222 1693 940 
Q 1934 659 2381 659 
Q 2647 659 2878 748 
Q 3109 838 3316 1019 
L 3316 178 
z
" transform="scale(0.015625)"/>
      <path id="DejaVuSansMono-Bold-4e" d="M 372 4666 
L 1363 4666 
L 2663 1275 
L 2663 4666 
L 3475 4666 
L 3475 0 
L 2491 0 
L 1184 3391 
L 1184 0 
L 372 0 
L 372 4666 
z
" transform="scale(0.015625)"/>
      <path id="DejaVuSansMono-Bold-41" d="M 1925 3822 
L 1491 1913 
L 2363 1913 
L 1925 3822 
z
M 1363 4666 
L 2491 4666 
L 3750 0 
L 2828 0 
L 2541 1153 
L 1306 1153 
L 1025 0 
L 103 0 
L 1363 4666 
z
" transform="scale(0.015625)"/>
      <path id="DejaVuSansMono-Bold-2d" d="M 941 2297 
L 2913 2297 
L 2913 1388 
L 941 1388 
L 941 2297 
z
" transform="scale(0.015625)"/>
     </defs>
     <use xlink:href="#DejaVuSansMono-Bold-54"/>
     <use xlink:href="#DejaVuSansMono-Bold-6f" x="60.205078"/>
     <use xlink:href="#DejaVuSansMono-Bold-74" x="120.410156"/>
     <use xlink:href="#DejaVuSansMono-Bold-61" x="180.615234"/>
     <use xlink:href="#DejaVuSansMono-Bold-6c" x="240.820312"/>
     <use xlink:href="#DejaVuSansMono-Bold-20" x="301.025391"/>
     <use xlink:href="#DejaVuSansMono-Bold-76" x="361.230469"/>
     <use xlink:href="#DejaVuSansMono-Bold-6f" x="421.435547"/>
     <use xlink:href="#DejaVuSansMono-Bold-74" x="481.640625"/>
     <use xlink:href="#DejaVuSansMono-Bold-65" x="541.845703"/>
     <use xlink:href="#DejaVuSansMono-Bold-73" x="602.050781"/>
     <use xlink:href="#DejaVuSansMono-Bold-20" x="662.255859"/>
     <use xlink:href="#DejaVuSansMono-Bold-72" x="722.460938"/>
     <use xlink:href="#DejaVuSansMono-Bold-65" x="782.666016"/>
     <use xlink:href="#DejaVuSansMono-Bold-63" x="842.871094"/>
     <use xlink:href="#DejaVuSansMono-Bold-65" x="903.076172"/>
     <use xlink:href="#DejaVuSansMono-Bold-69" x="963.28125"/>
     <use xlink:href="#DejaVuSansMono-Bold-76" x="1023.486328"/>
     <use xlink:href="#DejaVuSansMono-Bold-65" x="1083.691406"/>
     <use xlink:href="#DejaVuSansMono-Bold-64" x="1143.896484"/>
     <use xlink:href="#DejaVuSansMono-Bold-20" x="1204.101562"/>
     <use xlink:href="#DejaVuSansMono-Bold-62" x="1264.306641"/>
     <use xlink:href="#DejaVuSansMono-Bold-79" x="1324.511719"/>
     <use xlink:href="#DejaVuSansMono-Bold-20" x="1384.716797"/>
     <use xlink:href="#DejaVuSansMono-Bold-63" x="1444.921875"/>
     <use xlink:href="#DejaVuSansMono-Bold-61" x="1505.126953"/>
     <use xlink:href="#DejaVuSansMono-Bold-6e" x="1565.332031"/>
     <use xlink:href="#DejaVuSansMono-Bold-64" x="1625.537109"/>
     <use xlink:href="#DejaVuSansMono-Bold-69" x="1685.742188"/>
     <use xlink:href="#DejaVuSansMono-Bold-64" x="1745.947266"/>
     <use xlink:href="#DejaVuSansMono-Bold-61" x="1806.152344"/>
     <use xlink:href="#DejaVuSansMono-Bold-74" x="1866.357422"/>
     <use xlink:href="#DejaVuSansMono-Bold-65" x="1926.5625"/>
     <use xlink:href="#DejaVuSansMono-Bold-73" x="1986.767578"/>
     <use xlink:href="#DejaVuSansMono-Bold-20" x="2046.972656"/>
     <use xlink:href="#DejaVuSansMono-Bold-69" x="2107.177734"/>
     <use xlink:href="#DejaVuSansMono-Bold-6e" x="2167.382812"/>
     <use xlink:href="#DejaVuSansMono-Bold-20" x="2227.587891"/>
     <use xlink:href="#DejaVuSansMono-Bold-4e" x="2287.792969"/>
     <use xlink:href="#DejaVuSansMono-Bold-41" x="2347.998047"/>
     <use xlink:href="#DejaVuSansMono-Bold-2d" x="2408.203125"/>
     <use xlink:href="#DejaVuSansMono-Bold-32" x="2468.408203"/>
     <use xlink:href="#DejaVuSansMono-Bold-34" x="2528.613281"/>
     <use xlink:href="#DejaVuSansMono-Bold-32" x="2588.818359"/>
    </g>
    <!-- (Source: ECP Form-45s) -->
    <g transform="translate(160.232844 36.177187) scale(0.15 -0.15)">
     <defs>
      <path id="DejaVuSansMono-Bold-3a" d="M 1403 3322 
L 2444 3322 
L 2444 2181 
L 1403 2181 
L 1403 3322 
z
M 1403 1147 
L 2444 1147 
L 2444 0 
L 1403 0 
L 1403 1147 
z
" transform="scale(0.015625)"/>
      <path id="DejaVuSansMono-Bold-45" d="M 3431 0 
L 525 0 
L 525 4666 
L 3431 4666 
L 3431 3853 
L 1447 3853 
L 1447 2847 
L 3244 2847 
L 3244 2034 
L 1447 2034 
L 1447 813 
L 3431 813 
L 3431 0 
z
" transform="scale(0.015625)"/>
      <path id="DejaVuSansMono-Bold-43" d="M 3378 134 
Q 3159 22 2918 -34 
Q 2678 -91 2413 -91 
Q 1469 -91 972 531 
Q 475 1153 475 2328 
Q 475 3506 972 4128 
Q 1469 4750 2413 4750 
Q 2678 4750 2922 4694 
Q 3166 4638 3378 4525 
L 3378 3500 
Q 3141 3719 2917 3820 
Q 2694 3922 2456 3922 
Q 1950 3922 1692 3520 
Q 1434 3119 1434 2328 
Q 1434 1541 1692 1139 
Q 1950 738 2456 738 
Q 2694 738 2917 839 
Q 3141 941 3378 1159 
L 3378 134 
z
" transform="scale(0.015625)"/>
      <path id="DejaVuSansMono-Bold-46" d="M 3475 3853 
L 1491 3853 
L 1491 2847 
L 3297 2847 
L 3297 2034 
L 1491 2034 
L 1491 0 
L 569 0 
L 569 4666 
L 3475 4666 
L 3475 3853 
z
" transform="scale(0.015625)"/>
     </defs>
     <use xlink:href="#DejaVuSansMono-Bold-28"/>
     <use xlink:href="#DejaVuSansMono-Bold-53" x="60.205078"/>
     <use xlink:href="#DejaVuSansMono-Bold-6f" x="120.410156"/>
     <use xlink:href="#DejaVuSansMono-Bold-75" x="180.615234"/>
     <use xlink:href="#DejaVuSansMono-Bold-72" x="240.820312"/>
     <use xlink:href="#DejaVuSansMono-Bold-63" x="301.025391"/>
     <use xlink:href="#DejaVuSansMono-Bold-65" x="361.230469"/>
     <use xlink:href="#DejaVuSansMono-Bold-3a" x="421.435547"/>
     <use xlink:href="#DejaVuSansMono-Bold-20" x="481.640625"/>
     <use xlink:href="#DejaVuSansMono-Bold-45" x="541.845703"/>
     <use xlink:href="#DejaVuSansMono-Bold-43" x="602.050781"/>
     <use xlink:href="#DejaVuSansMono-Bold-50" x="662.255859"/>
     <use xlink:href="#DejaVuSansMono-Bold-20" x="722.460938"/>
     <use xlink:href="#DejaVuSansMono-Bold-46" x="782.666016"/>
     <use xlink:href="#DejaVuSansMono-Bold-6f" x="842.871094"/>
     <use xlink:href="#DejaVuSansMono-Bold-72" x="903.076172"/>
     <use xlink:href="#DejaVuSansMono-Bold-6d" x="963.28125"/>
     <use xlink:href="#DejaVuSansMono-Bold-2d" x="1023.486328"/>
     <use xlink:href="#DejaVuSansMono-Bold-34" x="1083.691406"/>
     <use xlink:href="#DejaVuSansMono-Bold-35" x="1143.896484"/>
     <use xlink:href="#DejaVuSansMono-Bold-73" x="1204.101562"/>
     <use xlink:href="#DejaVuSansMono-Bold-29" x="1264.306641"/>
    </g>
   </g>
  </g>
 </g>
</svg>
